<svg width="166" height="173" viewBox="0 0 166 173" fill="none" xmlns="http://www.w3.org/2000/svg">
<g filter="url(#filter0_d_279_3914)">
<rect x="19.454" y="16.1138" width="126.403" height="133.136" rx="22.9739" fill="url(#paint0_linear_279_3914)" stroke="url(#paint1_linear_279_3914)" stroke-width="3.36574"/>
<rect x="26.3084" y="22.9684" width="112.694" height="112.694" rx="17.1469" fill="url(#paint2_linear_279_3914)" stroke="url(#paint3_linear_279_3914)" stroke-width="0.87933"/>
<path d="M54.352 147.534H110.959C111.476 142.099 114.248 139.439 122.71 135.244H42.6013C50.271 138.943 52.8113 141.69 54.352 147.534Z" fill="url(#paint4_linear_279_3914)"/>
<ellipse cx="33.1037" cy="27.0824" rx="1.8504" ry="3.98654" transform="rotate(52.9582 33.1037 27.0824)" fill="#D2FE8A"/>
<ellipse cx="33.1037" cy="27.0825" rx="1.03799" ry="2.23626" transform="rotate(52.9582 33.1037 27.0825)" fill="#E7FEA7"/>
<ellipse rx="1.8504" ry="3.98654" transform="matrix(-0.602397 0.798197 0.798197 0.602397 132.671 27.0824)" fill="#D2FE8A"/>
<ellipse rx="1.03799" ry="2.23626" transform="matrix(-0.602397 0.798197 0.798197 0.602397 132.67 27.0825)" fill="#E7FEA7"/>
<g filter="url(#filter1_d_279_3914)">
<path d="M64.2055 95.1981C60.8271 95.1981 58.0792 93.9773 56.0186 91.5536C53.9581 89.13 52.6058 85.5334 51.8183 80.3006C50.6588 72.5889 51.8094 66.089 55.0578 61.9993C56.9704 59.5906 59.4808 58.1979 62.3168 57.9738C64.7449 57.7795 68.3744 58.7642 71.8799 64.5484C74.0749 68.1704 75.744 72.9819 76.4597 77.7484C77.3249 83.5027 76.6808 87.7389 74.4903 90.696C72.751 93.0449 70.0763 94.5003 66.5395 95.0292C65.7667 95.1427 64.9866 95.1992 64.2055 95.1981ZM70.0584 115.33C68.0845 115.33 66.0838 114.698 64.2817 113.483C61.6814 111.721 59.8814 109.004 59.2731 105.922C58.8472 103.732 59.1027 101.991 60.053 100.597C61.5966 98.333 64.3669 97.8234 67.2986 97.2825C67.6079 97.2257 67.9217 97.169 68.2399 97.1077C68.9153 96.9792 69.6057 96.8089 70.2751 96.643C72.7824 96.0244 75.3764 95.3834 77.5176 96.9045C78.9506 97.9206 79.759 99.6479 80.001 102.182C80.276 105.106 79.6484 108.025 78.2334 110.4C76.7107 112.957 74.4275 114.647 71.8082 115.161C71.2317 115.274 70.6457 115.33 70.0584 115.33ZM100.716 80.8535C99.9352 80.8508 99.1561 80.7909 98.3845 80.6742C94.8492 80.1512 92.1745 78.6943 90.4352 76.3409C88.2447 73.3838 87.5962 69.1491 88.4658 63.3934C89.1816 58.6223 90.8461 53.8153 93.0307 50.2068C96.5182 44.4435 100.152 43.4439 102.594 43.6202C105.421 43.8264 107.927 45.1996 109.842 47.5949C113.113 51.6846 114.273 58.2039 113.109 65.95C112.321 71.1798 110.987 74.7585 108.908 77.2031C106.83 79.6476 104.094 80.8535 100.716 80.8535ZM94.8626 100.985C94.2768 100.985 93.6924 100.929 93.1174 100.816C90.4935 100.302 88.2103 98.6124 86.6922 96.0558C85.2772 93.6799 84.6496 90.7617 84.9245 87.8375C85.1636 85.2973 85.9705 83.5759 87.4079 82.5584C89.5492 81.0387 92.1431 81.6783 94.6505 82.2984C95.3199 82.4627 96.0102 82.6331 96.6856 82.7631L97.6255 82.9379C100.559 83.4773 103.329 83.9839 104.872 86.2506C105.823 87.6447 106.078 89.3885 105.652 91.5761C105.045 94.6583 103.245 97.3761 100.644 99.1384C98.8313 100.355 96.8305 100.985 94.8626 100.985Z" fill="#DBFF8E" shape-rendering="crispEdges"/>
<path d="M64.2055 95.1981C60.8271 95.1981 58.0792 93.9773 56.0186 91.5536C53.9581 89.13 52.6058 85.5334 51.8183 80.3006C50.6588 72.5889 51.8094 66.089 55.0578 61.9993C56.9704 59.5906 59.4808 58.1979 62.3168 57.9738C64.7449 57.7795 68.3744 58.7642 71.8799 64.5484C74.0749 68.1704 75.744 72.9819 76.4597 77.7484C77.3249 83.5027 76.6808 87.7389 74.4903 90.696C72.751 93.0449 70.0763 94.5003 66.5395 95.0292C65.7667 95.1427 64.9866 95.1992 64.2055 95.1981ZM70.0584 115.33C68.0845 115.33 66.0838 114.698 64.2817 113.483C61.6814 111.721 59.8814 109.004 59.2731 105.922C58.8472 103.732 59.1027 101.991 60.053 100.597C61.5966 98.333 64.3669 97.8234 67.2986 97.2825C67.6079 97.2257 67.9217 97.169 68.2399 97.1077C68.9153 96.9792 69.6057 96.8089 70.2751 96.643C72.7824 96.0244 75.3764 95.3834 77.5176 96.9045C78.9506 97.9206 79.759 99.6479 80.001 102.182C80.276 105.106 79.6484 108.025 78.2334 110.4C76.7107 112.957 74.4275 114.647 71.8082 115.161C71.2317 115.274 70.6457 115.33 70.0584 115.33ZM100.716 80.8535C99.9352 80.8508 99.1561 80.7909 98.3845 80.6742C94.8492 80.1512 92.1745 78.6943 90.4352 76.3409C88.2447 73.3838 87.5962 69.1491 88.4658 63.3934C89.1816 58.6223 90.8461 53.8153 93.0307 50.2068C96.5182 44.4435 100.152 43.4439 102.594 43.6202C105.421 43.8264 107.927 45.1996 109.842 47.5949C113.113 51.6846 114.273 58.2039 113.109 65.95C112.321 71.1798 110.987 74.7585 108.908 77.2031C106.83 79.6476 104.094 80.8535 100.716 80.8535ZM94.8626 100.985C94.2768 100.985 93.6924 100.929 93.1174 100.816C90.4935 100.302 88.2103 98.6124 86.6922 96.0558C85.2772 93.6799 84.6496 90.7617 84.9245 87.8375C85.1636 85.2973 85.9705 83.5759 87.4079 82.5584C89.5492 81.0387 92.1431 81.6783 94.6505 82.2984C95.3199 82.4627 96.0102 82.6331 96.6856 82.7631L97.6255 82.9379C100.559 83.4773 103.329 83.9839 104.872 86.2506C105.823 87.6447 106.078 89.3885 105.652 91.5761C105.045 94.6583 103.245 97.3761 100.644 99.1384C98.8313 100.355 96.8305 100.985 94.8626 100.985Z" stroke="#F5FFB9" stroke-opacity="0.74" stroke-width="1.95634" shape-rendering="crispEdges"/>
</g>
</g>
<defs>
<filter id="filter0_d_279_3914" x="0.184509" y="0.361621" width="164.942" height="171.675" filterUnits="userSpaceOnUse" color-interpolation-filters="sRGB">
<feFlood flood-opacity="0" result="BackgroundImageFix"/>
<feColorMatrix in="SourceAlpha" type="matrix" values="0 0 0 0 0 0 0 0 0 0 0 0 0 0 0 0 0 0 127 0" result="hardAlpha"/>
<feOffset dy="3.51732"/>
<feGaussianBlur stdDeviation="8.7933"/>
<feComposite in2="hardAlpha" operator="out"/>
<feColorMatrix type="matrix" values="0 0 0 0 0 0 0 0 0 0 0 0 0 0 0 0 0 0 0.79 0"/>
<feBlend mode="normal" in2="BackgroundImageFix" result="effect1_dropShadow_279_3914"/>
<feBlend mode="normal" in="SourceGraphic" in2="effect1_dropShadow_279_3914" result="shape"/>
</filter>
<filter id="filter1_d_279_3914" x="43.8795" y="36.1024" width="77.1688" height="86.7267" filterUnits="userSpaceOnUse" color-interpolation-filters="sRGB">
<feFlood flood-opacity="0" result="BackgroundImageFix"/>
<feColorMatrix in="SourceAlpha" type="matrix" values="0 0 0 0 0 0 0 0 0 0 0 0 0 0 0 0 0 0 127 0" result="hardAlpha"/>
<feOffset/>
<feGaussianBlur stdDeviation="3.26056"/>
<feComposite in2="hardAlpha" operator="out"/>
<feColorMatrix type="matrix" values="0 0 0 0 0.890583 0 0 0 0 1 0 0 0 0 0.579167 0 0 0 0.82 0"/>
<feBlend mode="normal" in2="BackgroundImageFix" result="effect1_dropShadow_279_3914"/>
<feBlend mode="normal" in="SourceGraphic" in2="effect1_dropShadow_279_3914" result="shape"/>
</filter>
<linearGradient id="paint0_linear_279_3914" x1="82.6555" y1="14.4309" x2="82.6555" y2="150.933" gradientUnits="userSpaceOnUse">
<stop stop-color="#CDFF64"/>
<stop offset="1" stop-color="#426A00"/>
</linearGradient>
<linearGradient id="paint1_linear_279_3914" x1="82.6555" y1="14.4309" x2="82.6555" y2="150.933" gradientUnits="userSpaceOnUse">
<stop stop-color="#EAFFAE"/>
<stop offset="0.505208" stop-color="#B0EE01"/>
<stop offset="0.859375" stop-color="#5F8C00"/>
<stop offset="1" stop-color="#2C8A00"/>
</linearGradient>
<linearGradient id="paint2_linear_279_3914" x1="82.6554" y1="22.5287" x2="82.6554" y2="136.102" gradientUnits="userSpaceOnUse">
<stop stop-color="#C8FF53"/>
<stop offset="0.171875" stop-color="#BED626"/>
<stop offset="0.455871" stop-color="#529300"/>
<stop offset="0.838542" stop-color="#336500"/>
<stop offset="1" stop-color="#1E5C00"/>
</linearGradient>
<linearGradient id="paint3_linear_279_3914" x1="82.6554" y1="22.5287" x2="82.6554" y2="77.6037" gradientUnits="userSpaceOnUse">
<stop stop-color="white" stop-opacity="0.22"/>
<stop offset="1" stop-color="#52FF00" stop-opacity="0.2"/>
</linearGradient>
<linearGradient id="paint4_linear_279_3914" x1="82.6555" y1="147.534" x2="82.6555" y2="136.868" gradientUnits="userSpaceOnUse">
<stop stop-color="#4A8500" stop-opacity="0"/>
<stop offset="1" stop-color="#2A3800"/>
</linearGradient>
</defs>
</svg>
