<svg width="131" height="137" viewBox="0 0 131 137" fill="none" xmlns="http://www.w3.org/2000/svg">
<rect x="2.25636" y="2.11378" width="126.403" height="133.136" rx="22.9739" fill="url(#paint0_linear_279_3913)" stroke="url(#paint1_linear_279_3913)" stroke-width="3.36574"/>
<rect x="9.11093" y="8.96835" width="112.694" height="112.694" rx="17.1469" fill="url(#paint2_linear_279_3913)" stroke="url(#paint3_linear_279_3913)" stroke-width="0.87933"/>
<g filter="url(#filter0_d_279_3913)">
<path d="M47.1994 81.0478C43.821 81.0478 41.0731 79.827 39.0125 77.4034C36.952 74.9797 35.5997 71.3831 34.8122 66.1503C33.6527 58.4386 34.8033 51.9387 38.0517 47.849C39.9643 45.4403 42.4747 44.0477 45.3107 43.8235C47.7388 43.6293 51.3683 44.614 54.8738 50.3981C57.0688 54.0202 58.7379 58.8316 59.4536 63.5982C60.3188 69.3525 59.6747 73.5886 57.4842 76.5457C55.7449 78.8946 53.0702 80.35 49.5334 80.879C48.7606 80.9925 47.9805 81.0489 47.1994 81.0478ZM53.0523 101.18C51.0784 101.18 49.0777 100.548 47.2756 99.3327C44.6752 97.5706 42.8753 94.8536 42.267 91.7719C41.8411 89.5814 42.0966 87.8406 43.0469 86.4465C44.5905 84.1827 47.3608 83.6732 50.2925 83.1323C50.6018 83.0755 50.9156 83.0187 51.2338 82.9574C51.9092 82.8289 52.5996 82.6586 53.269 82.4927C55.7763 81.8741 58.3703 81.2331 60.5115 82.7542C61.9445 83.7703 62.7529 85.4976 62.9949 88.0318C63.2699 90.9561 62.6423 93.8743 61.2272 96.2501C59.7046 98.8067 57.4214 100.497 54.8021 101.011C54.2256 101.123 53.6396 101.18 53.0523 101.18ZM83.7094 66.7032C82.9291 66.7006 82.15 66.6406 81.3784 66.5239C77.8431 66.0009 75.1684 64.544 73.4291 62.1906C71.2386 59.2335 70.5901 54.9989 71.4597 49.2431C72.1755 44.472 73.84 39.6651 76.0246 36.0565C79.5121 30.2933 83.1461 29.2936 85.5877 29.4699C88.4148 29.6761 90.9206 31.0493 92.8362 33.4446C96.1071 37.5343 97.2666 44.0536 96.1026 51.7997C95.3151 57.0295 93.9808 60.6082 91.9023 63.0528C89.8238 65.4973 87.0879 66.7032 83.7094 66.7032ZM77.8565 86.835C77.2707 86.8349 76.6863 86.7784 76.1113 86.6661C73.4874 86.1521 71.2042 84.4621 69.6861 81.9055C68.2711 79.5297 67.6435 76.6114 67.9184 73.6872C68.1575 71.147 68.9644 69.4257 70.4018 68.4081C72.5431 66.8885 75.137 67.528 77.6444 68.1481C78.3138 68.3125 79.0041 68.4828 79.6795 68.6128L80.6194 68.7876C83.5525 69.3271 86.3228 69.8336 87.8664 72.1004C88.8167 73.4945 89.0722 75.2382 88.6464 77.4258C88.0385 80.5081 86.2385 83.2258 83.6377 84.9881C81.8252 86.2044 79.8244 86.835 77.8565 86.835Z" fill="#FFA38E" shape-rendering="crispEdges"/>
<path d="M47.1994 81.0478C43.821 81.0478 41.0731 79.827 39.0125 77.4034C36.952 74.9797 35.5997 71.3831 34.8122 66.1503C33.6527 58.4386 34.8033 51.9387 38.0517 47.849C39.9643 45.4403 42.4747 44.0477 45.3107 43.8235C47.7388 43.6293 51.3683 44.614 54.8738 50.3981C57.0688 54.0202 58.7379 58.8316 59.4536 63.5982C60.3188 69.3525 59.6747 73.5886 57.4842 76.5457C55.7449 78.8946 53.0702 80.35 49.5334 80.879C48.7606 80.9925 47.9805 81.0489 47.1994 81.0478ZM53.0523 101.18C51.0784 101.18 49.0777 100.548 47.2756 99.3327C44.6752 97.5706 42.8753 94.8536 42.267 91.7719C41.8411 89.5814 42.0966 87.8406 43.0469 86.4465C44.5905 84.1827 47.3608 83.6732 50.2925 83.1323C50.6018 83.0755 50.9156 83.0187 51.2338 82.9574C51.9092 82.8289 52.5996 82.6586 53.269 82.4927C55.7763 81.8741 58.3703 81.2331 60.5115 82.7542C61.9445 83.7703 62.7529 85.4976 62.9949 88.0318C63.2699 90.9561 62.6423 93.8743 61.2272 96.2501C59.7046 98.8067 57.4214 100.497 54.8021 101.011C54.2256 101.123 53.6396 101.18 53.0523 101.18ZM83.7094 66.7032C82.9291 66.7006 82.15 66.6406 81.3784 66.5239C77.8431 66.0009 75.1684 64.544 73.4291 62.1906C71.2386 59.2335 70.5901 54.9989 71.4597 49.2431C72.1755 44.472 73.84 39.6651 76.0246 36.0565C79.5121 30.2933 83.1461 29.2936 85.5877 29.4699C88.4148 29.6761 90.9206 31.0493 92.8362 33.4446C96.1071 37.5343 97.2666 44.0536 96.1026 51.7997C95.3151 57.0295 93.9808 60.6082 91.9023 63.0528C89.8238 65.4973 87.0879 66.7032 83.7094 66.7032ZM77.8565 86.835C77.2707 86.8349 76.6863 86.7784 76.1113 86.6661C73.4874 86.1521 71.2042 84.4621 69.6861 81.9055C68.2711 79.5297 67.6435 76.6114 67.9184 73.6872C68.1575 71.147 68.9644 69.4257 70.4018 68.4081C72.5431 66.8885 75.137 67.528 77.6444 68.1481C78.3138 68.3125 79.0041 68.4828 79.6795 68.6128L80.6194 68.7876C83.5525 69.3271 86.3228 69.8336 87.8664 72.1004C88.8167 73.4945 89.0722 75.2382 88.6464 77.4258C88.0385 80.5081 86.2385 83.2258 83.6377 84.9881C81.8252 86.2044 79.8244 86.835 77.8565 86.835Z" stroke="url(#paint4_linear_279_3913)" stroke-width="1.95634" shape-rendering="crispEdges"/>
<path d="M47.1994 81.0478C43.821 81.0478 41.0731 79.827 39.0125 77.4034C36.952 74.9797 35.5997 71.3831 34.8122 66.1503C33.6527 58.4386 34.8033 51.9387 38.0517 47.849C39.9643 45.4403 42.4747 44.0477 45.3107 43.8235C47.7388 43.6293 51.3683 44.614 54.8738 50.3981C57.0688 54.0202 58.7379 58.8316 59.4536 63.5982C60.3188 69.3525 59.6747 73.5886 57.4842 76.5457C55.7449 78.8946 53.0702 80.35 49.5334 80.879C48.7606 80.9925 47.9805 81.0489 47.1994 81.0478ZM53.0523 101.18C51.0784 101.18 49.0777 100.548 47.2756 99.3327C44.6752 97.5706 42.8753 94.8536 42.267 91.7719C41.8411 89.5814 42.0966 87.8406 43.0469 86.4465C44.5905 84.1827 47.3608 83.6732 50.2925 83.1323C50.6018 83.0755 50.9156 83.0187 51.2338 82.9574C51.9092 82.8289 52.5996 82.6586 53.269 82.4927C55.7763 81.8741 58.3703 81.2331 60.5115 82.7542C61.9445 83.7703 62.7529 85.4976 62.9949 88.0318C63.2699 90.9561 62.6423 93.8743 61.2272 96.2501C59.7046 98.8067 57.4214 100.497 54.8021 101.011C54.2256 101.123 53.6396 101.18 53.0523 101.18ZM83.7094 66.7032C82.9291 66.7006 82.15 66.6406 81.3784 66.5239C77.8431 66.0009 75.1684 64.544 73.4291 62.1906C71.2386 59.2335 70.5901 54.9989 71.4597 49.2431C72.1755 44.472 73.84 39.6651 76.0246 36.0565C79.5121 30.2933 83.1461 29.2936 85.5877 29.4699C88.4148 29.6761 90.9206 31.0493 92.8362 33.4446C96.1071 37.5343 97.2666 44.0536 96.1026 51.7997C95.3151 57.0295 93.9808 60.6082 91.9023 63.0528C89.8238 65.4973 87.0879 66.7032 83.7094 66.7032ZM77.8565 86.835C77.2707 86.8349 76.6863 86.7784 76.1113 86.6661C73.4874 86.1521 71.2042 84.4621 69.6861 81.9055C68.2711 79.5297 67.6435 76.6114 67.9184 73.6872C68.1575 71.147 68.9644 69.4257 70.4018 68.4081C72.5431 66.8885 75.137 67.528 77.6444 68.1481C78.3138 68.3125 79.0041 68.4828 79.6795 68.6128L80.6194 68.7876C83.5525 69.3271 86.3228 69.8336 87.8664 72.1004C88.8167 73.4945 89.0722 75.2382 88.6464 77.4258C88.0385 80.5081 86.2385 83.2258 83.6377 84.9881C81.8252 86.2044 79.8244 86.835 77.8565 86.835Z" stroke="#FFC5B9" stroke-opacity="0.74" stroke-width="1.95634" shape-rendering="crispEdges"/>
</g>
<path d="M37.1542 133.534H93.7612C94.2787 128.099 97.0504 125.439 105.512 121.244H25.4036C33.0732 124.943 35.6136 127.69 37.1542 133.534Z" fill="url(#paint5_linear_279_3913)"/>
<ellipse cx="15.906" cy="13.0824" rx="1.8504" ry="3.98654" transform="rotate(52.9582 15.906 13.0824)" fill="#FEA58A"/>
<ellipse cx="15.9061" cy="13.0825" rx="1.03799" ry="2.23626" transform="rotate(52.9582 15.9061 13.0825)" fill="#FFD6B8"/>
<ellipse rx="1.8504" ry="3.98654" transform="matrix(-0.602397 0.798197 0.798197 0.602397 115.473 13.0824)" fill="#FEA58A"/>
<ellipse rx="1.03799" ry="2.23626" transform="matrix(-0.602397 0.798197 0.798197 0.602397 115.473 13.0825)" fill="#FFD6B8"/>
<defs>
<filter id="filter0_d_279_3913" x="26.8734" y="21.9521" width="77.1688" height="86.7267" filterUnits="userSpaceOnUse" color-interpolation-filters="sRGB">
<feFlood flood-opacity="0" result="BackgroundImageFix"/>
<feColorMatrix in="SourceAlpha" type="matrix" values="0 0 0 0 0 0 0 0 0 0 0 0 0 0 0 0 0 0 127 0" result="hardAlpha"/>
<feOffset/>
<feGaussianBlur stdDeviation="3.26056"/>
<feComposite in2="hardAlpha" operator="out"/>
<feColorMatrix type="matrix" values="0 0 0 0 1 0 0 0 0 0.730667 0 0 0 0 0.579167 0 0 0 0.82 0"/>
<feBlend mode="normal" in2="BackgroundImageFix" result="effect1_dropShadow_279_3913"/>
<feBlend mode="normal" in="SourceGraphic" in2="effect1_dropShadow_279_3913" result="shape"/>
</filter>
<linearGradient id="paint0_linear_279_3913" x1="65.4578" y1="0.430908" x2="65.4578" y2="136.933" gradientUnits="userSpaceOnUse">
<stop stop-color="#FF7664"/>
<stop offset="1" stop-color="#6A0100"/>
</linearGradient>
<linearGradient id="paint1_linear_279_3913" x1="65.4578" y1="0.430908" x2="65.4578" y2="136.933" gradientUnits="userSpaceOnUse">
<stop stop-color="#FFA88C"/>
<stop offset="0.505208" stop-color="#EE2C01"/>
<stop offset="0.859375" stop-color="#8C1900"/>
<stop offset="1" stop-color="#8A0000"/>
</linearGradient>
<linearGradient id="paint2_linear_279_3913" x1="65.4579" y1="8.52869" x2="65.4579" y2="122.102" gradientUnits="userSpaceOnUse">
<stop stop-color="#FF7C53"/>
<stop offset="0.171875" stop-color="#D62726"/>
<stop offset="0.455871" stop-color="#930100"/>
<stop offset="0.838542" stop-color="#650100"/>
<stop offset="1" stop-color="#5C0000"/>
</linearGradient>
<linearGradient id="paint3_linear_279_3913" x1="65.4579" y1="8.52869" x2="65.4579" y2="63.6037" gradientUnits="userSpaceOnUse">
<stop stop-color="white" stop-opacity="0.22"/>
<stop offset="1" stop-color="#FF3D00" stop-opacity="0.2"/>
</linearGradient>
<linearGradient id="paint4_linear_279_3913" x1="65.4578" y1="29.4514" x2="69.1182" y2="87.7816" gradientUnits="userSpaceOnUse">
<stop stop-color="#FEB48A"/>
<stop offset="1" stop-color="#FF2E00" stop-opacity="0"/>
</linearGradient>
<linearGradient id="paint5_linear_279_3913" x1="65.4577" y1="133.534" x2="65.4577" y2="122.868" gradientUnits="userSpaceOnUse">
<stop stop-color="#850100" stop-opacity="0"/>
<stop offset="1" stop-color="#380100"/>
</linearGradient>
</defs>
</svg>
