<svg width="131" height="137" viewBox="0 0 131 137" fill="none" xmlns="http://www.w3.org/2000/svg">
<rect x="2.05824" y="1.68287" width="126.403" height="133.136" rx="22.9739" fill="url(#paint0_linear_276_3491)" stroke="url(#paint1_linear_276_3491)" stroke-width="3.36574"/>
<rect x="8.91269" y="8.53738" width="112.694" height="112.694" rx="17.1469" fill="url(#paint2_linear_276_3491)" stroke="url(#paint3_linear_276_3491)" stroke-width="0.87933"/>
<path d="M47.0013 80.6167C43.6228 80.6167 40.8749 79.3959 38.8144 76.9722C36.7539 74.5486 35.4016 70.952 34.6141 65.7192C33.4546 58.0074 34.6052 51.5075 37.8536 47.4178C39.7662 45.0091 42.2765 43.6165 45.1126 43.3924C47.5407 43.1981 51.1702 44.1828 54.6757 49.967C56.8707 53.589 58.5397 58.4004 59.2555 63.167C60.1206 68.9213 59.4766 73.1575 57.2861 76.1145C55.5468 78.4635 52.8721 79.9189 49.3353 80.4478C48.5625 80.5613 47.7824 80.6177 47.0013 80.6167ZM52.8542 100.748C50.8803 100.748 48.8795 100.116 47.0775 98.9016C44.4771 97.1395 42.6772 94.4224 42.0688 91.3408C41.643 89.1502 41.8985 87.4094 42.8488 86.0153C44.3924 83.7516 47.1627 83.242 50.0943 82.7011C50.4037 82.6443 50.7174 82.5875 51.0357 82.5263C51.7111 82.3978 52.4014 82.2274 53.0709 82.0616C55.5782 81.443 58.1722 80.8019 60.3134 82.3231C61.7464 83.3391 62.5547 85.0665 62.7968 87.6007C63.0717 90.5249 62.4442 93.4431 61.0291 95.819C59.5065 98.3756 57.2233 100.066 54.6039 100.58C54.0275 100.692 53.4415 100.749 52.8542 100.748ZM83.5113 66.272C82.731 66.2694 81.9519 66.2095 81.1803 66.0927C77.645 65.5698 74.9703 64.1129 73.231 61.7595C71.0405 58.8024 70.392 54.5677 71.2616 48.8119C71.9774 44.0409 73.6419 39.2339 75.8265 35.6254C79.314 29.8621 82.948 28.8625 85.3896 29.0388C88.2166 29.245 90.7225 30.6182 92.6381 33.0134C95.9089 37.1032 97.0685 43.6225 95.9045 51.3686C95.117 56.5984 93.7827 60.1771 91.7042 62.6216C89.6257 65.0662 86.8898 66.272 83.5113 66.272ZM77.6584 86.4038C77.0726 86.4037 76.4881 86.3472 75.9132 86.235C73.2893 85.721 71.0061 84.031 69.488 81.4743C68.0729 79.0985 67.4454 76.1803 67.7203 73.2561C67.9594 70.7159 68.7663 68.9945 70.2037 67.977C72.3449 66.4573 74.9389 67.0969 77.4462 67.717C78.1156 67.8813 78.806 68.0517 79.4814 68.1817L80.4212 68.3565C83.3544 68.8959 86.1247 69.4025 87.6683 71.6692C88.6186 73.0633 88.8741 74.8071 88.4483 76.9946C87.8404 80.0769 86.0404 82.7946 83.4396 84.5569C81.6271 85.7733 79.6263 86.4038 77.6584 86.4038Z" fill="url(#paint4_linear_276_3491)" stroke="url(#paint5_linear_276_3491)" stroke-width="2.63799"/>
<path d="M36.9561 133.103H93.5631C94.0806 127.668 96.8523 125.008 105.314 120.813H25.2054C32.8751 124.512 35.4154 127.26 36.9561 133.103Z" fill="url(#paint6_linear_276_3491)"/>
<ellipse cx="15.7079" cy="12.6516" rx="1.8504" ry="3.98654" transform="rotate(52.9582 15.7079 12.6516)" fill="#8AE2FE"/>
<ellipse cx="15.708" cy="12.6516" rx="1.03799" ry="2.23626" transform="rotate(52.9582 15.708 12.6516)" fill="#B8E1FF"/>
<ellipse rx="1.8504" ry="3.98654" transform="matrix(-0.602397 0.798197 0.798197 0.602397 115.275 12.6516)" fill="#8AE2FE"/>
<ellipse rx="1.03799" ry="2.23626" transform="matrix(-0.602397 0.798197 0.798197 0.602397 115.275 12.6516)" fill="#B8E1FF"/>
<defs>
<linearGradient id="paint0_linear_276_3491" x1="65.2597" y1="0" x2="65.2597" y2="136.502" gradientUnits="userSpaceOnUse">
<stop stop-color="#64A2FF"/>
<stop offset="1" stop-color="#001E6A"/>
</linearGradient>
<linearGradient id="paint1_linear_276_3491" x1="65.2597" y1="0" x2="65.2597" y2="136.502" gradientUnits="userSpaceOnUse">
<stop stop-color="#8CD6FF"/>
<stop offset="0.505208" stop-color="#01A7EE"/>
<stop offset="0.859375" stop-color="#00498C"/>
<stop offset="1" stop-color="#00278A"/>
</linearGradient>
<linearGradient id="paint2_linear_276_3491" x1="65.2597" y1="8.09772" x2="65.2597" y2="121.671" gradientUnits="userSpaceOnUse">
<stop stop-color="#53C1FF"/>
<stop offset="0.171875" stop-color="#2697D6"/>
<stop offset="0.455871" stop-color="#004D93"/>
<stop offset="0.838542" stop-color="#003565"/>
<stop offset="1" stop-color="#00255C"/>
</linearGradient>
<linearGradient id="paint3_linear_276_3491" x1="65.2597" y1="8.09772" x2="65.2597" y2="63.1727" gradientUnits="userSpaceOnUse">
<stop stop-color="white" stop-opacity="0.22"/>
<stop offset="1" stop-color="#00B2FF" stop-opacity="0.2"/>
</linearGradient>
<linearGradient id="paint4_linear_276_3491" x1="65.2597" y1="29.0203" x2="65.2597" y2="100.748" gradientUnits="userSpaceOnUse">
<stop stop-color="#002459"/>
<stop offset="1" stop-color="#000813"/>
</linearGradient>
<linearGradient id="paint5_linear_276_3491" x1="65.2597" y1="29.0203" x2="68.92" y2="87.3504" gradientUnits="userSpaceOnUse">
<stop stop-color="#8ADBFE"/>
<stop offset="1" stop-color="#00B2FF" stop-opacity="0"/>
</linearGradient>
<linearGradient id="paint6_linear_276_3491" x1="65.2596" y1="133.103" x2="65.2596" y2="122.437" gradientUnits="userSpaceOnUse">
<stop stop-color="#003D85" stop-opacity="0"/>
<stop offset="1" stop-color="#000C38"/>
</linearGradient>
</defs>
</svg>
