<svg width="131" height="137" viewBox="0 0 131 137" fill="none" xmlns="http://www.w3.org/2000/svg">
<rect x="2.50172" y="1.68287" width="126.403" height="133.136" rx="22.9739" fill="url(#paint0_linear_276_3560)" stroke="url(#paint1_linear_276_3560)" stroke-width="3.36574"/>
<rect x="9.35629" y="8.53738" width="112.694" height="112.694" rx="17.1469" fill="url(#paint2_linear_276_3560)" stroke="url(#paint3_linear_276_3560)" stroke-width="0.87933"/>
<path d="M47.4448 80.6167C44.0663 80.6167 41.3184 79.3959 39.2579 76.9722C37.1973 74.5486 35.8451 70.952 35.0576 65.7192C33.8981 58.0074 35.0486 51.5075 38.2971 47.4178C40.2097 45.0091 42.72 43.6165 45.5561 43.3924C47.9842 43.1981 51.6137 44.1828 55.1191 49.967C57.3142 53.589 58.9832 58.4004 59.699 63.167C60.5641 68.9213 59.9201 73.1575 57.7296 76.1145C55.9903 78.4635 53.3156 79.9189 49.7788 80.4478C49.006 80.5613 48.2259 80.6177 47.4448 80.6167ZM53.2977 100.748C51.3238 100.748 49.323 100.116 47.521 98.9016C44.9206 97.1395 43.1207 94.4224 42.5123 91.3408C42.0865 89.1502 42.342 87.4094 43.2923 86.0153C44.8358 83.7516 47.6061 83.242 50.5378 82.7011C50.8471 82.6443 51.1609 82.5875 51.4792 82.5263C52.1546 82.3978 52.8449 82.2274 53.5143 82.0616C56.0217 81.443 58.6156 80.8019 60.7569 82.3231C62.1898 83.3391 62.9982 85.0665 63.2403 87.6007C63.5152 90.5249 62.8876 93.4431 61.4726 95.819C59.95 98.3756 57.6668 100.066 55.0474 100.58C54.471 100.692 53.885 100.749 53.2977 100.748ZM83.9548 66.272C83.1745 66.2694 82.3954 66.2095 81.6238 66.0927C78.0885 65.5698 75.4138 64.1129 73.6745 61.7595C71.484 58.8024 70.8355 54.5677 71.7051 48.8119C72.4208 44.0409 74.0854 39.2339 76.27 35.6254C79.7575 29.8621 83.3915 28.8625 85.833 29.0388C88.6601 29.245 91.166 30.6182 93.0816 33.0134C96.3524 37.1032 97.512 43.6225 96.3479 51.3686C95.5605 56.5984 94.2261 60.1771 92.1477 62.6216C90.0692 65.0662 87.3333 66.272 83.9548 66.272ZM78.1019 86.4038C77.5161 86.4037 76.9316 86.3472 76.3566 86.235C73.7328 85.7209 71.4496 84.031 69.9314 81.4743C68.5164 79.0985 67.8888 76.1803 68.1638 73.2561C68.4028 70.7159 69.2097 68.9945 70.6472 67.977C72.7884 66.4573 75.3824 67.0969 77.8897 67.717C78.5591 67.8813 79.2495 68.0517 79.9249 68.1817L80.8647 68.3565C83.7979 68.8959 86.5682 69.4025 88.1117 71.6692C89.0621 73.0633 89.3176 74.8071 88.8917 76.9946C88.2839 80.0769 86.4839 82.7946 83.8831 84.5569C82.0706 85.7732 80.0698 86.4038 78.1019 86.4038Z" fill="url(#paint4_linear_276_3560)" stroke="url(#paint5_linear_276_3560)" stroke-width="2.63799"/>
<path d="M37.3996 133.103H94.0065C94.524 127.668 97.2957 125.008 105.757 120.813H25.6489C33.3186 124.512 35.8589 127.26 37.3996 133.103Z" fill="url(#paint6_linear_276_3560)"/>
<ellipse cx="16.1514" cy="12.6516" rx="1.8504" ry="3.98654" transform="rotate(52.9582 16.1514 12.6516)" fill="#FE8AF2"/>
<ellipse cx="16.1515" cy="12.6516" rx="1.03799" ry="2.23626" transform="rotate(52.9582 16.1515 12.6516)" fill="#FEA7EB"/>
<ellipse rx="1.8504" ry="3.98654" transform="matrix(-0.602397 0.798197 0.798197 0.602397 115.718 12.6516)" fill="#FE8AF2"/>
<ellipse rx="1.03799" ry="2.23626" transform="matrix(-0.602397 0.798197 0.798197 0.602397 115.718 12.6516)" fill="#FEA7EB"/>
<defs>
<linearGradient id="paint0_linear_276_3560" x1="65.7032" y1="0" x2="65.7032" y2="136.502" gradientUnits="userSpaceOnUse">
<stop stop-color="#FF64EF"/>
<stop offset="1" stop-color="#6A0040"/>
</linearGradient>
<linearGradient id="paint1_linear_276_3560" x1="65.7032" y1="0" x2="65.7032" y2="136.502" gradientUnits="userSpaceOnUse">
<stop stop-color="#FDAEFF"/>
<stop offset="0.505208" stop-color="#EE01D6"/>
<stop offset="0.859375" stop-color="#8C006D"/>
<stop offset="1" stop-color="#8A0053"/>
</linearGradient>
<linearGradient id="paint2_linear_276_3560" x1="65.7033" y1="8.09772" x2="65.7033" y2="121.671" gradientUnits="userSpaceOnUse">
<stop stop-color="#FF53E3"/>
<stop offset="0.171875" stop-color="#D626BA"/>
<stop offset="0.455871" stop-color="#930073"/>
<stop offset="0.838542" stop-color="#65004F"/>
<stop offset="1" stop-color="#5C002C"/>
</linearGradient>
<linearGradient id="paint3_linear_276_3560" x1="65.7033" y1="8.09772" x2="65.7033" y2="63.1727" gradientUnits="userSpaceOnUse">
<stop stop-color="white" stop-opacity="0.22"/>
<stop offset="1" stop-color="#FF00E5" stop-opacity="0.2"/>
</linearGradient>
<linearGradient id="paint4_linear_276_3560" x1="65.7032" y1="29.0203" x2="65.7032" y2="100.748" gradientUnits="userSpaceOnUse">
<stop stop-color="#590050"/>
<stop offset="1" stop-color="#130010"/>
</linearGradient>
<linearGradient id="paint5_linear_276_3560" x1="65.7032" y1="29.0203" x2="69.3635" y2="87.3504" gradientUnits="userSpaceOnUse">
<stop stop-color="#FC8AFE"/>
<stop offset="1" stop-color="#FF00D6" stop-opacity="0"/>
</linearGradient>
<linearGradient id="paint6_linear_276_3560" x1="65.7031" y1="133.103" x2="65.7031" y2="122.437" gradientUnits="userSpaceOnUse">
<stop stop-color="#850078" stop-opacity="0"/>
<stop offset="1" stop-color="#380029"/>
</linearGradient>
</defs>
</svg>
