<svg width="131" height="137" viewBox="0 0 131 137" fill="none" xmlns="http://www.w3.org/2000/svg">
<rect x="2.50172" y="2.11378" width="126.403" height="133.136" rx="22.9739" fill="url(#paint0_linear_279_3915)" stroke="url(#paint1_linear_279_3915)" stroke-width="3.36574"/>
<rect x="9.35629" y="8.96835" width="112.694" height="112.694" rx="17.1469" fill="url(#paint2_linear_279_3915)" stroke="url(#paint3_linear_279_3915)" stroke-width="0.87933"/>
<g filter="url(#filter0_d_279_3915)">
<path d="M47.4448 81.0478C44.0663 81.0478 41.3184 79.827 39.2579 77.4034C37.1973 74.9797 35.8451 71.3831 35.0576 66.1503C33.8981 58.4386 35.0486 51.9387 38.2971 47.849C40.2097 45.4403 42.72 44.0477 45.5561 43.8235C47.9842 43.6293 51.6137 44.614 55.1191 50.3981C57.3142 54.0202 58.9832 58.8316 59.699 63.5982C60.5641 69.3525 59.9201 73.5886 57.7296 76.5457C55.9903 78.8946 53.3156 80.35 49.7788 80.879C49.006 80.9925 48.2259 81.0489 47.4448 81.0478ZM53.2977 101.18C51.3238 101.18 49.323 100.548 47.521 99.3327C44.9206 97.5706 43.1207 94.8536 42.5123 91.7719C42.0865 89.5814 42.342 87.8406 43.2923 86.4465C44.8358 84.1827 47.6061 83.6732 50.5378 83.1323C50.8471 83.0755 51.1609 83.0187 51.4792 82.9574C52.1546 82.8289 52.8449 82.6586 53.5143 82.4927C56.0217 81.8741 58.6156 81.2331 60.7569 82.7542C62.1898 83.7703 62.9982 85.4976 63.2403 88.0318C63.5152 90.9561 62.8876 93.8743 61.4726 96.2501C59.95 98.8067 57.6668 100.497 55.0474 101.011C54.471 101.123 53.885 101.18 53.2977 101.18ZM83.9548 66.7032C83.1745 66.7006 82.3954 66.6406 81.6238 66.5239C78.0885 66.0009 75.4138 64.544 73.6745 62.1906C71.484 59.2335 70.8355 54.9989 71.7051 49.2431C72.4208 44.472 74.0854 39.6651 76.27 36.0565C79.7575 30.2933 83.3915 29.2936 85.833 29.4699C88.6601 29.6761 91.166 31.0493 93.0816 33.4446C96.3524 37.5343 97.512 44.0536 96.3479 51.7997C95.5605 57.0295 94.2261 60.6082 92.1477 63.0528C90.0692 65.4973 87.3333 66.7032 83.9548 66.7032ZM78.1019 86.835C77.5161 86.8349 76.9316 86.7784 76.3566 86.6661C73.7328 86.1521 71.4496 84.4621 69.9314 81.9055C68.5164 79.5297 67.8888 76.6114 68.1638 73.6872C68.4028 71.147 69.2097 69.4257 70.6472 68.4081C72.7884 66.8885 75.3824 67.528 77.8897 68.1481C78.5591 68.3125 79.2495 68.4828 79.9249 68.6128L80.8647 68.7876C83.7979 69.3271 86.5682 69.8336 88.1117 72.1004C89.0621 73.4945 89.3176 75.2382 88.8917 77.4258C88.2839 80.5081 86.4839 83.2258 83.8831 84.9881C82.0706 86.2044 80.0698 86.835 78.1019 86.835Z" fill="#FF8EE6" shape-rendering="crispEdges"/>
<path d="M47.4448 81.0478C44.0663 81.0478 41.3184 79.827 39.2579 77.4034C37.1973 74.9797 35.8451 71.3831 35.0576 66.1503C33.8981 58.4386 35.0486 51.9387 38.2971 47.849C40.2097 45.4403 42.72 44.0477 45.5561 43.8235C47.9842 43.6293 51.6137 44.614 55.1191 50.3981C57.3142 54.0202 58.9832 58.8316 59.699 63.5982C60.5641 69.3525 59.9201 73.5886 57.7296 76.5457C55.9903 78.8946 53.3156 80.35 49.7788 80.879C49.006 80.9925 48.2259 81.0489 47.4448 81.0478ZM53.2977 101.18C51.3238 101.18 49.323 100.548 47.521 99.3327C44.9206 97.5706 43.1207 94.8536 42.5123 91.7719C42.0865 89.5814 42.342 87.8406 43.2923 86.4465C44.8358 84.1827 47.6061 83.6732 50.5378 83.1323C50.8471 83.0755 51.1609 83.0187 51.4792 82.9574C52.1546 82.8289 52.8449 82.6586 53.5143 82.4927C56.0217 81.8741 58.6156 81.2331 60.7569 82.7542C62.1898 83.7703 62.9982 85.4976 63.2403 88.0318C63.5152 90.9561 62.8876 93.8743 61.4726 96.2501C59.95 98.8067 57.6668 100.497 55.0474 101.011C54.471 101.123 53.885 101.18 53.2977 101.18ZM83.9548 66.7032C83.1745 66.7006 82.3954 66.6406 81.6238 66.5239C78.0885 66.0009 75.4138 64.544 73.6745 62.1906C71.484 59.2335 70.8355 54.9989 71.7051 49.2431C72.4208 44.472 74.0854 39.6651 76.27 36.0565C79.7575 30.2933 83.3915 29.2936 85.833 29.4699C88.6601 29.6761 91.166 31.0493 93.0816 33.4446C96.3524 37.5343 97.512 44.0536 96.3479 51.7997C95.5605 57.0295 94.2261 60.6082 92.1477 63.0528C90.0692 65.4973 87.3333 66.7032 83.9548 66.7032ZM78.1019 86.835C77.5161 86.8349 76.9316 86.7784 76.3566 86.6661C73.7328 86.1521 71.4496 84.4621 69.9314 81.9055C68.5164 79.5297 67.8888 76.6114 68.1638 73.6872C68.4028 71.147 69.2097 69.4257 70.6472 68.4081C72.7884 66.8885 75.3824 67.528 77.8897 68.1481C78.5591 68.3125 79.2495 68.4828 79.9249 68.6128L80.8647 68.7876C83.7979 69.3271 86.5682 69.8336 88.1117 72.1004C89.0621 73.4945 89.3176 75.2382 88.8917 77.4258C88.2839 80.5081 86.4839 83.2258 83.8831 84.9881C82.0706 86.2044 80.0698 86.835 78.1019 86.835Z" stroke="url(#paint4_linear_279_3915)" stroke-width="1.95634" shape-rendering="crispEdges"/>
<path d="M47.4448 81.0478C44.0663 81.0478 41.3184 79.827 39.2579 77.4034C37.1973 74.9797 35.8451 71.3831 35.0576 66.1503C33.8981 58.4386 35.0486 51.9387 38.2971 47.849C40.2097 45.4403 42.72 44.0477 45.5561 43.8235C47.9842 43.6293 51.6137 44.614 55.1191 50.3981C57.3142 54.0202 58.9832 58.8316 59.699 63.5982C60.5641 69.3525 59.9201 73.5886 57.7296 76.5457C55.9903 78.8946 53.3156 80.35 49.7788 80.879C49.006 80.9925 48.2259 81.0489 47.4448 81.0478ZM53.2977 101.18C51.3238 101.18 49.323 100.548 47.521 99.3327C44.9206 97.5706 43.1207 94.8536 42.5123 91.7719C42.0865 89.5814 42.342 87.8406 43.2923 86.4465C44.8358 84.1827 47.6061 83.6732 50.5378 83.1323C50.8471 83.0755 51.1609 83.0187 51.4792 82.9574C52.1546 82.8289 52.8449 82.6586 53.5143 82.4927C56.0217 81.8741 58.6156 81.2331 60.7569 82.7542C62.1898 83.7703 62.9982 85.4976 63.2403 88.0318C63.5152 90.9561 62.8876 93.8743 61.4726 96.2501C59.95 98.8067 57.6668 100.497 55.0474 101.011C54.471 101.123 53.885 101.18 53.2977 101.18ZM83.9548 66.7032C83.1745 66.7006 82.3954 66.6406 81.6238 66.5239C78.0885 66.0009 75.4138 64.544 73.6745 62.1906C71.484 59.2335 70.8355 54.9989 71.7051 49.2431C72.4208 44.472 74.0854 39.6651 76.27 36.0565C79.7575 30.2933 83.3915 29.2936 85.833 29.4699C88.6601 29.6761 91.166 31.0493 93.0816 33.4446C96.3524 37.5343 97.512 44.0536 96.3479 51.7997C95.5605 57.0295 94.2261 60.6082 92.1477 63.0528C90.0692 65.4973 87.3333 66.7032 83.9548 66.7032ZM78.1019 86.835C77.5161 86.8349 76.9316 86.7784 76.3566 86.6661C73.7328 86.1521 71.4496 84.4621 69.9314 81.9055C68.5164 79.5297 67.8888 76.6114 68.1638 73.6872C68.4028 71.147 69.2097 69.4257 70.6472 68.4081C72.7884 66.8885 75.3824 67.528 77.8897 68.1481C78.5591 68.3125 79.2495 68.4828 79.9249 68.6128L80.8647 68.7876C83.7979 69.3271 86.5682 69.8336 88.1117 72.1004C89.0621 73.4945 89.3176 75.2382 88.8917 77.4258C88.2839 80.5081 86.4839 83.2258 83.8831 84.9881C82.0706 86.2044 80.0698 86.835 78.1019 86.835Z" stroke="#EDB9FF" stroke-opacity="0.74" stroke-width="1.95634" shape-rendering="crispEdges"/>
</g>
<path d="M37.3996 133.534H94.0065C94.524 128.099 97.2957 125.439 105.757 121.244H25.6489C33.3186 124.943 35.8589 127.69 37.3996 133.534Z" fill="url(#paint5_linear_279_3915)"/>
<ellipse cx="16.1514" cy="13.0824" rx="1.8504" ry="3.98654" transform="rotate(52.9582 16.1514 13.0824)" fill="#FE8AF2"/>
<ellipse cx="16.1515" cy="13.0825" rx="1.03799" ry="2.23626" transform="rotate(52.9582 16.1515 13.0825)" fill="#FEA7EB"/>
<ellipse rx="1.8504" ry="3.98654" transform="matrix(-0.602397 0.798197 0.798197 0.602397 115.718 13.0824)" fill="#FE8AF2"/>
<ellipse rx="1.03799" ry="2.23626" transform="matrix(-0.602397 0.798197 0.798197 0.602397 115.718 13.0825)" fill="#FEA7EB"/>
<defs>
<filter id="filter0_d_279_3915" x="27.1188" y="21.9521" width="77.1688" height="86.7267" filterUnits="userSpaceOnUse" color-interpolation-filters="sRGB">
<feFlood flood-opacity="0" result="BackgroundImageFix"/>
<feColorMatrix in="SourceAlpha" type="matrix" values="0 0 0 0 0 0 0 0 0 0 0 0 0 0 0 0 0 0 127 0" result="hardAlpha"/>
<feOffset/>
<feGaussianBlur stdDeviation="3.26056"/>
<feComposite in2="hardAlpha" operator="out"/>
<feColorMatrix type="matrix" values="0 0 0 0 0.890583 0 0 0 0 1 0 0 0 0 0.579167 0 0 0 0.82 0"/>
<feBlend mode="normal" in2="BackgroundImageFix" result="effect1_dropShadow_279_3915"/>
<feBlend mode="normal" in="SourceGraphic" in2="effect1_dropShadow_279_3915" result="shape"/>
</filter>
<linearGradient id="paint0_linear_279_3915" x1="65.7032" y1="0.430908" x2="65.7032" y2="136.933" gradientUnits="userSpaceOnUse">
<stop stop-color="#FF64EF"/>
<stop offset="1" stop-color="#6A0040"/>
</linearGradient>
<linearGradient id="paint1_linear_279_3915" x1="65.7032" y1="0.430908" x2="65.7032" y2="136.933" gradientUnits="userSpaceOnUse">
<stop stop-color="#FDAEFF"/>
<stop offset="0.505208" stop-color="#EE01D6"/>
<stop offset="0.859375" stop-color="#8C006D"/>
<stop offset="1" stop-color="#8A0053"/>
</linearGradient>
<linearGradient id="paint2_linear_279_3915" x1="65.7033" y1="8.52869" x2="65.7033" y2="122.102" gradientUnits="userSpaceOnUse">
<stop stop-color="#FF53E3"/>
<stop offset="0.171875" stop-color="#D626BA"/>
<stop offset="0.455871" stop-color="#930073"/>
<stop offset="0.838542" stop-color="#65004F"/>
<stop offset="1" stop-color="#5C002C"/>
</linearGradient>
<linearGradient id="paint3_linear_279_3915" x1="65.7033" y1="8.52869" x2="65.7033" y2="63.6037" gradientUnits="userSpaceOnUse">
<stop stop-color="white" stop-opacity="0.22"/>
<stop offset="1" stop-color="#FF00E5" stop-opacity="0.2"/>
</linearGradient>
<linearGradient id="paint4_linear_279_3915" x1="65.7032" y1="29.4514" x2="69.3635" y2="87.7816" gradientUnits="userSpaceOnUse">
<stop stop-color="#FC8AFE"/>
<stop offset="1" stop-color="#FA00FF" stop-opacity="0"/>
</linearGradient>
<linearGradient id="paint5_linear_279_3915" x1="65.7031" y1="133.534" x2="65.7031" y2="122.868" gradientUnits="userSpaceOnUse">
<stop stop-color="#850078" stop-opacity="0"/>
<stop offset="1" stop-color="#380029"/>
</linearGradient>
</defs>
</svg>
