<svg width="131" height="137" viewBox="0 0 131 137" fill="none" xmlns="http://www.w3.org/2000/svg">
<rect x="2.45399" y="1.68287" width="126.403" height="133.136" rx="22.9739" fill="url(#paint0_linear_276_3539)" stroke="url(#paint1_linear_276_3539)" stroke-width="3.36574"/>
<rect x="9.30844" y="8.53738" width="112.694" height="112.694" rx="17.1469" fill="url(#paint2_linear_276_3539)" stroke="url(#paint3_linear_276_3539)" stroke-width="0.87933"/>
<path d="M37.352 133.103H93.9589C94.4764 127.668 97.2481 125.008 105.71 120.813H25.6013C33.271 124.512 35.8113 127.26 37.352 133.103Z" fill="url(#paint4_linear_276_3539)"/>
<ellipse cx="16.1037" cy="12.6516" rx="1.8504" ry="3.98654" transform="rotate(52.9582 16.1037 12.6516)" fill="#D2FE8A"/>
<ellipse cx="16.1037" cy="12.6516" rx="1.03799" ry="2.23626" transform="rotate(52.9582 16.1037 12.6516)" fill="#E7FEA7"/>
<ellipse rx="1.8504" ry="3.98654" transform="matrix(-0.602397 0.798197 0.798197 0.602397 115.671 12.6516)" fill="#D2FE8A"/>
<ellipse rx="1.03799" ry="2.23626" transform="matrix(-0.602397 0.798197 0.798197 0.602397 115.67 12.6516)" fill="#E7FEA7"/>
<path d="M47.2055 80.7674C43.8271 80.7674 41.0792 79.5466 39.0186 77.1229C36.9581 74.6993 35.6058 71.1027 34.8183 65.8699C33.6588 58.1581 34.8094 51.6582 38.0578 47.5685C39.9704 45.1598 42.4808 43.7672 45.3168 43.5431C47.7449 43.3488 51.3744 44.3335 54.8799 50.1177C57.0749 53.7397 58.744 58.5511 59.4597 63.3177C60.3249 69.072 59.6808 73.3082 57.4903 76.2652C55.751 78.6142 53.0763 80.0696 49.5395 80.5985C48.7667 80.712 47.9866 80.7684 47.2055 80.7674ZM53.0584 100.899C51.0845 100.899 49.0838 100.267 47.2817 99.0523C44.6814 97.2902 42.8814 94.5731 42.2731 91.4915C41.8472 89.3009 42.1027 87.5601 43.053 86.166C44.5966 83.9022 47.3669 83.3927 50.2986 82.8518C50.6079 82.795 50.9217 82.7382 51.2399 82.677C51.9153 82.5485 52.6057 82.3781 53.2751 82.2123C55.7824 81.5937 58.3764 80.9526 60.5176 82.4738C61.9506 83.4898 62.759 85.2172 63.001 87.7514C63.276 90.6756 62.6484 93.5938 61.2334 95.9697C59.7107 98.5263 57.4275 100.216 54.8082 100.73C54.2317 100.843 53.6457 100.899 53.0584 100.899ZM83.7155 66.4227C82.9352 66.4201 82.1561 66.3602 81.3845 66.2434C77.8492 65.7204 75.1745 64.2636 73.4352 61.9102C71.2447 58.9531 70.5962 54.7184 71.4658 48.9626C72.1816 44.1916 73.8461 39.3846 76.0307 35.7761C79.5182 30.0128 83.1522 29.0132 85.5938 29.1895C88.4209 29.3957 90.9267 30.7689 92.8423 33.1641C96.1132 37.2539 97.2727 43.7732 96.1087 51.5193C95.3212 56.7491 93.9869 60.3278 91.9084 62.7723C89.8299 65.2169 87.094 66.4227 83.7155 66.4227ZM77.8626 86.5545C77.2768 86.5544 76.6924 86.4979 76.1174 86.3857C73.4935 85.8716 71.2103 84.1817 69.6922 81.625C68.2772 79.2492 67.6496 76.331 67.9245 73.4068C68.1636 70.8666 68.9705 69.1452 70.4079 68.1277C72.5492 66.608 75.1431 67.2476 77.6505 67.8677C78.3199 68.032 79.0102 68.2024 79.6856 68.3324L80.6255 68.5072C83.5586 69.0466 86.3289 69.5532 87.8725 71.8199C88.8228 73.214 89.0783 74.9578 88.6525 77.1453C88.0446 80.2276 86.2446 82.9453 83.6438 84.7076C81.8313 85.9239 79.8305 86.5545 77.8626 86.5545Z" fill="url(#paint5_linear_276_3539)" stroke="url(#paint6_linear_276_3539)" stroke-width="1.95634"/>
<defs>
<linearGradient id="paint0_linear_276_3539" x1="65.6555" y1="0" x2="65.6555" y2="136.502" gradientUnits="userSpaceOnUse">
<stop stop-color="#CDFF64"/>
<stop offset="1" stop-color="#426A00"/>
</linearGradient>
<linearGradient id="paint1_linear_276_3539" x1="65.6555" y1="0" x2="65.6555" y2="136.502" gradientUnits="userSpaceOnUse">
<stop stop-color="#EAFFAE"/>
<stop offset="0.505208" stop-color="#B0EE01"/>
<stop offset="0.859375" stop-color="#5F8C00"/>
<stop offset="1" stop-color="#2C8A00"/>
</linearGradient>
<linearGradient id="paint2_linear_276_3539" x1="65.6554" y1="8.09772" x2="65.6554" y2="121.671" gradientUnits="userSpaceOnUse">
<stop stop-color="#C8FF53"/>
<stop offset="0.171875" stop-color="#BED626"/>
<stop offset="0.455871" stop-color="#529300"/>
<stop offset="0.838542" stop-color="#336500"/>
<stop offset="1" stop-color="#1E5C00"/>
</linearGradient>
<linearGradient id="paint3_linear_276_3539" x1="65.6554" y1="8.09772" x2="65.6554" y2="63.1727" gradientUnits="userSpaceOnUse">
<stop stop-color="white" stop-opacity="0.22"/>
<stop offset="1" stop-color="#52FF00" stop-opacity="0.2"/>
</linearGradient>
<linearGradient id="paint4_linear_276_3539" x1="65.6555" y1="133.103" x2="65.6555" y2="122.437" gradientUnits="userSpaceOnUse">
<stop stop-color="#4A8500" stop-opacity="0"/>
<stop offset="1" stop-color="#2A3800"/>
</linearGradient>
<linearGradient id="paint5_linear_276_3539" x1="65.4639" y1="29.171" x2="65.4639" y2="100.899" gradientUnits="userSpaceOnUse">
<stop stop-color="#325900"/>
<stop offset="1" stop-color="#081300"/>
</linearGradient>
<linearGradient id="paint6_linear_276_3539" x1="65.4639" y1="29.171" x2="69.1243" y2="87.5011" gradientUnits="userSpaceOnUse">
<stop stop-color="#EEFE8A"/>
<stop offset="1" stop-color="#ADFF00" stop-opacity="0"/>
</linearGradient>
</defs>
</svg>
