<svg width="166" height="173" viewBox="0 0 166 173" fill="none" xmlns="http://www.w3.org/2000/svg">
<g filter="url(#filter0_d_279_3912)">
<rect x="20.0582" y="16.1138" width="126.403" height="133.136" rx="22.9739" fill="url(#paint0_linear_279_3912)" stroke="url(#paint1_linear_279_3912)" stroke-width="3.36574"/>
<rect x="26.9127" y="22.9684" width="112.694" height="112.694" rx="17.1469" fill="url(#paint2_linear_279_3912)" stroke="url(#paint3_linear_279_3912)" stroke-width="0.87933"/>
<g filter="url(#filter1_d_279_3912)">
<path d="M65.0013 95.0478C61.6228 95.0478 58.8749 93.827 56.8144 91.4034C54.7539 88.9797 53.4016 85.3831 52.6141 80.1503C51.4546 72.4386 52.6052 65.9387 55.8536 61.849C57.7662 59.4403 60.2765 58.0477 63.1126 57.8235C65.5407 57.6293 69.1702 58.614 72.6757 64.3981C74.8707 68.0202 76.5397 72.8316 77.2555 77.5982C78.1206 83.3525 77.4766 87.5886 75.2861 90.5457C73.5468 92.8946 70.8721 94.35 67.3353 94.879C66.5625 94.9925 65.7824 95.0489 65.0013 95.0478ZM70.8542 115.18C68.8803 115.18 66.8795 114.548 65.0775 113.333C62.4771 111.571 60.6772 108.854 60.0688 105.772C59.643 103.581 59.8985 101.841 60.8488 100.446C62.3924 98.1827 65.1627 97.6732 68.0943 97.1323C68.4037 97.0755 68.7174 97.0187 69.0357 96.9574C69.7111 96.8289 70.4014 96.6586 71.0709 96.4927C73.5782 95.8741 76.1722 95.2331 78.3134 96.7542C79.7464 97.7703 80.5547 99.4976 80.7968 102.032C81.0717 104.956 80.4442 107.874 79.0291 110.25C77.5065 112.807 75.2233 114.497 72.6039 115.011C72.0275 115.123 71.4415 115.18 70.8542 115.18ZM101.511 80.7032C100.731 80.7006 99.9519 80.6406 99.1803 80.5239C95.645 80.0009 92.9703 78.544 91.231 76.1906C89.0405 73.2335 88.392 68.9989 89.2616 63.2431C89.9774 58.472 91.6419 53.6651 93.8265 50.0565C97.314 44.2933 100.948 43.2936 103.39 43.4699C106.217 43.6761 108.722 45.0493 110.638 47.4446C113.909 51.5343 115.068 58.0536 113.904 65.7997C113.117 71.0295 111.783 74.6082 109.704 77.0528C107.626 79.4973 104.89 80.7032 101.511 80.7032ZM95.6584 100.835C95.0726 100.835 94.4881 100.778 93.9132 100.666C91.2893 100.152 89.0061 98.4621 87.488 95.9055C86.0729 93.5297 85.4454 90.6114 85.7203 87.6872C85.9594 85.147 86.7663 83.4257 88.2037 82.4081C90.3449 80.8885 92.9389 81.528 95.4462 82.1481C96.1156 82.3125 96.806 82.4828 97.4814 82.6128L98.4212 82.7876C101.354 83.3271 104.125 83.8336 105.668 86.1004C106.619 87.4945 106.874 89.2382 106.448 91.4258C105.84 94.5081 104.04 97.2258 101.44 98.9881C99.6271 100.204 97.6263 100.835 95.6584 100.835Z" fill="#8ED6FF" shape-rendering="crispEdges"/>
<path d="M65.0013 95.0478C61.6228 95.0478 58.8749 93.827 56.8144 91.4034C54.7539 88.9797 53.4016 85.3831 52.6141 80.1503C51.4546 72.4386 52.6052 65.9387 55.8536 61.849C57.7662 59.4403 60.2765 58.0477 63.1126 57.8235C65.5407 57.6293 69.1702 58.614 72.6757 64.3981C74.8707 68.0202 76.5397 72.8316 77.2555 77.5982C78.1206 83.3525 77.4766 87.5886 75.2861 90.5457C73.5468 92.8946 70.8721 94.35 67.3353 94.879C66.5625 94.9925 65.7824 95.0489 65.0013 95.0478ZM70.8542 115.18C68.8803 115.18 66.8795 114.548 65.0775 113.333C62.4771 111.571 60.6772 108.854 60.0688 105.772C59.643 103.581 59.8985 101.841 60.8488 100.446C62.3924 98.1827 65.1627 97.6732 68.0943 97.1323C68.4037 97.0755 68.7174 97.0187 69.0357 96.9574C69.7111 96.8289 70.4014 96.6586 71.0709 96.4927C73.5782 95.8741 76.1722 95.2331 78.3134 96.7542C79.7464 97.7703 80.5547 99.4976 80.7968 102.032C81.0717 104.956 80.4442 107.874 79.0291 110.25C77.5065 112.807 75.2233 114.497 72.6039 115.011C72.0275 115.123 71.4415 115.18 70.8542 115.18ZM101.511 80.7032C100.731 80.7006 99.9519 80.6406 99.1803 80.5239C95.645 80.0009 92.9703 78.544 91.231 76.1906C89.0405 73.2335 88.392 68.9989 89.2616 63.2431C89.9774 58.472 91.6419 53.6651 93.8265 50.0565C97.314 44.2933 100.948 43.2936 103.39 43.4699C106.217 43.6761 108.722 45.0493 110.638 47.4446C113.909 51.5343 115.068 58.0536 113.904 65.7997C113.117 71.0295 111.783 74.6082 109.704 77.0528C107.626 79.4973 104.89 80.7032 101.511 80.7032ZM95.6584 100.835C95.0726 100.835 94.4881 100.778 93.9132 100.666C91.2893 100.152 89.0061 98.4621 87.488 95.9055C86.0729 93.5297 85.4454 90.6114 85.7203 87.6872C85.9594 85.147 86.7663 83.4257 88.2037 82.4081C90.3449 80.8885 92.9389 81.528 95.4462 82.1481C96.1156 82.3125 96.806 82.4828 97.4814 82.6128L98.4212 82.7876C101.354 83.3271 104.125 83.8336 105.668 86.1004C106.619 87.4945 106.874 89.2382 106.448 91.4258C105.84 94.5081 104.04 97.2258 101.44 98.9881C99.6271 100.204 97.6263 100.835 95.6584 100.835Z" stroke="url(#paint4_linear_279_3912)" stroke-width="1.95634" shape-rendering="crispEdges"/>
<path d="M65.0013 95.0478C61.6228 95.0478 58.8749 93.827 56.8144 91.4034C54.7539 88.9797 53.4016 85.3831 52.6141 80.1503C51.4546 72.4386 52.6052 65.9387 55.8536 61.849C57.7662 59.4403 60.2765 58.0477 63.1126 57.8235C65.5407 57.6293 69.1702 58.614 72.6757 64.3981C74.8707 68.0202 76.5397 72.8316 77.2555 77.5982C78.1206 83.3525 77.4766 87.5886 75.2861 90.5457C73.5468 92.8946 70.8721 94.35 67.3353 94.879C66.5625 94.9925 65.7824 95.0489 65.0013 95.0478ZM70.8542 115.18C68.8803 115.18 66.8795 114.548 65.0775 113.333C62.4771 111.571 60.6772 108.854 60.0688 105.772C59.643 103.581 59.8985 101.841 60.8488 100.446C62.3924 98.1827 65.1627 97.6732 68.0943 97.1323C68.4037 97.0755 68.7174 97.0187 69.0357 96.9574C69.7111 96.8289 70.4014 96.6586 71.0709 96.4927C73.5782 95.8741 76.1722 95.2331 78.3134 96.7542C79.7464 97.7703 80.5547 99.4976 80.7968 102.032C81.0717 104.956 80.4442 107.874 79.0291 110.25C77.5065 112.807 75.2233 114.497 72.6039 115.011C72.0275 115.123 71.4415 115.18 70.8542 115.18ZM101.511 80.7032C100.731 80.7006 99.9519 80.6406 99.1803 80.5239C95.645 80.0009 92.9703 78.544 91.231 76.1906C89.0405 73.2335 88.392 68.9989 89.2616 63.2431C89.9774 58.472 91.6419 53.6651 93.8265 50.0565C97.314 44.2933 100.948 43.2936 103.39 43.4699C106.217 43.6761 108.722 45.0493 110.638 47.4446C113.909 51.5343 115.068 58.0536 113.904 65.7997C113.117 71.0295 111.783 74.6082 109.704 77.0528C107.626 79.4973 104.89 80.7032 101.511 80.7032ZM95.6584 100.835C95.0726 100.835 94.4881 100.778 93.9132 100.666C91.2893 100.152 89.0061 98.4621 87.488 95.9055C86.0729 93.5297 85.4454 90.6114 85.7203 87.6872C85.9594 85.147 86.7663 83.4257 88.2037 82.4081C90.3449 80.8885 92.9389 81.528 95.4462 82.1481C96.1156 82.3125 96.806 82.4828 97.4814 82.6128L98.4212 82.7876C101.354 83.3271 104.125 83.8336 105.668 86.1004C106.619 87.4945 106.874 89.2382 106.448 91.4258C105.84 94.5081 104.04 97.2258 101.44 98.9881C99.6271 100.204 97.6263 100.835 95.6584 100.835Z" stroke="#B9DDFF" stroke-opacity="0.74" stroke-width="1.95634" shape-rendering="crispEdges"/>
</g>
<path d="M54.9561 147.534H111.563C112.081 142.099 114.852 139.439 123.314 135.244H43.2054C50.8751 138.943 53.4154 141.69 54.9561 147.534Z" fill="url(#paint5_linear_279_3912)"/>
<ellipse cx="33.7079" cy="27.0824" rx="1.8504" ry="3.98654" transform="rotate(52.9582 33.7079 27.0824)" fill="#8AE2FE"/>
<ellipse cx="33.708" cy="27.0825" rx="1.03799" ry="2.23626" transform="rotate(52.9582 33.708 27.0825)" fill="#B8E1FF"/>
<ellipse rx="1.8504" ry="3.98654" transform="matrix(-0.602397 0.798197 0.798197 0.602397 133.275 27.0824)" fill="#8AE2FE"/>
<ellipse rx="1.03799" ry="2.23626" transform="matrix(-0.602397 0.798197 0.798197 0.602397 133.275 27.0825)" fill="#B8E1FF"/>
</g>
<defs>
<filter id="filter0_d_279_3912" x="0.788757" y="0.361621" width="164.942" height="171.675" filterUnits="userSpaceOnUse" color-interpolation-filters="sRGB">
<feFlood flood-opacity="0" result="BackgroundImageFix"/>
<feColorMatrix in="SourceAlpha" type="matrix" values="0 0 0 0 0 0 0 0 0 0 0 0 0 0 0 0 0 0 127 0" result="hardAlpha"/>
<feOffset dy="3.51732"/>
<feGaussianBlur stdDeviation="8.7933"/>
<feComposite in2="hardAlpha" operator="out"/>
<feColorMatrix type="matrix" values="0 0 0 0 0 0 0 0 0 0 0 0 0 0 0 0 0 0 0.79 0"/>
<feBlend mode="normal" in2="BackgroundImageFix" result="effect1_dropShadow_279_3912"/>
<feBlend mode="normal" in="SourceGraphic" in2="effect1_dropShadow_279_3912" result="shape"/>
</filter>
<filter id="filter1_d_279_3912" x="44.6753" y="35.9521" width="77.1688" height="86.7267" filterUnits="userSpaceOnUse" color-interpolation-filters="sRGB">
<feFlood flood-opacity="0" result="BackgroundImageFix"/>
<feColorMatrix in="SourceAlpha" type="matrix" values="0 0 0 0 0 0 0 0 0 0 0 0 0 0 0 0 0 0 127 0" result="hardAlpha"/>
<feOffset/>
<feGaussianBlur stdDeviation="3.26056"/>
<feComposite in2="hardAlpha" operator="out"/>
<feColorMatrix type="matrix" values="0 0 0 0 0.579167 0 0 0 0 0.92425 0 0 0 0 1 0 0 0 0.82 0"/>
<feBlend mode="normal" in2="BackgroundImageFix" result="effect1_dropShadow_279_3912"/>
<feBlend mode="normal" in="SourceGraphic" in2="effect1_dropShadow_279_3912" result="shape"/>
</filter>
<linearGradient id="paint0_linear_279_3912" x1="83.2597" y1="14.4309" x2="83.2597" y2="150.933" gradientUnits="userSpaceOnUse">
<stop stop-color="#64A2FF"/>
<stop offset="1" stop-color="#001E6A"/>
</linearGradient>
<linearGradient id="paint1_linear_279_3912" x1="83.2597" y1="14.4309" x2="83.2597" y2="150.933" gradientUnits="userSpaceOnUse">
<stop stop-color="#8CD6FF"/>
<stop offset="0.505208" stop-color="#01A7EE"/>
<stop offset="0.859375" stop-color="#00498C"/>
<stop offset="1" stop-color="#00278A"/>
</linearGradient>
<linearGradient id="paint2_linear_279_3912" x1="83.2597" y1="22.5287" x2="83.2597" y2="136.102" gradientUnits="userSpaceOnUse">
<stop stop-color="#53C1FF"/>
<stop offset="0.171875" stop-color="#2697D6"/>
<stop offset="0.455871" stop-color="#004D93"/>
<stop offset="0.838542" stop-color="#003565"/>
<stop offset="1" stop-color="#00255C"/>
</linearGradient>
<linearGradient id="paint3_linear_279_3912" x1="83.2597" y1="22.5287" x2="83.2597" y2="77.6037" gradientUnits="userSpaceOnUse">
<stop stop-color="white" stop-opacity="0.22"/>
<stop offset="1" stop-color="#00B2FF" stop-opacity="0.2"/>
</linearGradient>
<linearGradient id="paint4_linear_279_3912" x1="83.2597" y1="43.4514" x2="86.92" y2="101.782" gradientUnits="userSpaceOnUse">
<stop stop-color="#8AD4FE"/>
<stop offset="1" stop-color="#0094FF" stop-opacity="0"/>
</linearGradient>
<linearGradient id="paint5_linear_279_3912" x1="83.2596" y1="147.534" x2="83.2596" y2="136.868" gradientUnits="userSpaceOnUse">
<stop stop-color="#003D85" stop-opacity="0"/>
<stop offset="1" stop-color="#000C38"/>
</linearGradient>
</defs>
</svg>
