<svg width="130" height="137" viewBox="0 0 130 137" fill="none" xmlns="http://www.w3.org/2000/svg">
<rect x="1.69935" y="2.11378" width="126.403" height="133.136" rx="22.9739" fill="url(#paint0_linear_279_3916)" stroke="url(#paint1_linear_279_3916)" stroke-width="3.36574"/>
<rect x="8.5538" y="8.96835" width="112.694" height="112.694" rx="17.1469" fill="url(#paint2_linear_279_3916)" stroke="url(#paint3_linear_279_3916)" stroke-width="0.87933"/>
<g filter="url(#filter0_d_279_3916)">
<path d="M46.6424 81.0478C43.2639 81.0478 40.5161 79.827 38.4555 77.4034C36.395 74.9797 35.0427 71.3831 34.2552 66.1503C33.0957 58.4386 34.2463 51.9387 37.4947 47.849C39.4073 45.4403 41.9176 44.0477 44.7537 43.8235C47.1818 43.6293 50.8113 44.614 54.3168 50.3981C56.5118 54.0202 58.1809 58.8316 58.8966 63.5982C59.7617 69.3525 59.1177 73.5886 56.9272 76.5457C55.1879 78.8946 52.5132 80.35 48.9764 80.879C48.2036 80.9925 47.4235 81.0489 46.6424 81.0478ZM52.4953 101.18C50.5214 101.18 48.5206 100.548 46.7186 99.3327C44.1182 97.5706 42.3183 94.8536 41.7099 91.7719C41.2841 89.5814 41.5396 87.8406 42.4899 86.4465C44.0335 84.1827 46.8038 83.6732 49.7355 83.1323C50.0448 83.0755 50.3586 83.0187 50.6768 82.9574C51.3522 82.8289 52.0426 82.6586 52.712 82.4927C55.2193 81.8741 57.8133 81.2331 59.9545 82.7542C61.3875 83.7703 62.1958 85.4976 62.4379 88.0318C62.7129 90.9561 62.0853 93.8743 60.6702 96.2501C59.1476 98.8067 56.8644 100.497 54.245 101.011C53.6686 101.123 53.0826 101.18 52.4953 101.18ZM83.1524 66.7032C82.3721 66.7006 81.593 66.6406 80.8214 66.5239C77.2861 66.0009 74.6114 64.544 72.8721 62.1906C70.6816 59.2335 70.0331 54.9989 70.9027 49.2431C71.6185 44.472 73.283 39.6651 75.4676 36.0565C78.9551 30.2933 82.5891 29.2936 85.0307 29.4699C87.8578 29.6761 90.3636 31.0493 92.2792 33.4446C95.5501 37.5343 96.7096 44.0536 95.5456 51.7997C94.7581 57.0295 93.4238 60.6082 91.3453 63.0528C89.2668 65.4973 86.5309 66.7032 83.1524 66.7032ZM77.2995 86.835C76.7137 86.8349 76.1292 86.7784 75.5543 86.6661C72.9304 86.1521 70.6472 84.4621 69.1291 81.9055C67.714 79.5297 67.0865 76.6114 67.3614 73.6872C67.6005 71.147 68.4074 69.4257 69.8448 68.4081C71.986 66.8885 74.58 67.528 77.0873 68.1481C77.7568 68.3125 78.4471 68.4828 79.1225 68.6128L80.0624 68.7876C82.9955 69.3271 85.7658 69.8336 87.3094 72.1004C88.2597 73.4945 88.5152 75.2382 88.0894 77.4258C87.4815 80.5081 85.6815 83.2258 83.0807 84.9881C81.2682 86.2044 79.2674 86.835 77.2995 86.835Z" fill="#FFD98E" shape-rendering="crispEdges"/>
<path d="M46.6424 81.0478C43.2639 81.0478 40.5161 79.827 38.4555 77.4034C36.395 74.9797 35.0427 71.3831 34.2552 66.1503C33.0957 58.4386 34.2463 51.9387 37.4947 47.849C39.4073 45.4403 41.9176 44.0477 44.7537 43.8235C47.1818 43.6293 50.8113 44.614 54.3168 50.3981C56.5118 54.0202 58.1809 58.8316 58.8966 63.5982C59.7617 69.3525 59.1177 73.5886 56.9272 76.5457C55.1879 78.8946 52.5132 80.35 48.9764 80.879C48.2036 80.9925 47.4235 81.0489 46.6424 81.0478ZM52.4953 101.18C50.5214 101.18 48.5206 100.548 46.7186 99.3327C44.1182 97.5706 42.3183 94.8536 41.7099 91.7719C41.2841 89.5814 41.5396 87.8406 42.4899 86.4465C44.0335 84.1827 46.8038 83.6732 49.7355 83.1323C50.0448 83.0755 50.3586 83.0187 50.6768 82.9574C51.3522 82.8289 52.0426 82.6586 52.712 82.4927C55.2193 81.8741 57.8133 81.2331 59.9545 82.7542C61.3875 83.7703 62.1958 85.4976 62.4379 88.0318C62.7129 90.9561 62.0853 93.8743 60.6702 96.2501C59.1476 98.8067 56.8644 100.497 54.245 101.011C53.6686 101.123 53.0826 101.18 52.4953 101.18ZM83.1524 66.7032C82.3721 66.7006 81.593 66.6406 80.8214 66.5239C77.2861 66.0009 74.6114 64.544 72.8721 62.1906C70.6816 59.2335 70.0331 54.9989 70.9027 49.2431C71.6185 44.472 73.283 39.6651 75.4676 36.0565C78.9551 30.2933 82.5891 29.2936 85.0307 29.4699C87.8578 29.6761 90.3636 31.0493 92.2792 33.4446C95.5501 37.5343 96.7096 44.0536 95.5456 51.7997C94.7581 57.0295 93.4238 60.6082 91.3453 63.0528C89.2668 65.4973 86.5309 66.7032 83.1524 66.7032ZM77.2995 86.835C76.7137 86.8349 76.1292 86.7784 75.5543 86.6661C72.9304 86.1521 70.6472 84.4621 69.1291 81.9055C67.714 79.5297 67.0865 76.6114 67.3614 73.6872C67.6005 71.147 68.4074 69.4257 69.8448 68.4081C71.986 66.8885 74.58 67.528 77.0873 68.1481C77.7568 68.3125 78.4471 68.4828 79.1225 68.6128L80.0624 68.7876C82.9955 69.3271 85.7658 69.8336 87.3094 72.1004C88.2597 73.4945 88.5152 75.2382 88.0894 77.4258C87.4815 80.5081 85.6815 83.2258 83.0807 84.9881C81.2682 86.2044 79.2674 86.835 77.2995 86.835Z" stroke="url(#paint4_linear_279_3916)" stroke-width="1.95634" shape-rendering="crispEdges"/>
<path d="M46.6424 81.0478C43.2639 81.0478 40.5161 79.827 38.4555 77.4034C36.395 74.9797 35.0427 71.3831 34.2552 66.1503C33.0957 58.4386 34.2463 51.9387 37.4947 47.849C39.4073 45.4403 41.9176 44.0477 44.7537 43.8235C47.1818 43.6293 50.8113 44.614 54.3168 50.3981C56.5118 54.0202 58.1809 58.8316 58.8966 63.5982C59.7617 69.3525 59.1177 73.5886 56.9272 76.5457C55.1879 78.8946 52.5132 80.35 48.9764 80.879C48.2036 80.9925 47.4235 81.0489 46.6424 81.0478ZM52.4953 101.18C50.5214 101.18 48.5206 100.548 46.7186 99.3327C44.1182 97.5706 42.3183 94.8536 41.7099 91.7719C41.2841 89.5814 41.5396 87.8406 42.4899 86.4465C44.0335 84.1827 46.8038 83.6732 49.7355 83.1323C50.0448 83.0755 50.3586 83.0187 50.6768 82.9574C51.3522 82.8289 52.0426 82.6586 52.712 82.4927C55.2193 81.8741 57.8133 81.2331 59.9545 82.7542C61.3875 83.7703 62.1958 85.4976 62.4379 88.0318C62.7129 90.9561 62.0853 93.8743 60.6702 96.2501C59.1476 98.8067 56.8644 100.497 54.245 101.011C53.6686 101.123 53.0826 101.18 52.4953 101.18ZM83.1524 66.7032C82.3721 66.7006 81.593 66.6406 80.8214 66.5239C77.2861 66.0009 74.6114 64.544 72.8721 62.1906C70.6816 59.2335 70.0331 54.9989 70.9027 49.2431C71.6185 44.472 73.283 39.6651 75.4676 36.0565C78.9551 30.2933 82.5891 29.2936 85.0307 29.4699C87.8578 29.6761 90.3636 31.0493 92.2792 33.4446C95.5501 37.5343 96.7096 44.0536 95.5456 51.7997C94.7581 57.0295 93.4238 60.6082 91.3453 63.0528C89.2668 65.4973 86.5309 66.7032 83.1524 66.7032ZM77.2995 86.835C76.7137 86.8349 76.1292 86.7784 75.5543 86.6661C72.9304 86.1521 70.6472 84.4621 69.1291 81.9055C67.714 79.5297 67.0865 76.6114 67.3614 73.6872C67.6005 71.147 68.4074 69.4257 69.8448 68.4081C71.986 66.8885 74.58 67.528 77.0873 68.1481C77.7568 68.3125 78.4471 68.4828 79.1225 68.6128L80.0624 68.7876C82.9955 69.3271 85.7658 69.8336 87.3094 72.1004C88.2597 73.4945 88.5152 75.2382 88.0894 77.4258C87.4815 80.5081 85.6815 83.2258 83.0807 84.9881C81.2682 86.2044 79.2674 86.835 77.2995 86.835Z" stroke="#FFEBB9" stroke-opacity="0.74" stroke-width="1.95634" shape-rendering="crispEdges"/>
</g>
<path d="M36.5973 133.534H93.2043C93.7218 128.099 96.4935 125.439 104.955 121.244H24.8467C32.5163 124.943 35.0567 127.69 36.5973 133.534Z" fill="url(#paint5_linear_279_3916)"/>
<ellipse cx="15.349" cy="13.0824" rx="1.8504" ry="3.98654" transform="rotate(52.9582 15.349 13.0824)" fill="#FED08A"/>
<ellipse cx="15.3491" cy="13.0825" rx="1.03799" ry="2.23626" transform="rotate(52.9582 15.3491 13.0825)" fill="#FEE0A7"/>
<ellipse rx="1.8504" ry="3.98654" transform="matrix(-0.602397 0.798197 0.798197 0.602397 114.916 13.0824)" fill="#FED08A"/>
<ellipse rx="1.03799" ry="2.23626" transform="matrix(-0.602397 0.798197 0.798197 0.602397 114.916 13.0825)" fill="#FEE0A7"/>
<defs>
<filter id="filter0_d_279_3916" x="26.3164" y="21.9521" width="77.1688" height="86.7267" filterUnits="userSpaceOnUse" color-interpolation-filters="sRGB">
<feFlood flood-opacity="0" result="BackgroundImageFix"/>
<feColorMatrix in="SourceAlpha" type="matrix" values="0 0 0 0 0 0 0 0 0 0 0 0 0 0 0 0 0 0 127 0" result="hardAlpha"/>
<feOffset/>
<feGaussianBlur stdDeviation="3.26056"/>
<feComposite in2="hardAlpha" operator="out"/>
<feColorMatrix type="matrix" values="0 0 0 0 1 0 0 0 0 0.907417 0 0 0 0 0.579167 0 0 0 0.82 0"/>
<feBlend mode="normal" in2="BackgroundImageFix" result="effect1_dropShadow_279_3916"/>
<feBlend mode="normal" in="SourceGraphic" in2="effect1_dropShadow_279_3916" result="shape"/>
</filter>
<linearGradient id="paint0_linear_279_3916" x1="64.9008" y1="0.430908" x2="64.9008" y2="136.933" gradientUnits="userSpaceOnUse">
<stop stop-color="#FFDD64"/>
<stop offset="1" stop-color="#6A2600"/>
</linearGradient>
<linearGradient id="paint1_linear_279_3916" x1="64.9008" y1="0.430908" x2="64.9008" y2="136.933" gradientUnits="userSpaceOnUse">
<stop stop-color="#FFDAAE"/>
<stop offset="0.505208" stop-color="#EE9D01"/>
<stop offset="0.859375" stop-color="#8C3200"/>
<stop offset="1" stop-color="#8A3A00"/>
</linearGradient>
<linearGradient id="paint2_linear_279_3916" x1="64.9008" y1="8.52869" x2="64.9008" y2="122.102" gradientUnits="userSpaceOnUse">
<stop stop-color="#FFB053"/>
<stop offset="0.171875" stop-color="#D69026"/>
<stop offset="0.455871" stop-color="#935800"/>
<stop offset="0.838542" stop-color="#653100"/>
<stop offset="1" stop-color="#5C1600"/>
</linearGradient>
<linearGradient id="paint3_linear_279_3916" x1="64.9008" y1="8.52869" x2="64.9008" y2="63.6037" gradientUnits="userSpaceOnUse">
<stop stop-color="white" stop-opacity="0.22"/>
<stop offset="1" stop-color="#FFC700" stop-opacity="0.2"/>
</linearGradient>
<linearGradient id="paint4_linear_279_3916" x1="64.9008" y1="29.4514" x2="68.5612" y2="87.7816" gradientUnits="userSpaceOnUse">
<stop stop-color="#FEDE8A"/>
<stop offset="1" stop-color="#FF9900" stop-opacity="0"/>
</linearGradient>
<linearGradient id="paint5_linear_279_3916" x1="64.9008" y1="133.534" x2="64.9008" y2="122.868" gradientUnits="userSpaceOnUse">
<stop stop-color="#856000" stop-opacity="0"/>
<stop offset="1" stop-color="#381B00"/>
</linearGradient>
</defs>
</svg>
