<svg width="166" height="173" viewBox="0 0 166 173" fill="none" xmlns="http://www.w3.org/2000/svg">
<g filter="url(#filter0_d_278_3855)">
<rect x="20.0582" y="16.6829" width="126.403" height="133.136" rx="22.9739" fill="url(#paint0_linear_278_3855)" stroke="url(#paint1_linear_278_3855)" stroke-width="3.36574"/>
<rect x="26.9127" y="23.5374" width="112.694" height="112.694" rx="17.1469" fill="url(#paint2_linear_278_3855)" stroke="url(#paint3_linear_278_3855)" stroke-width="0.87933"/>
<path d="M54.9561 148.103H111.563C112.081 142.668 114.852 140.008 123.314 135.813H43.2054C50.8751 139.512 53.4154 142.26 54.9561 148.103Z" fill="url(#paint4_linear_278_3855)"/>
<ellipse cx="33.7079" cy="27.6515" rx="1.8504" ry="3.98654" transform="rotate(52.9582 33.7079 27.6515)" fill="#8AE2FE"/>
<ellipse cx="33.708" cy="27.6516" rx="1.03799" ry="2.23626" transform="rotate(52.9582 33.708 27.6516)" fill="#B8E1FF"/>
<ellipse rx="1.8504" ry="3.98654" transform="matrix(-0.602397 0.798197 0.798197 0.602397 133.275 27.6515)" fill="#8AE2FE"/>
<ellipse rx="1.03799" ry="2.23626" transform="matrix(-0.602397 0.798197 0.798197 0.602397 133.275 27.6516)" fill="#B8E1FF"/>
</g>
<defs>
<filter id="filter0_d_278_3855" x="0.788757" y="0.930713" width="164.942" height="171.675" filterUnits="userSpaceOnUse" color-interpolation-filters="sRGB">
<feFlood flood-opacity="0" result="BackgroundImageFix"/>
<feColorMatrix in="SourceAlpha" type="matrix" values="0 0 0 0 0 0 0 0 0 0 0 0 0 0 0 0 0 0 127 0" result="hardAlpha"/>
<feOffset dy="3.51732"/>
<feGaussianBlur stdDeviation="8.7933"/>
<feComposite in2="hardAlpha" operator="out"/>
<feColorMatrix type="matrix" values="0 0 0 0 0 0 0 0 0 0 0 0 0 0 0 0 0 0 0.79 0"/>
<feBlend mode="normal" in2="BackgroundImageFix" result="effect1_dropShadow_278_3855"/>
<feBlend mode="normal" in="SourceGraphic" in2="effect1_dropShadow_278_3855" result="shape"/>
</filter>
<linearGradient id="paint0_linear_278_3855" x1="83.2597" y1="15" x2="83.2597" y2="151.502" gradientUnits="userSpaceOnUse">
<stop stop-color="#64A2FF"/>
<stop offset="1" stop-color="#001E6A"/>
</linearGradient>
<linearGradient id="paint1_linear_278_3855" x1="83.2597" y1="15" x2="83.2597" y2="151.502" gradientUnits="userSpaceOnUse">
<stop stop-color="#8CD6FF"/>
<stop offset="0.505208" stop-color="#01A7EE"/>
<stop offset="0.859375" stop-color="#00498C"/>
<stop offset="1" stop-color="#00278A"/>
</linearGradient>
<linearGradient id="paint2_linear_278_3855" x1="83.2597" y1="23.0978" x2="83.2597" y2="136.671" gradientUnits="userSpaceOnUse">
<stop stop-color="#53C1FF"/>
<stop offset="0.171875" stop-color="#2697D6"/>
<stop offset="0.455871" stop-color="#004D93"/>
<stop offset="0.838542" stop-color="#003565"/>
<stop offset="1" stop-color="#00255C"/>
</linearGradient>
<linearGradient id="paint3_linear_278_3855" x1="83.2597" y1="23.0978" x2="83.2597" y2="78.1728" gradientUnits="userSpaceOnUse">
<stop stop-color="white" stop-opacity="0.22"/>
<stop offset="1" stop-color="#00B2FF" stop-opacity="0.2"/>
</linearGradient>
<linearGradient id="paint4_linear_278_3855" x1="83.2596" y1="148.103" x2="83.2596" y2="137.437" gradientUnits="userSpaceOnUse">
<stop stop-color="#003D85" stop-opacity="0"/>
<stop offset="1" stop-color="#000C38"/>
</linearGradient>
</defs>
</svg>
