<svg width="166" height="173" viewBox="0 0 166 173" fill="none" xmlns="http://www.w3.org/2000/svg">
<g filter="url(#filter0_d_276_3539)">
<rect x="19.454" y="16.6829" width="126.403" height="133.136" rx="22.9739" fill="url(#paint0_linear_276_3539)" stroke="url(#paint1_linear_276_3539)" stroke-width="3.36574"/>
<rect x="26.3084" y="23.5374" width="112.694" height="112.694" rx="17.1469" fill="url(#paint2_linear_276_3539)" stroke="url(#paint3_linear_276_3539)" stroke-width="0.87933"/>
<path d="M54.352 148.103H110.959C111.476 142.668 114.248 140.008 122.71 135.813H42.6013C50.271 139.512 52.8113 142.26 54.352 148.103Z" fill="url(#paint4_linear_276_3539)"/>
<ellipse cx="33.1037" cy="27.6516" rx="1.8504" ry="3.98654" transform="rotate(52.9582 33.1037 27.6516)" fill="#D2FE8A"/>
<ellipse cx="33.1037" cy="27.6516" rx="1.03799" ry="2.23626" transform="rotate(52.9582 33.1037 27.6516)" fill="#E7FEA7"/>
<ellipse rx="1.8504" ry="3.98654" transform="matrix(-0.602397 0.798197 0.798197 0.602397 132.671 27.6516)" fill="#D2FE8A"/>
<ellipse rx="1.03799" ry="2.23626" transform="matrix(-0.602397 0.798197 0.798197 0.602397 132.67 27.6516)" fill="#E7FEA7"/>
<path d="M64.2055 95.7674C60.8271 95.7674 58.0792 94.5466 56.0186 92.1229C53.9581 89.6993 52.6058 86.1027 51.8183 80.8699C50.6588 73.1581 51.8094 66.6582 55.0578 62.5685C56.9704 60.1598 59.4808 58.7672 62.3168 58.5431C64.7449 58.3488 68.3744 59.3335 71.8799 65.1177C74.0749 68.7397 75.744 73.5511 76.4597 78.3177C77.3249 84.072 76.6808 88.3082 74.4903 91.2652C72.751 93.6142 70.0763 95.0696 66.5395 95.5985C65.7667 95.712 64.9866 95.7684 64.2055 95.7674ZM70.0584 115.899C68.0845 115.899 66.0838 115.267 64.2817 114.052C61.6814 112.29 59.8814 109.573 59.2731 106.491C58.8472 104.301 59.1027 102.56 60.053 101.166C61.5966 98.9022 64.3669 98.3927 67.2986 97.8518C67.6079 97.795 67.9217 97.7382 68.2399 97.677C68.9153 97.5485 69.6057 97.3781 70.2751 97.2123C72.7824 96.5937 75.3764 95.9526 77.5176 97.4738C78.9506 98.4898 79.759 100.217 80.001 102.751C80.276 105.676 79.6484 108.594 78.2334 110.97C76.7107 113.526 74.4275 115.216 71.8082 115.73C71.2317 115.843 70.6457 115.899 70.0584 115.899ZM100.716 81.4227C99.9352 81.4201 99.1561 81.3602 98.3845 81.2434C94.8492 80.7204 92.1745 79.2636 90.4352 76.9102C88.2447 73.9531 87.5962 69.7184 88.4658 63.9626C89.1816 59.1916 90.8461 54.3846 93.0307 50.7761C96.5182 45.0128 100.152 44.0132 102.594 44.1895C105.421 44.3957 107.927 45.7689 109.842 48.1641C113.113 52.2539 114.273 58.7732 113.109 66.5193C112.321 71.7491 110.987 75.3278 108.908 77.7723C106.83 80.2169 104.094 81.4227 100.716 81.4227ZM94.8626 101.555C94.2768 101.554 93.6924 101.498 93.1174 101.386C90.4935 100.872 88.2103 99.1817 86.6922 96.625C85.2772 94.2492 84.6496 91.331 84.9245 88.4068C85.1636 85.8666 85.9705 84.1452 87.4079 83.1277C89.5492 81.608 92.1431 82.2476 94.6505 82.8677C95.3199 83.032 96.0102 83.2024 96.6856 83.3324L97.6255 83.5072C100.559 84.0466 103.329 84.5532 104.872 86.8199C105.823 88.214 106.078 89.9578 105.652 92.1453C105.045 95.2276 103.245 97.9453 100.644 99.7076C98.8313 100.924 96.8305 101.555 94.8626 101.555Z" fill="url(#paint5_linear_276_3539)" stroke="url(#paint6_linear_276_3539)" stroke-width="1.95634"/>
</g>
<defs>
<filter id="filter0_d_276_3539" x="0.184509" y="0.930713" width="164.942" height="171.675" filterUnits="userSpaceOnUse" color-interpolation-filters="sRGB">
<feFlood flood-opacity="0" result="BackgroundImageFix"/>
<feColorMatrix in="SourceAlpha" type="matrix" values="0 0 0 0 0 0 0 0 0 0 0 0 0 0 0 0 0 0 127 0" result="hardAlpha"/>
<feOffset dy="3.51732"/>
<feGaussianBlur stdDeviation="8.7933"/>
<feComposite in2="hardAlpha" operator="out"/>
<feColorMatrix type="matrix" values="0 0 0 0 0 0 0 0 0 0 0 0 0 0 0 0 0 0 0.79 0"/>
<feBlend mode="normal" in2="BackgroundImageFix" result="effect1_dropShadow_276_3539"/>
<feBlend mode="normal" in="SourceGraphic" in2="effect1_dropShadow_276_3539" result="shape"/>
</filter>
<linearGradient id="paint0_linear_276_3539" x1="82.6555" y1="15" x2="82.6555" y2="151.502" gradientUnits="userSpaceOnUse">
<stop stop-color="#CDFF64"/>
<stop offset="1" stop-color="#426A00"/>
</linearGradient>
<linearGradient id="paint1_linear_276_3539" x1="82.6555" y1="15" x2="82.6555" y2="151.502" gradientUnits="userSpaceOnUse">
<stop stop-color="#EAFFAE"/>
<stop offset="0.505208" stop-color="#B0EE01"/>
<stop offset="0.859375" stop-color="#5F8C00"/>
<stop offset="1" stop-color="#2C8A00"/>
</linearGradient>
<linearGradient id="paint2_linear_276_3539" x1="82.6554" y1="23.0977" x2="82.6554" y2="136.671" gradientUnits="userSpaceOnUse">
<stop stop-color="#C8FF53"/>
<stop offset="0.171875" stop-color="#BED626"/>
<stop offset="0.455871" stop-color="#529300"/>
<stop offset="0.838542" stop-color="#336500"/>
<stop offset="1" stop-color="#1E5C00"/>
</linearGradient>
<linearGradient id="paint3_linear_276_3539" x1="82.6554" y1="23.0977" x2="82.6554" y2="78.1727" gradientUnits="userSpaceOnUse">
<stop stop-color="white" stop-opacity="0.22"/>
<stop offset="1" stop-color="#52FF00" stop-opacity="0.2"/>
</linearGradient>
<linearGradient id="paint4_linear_276_3539" x1="82.6555" y1="148.103" x2="82.6555" y2="137.437" gradientUnits="userSpaceOnUse">
<stop stop-color="#4A8500" stop-opacity="0"/>
<stop offset="1" stop-color="#2A3800"/>
</linearGradient>
<linearGradient id="paint5_linear_276_3539" x1="82.4639" y1="44.171" x2="82.4639" y2="115.899" gradientUnits="userSpaceOnUse">
<stop stop-color="#325900"/>
<stop offset="1" stop-color="#081300"/>
</linearGradient>
<linearGradient id="paint6_linear_276_3539" x1="82.4639" y1="44.171" x2="86.1243" y2="102.501" gradientUnits="userSpaceOnUse">
<stop stop-color="#EEFE8A"/>
<stop offset="1" stop-color="#ADFF00" stop-opacity="0"/>
</linearGradient>
</defs>
</svg>
