<svg width="166" height="173" viewBox="0 0 166 173" fill="none" xmlns="http://www.w3.org/2000/svg">
<g filter="url(#filter0_d_278_3856)">
<rect x="20.2564" y="16.6829" width="126.403" height="133.136" rx="22.9739" fill="url(#paint0_linear_278_3856)" stroke="url(#paint1_linear_278_3856)" stroke-width="3.36574"/>
<rect x="27.1109" y="23.5374" width="112.694" height="112.694" rx="17.1469" fill="url(#paint2_linear_278_3856)" stroke="url(#paint3_linear_278_3856)" stroke-width="0.87933"/>
<path d="M55.1542 148.103H111.761C112.279 142.668 115.05 140.008 123.512 135.813H43.4036C51.0732 139.512 53.6136 142.26 55.1542 148.103Z" fill="url(#paint4_linear_278_3856)"/>
<ellipse cx="33.906" cy="27.6515" rx="1.8504" ry="3.98654" transform="rotate(52.9582 33.906 27.6515)" fill="#FEA58A"/>
<ellipse cx="33.9061" cy="27.6516" rx="1.03799" ry="2.23626" transform="rotate(52.9582 33.9061 27.6516)" fill="#FFD6B8"/>
<ellipse rx="1.8504" ry="3.98654" transform="matrix(-0.602397 0.798197 0.798197 0.602397 133.473 27.6515)" fill="#FEA58A"/>
<ellipse rx="1.03799" ry="2.23626" transform="matrix(-0.602397 0.798197 0.798197 0.602397 133.473 27.6516)" fill="#FFD6B8"/>
</g>
<defs>
<filter id="filter0_d_278_3856" x="0.986877" y="0.930713" width="164.942" height="171.675" filterUnits="userSpaceOnUse" color-interpolation-filters="sRGB">
<feFlood flood-opacity="0" result="BackgroundImageFix"/>
<feColorMatrix in="SourceAlpha" type="matrix" values="0 0 0 0 0 0 0 0 0 0 0 0 0 0 0 0 0 0 127 0" result="hardAlpha"/>
<feOffset dy="3.51732"/>
<feGaussianBlur stdDeviation="8.7933"/>
<feComposite in2="hardAlpha" operator="out"/>
<feColorMatrix type="matrix" values="0 0 0 0 0 0 0 0 0 0 0 0 0 0 0 0 0 0 0.79 0"/>
<feBlend mode="normal" in2="BackgroundImageFix" result="effect1_dropShadow_278_3856"/>
<feBlend mode="normal" in="SourceGraphic" in2="effect1_dropShadow_278_3856" result="shape"/>
</filter>
<linearGradient id="paint0_linear_278_3856" x1="83.4578" y1="15" x2="83.4578" y2="151.502" gradientUnits="userSpaceOnUse">
<stop stop-color="#FF7664"/>
<stop offset="1" stop-color="#6A0100"/>
</linearGradient>
<linearGradient id="paint1_linear_278_3856" x1="83.4578" y1="15" x2="83.4578" y2="151.502" gradientUnits="userSpaceOnUse">
<stop stop-color="#FFA88C"/>
<stop offset="0.505208" stop-color="#EE2C01"/>
<stop offset="0.859375" stop-color="#8C1900"/>
<stop offset="1" stop-color="#8A0000"/>
</linearGradient>
<linearGradient id="paint2_linear_278_3856" x1="83.4579" y1="23.0978" x2="83.4579" y2="136.671" gradientUnits="userSpaceOnUse">
<stop stop-color="#FF7C53"/>
<stop offset="0.171875" stop-color="#D62726"/>
<stop offset="0.455871" stop-color="#930100"/>
<stop offset="0.838542" stop-color="#650100"/>
<stop offset="1" stop-color="#5C0000"/>
</linearGradient>
<linearGradient id="paint3_linear_278_3856" x1="83.4579" y1="23.0978" x2="83.4579" y2="78.1728" gradientUnits="userSpaceOnUse">
<stop stop-color="white" stop-opacity="0.22"/>
<stop offset="1" stop-color="#FF3D00" stop-opacity="0.2"/>
</linearGradient>
<linearGradient id="paint4_linear_278_3856" x1="83.4577" y1="148.103" x2="83.4577" y2="137.437" gradientUnits="userSpaceOnUse">
<stop stop-color="#850100" stop-opacity="0"/>
<stop offset="1" stop-color="#380100"/>
</linearGradient>
</defs>
</svg>
