<svg width="166" height="173" viewBox="0 0 166 173" fill="none" xmlns="http://www.w3.org/2000/svg">
<g filter="url(#filter0_d_279_3916)">
<rect x="19.6994" y="16.1138" width="126.403" height="133.136" rx="22.9739" fill="url(#paint0_linear_279_3916)" stroke="url(#paint1_linear_279_3916)" stroke-width="3.36574"/>
<rect x="26.5538" y="22.9684" width="112.694" height="112.694" rx="17.1469" fill="url(#paint2_linear_279_3916)" stroke="url(#paint3_linear_279_3916)" stroke-width="0.87933"/>
<g filter="url(#filter1_d_279_3916)">
<path d="M64.6424 95.0478C61.2639 95.0478 58.5161 93.827 56.4555 91.4034C54.395 88.9797 53.0427 85.3831 52.2552 80.1503C51.0957 72.4386 52.2463 65.9387 55.4947 61.849C57.4073 59.4403 59.9176 58.0477 62.7537 57.8235C65.1818 57.6293 68.8113 58.614 72.3168 64.3981C74.5118 68.0202 76.1809 72.8316 76.8966 77.5982C77.7617 83.3525 77.1177 87.5886 74.9272 90.5457C73.1879 92.8946 70.5132 94.35 66.9764 94.879C66.2036 94.9925 65.4235 95.0489 64.6424 95.0478ZM70.4953 115.18C68.5214 115.18 66.5206 114.548 64.7186 113.333C62.1182 111.571 60.3183 108.854 59.7099 105.772C59.2841 103.581 59.5396 101.841 60.4899 100.446C62.0335 98.1827 64.8038 97.6732 67.7355 97.1323C68.0448 97.0755 68.3586 97.0187 68.6768 96.9574C69.3522 96.8289 70.0426 96.6586 70.712 96.4927C73.2193 95.8741 75.8133 95.2331 77.9545 96.7542C79.3875 97.7703 80.1958 99.4976 80.4379 102.032C80.7129 104.956 80.0853 107.874 78.6702 110.25C77.1476 112.807 74.8644 114.497 72.245 115.011C71.6686 115.123 71.0826 115.18 70.4953 115.18ZM101.152 80.7032C100.372 80.7006 99.593 80.6406 98.8214 80.5239C95.2861 80.0009 92.6114 78.544 90.8721 76.1906C88.6816 73.2335 88.0331 68.9989 88.9027 63.2431C89.6185 58.472 91.283 53.6651 93.4676 50.0565C96.9551 44.2933 100.589 43.2936 103.031 43.4699C105.858 43.6761 108.364 45.0493 110.279 47.4446C113.55 51.5343 114.71 58.0536 113.546 65.7997C112.758 71.0295 111.424 74.6082 109.345 77.0528C107.267 79.4973 104.531 80.7032 101.152 80.7032ZM95.2995 100.835C94.7137 100.835 94.1292 100.778 93.5543 100.666C90.9304 100.152 88.6472 98.4621 87.1291 95.9055C85.714 93.5297 85.0865 90.6114 85.3614 87.6872C85.6005 85.147 86.4074 83.4257 87.8448 82.4081C89.986 80.8885 92.58 81.528 95.0873 82.1481C95.7568 82.3125 96.4471 82.4828 97.1225 82.6128L98.0624 82.7876C100.996 83.3271 103.766 83.8336 105.309 86.1004C106.26 87.4945 106.515 89.2382 106.089 91.4258C105.482 94.5081 103.682 97.2258 101.081 98.9881C99.2682 100.204 97.2674 100.835 95.2995 100.835Z" fill="#FFD98E" shape-rendering="crispEdges"/>
<path d="M64.6424 95.0478C61.2639 95.0478 58.5161 93.827 56.4555 91.4034C54.395 88.9797 53.0427 85.3831 52.2552 80.1503C51.0957 72.4386 52.2463 65.9387 55.4947 61.849C57.4073 59.4403 59.9176 58.0477 62.7537 57.8235C65.1818 57.6293 68.8113 58.614 72.3168 64.3981C74.5118 68.0202 76.1809 72.8316 76.8966 77.5982C77.7617 83.3525 77.1177 87.5886 74.9272 90.5457C73.1879 92.8946 70.5132 94.35 66.9764 94.879C66.2036 94.9925 65.4235 95.0489 64.6424 95.0478ZM70.4953 115.18C68.5214 115.18 66.5206 114.548 64.7186 113.333C62.1182 111.571 60.3183 108.854 59.7099 105.772C59.2841 103.581 59.5396 101.841 60.4899 100.446C62.0335 98.1827 64.8038 97.6732 67.7355 97.1323C68.0448 97.0755 68.3586 97.0187 68.6768 96.9574C69.3522 96.8289 70.0426 96.6586 70.712 96.4927C73.2193 95.8741 75.8133 95.2331 77.9545 96.7542C79.3875 97.7703 80.1958 99.4976 80.4379 102.032C80.7129 104.956 80.0853 107.874 78.6702 110.25C77.1476 112.807 74.8644 114.497 72.245 115.011C71.6686 115.123 71.0826 115.18 70.4953 115.18ZM101.152 80.7032C100.372 80.7006 99.593 80.6406 98.8214 80.5239C95.2861 80.0009 92.6114 78.544 90.8721 76.1906C88.6816 73.2335 88.0331 68.9989 88.9027 63.2431C89.6185 58.472 91.283 53.6651 93.4676 50.0565C96.9551 44.2933 100.589 43.2936 103.031 43.4699C105.858 43.6761 108.364 45.0493 110.279 47.4446C113.55 51.5343 114.71 58.0536 113.546 65.7997C112.758 71.0295 111.424 74.6082 109.345 77.0528C107.267 79.4973 104.531 80.7032 101.152 80.7032ZM95.2995 100.835C94.7137 100.835 94.1292 100.778 93.5543 100.666C90.9304 100.152 88.6472 98.4621 87.1291 95.9055C85.714 93.5297 85.0865 90.6114 85.3614 87.6872C85.6005 85.147 86.4074 83.4257 87.8448 82.4081C89.986 80.8885 92.58 81.528 95.0873 82.1481C95.7568 82.3125 96.4471 82.4828 97.1225 82.6128L98.0624 82.7876C100.996 83.3271 103.766 83.8336 105.309 86.1004C106.26 87.4945 106.515 89.2382 106.089 91.4258C105.482 94.5081 103.682 97.2258 101.081 98.9881C99.2682 100.204 97.2674 100.835 95.2995 100.835Z" stroke="url(#paint4_linear_279_3916)" stroke-width="1.95634" shape-rendering="crispEdges"/>
<path d="M64.6424 95.0478C61.2639 95.0478 58.5161 93.827 56.4555 91.4034C54.395 88.9797 53.0427 85.3831 52.2552 80.1503C51.0957 72.4386 52.2463 65.9387 55.4947 61.849C57.4073 59.4403 59.9176 58.0477 62.7537 57.8235C65.1818 57.6293 68.8113 58.614 72.3168 64.3981C74.5118 68.0202 76.1809 72.8316 76.8966 77.5982C77.7617 83.3525 77.1177 87.5886 74.9272 90.5457C73.1879 92.8946 70.5132 94.35 66.9764 94.879C66.2036 94.9925 65.4235 95.0489 64.6424 95.0478ZM70.4953 115.18C68.5214 115.18 66.5206 114.548 64.7186 113.333C62.1182 111.571 60.3183 108.854 59.7099 105.772C59.2841 103.581 59.5396 101.841 60.4899 100.446C62.0335 98.1827 64.8038 97.6732 67.7355 97.1323C68.0448 97.0755 68.3586 97.0187 68.6768 96.9574C69.3522 96.8289 70.0426 96.6586 70.712 96.4927C73.2193 95.8741 75.8133 95.2331 77.9545 96.7542C79.3875 97.7703 80.1958 99.4976 80.4379 102.032C80.7129 104.956 80.0853 107.874 78.6702 110.25C77.1476 112.807 74.8644 114.497 72.245 115.011C71.6686 115.123 71.0826 115.18 70.4953 115.18ZM101.152 80.7032C100.372 80.7006 99.593 80.6406 98.8214 80.5239C95.2861 80.0009 92.6114 78.544 90.8721 76.1906C88.6816 73.2335 88.0331 68.9989 88.9027 63.2431C89.6185 58.472 91.283 53.6651 93.4676 50.0565C96.9551 44.2933 100.589 43.2936 103.031 43.4699C105.858 43.6761 108.364 45.0493 110.279 47.4446C113.55 51.5343 114.71 58.0536 113.546 65.7997C112.758 71.0295 111.424 74.6082 109.345 77.0528C107.267 79.4973 104.531 80.7032 101.152 80.7032ZM95.2995 100.835C94.7137 100.835 94.1292 100.778 93.5543 100.666C90.9304 100.152 88.6472 98.4621 87.1291 95.9055C85.714 93.5297 85.0865 90.6114 85.3614 87.6872C85.6005 85.147 86.4074 83.4257 87.8448 82.4081C89.986 80.8885 92.58 81.528 95.0873 82.1481C95.7568 82.3125 96.4471 82.4828 97.1225 82.6128L98.0624 82.7876C100.996 83.3271 103.766 83.8336 105.309 86.1004C106.26 87.4945 106.515 89.2382 106.089 91.4258C105.482 94.5081 103.682 97.2258 101.081 98.9881C99.2682 100.204 97.2674 100.835 95.2995 100.835Z" stroke="#FFEBB9" stroke-opacity="0.74" stroke-width="1.95634" shape-rendering="crispEdges"/>
</g>
<path d="M54.5973 147.534H111.204C111.722 142.099 114.493 139.439 122.955 135.244H42.8467C50.5163 138.943 53.0567 141.69 54.5973 147.534Z" fill="url(#paint5_linear_279_3916)"/>
<ellipse cx="33.349" cy="27.0824" rx="1.8504" ry="3.98654" transform="rotate(52.9582 33.349 27.0824)" fill="#FED08A"/>
<ellipse cx="33.3491" cy="27.0825" rx="1.03799" ry="2.23626" transform="rotate(52.9582 33.3491 27.0825)" fill="#FEE0A7"/>
<ellipse rx="1.8504" ry="3.98654" transform="matrix(-0.602397 0.798197 0.798197 0.602397 132.916 27.0824)" fill="#FED08A"/>
<ellipse rx="1.03799" ry="2.23626" transform="matrix(-0.602397 0.798197 0.798197 0.602397 132.916 27.0825)" fill="#FEE0A7"/>
</g>
<defs>
<filter id="filter0_d_279_3916" x="0.429871" y="0.361621" width="164.942" height="171.675" filterUnits="userSpaceOnUse" color-interpolation-filters="sRGB">
<feFlood flood-opacity="0" result="BackgroundImageFix"/>
<feColorMatrix in="SourceAlpha" type="matrix" values="0 0 0 0 0 0 0 0 0 0 0 0 0 0 0 0 0 0 127 0" result="hardAlpha"/>
<feOffset dy="3.51732"/>
<feGaussianBlur stdDeviation="8.7933"/>
<feComposite in2="hardAlpha" operator="out"/>
<feColorMatrix type="matrix" values="0 0 0 0 0 0 0 0 0 0 0 0 0 0 0 0 0 0 0.79 0"/>
<feBlend mode="normal" in2="BackgroundImageFix" result="effect1_dropShadow_279_3916"/>
<feBlend mode="normal" in="SourceGraphic" in2="effect1_dropShadow_279_3916" result="shape"/>
</filter>
<filter id="filter1_d_279_3916" x="44.3164" y="35.9521" width="77.1688" height="86.7267" filterUnits="userSpaceOnUse" color-interpolation-filters="sRGB">
<feFlood flood-opacity="0" result="BackgroundImageFix"/>
<feColorMatrix in="SourceAlpha" type="matrix" values="0 0 0 0 0 0 0 0 0 0 0 0 0 0 0 0 0 0 127 0" result="hardAlpha"/>
<feOffset/>
<feGaussianBlur stdDeviation="3.26056"/>
<feComposite in2="hardAlpha" operator="out"/>
<feColorMatrix type="matrix" values="0 0 0 0 1 0 0 0 0 0.907417 0 0 0 0 0.579167 0 0 0 0.82 0"/>
<feBlend mode="normal" in2="BackgroundImageFix" result="effect1_dropShadow_279_3916"/>
<feBlend mode="normal" in="SourceGraphic" in2="effect1_dropShadow_279_3916" result="shape"/>
</filter>
<linearGradient id="paint0_linear_279_3916" x1="82.9008" y1="14.4309" x2="82.9008" y2="150.933" gradientUnits="userSpaceOnUse">
<stop stop-color="#FFDD64"/>
<stop offset="1" stop-color="#6A2600"/>
</linearGradient>
<linearGradient id="paint1_linear_279_3916" x1="82.9008" y1="14.4309" x2="82.9008" y2="150.933" gradientUnits="userSpaceOnUse">
<stop stop-color="#FFDAAE"/>
<stop offset="0.505208" stop-color="#EE9D01"/>
<stop offset="0.859375" stop-color="#8C3200"/>
<stop offset="1" stop-color="#8A3A00"/>
</linearGradient>
<linearGradient id="paint2_linear_279_3916" x1="82.9008" y1="22.5287" x2="82.9008" y2="136.102" gradientUnits="userSpaceOnUse">
<stop stop-color="#FFB053"/>
<stop offset="0.171875" stop-color="#D69026"/>
<stop offset="0.455871" stop-color="#935800"/>
<stop offset="0.838542" stop-color="#653100"/>
<stop offset="1" stop-color="#5C1600"/>
</linearGradient>
<linearGradient id="paint3_linear_279_3916" x1="82.9008" y1="22.5287" x2="82.9008" y2="77.6037" gradientUnits="userSpaceOnUse">
<stop stop-color="white" stop-opacity="0.22"/>
<stop offset="1" stop-color="#FFC700" stop-opacity="0.2"/>
</linearGradient>
<linearGradient id="paint4_linear_279_3916" x1="82.9008" y1="43.4514" x2="86.5612" y2="101.782" gradientUnits="userSpaceOnUse">
<stop stop-color="#FEDE8A"/>
<stop offset="1" stop-color="#FF9900" stop-opacity="0"/>
</linearGradient>
<linearGradient id="paint5_linear_279_3916" x1="82.9008" y1="147.534" x2="82.9008" y2="136.868" gradientUnits="userSpaceOnUse">
<stop stop-color="#856000" stop-opacity="0"/>
<stop offset="1" stop-color="#381B00"/>
</linearGradient>
</defs>
</svg>
