<svg width="131" height="137" viewBox="0 0 131 137" fill="none" xmlns="http://www.w3.org/2000/svg">
<rect x="2.25636" y="1.68287" width="126.403" height="133.136" rx="22.9739" fill="url(#paint0_linear_276_3500)" stroke="url(#paint1_linear_276_3500)" stroke-width="3.36574"/>
<rect x="9.11093" y="8.53738" width="112.694" height="112.694" rx="17.1469" fill="url(#paint2_linear_276_3500)" stroke="url(#paint3_linear_276_3500)" stroke-width="0.87933"/>
<path d="M47.1994 80.6167C43.821 80.6167 41.0731 79.3959 39.0125 76.9722C36.952 74.5486 35.5997 70.952 34.8122 65.7192C33.6527 58.0074 34.8033 51.5075 38.0517 47.4178C39.9643 45.0091 42.4747 43.6165 45.3107 43.3924C47.7388 43.1981 51.3683 44.1828 54.8738 49.967C57.0688 53.589 58.7379 58.4004 59.4536 63.167C60.3188 68.9213 59.6747 73.1575 57.4842 76.1145C55.7449 78.4635 53.0702 79.9189 49.5334 80.4478C48.7606 80.5613 47.9805 80.6177 47.1994 80.6167ZM53.0523 100.748C51.0784 100.748 49.0777 100.116 47.2756 98.9016C44.6752 97.1395 42.8753 94.4224 42.267 91.3408C41.8411 89.1502 42.0966 87.4094 43.0469 86.0153C44.5905 83.7516 47.3608 83.242 50.2925 82.7011C50.6018 82.6443 50.9156 82.5875 51.2338 82.5263C51.9092 82.3978 52.5996 82.2274 53.269 82.0616C55.7763 81.443 58.3703 80.8019 60.5115 82.3231C61.9445 83.3391 62.7529 85.0665 62.9949 87.6007C63.2699 90.5249 62.6423 93.4431 61.2272 95.819C59.7046 98.3756 57.4214 100.066 54.8021 100.58C54.2256 100.692 53.6396 100.749 53.0523 100.748ZM83.7094 66.272C82.9291 66.2694 82.15 66.2095 81.3784 66.0927C77.8431 65.5698 75.1684 64.1129 73.4291 61.7595C71.2386 58.8024 70.5901 54.5677 71.4597 48.8119C72.1755 44.0409 73.84 39.2339 76.0246 35.6254C79.5121 29.8621 83.1461 28.8625 85.5877 29.0388C88.4148 29.245 90.9206 30.6182 92.8362 33.0134C96.1071 37.1032 97.2666 43.6225 96.1026 51.3686C95.3151 56.5984 93.9808 60.1771 91.9023 62.6216C89.8238 65.0662 87.0879 66.272 83.7094 66.272ZM77.8565 86.4038C77.2707 86.4037 76.6863 86.3472 76.1113 86.235C73.4874 85.7209 71.2042 84.031 69.6861 81.4743C68.2711 79.0985 67.6435 76.1803 67.9184 73.2561C68.1575 70.7159 68.9644 68.9945 70.4018 67.977C72.5431 66.4573 75.137 67.0969 77.6444 67.717C78.3138 67.8813 79.0041 68.0517 79.6795 68.1817L80.6194 68.3565C83.5525 68.8959 86.3228 69.4025 87.8664 71.6692C88.8167 73.0633 89.0722 74.8071 88.6464 76.9946C88.0385 80.0769 86.2385 82.7946 83.6377 84.5569C81.8252 85.7732 79.8244 86.4038 77.8565 86.4038Z" fill="url(#paint4_linear_276_3500)" stroke="url(#paint5_linear_276_3500)" stroke-width="2.63799"/>
<path d="M37.1542 133.103H93.7612C94.2787 127.668 97.0504 125.008 105.512 120.813H25.4036C33.0732 124.512 35.6136 127.26 37.1542 133.103Z" fill="url(#paint6_linear_276_3500)"/>
<ellipse cx="15.906" cy="12.6516" rx="1.8504" ry="3.98654" transform="rotate(52.9582 15.906 12.6516)" fill="#FEA58A"/>
<ellipse cx="15.9061" cy="12.6516" rx="1.03799" ry="2.23626" transform="rotate(52.9582 15.9061 12.6516)" fill="#FFD6B8"/>
<ellipse rx="1.8504" ry="3.98654" transform="matrix(-0.602397 0.798197 0.798197 0.602397 115.473 12.6516)" fill="#FEA58A"/>
<ellipse rx="1.03799" ry="2.23626" transform="matrix(-0.602397 0.798197 0.798197 0.602397 115.473 12.6516)" fill="#FFD6B8"/>
<defs>
<linearGradient id="paint0_linear_276_3500" x1="65.4578" y1="0" x2="65.4578" y2="136.502" gradientUnits="userSpaceOnUse">
<stop stop-color="#FF7664"/>
<stop offset="1" stop-color="#6A0100"/>
</linearGradient>
<linearGradient id="paint1_linear_276_3500" x1="65.4578" y1="0" x2="65.4578" y2="136.502" gradientUnits="userSpaceOnUse">
<stop stop-color="#FFA88C"/>
<stop offset="0.505208" stop-color="#EE2C01"/>
<stop offset="0.859375" stop-color="#8C1900"/>
<stop offset="1" stop-color="#8A0000"/>
</linearGradient>
<linearGradient id="paint2_linear_276_3500" x1="65.4579" y1="8.09772" x2="65.4579" y2="121.671" gradientUnits="userSpaceOnUse">
<stop stop-color="#FF7C53"/>
<stop offset="0.171875" stop-color="#D62726"/>
<stop offset="0.455871" stop-color="#930100"/>
<stop offset="0.838542" stop-color="#650100"/>
<stop offset="1" stop-color="#5C0000"/>
</linearGradient>
<linearGradient id="paint3_linear_276_3500" x1="65.4579" y1="8.09772" x2="65.4579" y2="63.1727" gradientUnits="userSpaceOnUse">
<stop stop-color="white" stop-opacity="0.22"/>
<stop offset="1" stop-color="#FF3D00" stop-opacity="0.2"/>
</linearGradient>
<linearGradient id="paint4_linear_276_3500" x1="65.4578" y1="29.0203" x2="65.4578" y2="100.748" gradientUnits="userSpaceOnUse">
<stop stop-color="#590000"/>
<stop offset="1" stop-color="#130000"/>
</linearGradient>
<linearGradient id="paint5_linear_276_3500" x1="65.4578" y1="29.0203" x2="69.1182" y2="87.3504" gradientUnits="userSpaceOnUse">
<stop stop-color="#FEA58A"/>
<stop offset="1" stop-color="#FF0000" stop-opacity="0"/>
</linearGradient>
<linearGradient id="paint6_linear_276_3500" x1="65.4577" y1="133.103" x2="65.4577" y2="122.437" gradientUnits="userSpaceOnUse">
<stop stop-color="#850100" stop-opacity="0"/>
<stop offset="1" stop-color="#380100"/>
</linearGradient>
</defs>
</svg>
