<svg width="130" height="137" viewBox="0 0 130 137" fill="none" xmlns="http://www.w3.org/2000/svg">
<rect x="1.69935" y="1.68287" width="126.403" height="133.136" rx="22.9739" fill="url(#paint0_linear_276_3581)" stroke="url(#paint1_linear_276_3581)" stroke-width="3.36574"/>
<rect x="8.5538" y="8.53738" width="112.694" height="112.694" rx="17.1469" fill="url(#paint2_linear_276_3581)" stroke="url(#paint3_linear_276_3581)" stroke-width="0.87933"/>
<path d="M46.6424 80.6167C43.2639 80.6167 40.5161 79.3959 38.4555 76.9722C36.395 74.5486 35.0427 70.952 34.2552 65.7192C33.0957 58.0074 34.2463 51.5075 37.4947 47.4178C39.4073 45.0091 41.9176 43.6165 44.7537 43.3924C47.1818 43.1981 50.8113 44.1828 54.3168 49.967C56.5118 53.589 58.1809 58.4004 58.8966 63.167C59.7617 68.9213 59.1177 73.1575 56.9272 76.1145C55.1879 78.4635 52.5132 79.9189 48.9764 80.4478C48.2036 80.5613 47.4235 80.6177 46.6424 80.6167ZM52.4953 100.748C50.5214 100.748 48.5206 100.116 46.7186 98.9016C44.1182 97.1395 42.3183 94.4224 41.7099 91.3408C41.2841 89.1502 41.5396 87.4094 42.4899 86.0153C44.0335 83.7516 46.8038 83.242 49.7355 82.7011C50.0448 82.6443 50.3586 82.5875 50.6768 82.5263C51.3522 82.3978 52.0426 82.2274 52.712 82.0616C55.2193 81.443 57.8133 80.8019 59.9545 82.3231C61.3875 83.3391 62.1958 85.0665 62.4379 87.6007C62.7129 90.5249 62.0853 93.4431 60.6702 95.819C59.1476 98.3756 56.8644 100.066 54.245 100.58C53.6686 100.692 53.0826 100.749 52.4953 100.748ZM83.1524 66.272C82.3721 66.2694 81.593 66.2095 80.8214 66.0927C77.2861 65.5698 74.6114 64.1129 72.8721 61.7595C70.6816 58.8024 70.0331 54.5677 70.9027 48.8119C71.6185 44.0409 73.283 39.2339 75.4676 35.6254C78.9551 29.8621 82.5891 28.8625 85.0307 29.0388C87.8578 29.245 90.3636 30.6182 92.2792 33.0134C95.5501 37.1032 96.7096 43.6225 95.5456 51.3686C94.7581 56.5984 93.4238 60.1771 91.3453 62.6216C89.2668 65.0662 86.5309 66.272 83.1524 66.272ZM77.2995 86.4038C76.7137 86.4037 76.1292 86.3472 75.5543 86.235C72.9304 85.7209 70.6472 84.031 69.1291 81.4743C67.714 79.0985 67.0865 76.1803 67.3614 73.2561C67.6005 70.7159 68.4074 68.9945 69.8448 67.977C71.986 66.4573 74.58 67.0969 77.0873 67.717C77.7568 67.8813 78.4471 68.0517 79.1225 68.1817L80.0624 68.3565C82.9955 68.8959 85.7658 69.4025 87.3094 71.6692C88.2597 73.0633 88.5152 74.8071 88.0894 76.9946C87.4815 80.0769 85.6815 82.7946 83.0807 84.5569C81.2682 85.7732 79.2674 86.4038 77.2995 86.4038Z" fill="url(#paint4_linear_276_3581)" stroke="url(#paint5_linear_276_3581)" stroke-width="2.63799"/>
<path d="M36.5973 133.103H93.2043C93.7218 127.668 96.4935 125.008 104.955 120.813H24.8467C32.5163 124.512 35.0567 127.26 36.5973 133.103Z" fill="url(#paint6_linear_276_3581)"/>
<ellipse cx="15.349" cy="12.6516" rx="1.8504" ry="3.98654" transform="rotate(52.9582 15.349 12.6516)" fill="#FED08A"/>
<ellipse cx="15.3491" cy="12.6516" rx="1.03799" ry="2.23626" transform="rotate(52.9582 15.3491 12.6516)" fill="#FEE0A7"/>
<ellipse rx="1.8504" ry="3.98654" transform="matrix(-0.602397 0.798197 0.798197 0.602397 114.916 12.6516)" fill="#FED08A"/>
<ellipse rx="1.03799" ry="2.23626" transform="matrix(-0.602397 0.798197 0.798197 0.602397 114.916 12.6516)" fill="#FEE0A7"/>
<defs>
<linearGradient id="paint0_linear_276_3581" x1="64.9008" y1="0" x2="64.9008" y2="136.502" gradientUnits="userSpaceOnUse">
<stop stop-color="#FFDD64"/>
<stop offset="1" stop-color="#6A2600"/>
</linearGradient>
<linearGradient id="paint1_linear_276_3581" x1="64.9008" y1="0" x2="64.9008" y2="136.502" gradientUnits="userSpaceOnUse">
<stop stop-color="#FFDAAE"/>
<stop offset="0.505208" stop-color="#EE9D01"/>
<stop offset="0.859375" stop-color="#8C3200"/>
<stop offset="1" stop-color="#8A3A00"/>
</linearGradient>
<linearGradient id="paint2_linear_276_3581" x1="64.9008" y1="8.09772" x2="64.9008" y2="121.671" gradientUnits="userSpaceOnUse">
<stop stop-color="#FFB053"/>
<stop offset="0.171875" stop-color="#D69026"/>
<stop offset="0.455871" stop-color="#935800"/>
<stop offset="0.838542" stop-color="#653100"/>
<stop offset="1" stop-color="#5C1600"/>
</linearGradient>
<linearGradient id="paint3_linear_276_3581" x1="64.9008" y1="8.09772" x2="64.9008" y2="63.1727" gradientUnits="userSpaceOnUse">
<stop stop-color="white" stop-opacity="0.22"/>
<stop offset="1" stop-color="#FFC700" stop-opacity="0.2"/>
</linearGradient>
<linearGradient id="paint4_linear_276_3581" x1="64.9008" y1="29.0203" x2="64.9008" y2="100.748" gradientUnits="userSpaceOnUse">
<stop stop-color="#593600"/>
<stop offset="1" stop-color="#130800"/>
</linearGradient>
<linearGradient id="paint5_linear_276_3581" x1="64.9008" y1="29.0203" x2="68.5612" y2="87.3504" gradientUnits="userSpaceOnUse">
<stop stop-color="#FED08A"/>
<stop offset="1" stop-color="#FF8A00" stop-opacity="0"/>
</linearGradient>
<linearGradient id="paint6_linear_276_3581" x1="64.9008" y1="133.103" x2="64.9008" y2="122.437" gradientUnits="userSpaceOnUse">
<stop stop-color="#856000" stop-opacity="0"/>
<stop offset="1" stop-color="#381B00"/>
</linearGradient>
</defs>
</svg>
