<svg width="131" height="137" viewBox="0 0 131 137" fill="none" xmlns="http://www.w3.org/2000/svg">
<rect x="2.25636" y="1.68287" width="126.403" height="133.136" rx="22.9739" fill="url(#paint0_linear_278_3856)" stroke="url(#paint1_linear_278_3856)" stroke-width="3.36574"/>
<rect x="9.11093" y="8.53744" width="112.694" height="112.694" rx="17.1469" fill="url(#paint2_linear_278_3856)" stroke="url(#paint3_linear_278_3856)" stroke-width="0.87933"/>
<path d="M37.1542 133.103H93.7612C94.2787 127.668 97.0504 125.008 105.512 120.813H25.4036C33.0732 124.512 35.6136 127.26 37.1542 133.103Z" fill="url(#paint4_linear_278_3856)"/>
<ellipse cx="15.906" cy="12.6515" rx="1.8504" ry="3.98654" transform="rotate(52.9582 15.906 12.6515)" fill="#FEA58A"/>
<ellipse cx="15.9061" cy="12.6516" rx="1.03799" ry="2.23626" transform="rotate(52.9582 15.9061 12.6516)" fill="#FFD6B8"/>
<ellipse rx="1.8504" ry="3.98654" transform="matrix(-0.602397 0.798197 0.798197 0.602397 115.473 12.6515)" fill="#FEA58A"/>
<ellipse rx="1.03799" ry="2.23626" transform="matrix(-0.602397 0.798197 0.798197 0.602397 115.473 12.6516)" fill="#FFD6B8"/>
<defs>
<linearGradient id="paint0_linear_278_3856" x1="65.4578" y1="0" x2="65.4578" y2="136.502" gradientUnits="userSpaceOnUse">
<stop stop-color="#FF7664"/>
<stop offset="1" stop-color="#6A0100"/>
</linearGradient>
<linearGradient id="paint1_linear_278_3856" x1="65.4578" y1="0" x2="65.4578" y2="136.502" gradientUnits="userSpaceOnUse">
<stop stop-color="#FFA88C"/>
<stop offset="0.505208" stop-color="#EE2C01"/>
<stop offset="0.859375" stop-color="#8C1900"/>
<stop offset="1" stop-color="#8A0000"/>
</linearGradient>
<linearGradient id="paint2_linear_278_3856" x1="65.4579" y1="8.09778" x2="65.4579" y2="121.671" gradientUnits="userSpaceOnUse">
<stop stop-color="#FF7C53"/>
<stop offset="0.171875" stop-color="#D62726"/>
<stop offset="0.455871" stop-color="#930100"/>
<stop offset="0.838542" stop-color="#650100"/>
<stop offset="1" stop-color="#5C0000"/>
</linearGradient>
<linearGradient id="paint3_linear_278_3856" x1="65.4579" y1="8.09778" x2="65.4579" y2="63.1728" gradientUnits="userSpaceOnUse">
<stop stop-color="white" stop-opacity="0.22"/>
<stop offset="1" stop-color="#FF3D00" stop-opacity="0.2"/>
</linearGradient>
<linearGradient id="paint4_linear_278_3856" x1="65.4577" y1="133.103" x2="65.4577" y2="122.437" gradientUnits="userSpaceOnUse">
<stop stop-color="#850100" stop-opacity="0"/>
<stop offset="1" stop-color="#380100"/>
</linearGradient>
</defs>
</svg>
