<svg width="166" height="173" viewBox="0 0 166 173" fill="none" xmlns="http://www.w3.org/2000/svg">
<g filter="url(#filter0_d_279_3915)">
<rect x="19.5017" y="16.1138" width="126.403" height="133.136" rx="22.9739" fill="url(#paint0_linear_279_3915)" stroke="url(#paint1_linear_279_3915)" stroke-width="3.36574"/>
<rect x="26.3563" y="22.9684" width="112.694" height="112.694" rx="17.1469" fill="url(#paint2_linear_279_3915)" stroke="url(#paint3_linear_279_3915)" stroke-width="0.87933"/>
<g filter="url(#filter1_d_279_3915)">
<path d="M64.4448 95.0478C61.0663 95.0478 58.3184 93.827 56.2579 91.4034C54.1973 88.9797 52.8451 85.3831 52.0576 80.1503C50.8981 72.4386 52.0486 65.9387 55.2971 61.849C57.2097 59.4403 59.72 58.0477 62.5561 57.8235C64.9842 57.6293 68.6137 58.614 72.1191 64.3981C74.3142 68.0202 75.9832 72.8316 76.699 77.5982C77.5641 83.3525 76.9201 87.5886 74.7296 90.5457C72.9903 92.8946 70.3156 94.35 66.7788 94.879C66.006 94.9925 65.2259 95.0489 64.4448 95.0478ZM70.2977 115.18C68.3238 115.18 66.323 114.548 64.521 113.333C61.9206 111.571 60.1207 108.854 59.5123 105.772C59.0865 103.581 59.342 101.841 60.2923 100.446C61.8358 98.1827 64.6061 97.6732 67.5378 97.1323C67.8471 97.0755 68.1609 97.0187 68.4792 96.9574C69.1546 96.8289 69.8449 96.6586 70.5143 96.4927C73.0217 95.8741 75.6156 95.2331 77.7569 96.7542C79.1898 97.7703 79.9982 99.4976 80.2403 102.032C80.5152 104.956 79.8876 107.874 78.4726 110.25C76.95 112.807 74.6668 114.497 72.0474 115.011C71.471 115.123 70.885 115.18 70.2977 115.18ZM100.955 80.7032C100.174 80.7006 99.3954 80.6406 98.6238 80.5239C95.0885 80.0009 92.4138 78.544 90.6745 76.1906C88.484 73.2335 87.8355 68.9989 88.7051 63.2431C89.4208 58.472 91.0854 53.6651 93.27 50.0565C96.7575 44.2933 100.391 43.2936 102.833 43.4699C105.66 43.6761 108.166 45.0493 110.082 47.4446C113.352 51.5343 114.512 58.0536 113.348 65.7997C112.56 71.0295 111.226 74.6082 109.148 77.0528C107.069 79.4973 104.333 80.7032 100.955 80.7032ZM95.1019 100.835C94.5161 100.835 93.9316 100.778 93.3566 100.666C90.7328 100.152 88.4496 98.4621 86.9314 95.9055C85.5164 93.5297 84.8888 90.6114 85.1638 87.6872C85.4028 85.147 86.2097 83.4257 87.6472 82.4081C89.7884 80.8885 92.3824 81.528 94.8897 82.1481C95.5591 82.3125 96.2495 82.4828 96.9249 82.6128L97.8647 82.7876C100.798 83.3271 103.568 83.8336 105.112 86.1004C106.062 87.4945 106.318 89.2382 105.892 91.4258C105.284 94.5081 103.484 97.2258 100.883 98.9881C99.0706 100.204 97.0698 100.835 95.1019 100.835Z" fill="#FF8EE6" shape-rendering="crispEdges"/>
<path d="M64.4448 95.0478C61.0663 95.0478 58.3184 93.827 56.2579 91.4034C54.1973 88.9797 52.8451 85.3831 52.0576 80.1503C50.8981 72.4386 52.0486 65.9387 55.2971 61.849C57.2097 59.4403 59.72 58.0477 62.5561 57.8235C64.9842 57.6293 68.6137 58.614 72.1191 64.3981C74.3142 68.0202 75.9832 72.8316 76.699 77.5982C77.5641 83.3525 76.9201 87.5886 74.7296 90.5457C72.9903 92.8946 70.3156 94.35 66.7788 94.879C66.006 94.9925 65.2259 95.0489 64.4448 95.0478ZM70.2977 115.18C68.3238 115.18 66.323 114.548 64.521 113.333C61.9206 111.571 60.1207 108.854 59.5123 105.772C59.0865 103.581 59.342 101.841 60.2923 100.446C61.8358 98.1827 64.6061 97.6732 67.5378 97.1323C67.8471 97.0755 68.1609 97.0187 68.4792 96.9574C69.1546 96.8289 69.8449 96.6586 70.5143 96.4927C73.0217 95.8741 75.6156 95.2331 77.7569 96.7542C79.1898 97.7703 79.9982 99.4976 80.2403 102.032C80.5152 104.956 79.8876 107.874 78.4726 110.25C76.95 112.807 74.6668 114.497 72.0474 115.011C71.471 115.123 70.885 115.18 70.2977 115.18ZM100.955 80.7032C100.174 80.7006 99.3954 80.6406 98.6238 80.5239C95.0885 80.0009 92.4138 78.544 90.6745 76.1906C88.484 73.2335 87.8355 68.9989 88.7051 63.2431C89.4208 58.472 91.0854 53.6651 93.27 50.0565C96.7575 44.2933 100.391 43.2936 102.833 43.4699C105.66 43.6761 108.166 45.0493 110.082 47.4446C113.352 51.5343 114.512 58.0536 113.348 65.7997C112.56 71.0295 111.226 74.6082 109.148 77.0528C107.069 79.4973 104.333 80.7032 100.955 80.7032ZM95.1019 100.835C94.5161 100.835 93.9316 100.778 93.3566 100.666C90.7328 100.152 88.4496 98.4621 86.9314 95.9055C85.5164 93.5297 84.8888 90.6114 85.1638 87.6872C85.4028 85.147 86.2097 83.4257 87.6472 82.4081C89.7884 80.8885 92.3824 81.528 94.8897 82.1481C95.5591 82.3125 96.2495 82.4828 96.9249 82.6128L97.8647 82.7876C100.798 83.3271 103.568 83.8336 105.112 86.1004C106.062 87.4945 106.318 89.2382 105.892 91.4258C105.284 94.5081 103.484 97.2258 100.883 98.9881C99.0706 100.204 97.0698 100.835 95.1019 100.835Z" stroke="url(#paint4_linear_279_3915)" stroke-width="1.95634" shape-rendering="crispEdges"/>
<path d="M64.4448 95.0478C61.0663 95.0478 58.3184 93.827 56.2579 91.4034C54.1973 88.9797 52.8451 85.3831 52.0576 80.1503C50.8981 72.4386 52.0486 65.9387 55.2971 61.849C57.2097 59.4403 59.72 58.0477 62.5561 57.8235C64.9842 57.6293 68.6137 58.614 72.1191 64.3981C74.3142 68.0202 75.9832 72.8316 76.699 77.5982C77.5641 83.3525 76.9201 87.5886 74.7296 90.5457C72.9903 92.8946 70.3156 94.35 66.7788 94.879C66.006 94.9925 65.2259 95.0489 64.4448 95.0478ZM70.2977 115.18C68.3238 115.18 66.323 114.548 64.521 113.333C61.9206 111.571 60.1207 108.854 59.5123 105.772C59.0865 103.581 59.342 101.841 60.2923 100.446C61.8358 98.1827 64.6061 97.6732 67.5378 97.1323C67.8471 97.0755 68.1609 97.0187 68.4792 96.9574C69.1546 96.8289 69.8449 96.6586 70.5143 96.4927C73.0217 95.8741 75.6156 95.2331 77.7569 96.7542C79.1898 97.7703 79.9982 99.4976 80.2403 102.032C80.5152 104.956 79.8876 107.874 78.4726 110.25C76.95 112.807 74.6668 114.497 72.0474 115.011C71.471 115.123 70.885 115.18 70.2977 115.18ZM100.955 80.7032C100.174 80.7006 99.3954 80.6406 98.6238 80.5239C95.0885 80.0009 92.4138 78.544 90.6745 76.1906C88.484 73.2335 87.8355 68.9989 88.7051 63.2431C89.4208 58.472 91.0854 53.6651 93.27 50.0565C96.7575 44.2933 100.391 43.2936 102.833 43.4699C105.66 43.6761 108.166 45.0493 110.082 47.4446C113.352 51.5343 114.512 58.0536 113.348 65.7997C112.56 71.0295 111.226 74.6082 109.148 77.0528C107.069 79.4973 104.333 80.7032 100.955 80.7032ZM95.1019 100.835C94.5161 100.835 93.9316 100.778 93.3566 100.666C90.7328 100.152 88.4496 98.4621 86.9314 95.9055C85.5164 93.5297 84.8888 90.6114 85.1638 87.6872C85.4028 85.147 86.2097 83.4257 87.6472 82.4081C89.7884 80.8885 92.3824 81.528 94.8897 82.1481C95.5591 82.3125 96.2495 82.4828 96.9249 82.6128L97.8647 82.7876C100.798 83.3271 103.568 83.8336 105.112 86.1004C106.062 87.4945 106.318 89.2382 105.892 91.4258C105.284 94.5081 103.484 97.2258 100.883 98.9881C99.0706 100.204 97.0698 100.835 95.1019 100.835Z" stroke="#EDB9FF" stroke-opacity="0.74" stroke-width="1.95634" shape-rendering="crispEdges"/>
</g>
<path d="M54.3996 147.534H111.007C111.524 142.099 114.296 139.439 122.757 135.244H42.6489C50.3186 138.943 52.8589 141.69 54.3996 147.534Z" fill="url(#paint5_linear_279_3915)"/>
<ellipse cx="33.1514" cy="27.0824" rx="1.8504" ry="3.98654" transform="rotate(52.9582 33.1514 27.0824)" fill="#FE8AF2"/>
<ellipse cx="33.1515" cy="27.0825" rx="1.03799" ry="2.23626" transform="rotate(52.9582 33.1515 27.0825)" fill="#FEA7EB"/>
<ellipse rx="1.8504" ry="3.98654" transform="matrix(-0.602397 0.798197 0.798197 0.602397 132.718 27.0824)" fill="#FE8AF2"/>
<ellipse rx="1.03799" ry="2.23626" transform="matrix(-0.602397 0.798197 0.798197 0.602397 132.718 27.0825)" fill="#FEA7EB"/>
</g>
<defs>
<filter id="filter0_d_279_3915" x="0.232239" y="0.361621" width="164.942" height="171.675" filterUnits="userSpaceOnUse" color-interpolation-filters="sRGB">
<feFlood flood-opacity="0" result="BackgroundImageFix"/>
<feColorMatrix in="SourceAlpha" type="matrix" values="0 0 0 0 0 0 0 0 0 0 0 0 0 0 0 0 0 0 127 0" result="hardAlpha"/>
<feOffset dy="3.51732"/>
<feGaussianBlur stdDeviation="8.7933"/>
<feComposite in2="hardAlpha" operator="out"/>
<feColorMatrix type="matrix" values="0 0 0 0 0 0 0 0 0 0 0 0 0 0 0 0 0 0 0.79 0"/>
<feBlend mode="normal" in2="BackgroundImageFix" result="effect1_dropShadow_279_3915"/>
<feBlend mode="normal" in="SourceGraphic" in2="effect1_dropShadow_279_3915" result="shape"/>
</filter>
<filter id="filter1_d_279_3915" x="44.1188" y="35.9521" width="77.1688" height="86.7267" filterUnits="userSpaceOnUse" color-interpolation-filters="sRGB">
<feFlood flood-opacity="0" result="BackgroundImageFix"/>
<feColorMatrix in="SourceAlpha" type="matrix" values="0 0 0 0 0 0 0 0 0 0 0 0 0 0 0 0 0 0 127 0" result="hardAlpha"/>
<feOffset/>
<feGaussianBlur stdDeviation="3.26056"/>
<feComposite in2="hardAlpha" operator="out"/>
<feColorMatrix type="matrix" values="0 0 0 0 0.890583 0 0 0 0 1 0 0 0 0 0.579167 0 0 0 0.82 0"/>
<feBlend mode="normal" in2="BackgroundImageFix" result="effect1_dropShadow_279_3915"/>
<feBlend mode="normal" in="SourceGraphic" in2="effect1_dropShadow_279_3915" result="shape"/>
</filter>
<linearGradient id="paint0_linear_279_3915" x1="82.7032" y1="14.4309" x2="82.7032" y2="150.933" gradientUnits="userSpaceOnUse">
<stop stop-color="#FF64EF"/>
<stop offset="1" stop-color="#6A0040"/>
</linearGradient>
<linearGradient id="paint1_linear_279_3915" x1="82.7032" y1="14.4309" x2="82.7032" y2="150.933" gradientUnits="userSpaceOnUse">
<stop stop-color="#FDAEFF"/>
<stop offset="0.505208" stop-color="#EE01D6"/>
<stop offset="0.859375" stop-color="#8C006D"/>
<stop offset="1" stop-color="#8A0053"/>
</linearGradient>
<linearGradient id="paint2_linear_279_3915" x1="82.7033" y1="22.5287" x2="82.7033" y2="136.102" gradientUnits="userSpaceOnUse">
<stop stop-color="#FF53E3"/>
<stop offset="0.171875" stop-color="#D626BA"/>
<stop offset="0.455871" stop-color="#930073"/>
<stop offset="0.838542" stop-color="#65004F"/>
<stop offset="1" stop-color="#5C002C"/>
</linearGradient>
<linearGradient id="paint3_linear_279_3915" x1="82.7033" y1="22.5287" x2="82.7033" y2="77.6037" gradientUnits="userSpaceOnUse">
<stop stop-color="white" stop-opacity="0.22"/>
<stop offset="1" stop-color="#FF00E5" stop-opacity="0.2"/>
</linearGradient>
<linearGradient id="paint4_linear_279_3915" x1="82.7032" y1="43.4514" x2="86.3635" y2="101.782" gradientUnits="userSpaceOnUse">
<stop stop-color="#FC8AFE"/>
<stop offset="1" stop-color="#FA00FF" stop-opacity="0"/>
</linearGradient>
<linearGradient id="paint5_linear_279_3915" x1="82.7031" y1="147.534" x2="82.7031" y2="136.868" gradientUnits="userSpaceOnUse">
<stop stop-color="#850078" stop-opacity="0"/>
<stop offset="1" stop-color="#380029"/>
</linearGradient>
</defs>
</svg>
