<svg width="166" height="173" viewBox="0 0 166 173" fill="none" xmlns="http://www.w3.org/2000/svg">
<g filter="url(#filter0_d_278_3857)">
<rect x="19.454" y="16.6829" width="126.403" height="133.136" rx="22.9739" fill="url(#paint0_linear_278_3857)" stroke="url(#paint1_linear_278_3857)" stroke-width="3.36574"/>
<rect x="26.3084" y="23.5374" width="112.694" height="112.694" rx="17.1469" fill="url(#paint2_linear_278_3857)" stroke="url(#paint3_linear_278_3857)" stroke-width="0.87933"/>
<path d="M54.352 148.103H110.959C111.476 142.668 114.248 140.008 122.71 135.813H42.6013C50.271 139.512 52.8113 142.26 54.352 148.103Z" fill="url(#paint4_linear_278_3857)"/>
<ellipse cx="33.1037" cy="27.6515" rx="1.8504" ry="3.98654" transform="rotate(52.9582 33.1037 27.6515)" fill="#D2FE8A"/>
<ellipse cx="33.1037" cy="27.6516" rx="1.03799" ry="2.23626" transform="rotate(52.9582 33.1037 27.6516)" fill="#E7FEA7"/>
<ellipse rx="1.8504" ry="3.98654" transform="matrix(-0.602397 0.798197 0.798197 0.602397 132.671 27.6515)" fill="#D2FE8A"/>
<ellipse rx="1.03799" ry="2.23626" transform="matrix(-0.602397 0.798197 0.798197 0.602397 132.67 27.6516)" fill="#E7FEA7"/>
</g>
<defs>
<filter id="filter0_d_278_3857" x="0.184509" y="0.930713" width="164.942" height="171.675" filterUnits="userSpaceOnUse" color-interpolation-filters="sRGB">
<feFlood flood-opacity="0" result="BackgroundImageFix"/>
<feColorMatrix in="SourceAlpha" type="matrix" values="0 0 0 0 0 0 0 0 0 0 0 0 0 0 0 0 0 0 127 0" result="hardAlpha"/>
<feOffset dy="3.51732"/>
<feGaussianBlur stdDeviation="8.7933"/>
<feComposite in2="hardAlpha" operator="out"/>
<feColorMatrix type="matrix" values="0 0 0 0 0 0 0 0 0 0 0 0 0 0 0 0 0 0 0.79 0"/>
<feBlend mode="normal" in2="BackgroundImageFix" result="effect1_dropShadow_278_3857"/>
<feBlend mode="normal" in="SourceGraphic" in2="effect1_dropShadow_278_3857" result="shape"/>
</filter>
<linearGradient id="paint0_linear_278_3857" x1="82.6555" y1="15" x2="82.6555" y2="151.502" gradientUnits="userSpaceOnUse">
<stop stop-color="#CDFF64"/>
<stop offset="1" stop-color="#426A00"/>
</linearGradient>
<linearGradient id="paint1_linear_278_3857" x1="82.6555" y1="15" x2="82.6555" y2="151.502" gradientUnits="userSpaceOnUse">
<stop stop-color="#EAFFAE"/>
<stop offset="0.505208" stop-color="#B0EE01"/>
<stop offset="0.859375" stop-color="#5F8C00"/>
<stop offset="1" stop-color="#2C8A00"/>
</linearGradient>
<linearGradient id="paint2_linear_278_3857" x1="82.6554" y1="23.0978" x2="82.6554" y2="136.671" gradientUnits="userSpaceOnUse">
<stop stop-color="#C8FF53"/>
<stop offset="0.171875" stop-color="#BED626"/>
<stop offset="0.455871" stop-color="#529300"/>
<stop offset="0.838542" stop-color="#336500"/>
<stop offset="1" stop-color="#1E5C00"/>
</linearGradient>
<linearGradient id="paint3_linear_278_3857" x1="82.6554" y1="23.0978" x2="82.6554" y2="78.1728" gradientUnits="userSpaceOnUse">
<stop stop-color="white" stop-opacity="0.22"/>
<stop offset="1" stop-color="#52FF00" stop-opacity="0.2"/>
</linearGradient>
<linearGradient id="paint4_linear_278_3857" x1="82.6555" y1="148.103" x2="82.6555" y2="137.437" gradientUnits="userSpaceOnUse">
<stop stop-color="#4A8500" stop-opacity="0"/>
<stop offset="1" stop-color="#2A3800"/>
</linearGradient>
</defs>
</svg>
