<svg width="131" height="137" viewBox="0 0 131 137" fill="none" xmlns="http://www.w3.org/2000/svg">
<rect x="2.45399" y="2.11378" width="126.403" height="133.136" rx="22.9739" fill="url(#paint0_linear_279_3914)" stroke="url(#paint1_linear_279_3914)" stroke-width="3.36574"/>
<rect x="9.30844" y="8.96835" width="112.694" height="112.694" rx="17.1469" fill="url(#paint2_linear_279_3914)" stroke="url(#paint3_linear_279_3914)" stroke-width="0.87933"/>
<path d="M37.352 133.534H93.9589C94.4764 128.099 97.2481 125.439 105.71 121.244H25.6013C33.271 124.943 35.8113 127.69 37.352 133.534Z" fill="url(#paint4_linear_279_3914)"/>
<ellipse cx="16.1037" cy="13.0824" rx="1.8504" ry="3.98654" transform="rotate(52.9582 16.1037 13.0824)" fill="#D2FE8A"/>
<ellipse cx="16.1037" cy="13.0825" rx="1.03799" ry="2.23626" transform="rotate(52.9582 16.1037 13.0825)" fill="#E7FEA7"/>
<ellipse rx="1.8504" ry="3.98654" transform="matrix(-0.602397 0.798197 0.798197 0.602397 115.671 13.0824)" fill="#D2FE8A"/>
<ellipse rx="1.03799" ry="2.23626" transform="matrix(-0.602397 0.798197 0.798197 0.602397 115.67 13.0825)" fill="#E7FEA7"/>
<g filter="url(#filter0_d_279_3914)">
<path d="M47.2055 81.1981C43.8271 81.1981 41.0792 79.9773 39.0186 77.5536C36.9581 75.13 35.6058 71.5334 34.8183 66.3006C33.6588 58.5889 34.8094 52.089 38.0578 47.9993C39.9704 45.5906 42.4808 44.1979 45.3168 43.9738C47.7449 43.7795 51.3744 44.7642 54.8799 50.5484C57.0749 54.1704 58.744 58.9819 59.4597 63.7484C60.3249 69.5027 59.6808 73.7389 57.4903 76.696C55.751 79.0449 53.0763 80.5003 49.5395 81.0292C48.7667 81.1427 47.9866 81.1992 47.2055 81.1981ZM53.0584 101.33C51.0845 101.33 49.0838 100.698 47.2817 99.483C44.6814 97.7209 42.8814 95.0038 42.2731 91.9222C41.8472 89.7316 42.1027 87.9908 43.053 86.5967C44.5966 84.333 47.3669 83.8234 50.2986 83.2825C50.6079 83.2257 50.9217 83.169 51.2399 83.1077C51.9153 82.9792 52.6057 82.8089 53.2751 82.643C55.7824 82.0244 58.3764 81.3834 60.5176 82.9045C61.9506 83.9206 62.759 85.6479 63.001 88.1821C63.276 91.1063 62.6484 94.0246 61.2334 96.4004C59.7107 98.957 57.4275 100.647 54.8082 101.161C54.2317 101.274 53.6457 101.33 53.0584 101.33ZM83.7155 66.8535C82.9352 66.8508 82.1561 66.7909 81.3845 66.6742C77.8492 66.1512 75.1745 64.6943 73.4352 62.3409C71.2447 59.3838 70.5962 55.1491 71.4658 49.3934C72.1816 44.6223 73.8461 39.8153 76.0307 36.2068C79.5182 30.4435 83.1522 29.4439 85.5938 29.6202C88.4209 29.8264 90.9267 31.1996 92.8423 33.5949C96.1132 37.6846 97.2727 44.2039 96.1087 51.95C95.3212 57.1798 93.9869 60.7585 91.9084 63.2031C89.8299 65.6476 87.094 66.8535 83.7155 66.8535ZM77.8626 86.9852C77.2768 86.9852 76.6924 86.9286 76.1174 86.8164C73.4935 86.3024 71.2103 84.6124 69.6922 82.0558C68.2772 79.6799 67.6496 76.7617 67.9245 73.8375C68.1636 71.2973 68.9705 69.5759 70.4079 68.5584C72.5492 67.0387 75.1431 67.6783 77.6505 68.2984C78.3199 68.4627 79.0102 68.6331 79.6856 68.7631L80.6255 68.9379C83.5586 69.4773 86.3289 69.9839 87.8725 72.2506C88.8228 73.6447 89.0783 75.3885 88.6525 77.5761C88.0446 80.6583 86.2446 83.3761 83.6438 85.1384C81.8313 86.3547 79.8305 86.9852 77.8626 86.9852Z" fill="#DBFF8E" shape-rendering="crispEdges"/>
<path d="M47.2055 81.1981C43.8271 81.1981 41.0792 79.9773 39.0186 77.5536C36.9581 75.13 35.6058 71.5334 34.8183 66.3006C33.6588 58.5889 34.8094 52.089 38.0578 47.9993C39.9704 45.5906 42.4808 44.1979 45.3168 43.9738C47.7449 43.7795 51.3744 44.7642 54.8799 50.5484C57.0749 54.1704 58.744 58.9819 59.4597 63.7484C60.3249 69.5027 59.6808 73.7389 57.4903 76.696C55.751 79.0449 53.0763 80.5003 49.5395 81.0292C48.7667 81.1427 47.9866 81.1992 47.2055 81.1981ZM53.0584 101.33C51.0845 101.33 49.0838 100.698 47.2817 99.483C44.6814 97.7209 42.8814 95.0038 42.2731 91.9222C41.8472 89.7316 42.1027 87.9908 43.053 86.5967C44.5966 84.333 47.3669 83.8234 50.2986 83.2825C50.6079 83.2257 50.9217 83.169 51.2399 83.1077C51.9153 82.9792 52.6057 82.8089 53.2751 82.643C55.7824 82.0244 58.3764 81.3834 60.5176 82.9045C61.9506 83.9206 62.759 85.6479 63.001 88.1821C63.276 91.1063 62.6484 94.0246 61.2334 96.4004C59.7107 98.957 57.4275 100.647 54.8082 101.161C54.2317 101.274 53.6457 101.33 53.0584 101.33ZM83.7155 66.8535C82.9352 66.8508 82.1561 66.7909 81.3845 66.6742C77.8492 66.1512 75.1745 64.6943 73.4352 62.3409C71.2447 59.3838 70.5962 55.1491 71.4658 49.3934C72.1816 44.6223 73.8461 39.8153 76.0307 36.2068C79.5182 30.4435 83.1522 29.4439 85.5938 29.6202C88.4209 29.8264 90.9267 31.1996 92.8423 33.5949C96.1132 37.6846 97.2727 44.2039 96.1087 51.95C95.3212 57.1798 93.9869 60.7585 91.9084 63.2031C89.8299 65.6476 87.094 66.8535 83.7155 66.8535ZM77.8626 86.9852C77.2768 86.9852 76.6924 86.9286 76.1174 86.8164C73.4935 86.3024 71.2103 84.6124 69.6922 82.0558C68.2772 79.6799 67.6496 76.7617 67.9245 73.8375C68.1636 71.2973 68.9705 69.5759 70.4079 68.5584C72.5492 67.0387 75.1431 67.6783 77.6505 68.2984C78.3199 68.4627 79.0102 68.6331 79.6856 68.7631L80.6255 68.9379C83.5586 69.4773 86.3289 69.9839 87.8725 72.2506C88.8228 73.6447 89.0783 75.3885 88.6525 77.5761C88.0446 80.6583 86.2446 83.3761 83.6438 85.1384C81.8313 86.3547 79.8305 86.9852 77.8626 86.9852Z" stroke="#F5FFB9" stroke-opacity="0.74" stroke-width="1.95634" shape-rendering="crispEdges"/>
</g>
<defs>
<filter id="filter0_d_279_3914" x="26.8795" y="22.1024" width="77.1688" height="86.7267" filterUnits="userSpaceOnUse" color-interpolation-filters="sRGB">
<feFlood flood-opacity="0" result="BackgroundImageFix"/>
<feColorMatrix in="SourceAlpha" type="matrix" values="0 0 0 0 0 0 0 0 0 0 0 0 0 0 0 0 0 0 127 0" result="hardAlpha"/>
<feOffset/>
<feGaussianBlur stdDeviation="3.26056"/>
<feComposite in2="hardAlpha" operator="out"/>
<feColorMatrix type="matrix" values="0 0 0 0 0.890583 0 0 0 0 1 0 0 0 0 0.579167 0 0 0 0.82 0"/>
<feBlend mode="normal" in2="BackgroundImageFix" result="effect1_dropShadow_279_3914"/>
<feBlend mode="normal" in="SourceGraphic" in2="effect1_dropShadow_279_3914" result="shape"/>
</filter>
<linearGradient id="paint0_linear_279_3914" x1="65.6555" y1="0.430908" x2="65.6555" y2="136.933" gradientUnits="userSpaceOnUse">
<stop stop-color="#CDFF64"/>
<stop offset="1" stop-color="#426A00"/>
</linearGradient>
<linearGradient id="paint1_linear_279_3914" x1="65.6555" y1="0.430908" x2="65.6555" y2="136.933" gradientUnits="userSpaceOnUse">
<stop stop-color="#EAFFAE"/>
<stop offset="0.505208" stop-color="#B0EE01"/>
<stop offset="0.859375" stop-color="#5F8C00"/>
<stop offset="1" stop-color="#2C8A00"/>
</linearGradient>
<linearGradient id="paint2_linear_279_3914" x1="65.6554" y1="8.52869" x2="65.6554" y2="122.102" gradientUnits="userSpaceOnUse">
<stop stop-color="#C8FF53"/>
<stop offset="0.171875" stop-color="#BED626"/>
<stop offset="0.455871" stop-color="#529300"/>
<stop offset="0.838542" stop-color="#336500"/>
<stop offset="1" stop-color="#1E5C00"/>
</linearGradient>
<linearGradient id="paint3_linear_279_3914" x1="65.6554" y1="8.52869" x2="65.6554" y2="63.6037" gradientUnits="userSpaceOnUse">
<stop stop-color="white" stop-opacity="0.22"/>
<stop offset="1" stop-color="#52FF00" stop-opacity="0.2"/>
</linearGradient>
<linearGradient id="paint4_linear_279_3914" x1="65.6555" y1="133.534" x2="65.6555" y2="122.868" gradientUnits="userSpaceOnUse">
<stop stop-color="#4A8500" stop-opacity="0"/>
<stop offset="1" stop-color="#2A3800"/>
</linearGradient>
</defs>
</svg>
