<svg width="131" height="137" viewBox="0 0 131 137" fill="none" xmlns="http://www.w3.org/2000/svg">
<rect x="2.50172" y="1.68287" width="126.403" height="133.136" rx="22.9739" fill="url(#paint0_linear_278_3858)" stroke="url(#paint1_linear_278_3858)" stroke-width="3.36574"/>
<rect x="9.35629" y="8.53744" width="112.694" height="112.694" rx="17.1469" fill="url(#paint2_linear_278_3858)" stroke="url(#paint3_linear_278_3858)" stroke-width="0.87933"/>
<path d="M37.3996 133.103H94.0065C94.524 127.668 97.2957 125.008 105.757 120.813H25.6489C33.3186 124.512 35.8589 127.26 37.3996 133.103Z" fill="url(#paint4_linear_278_3858)"/>
<ellipse cx="16.1514" cy="12.6515" rx="1.8504" ry="3.98654" transform="rotate(52.9582 16.1514 12.6515)" fill="#FE8AF2"/>
<ellipse cx="16.1515" cy="12.6516" rx="1.03799" ry="2.23626" transform="rotate(52.9582 16.1515 12.6516)" fill="#FEA7EB"/>
<ellipse rx="1.8504" ry="3.98654" transform="matrix(-0.602397 0.798197 0.798197 0.602397 115.718 12.6515)" fill="#FE8AF2"/>
<ellipse rx="1.03799" ry="2.23626" transform="matrix(-0.602397 0.798197 0.798197 0.602397 115.718 12.6516)" fill="#FEA7EB"/>
<defs>
<linearGradient id="paint0_linear_278_3858" x1="65.7032" y1="0" x2="65.7032" y2="136.502" gradientUnits="userSpaceOnUse">
<stop stop-color="#FF64EF"/>
<stop offset="1" stop-color="#6A0040"/>
</linearGradient>
<linearGradient id="paint1_linear_278_3858" x1="65.7032" y1="0" x2="65.7032" y2="136.502" gradientUnits="userSpaceOnUse">
<stop stop-color="#FDAEFF"/>
<stop offset="0.505208" stop-color="#EE01D6"/>
<stop offset="0.859375" stop-color="#8C006D"/>
<stop offset="1" stop-color="#8A0053"/>
</linearGradient>
<linearGradient id="paint2_linear_278_3858" x1="65.7033" y1="8.09778" x2="65.7033" y2="121.671" gradientUnits="userSpaceOnUse">
<stop stop-color="#FF53E3"/>
<stop offset="0.171875" stop-color="#D626BA"/>
<stop offset="0.455871" stop-color="#930073"/>
<stop offset="0.838542" stop-color="#65004F"/>
<stop offset="1" stop-color="#5C002C"/>
</linearGradient>
<linearGradient id="paint3_linear_278_3858" x1="65.7033" y1="8.09778" x2="65.7033" y2="63.1728" gradientUnits="userSpaceOnUse">
<stop stop-color="white" stop-opacity="0.22"/>
<stop offset="1" stop-color="#FF00E5" stop-opacity="0.2"/>
</linearGradient>
<linearGradient id="paint4_linear_278_3858" x1="65.7031" y1="133.103" x2="65.7031" y2="122.437" gradientUnits="userSpaceOnUse">
<stop stop-color="#850078" stop-opacity="0"/>
<stop offset="1" stop-color="#380029"/>
</linearGradient>
</defs>
</svg>
