<svg width="131" height="137" viewBox="0 0 131 137" fill="none" xmlns="http://www.w3.org/2000/svg">
<rect x="2.05824" y="1.68287" width="126.403" height="133.136" rx="22.9739" fill="url(#paint0_linear_278_3855)" stroke="url(#paint1_linear_278_3855)" stroke-width="3.36574"/>
<rect x="8.91269" y="8.53744" width="112.694" height="112.694" rx="17.1469" fill="url(#paint2_linear_278_3855)" stroke="url(#paint3_linear_278_3855)" stroke-width="0.87933"/>
<path d="M36.9561 133.103H93.5631C94.0806 127.668 96.8523 125.008 105.314 120.813H25.2054C32.8751 124.512 35.4154 127.26 36.9561 133.103Z" fill="url(#paint4_linear_278_3855)"/>
<ellipse cx="15.7079" cy="12.6515" rx="1.8504" ry="3.98654" transform="rotate(52.9582 15.7079 12.6515)" fill="#8AE2FE"/>
<ellipse cx="15.708" cy="12.6516" rx="1.03799" ry="2.23626" transform="rotate(52.9582 15.708 12.6516)" fill="#B8E1FF"/>
<ellipse rx="1.8504" ry="3.98654" transform="matrix(-0.602397 0.798197 0.798197 0.602397 115.275 12.6515)" fill="#8AE2FE"/>
<ellipse rx="1.03799" ry="2.23626" transform="matrix(-0.602397 0.798197 0.798197 0.602397 115.275 12.6516)" fill="#B8E1FF"/>
<defs>
<linearGradient id="paint0_linear_278_3855" x1="65.2597" y1="0" x2="65.2597" y2="136.502" gradientUnits="userSpaceOnUse">
<stop stop-color="#64A2FF"/>
<stop offset="1" stop-color="#001E6A"/>
</linearGradient>
<linearGradient id="paint1_linear_278_3855" x1="65.2597" y1="0" x2="65.2597" y2="136.502" gradientUnits="userSpaceOnUse">
<stop stop-color="#8CD6FF"/>
<stop offset="0.505208" stop-color="#01A7EE"/>
<stop offset="0.859375" stop-color="#00498C"/>
<stop offset="1" stop-color="#00278A"/>
</linearGradient>
<linearGradient id="paint2_linear_278_3855" x1="65.2597" y1="8.09778" x2="65.2597" y2="121.671" gradientUnits="userSpaceOnUse">
<stop stop-color="#53C1FF"/>
<stop offset="0.171875" stop-color="#2697D6"/>
<stop offset="0.455871" stop-color="#004D93"/>
<stop offset="0.838542" stop-color="#003565"/>
<stop offset="1" stop-color="#00255C"/>
</linearGradient>
<linearGradient id="paint3_linear_278_3855" x1="65.2597" y1="8.09778" x2="65.2597" y2="63.1728" gradientUnits="userSpaceOnUse">
<stop stop-color="white" stop-opacity="0.22"/>
<stop offset="1" stop-color="#00B2FF" stop-opacity="0.2"/>
</linearGradient>
<linearGradient id="paint4_linear_278_3855" x1="65.2596" y1="133.103" x2="65.2596" y2="122.437" gradientUnits="userSpaceOnUse">
<stop stop-color="#003D85" stop-opacity="0"/>
<stop offset="1" stop-color="#000C38"/>
</linearGradient>
</defs>
</svg>
