<svg width="131" height="137" viewBox="0 0 131 137" fill="none" xmlns="http://www.w3.org/2000/svg">
<rect x="2.45399" y="1.68287" width="126.403" height="133.136" rx="22.9739" fill="url(#paint0_linear_278_3857)" stroke="url(#paint1_linear_278_3857)" stroke-width="3.36574"/>
<rect x="9.30844" y="8.53744" width="112.694" height="112.694" rx="17.1469" fill="url(#paint2_linear_278_3857)" stroke="url(#paint3_linear_278_3857)" stroke-width="0.87933"/>
<path d="M37.352 133.103H93.9589C94.4764 127.668 97.2481 125.008 105.71 120.813H25.6013C33.271 124.512 35.8113 127.26 37.352 133.103Z" fill="url(#paint4_linear_278_3857)"/>
<ellipse cx="16.1037" cy="12.6515" rx="1.8504" ry="3.98654" transform="rotate(52.9582 16.1037 12.6515)" fill="#D2FE8A"/>
<ellipse cx="16.1037" cy="12.6516" rx="1.03799" ry="2.23626" transform="rotate(52.9582 16.1037 12.6516)" fill="#E7FEA7"/>
<ellipse rx="1.8504" ry="3.98654" transform="matrix(-0.602397 0.798197 0.798197 0.602397 115.671 12.6515)" fill="#D2FE8A"/>
<ellipse rx="1.03799" ry="2.23626" transform="matrix(-0.602397 0.798197 0.798197 0.602397 115.67 12.6516)" fill="#E7FEA7"/>
<defs>
<linearGradient id="paint0_linear_278_3857" x1="65.6555" y1="0" x2="65.6555" y2="136.502" gradientUnits="userSpaceOnUse">
<stop stop-color="#CDFF64"/>
<stop offset="1" stop-color="#426A00"/>
</linearGradient>
<linearGradient id="paint1_linear_278_3857" x1="65.6555" y1="0" x2="65.6555" y2="136.502" gradientUnits="userSpaceOnUse">
<stop stop-color="#EAFFAE"/>
<stop offset="0.505208" stop-color="#B0EE01"/>
<stop offset="0.859375" stop-color="#5F8C00"/>
<stop offset="1" stop-color="#2C8A00"/>
</linearGradient>
<linearGradient id="paint2_linear_278_3857" x1="65.6554" y1="8.09778" x2="65.6554" y2="121.671" gradientUnits="userSpaceOnUse">
<stop stop-color="#C8FF53"/>
<stop offset="0.171875" stop-color="#BED626"/>
<stop offset="0.455871" stop-color="#529300"/>
<stop offset="0.838542" stop-color="#336500"/>
<stop offset="1" stop-color="#1E5C00"/>
</linearGradient>
<linearGradient id="paint3_linear_278_3857" x1="65.6554" y1="8.09778" x2="65.6554" y2="63.1728" gradientUnits="userSpaceOnUse">
<stop stop-color="white" stop-opacity="0.22"/>
<stop offset="1" stop-color="#52FF00" stop-opacity="0.2"/>
</linearGradient>
<linearGradient id="paint4_linear_278_3857" x1="65.6555" y1="133.103" x2="65.6555" y2="122.437" gradientUnits="userSpaceOnUse">
<stop stop-color="#4A8500" stop-opacity="0"/>
<stop offset="1" stop-color="#2A3800"/>
</linearGradient>
</defs>
</svg>
