<svg width="166" height="173" viewBox="0 0 166 173" fill="none" xmlns="http://www.w3.org/2000/svg">
<g filter="url(#filter0_d_279_3913)">
<rect x="20.2564" y="16.1138" width="126.403" height="133.136" rx="22.9739" fill="url(#paint0_linear_279_3913)" stroke="url(#paint1_linear_279_3913)" stroke-width="3.36574"/>
<rect x="27.1109" y="22.9684" width="112.694" height="112.694" rx="17.1469" fill="url(#paint2_linear_279_3913)" stroke="url(#paint3_linear_279_3913)" stroke-width="0.87933"/>
<g filter="url(#filter1_d_279_3913)">
<path d="M65.1994 95.0478C61.821 95.0478 59.0731 93.827 57.0125 91.4034C54.952 88.9797 53.5997 85.3831 52.8122 80.1503C51.6527 72.4386 52.8033 65.9387 56.0517 61.849C57.9643 59.4403 60.4747 58.0477 63.3107 57.8235C65.7388 57.6293 69.3683 58.614 72.8738 64.3981C75.0688 68.0202 76.7379 72.8316 77.4536 77.5982C78.3188 83.3525 77.6747 87.5886 75.4842 90.5457C73.7449 92.8946 71.0702 94.35 67.5334 94.879C66.7606 94.9925 65.9805 95.0489 65.1994 95.0478ZM71.0523 115.18C69.0784 115.18 67.0777 114.548 65.2756 113.333C62.6752 111.571 60.8753 108.854 60.267 105.772C59.8411 103.581 60.0966 101.841 61.0469 100.446C62.5905 98.1827 65.3608 97.6732 68.2925 97.1323C68.6018 97.0755 68.9156 97.0187 69.2338 96.9574C69.9092 96.8289 70.5996 96.6586 71.269 96.4927C73.7763 95.8741 76.3703 95.2331 78.5115 96.7542C79.9445 97.7703 80.7529 99.4976 80.9949 102.032C81.2699 104.956 80.6423 107.874 79.2272 110.25C77.7046 112.807 75.4214 114.497 72.8021 115.011C72.2256 115.123 71.6396 115.18 71.0523 115.18ZM101.709 80.7032C100.929 80.7006 100.15 80.6406 99.3784 80.5239C95.8431 80.0009 93.1684 78.544 91.4291 76.1906C89.2386 73.2335 88.5901 68.9989 89.4597 63.2431C90.1755 58.472 91.84 53.6651 94.0246 50.0565C97.5121 44.2933 101.146 43.2936 103.588 43.4699C106.415 43.6761 108.921 45.0493 110.836 47.4446C114.107 51.5343 115.267 58.0536 114.103 65.7997C113.315 71.0295 111.981 74.6082 109.902 77.0528C107.824 79.4973 105.088 80.7032 101.709 80.7032ZM95.8565 100.835C95.2707 100.835 94.6863 100.778 94.1113 100.666C91.4874 100.152 89.2042 98.4621 87.6861 95.9055C86.2711 93.5297 85.6435 90.6114 85.9184 87.6872C86.1575 85.147 86.9644 83.4257 88.4018 82.4081C90.5431 80.8885 93.137 81.528 95.6444 82.1481C96.3138 82.3125 97.0041 82.4828 97.6795 82.6128L98.6194 82.7876C101.553 83.3271 104.323 83.8336 105.866 86.1004C106.817 87.4945 107.072 89.2382 106.646 91.4258C106.039 94.5081 104.239 97.2258 101.638 98.9881C99.8252 100.204 97.8244 100.835 95.8565 100.835Z" fill="#FFA38E" shape-rendering="crispEdges"/>
<path d="M65.1994 95.0478C61.821 95.0478 59.0731 93.827 57.0125 91.4034C54.952 88.9797 53.5997 85.3831 52.8122 80.1503C51.6527 72.4386 52.8033 65.9387 56.0517 61.849C57.9643 59.4403 60.4747 58.0477 63.3107 57.8235C65.7388 57.6293 69.3683 58.614 72.8738 64.3981C75.0688 68.0202 76.7379 72.8316 77.4536 77.5982C78.3188 83.3525 77.6747 87.5886 75.4842 90.5457C73.7449 92.8946 71.0702 94.35 67.5334 94.879C66.7606 94.9925 65.9805 95.0489 65.1994 95.0478ZM71.0523 115.18C69.0784 115.18 67.0777 114.548 65.2756 113.333C62.6752 111.571 60.8753 108.854 60.267 105.772C59.8411 103.581 60.0966 101.841 61.0469 100.446C62.5905 98.1827 65.3608 97.6732 68.2925 97.1323C68.6018 97.0755 68.9156 97.0187 69.2338 96.9574C69.9092 96.8289 70.5996 96.6586 71.269 96.4927C73.7763 95.8741 76.3703 95.2331 78.5115 96.7542C79.9445 97.7703 80.7529 99.4976 80.9949 102.032C81.2699 104.956 80.6423 107.874 79.2272 110.25C77.7046 112.807 75.4214 114.497 72.8021 115.011C72.2256 115.123 71.6396 115.18 71.0523 115.18ZM101.709 80.7032C100.929 80.7006 100.15 80.6406 99.3784 80.5239C95.8431 80.0009 93.1684 78.544 91.4291 76.1906C89.2386 73.2335 88.5901 68.9989 89.4597 63.2431C90.1755 58.472 91.84 53.6651 94.0246 50.0565C97.5121 44.2933 101.146 43.2936 103.588 43.4699C106.415 43.6761 108.921 45.0493 110.836 47.4446C114.107 51.5343 115.267 58.0536 114.103 65.7997C113.315 71.0295 111.981 74.6082 109.902 77.0528C107.824 79.4973 105.088 80.7032 101.709 80.7032ZM95.8565 100.835C95.2707 100.835 94.6863 100.778 94.1113 100.666C91.4874 100.152 89.2042 98.4621 87.6861 95.9055C86.2711 93.5297 85.6435 90.6114 85.9184 87.6872C86.1575 85.147 86.9644 83.4257 88.4018 82.4081C90.5431 80.8885 93.137 81.528 95.6444 82.1481C96.3138 82.3125 97.0041 82.4828 97.6795 82.6128L98.6194 82.7876C101.553 83.3271 104.323 83.8336 105.866 86.1004C106.817 87.4945 107.072 89.2382 106.646 91.4258C106.039 94.5081 104.239 97.2258 101.638 98.9881C99.8252 100.204 97.8244 100.835 95.8565 100.835Z" stroke="url(#paint4_linear_279_3913)" stroke-width="1.95634" shape-rendering="crispEdges"/>
<path d="M65.1994 95.0478C61.821 95.0478 59.0731 93.827 57.0125 91.4034C54.952 88.9797 53.5997 85.3831 52.8122 80.1503C51.6527 72.4386 52.8033 65.9387 56.0517 61.849C57.9643 59.4403 60.4747 58.0477 63.3107 57.8235C65.7388 57.6293 69.3683 58.614 72.8738 64.3981C75.0688 68.0202 76.7379 72.8316 77.4536 77.5982C78.3188 83.3525 77.6747 87.5886 75.4842 90.5457C73.7449 92.8946 71.0702 94.35 67.5334 94.879C66.7606 94.9925 65.9805 95.0489 65.1994 95.0478ZM71.0523 115.18C69.0784 115.18 67.0777 114.548 65.2756 113.333C62.6752 111.571 60.8753 108.854 60.267 105.772C59.8411 103.581 60.0966 101.841 61.0469 100.446C62.5905 98.1827 65.3608 97.6732 68.2925 97.1323C68.6018 97.0755 68.9156 97.0187 69.2338 96.9574C69.9092 96.8289 70.5996 96.6586 71.269 96.4927C73.7763 95.8741 76.3703 95.2331 78.5115 96.7542C79.9445 97.7703 80.7529 99.4976 80.9949 102.032C81.2699 104.956 80.6423 107.874 79.2272 110.25C77.7046 112.807 75.4214 114.497 72.8021 115.011C72.2256 115.123 71.6396 115.18 71.0523 115.18ZM101.709 80.7032C100.929 80.7006 100.15 80.6406 99.3784 80.5239C95.8431 80.0009 93.1684 78.544 91.4291 76.1906C89.2386 73.2335 88.5901 68.9989 89.4597 63.2431C90.1755 58.472 91.84 53.6651 94.0246 50.0565C97.5121 44.2933 101.146 43.2936 103.588 43.4699C106.415 43.6761 108.921 45.0493 110.836 47.4446C114.107 51.5343 115.267 58.0536 114.103 65.7997C113.315 71.0295 111.981 74.6082 109.902 77.0528C107.824 79.4973 105.088 80.7032 101.709 80.7032ZM95.8565 100.835C95.2707 100.835 94.6863 100.778 94.1113 100.666C91.4874 100.152 89.2042 98.4621 87.6861 95.9055C86.2711 93.5297 85.6435 90.6114 85.9184 87.6872C86.1575 85.147 86.9644 83.4257 88.4018 82.4081C90.5431 80.8885 93.137 81.528 95.6444 82.1481C96.3138 82.3125 97.0041 82.4828 97.6795 82.6128L98.6194 82.7876C101.553 83.3271 104.323 83.8336 105.866 86.1004C106.817 87.4945 107.072 89.2382 106.646 91.4258C106.039 94.5081 104.239 97.2258 101.638 98.9881C99.8252 100.204 97.8244 100.835 95.8565 100.835Z" stroke="#FFC5B9" stroke-opacity="0.74" stroke-width="1.95634" shape-rendering="crispEdges"/>
</g>
<path d="M55.1542 147.534H111.761C112.279 142.099 115.05 139.439 123.512 135.244H43.4036C51.0732 138.943 53.6136 141.69 55.1542 147.534Z" fill="url(#paint5_linear_279_3913)"/>
<ellipse cx="33.906" cy="27.0824" rx="1.8504" ry="3.98654" transform="rotate(52.9582 33.906 27.0824)" fill="#FEA58A"/>
<ellipse cx="33.9061" cy="27.0825" rx="1.03799" ry="2.23626" transform="rotate(52.9582 33.9061 27.0825)" fill="#FFD6B8"/>
<ellipse rx="1.8504" ry="3.98654" transform="matrix(-0.602397 0.798197 0.798197 0.602397 133.473 27.0824)" fill="#FEA58A"/>
<ellipse rx="1.03799" ry="2.23626" transform="matrix(-0.602397 0.798197 0.798197 0.602397 133.473 27.0825)" fill="#FFD6B8"/>
</g>
<defs>
<filter id="filter0_d_279_3913" x="0.986877" y="0.361621" width="164.942" height="171.675" filterUnits="userSpaceOnUse" color-interpolation-filters="sRGB">
<feFlood flood-opacity="0" result="BackgroundImageFix"/>
<feColorMatrix in="SourceAlpha" type="matrix" values="0 0 0 0 0 0 0 0 0 0 0 0 0 0 0 0 0 0 127 0" result="hardAlpha"/>
<feOffset dy="3.51732"/>
<feGaussianBlur stdDeviation="8.7933"/>
<feComposite in2="hardAlpha" operator="out"/>
<feColorMatrix type="matrix" values="0 0 0 0 0 0 0 0 0 0 0 0 0 0 0 0 0 0 0.79 0"/>
<feBlend mode="normal" in2="BackgroundImageFix" result="effect1_dropShadow_279_3913"/>
<feBlend mode="normal" in="SourceGraphic" in2="effect1_dropShadow_279_3913" result="shape"/>
</filter>
<filter id="filter1_d_279_3913" x="44.8734" y="35.9521" width="77.1688" height="86.7267" filterUnits="userSpaceOnUse" color-interpolation-filters="sRGB">
<feFlood flood-opacity="0" result="BackgroundImageFix"/>
<feColorMatrix in="SourceAlpha" type="matrix" values="0 0 0 0 0 0 0 0 0 0 0 0 0 0 0 0 0 0 127 0" result="hardAlpha"/>
<feOffset/>
<feGaussianBlur stdDeviation="3.26056"/>
<feComposite in2="hardAlpha" operator="out"/>
<feColorMatrix type="matrix" values="0 0 0 0 1 0 0 0 0 0.730667 0 0 0 0 0.579167 0 0 0 0.82 0"/>
<feBlend mode="normal" in2="BackgroundImageFix" result="effect1_dropShadow_279_3913"/>
<feBlend mode="normal" in="SourceGraphic" in2="effect1_dropShadow_279_3913" result="shape"/>
</filter>
<linearGradient id="paint0_linear_279_3913" x1="83.4578" y1="14.4309" x2="83.4578" y2="150.933" gradientUnits="userSpaceOnUse">
<stop stop-color="#FF7664"/>
<stop offset="1" stop-color="#6A0100"/>
</linearGradient>
<linearGradient id="paint1_linear_279_3913" x1="83.4578" y1="14.4309" x2="83.4578" y2="150.933" gradientUnits="userSpaceOnUse">
<stop stop-color="#FFA88C"/>
<stop offset="0.505208" stop-color="#EE2C01"/>
<stop offset="0.859375" stop-color="#8C1900"/>
<stop offset="1" stop-color="#8A0000"/>
</linearGradient>
<linearGradient id="paint2_linear_279_3913" x1="83.4579" y1="22.5287" x2="83.4579" y2="136.102" gradientUnits="userSpaceOnUse">
<stop stop-color="#FF7C53"/>
<stop offset="0.171875" stop-color="#D62726"/>
<stop offset="0.455871" stop-color="#930100"/>
<stop offset="0.838542" stop-color="#650100"/>
<stop offset="1" stop-color="#5C0000"/>
</linearGradient>
<linearGradient id="paint3_linear_279_3913" x1="83.4579" y1="22.5287" x2="83.4579" y2="77.6037" gradientUnits="userSpaceOnUse">
<stop stop-color="white" stop-opacity="0.22"/>
<stop offset="1" stop-color="#FF3D00" stop-opacity="0.2"/>
</linearGradient>
<linearGradient id="paint4_linear_279_3913" x1="83.4578" y1="43.4514" x2="87.1182" y2="101.782" gradientUnits="userSpaceOnUse">
<stop stop-color="#FEB48A"/>
<stop offset="1" stop-color="#FF2E00" stop-opacity="0"/>
</linearGradient>
<linearGradient id="paint5_linear_279_3913" x1="83.4577" y1="147.534" x2="83.4577" y2="136.868" gradientUnits="userSpaceOnUse">
<stop stop-color="#850100" stop-opacity="0"/>
<stop offset="1" stop-color="#380100"/>
</linearGradient>
</defs>
</svg>
