<svg width="166" height="173" viewBox="0 0 166 173" fill="none" xmlns="http://www.w3.org/2000/svg">
<g filter="url(#filter0_d_276_3491)">
<rect x="20.0582" y="16.6829" width="126.403" height="133.136" rx="22.9739" fill="url(#paint0_linear_276_3491)" stroke="url(#paint1_linear_276_3491)" stroke-width="3.36574"/>
<rect x="26.9127" y="23.5374" width="112.694" height="112.694" rx="17.1469" fill="url(#paint2_linear_276_3491)" stroke="url(#paint3_linear_276_3491)" stroke-width="0.87933"/>
<path d="M65.0013 95.6167C61.6228 95.6167 58.8749 94.3959 56.8144 91.9722C54.7539 89.5486 53.4016 85.952 52.6141 80.7192C51.4546 73.0074 52.6052 66.5075 55.8536 62.4178C57.7662 60.0091 60.2765 58.6165 63.1126 58.3924C65.5407 58.1981 69.1702 59.1828 72.6757 64.967C74.8707 68.589 76.5397 73.4004 77.2555 78.167C78.1206 83.9213 77.4766 88.1575 75.2861 91.1145C73.5468 93.4635 70.8721 94.9189 67.3353 95.4478C66.5625 95.5613 65.7824 95.6177 65.0013 95.6167ZM70.8542 115.748C68.8803 115.748 66.8795 115.116 65.0775 113.902C62.4771 112.139 60.6772 109.422 60.0688 106.341C59.643 104.15 59.8985 102.409 60.8488 101.015C62.3924 98.7516 65.1627 98.242 68.0943 97.7011C68.4037 97.6443 68.7174 97.5875 69.0357 97.5263C69.7111 97.3978 70.4014 97.2274 71.0709 97.0616C73.5782 96.443 76.1722 95.8019 78.3134 97.3231C79.7464 98.3391 80.5547 100.066 80.7968 102.601C81.0717 105.525 80.4442 108.443 79.0291 110.819C77.5065 113.376 75.2233 115.066 72.6039 115.58C72.0275 115.692 71.4415 115.749 70.8542 115.748ZM101.511 81.272C100.731 81.2694 99.9519 81.2095 99.1803 81.0927C95.645 80.5698 92.9703 79.1129 91.231 76.7595C89.0405 73.8024 88.392 69.5677 89.2616 63.8119C89.9774 59.0409 91.6419 54.2339 93.8265 50.6254C97.314 44.8621 100.948 43.8625 103.39 44.0388C106.217 44.245 108.722 45.6182 110.638 48.0134C113.909 52.1032 115.068 58.6225 113.904 66.3686C113.117 71.5984 111.783 75.1771 109.704 77.6216C107.626 80.0662 104.89 81.272 101.511 81.272ZM95.6584 101.404C95.0726 101.404 94.4881 101.347 93.9132 101.235C91.2893 100.721 89.0061 99.031 87.488 96.4743C86.0729 94.0985 85.4454 91.1803 85.7203 88.2561C85.9594 85.7159 86.7663 83.9945 88.2037 82.977C90.3449 81.4573 92.9389 82.0969 95.4462 82.717C96.1156 82.8813 96.806 83.0517 97.4814 83.1817L98.4212 83.3565C101.354 83.8959 104.125 84.4025 105.668 86.6692C106.619 88.0633 106.874 89.8071 106.448 91.9946C105.84 95.0769 104.04 97.7946 101.44 99.5569C99.6271 100.773 97.6263 101.404 95.6584 101.404Z" fill="url(#paint4_linear_276_3491)" stroke="url(#paint5_linear_276_3491)" stroke-width="2.63799"/>
<path d="M54.9561 148.103H111.563C112.081 142.668 114.852 140.008 123.314 135.813H43.2054C50.8751 139.512 53.4154 142.26 54.9561 148.103Z" fill="url(#paint6_linear_276_3491)"/>
<ellipse cx="33.7079" cy="27.6516" rx="1.8504" ry="3.98654" transform="rotate(52.9582 33.7079 27.6516)" fill="#8AE2FE"/>
<ellipse cx="33.708" cy="27.6516" rx="1.03799" ry="2.23626" transform="rotate(52.9582 33.708 27.6516)" fill="#B8E1FF"/>
<ellipse rx="1.8504" ry="3.98654" transform="matrix(-0.602397 0.798197 0.798197 0.602397 133.275 27.6516)" fill="#8AE2FE"/>
<ellipse rx="1.03799" ry="2.23626" transform="matrix(-0.602397 0.798197 0.798197 0.602397 133.275 27.6516)" fill="#B8E1FF"/>
</g>
<defs>
<filter id="filter0_d_276_3491" x="0.788757" y="0.930713" width="164.942" height="171.675" filterUnits="userSpaceOnUse" color-interpolation-filters="sRGB">
<feFlood flood-opacity="0" result="BackgroundImageFix"/>
<feColorMatrix in="SourceAlpha" type="matrix" values="0 0 0 0 0 0 0 0 0 0 0 0 0 0 0 0 0 0 127 0" result="hardAlpha"/>
<feOffset dy="3.51732"/>
<feGaussianBlur stdDeviation="8.7933"/>
<feComposite in2="hardAlpha" operator="out"/>
<feColorMatrix type="matrix" values="0 0 0 0 0 0 0 0 0 0 0 0 0 0 0 0 0 0 0.79 0"/>
<feBlend mode="normal" in2="BackgroundImageFix" result="effect1_dropShadow_276_3491"/>
<feBlend mode="normal" in="SourceGraphic" in2="effect1_dropShadow_276_3491" result="shape"/>
</filter>
<linearGradient id="paint0_linear_276_3491" x1="83.2597" y1="15" x2="83.2597" y2="151.502" gradientUnits="userSpaceOnUse">
<stop stop-color="#64A2FF"/>
<stop offset="1" stop-color="#001E6A"/>
</linearGradient>
<linearGradient id="paint1_linear_276_3491" x1="83.2597" y1="15" x2="83.2597" y2="151.502" gradientUnits="userSpaceOnUse">
<stop stop-color="#8CD6FF"/>
<stop offset="0.505208" stop-color="#01A7EE"/>
<stop offset="0.859375" stop-color="#00498C"/>
<stop offset="1" stop-color="#00278A"/>
</linearGradient>
<linearGradient id="paint2_linear_276_3491" x1="83.2597" y1="23.0977" x2="83.2597" y2="136.671" gradientUnits="userSpaceOnUse">
<stop stop-color="#53C1FF"/>
<stop offset="0.171875" stop-color="#2697D6"/>
<stop offset="0.455871" stop-color="#004D93"/>
<stop offset="0.838542" stop-color="#003565"/>
<stop offset="1" stop-color="#00255C"/>
</linearGradient>
<linearGradient id="paint3_linear_276_3491" x1="83.2597" y1="23.0977" x2="83.2597" y2="78.1727" gradientUnits="userSpaceOnUse">
<stop stop-color="white" stop-opacity="0.22"/>
<stop offset="1" stop-color="#00B2FF" stop-opacity="0.2"/>
</linearGradient>
<linearGradient id="paint4_linear_276_3491" x1="83.2597" y1="44.0203" x2="83.2597" y2="115.748" gradientUnits="userSpaceOnUse">
<stop stop-color="#002459"/>
<stop offset="1" stop-color="#000813"/>
</linearGradient>
<linearGradient id="paint5_linear_276_3491" x1="83.2597" y1="44.0203" x2="86.92" y2="102.35" gradientUnits="userSpaceOnUse">
<stop stop-color="#8ADBFE"/>
<stop offset="1" stop-color="#00B2FF" stop-opacity="0"/>
</linearGradient>
<linearGradient id="paint6_linear_276_3491" x1="83.2596" y1="148.103" x2="83.2596" y2="137.437" gradientUnits="userSpaceOnUse">
<stop stop-color="#003D85" stop-opacity="0"/>
<stop offset="1" stop-color="#000C38"/>
</linearGradient>
</defs>
</svg>
