<svg width="131" height="137" viewBox="0 0 131 137" fill="none" xmlns="http://www.w3.org/2000/svg">
<rect x="2.05824" y="2.11378" width="126.403" height="133.136" rx="22.9739" fill="url(#paint0_linear_279_3912)" stroke="url(#paint1_linear_279_3912)" stroke-width="3.36574"/>
<rect x="8.91269" y="8.96835" width="112.694" height="112.694" rx="17.1469" fill="url(#paint2_linear_279_3912)" stroke="url(#paint3_linear_279_3912)" stroke-width="0.87933"/>
<g filter="url(#filter0_d_279_3912)">
<path d="M47.0013 81.0478C43.6228 81.0478 40.8749 79.827 38.8144 77.4034C36.7539 74.9797 35.4016 71.3831 34.6141 66.1503C33.4546 58.4386 34.6052 51.9387 37.8536 47.849C39.7662 45.4403 42.2765 44.0477 45.1126 43.8235C47.5407 43.6293 51.1702 44.614 54.6757 50.3981C56.8707 54.0202 58.5397 58.8316 59.2555 63.5982C60.1206 69.3525 59.4766 73.5886 57.2861 76.5457C55.5468 78.8946 52.8721 80.35 49.3353 80.879C48.5625 80.9925 47.7824 81.0489 47.0013 81.0478ZM52.8542 101.18C50.8803 101.18 48.8795 100.548 47.0775 99.3327C44.4771 97.5706 42.6772 94.8536 42.0688 91.7719C41.643 89.5814 41.8985 87.8406 42.8488 86.4465C44.3924 84.1827 47.1627 83.6732 50.0943 83.1323C50.4037 83.0755 50.7174 83.0187 51.0357 82.9574C51.7111 82.8289 52.4014 82.6586 53.0709 82.4927C55.5782 81.8741 58.1722 81.2331 60.3134 82.7542C61.7464 83.7703 62.5547 85.4976 62.7968 88.0318C63.0717 90.9561 62.4442 93.8743 61.0291 96.2501C59.5065 98.8067 57.2233 100.497 54.6039 101.011C54.0275 101.123 53.4415 101.18 52.8542 101.18ZM83.5113 66.7032C82.731 66.7006 81.9519 66.6406 81.1803 66.5239C77.645 66.0009 74.9703 64.544 73.231 62.1906C71.0405 59.2335 70.392 54.9989 71.2616 49.2431C71.9774 44.472 73.6419 39.6651 75.8265 36.0565C79.314 30.2933 82.948 29.2936 85.3896 29.4699C88.2166 29.6761 90.7225 31.0493 92.6381 33.4446C95.9089 37.5343 97.0685 44.0536 95.9045 51.7997C95.117 57.0295 93.7827 60.6082 91.7042 63.0528C89.6257 65.4973 86.8898 66.7032 83.5113 66.7032ZM77.6584 86.835C77.0726 86.8349 76.4881 86.7784 75.9132 86.6661C73.2893 86.1521 71.0061 84.4621 69.488 81.9055C68.0729 79.5297 67.4454 76.6114 67.7203 73.6872C67.9594 71.147 68.7663 69.4257 70.2037 68.4081C72.3449 66.8885 74.9389 67.528 77.4462 68.1481C78.1156 68.3125 78.806 68.4828 79.4814 68.6128L80.4212 68.7876C83.3544 69.3271 86.1247 69.8336 87.6683 72.1004C88.6186 73.4945 88.8741 75.2382 88.4483 77.4258C87.8404 80.5081 86.0404 83.2258 83.4396 84.9881C81.6271 86.2044 79.6263 86.835 77.6584 86.835Z" fill="#8ED6FF" shape-rendering="crispEdges"/>
<path d="M47.0013 81.0478C43.6228 81.0478 40.8749 79.827 38.8144 77.4034C36.7539 74.9797 35.4016 71.3831 34.6141 66.1503C33.4546 58.4386 34.6052 51.9387 37.8536 47.849C39.7662 45.4403 42.2765 44.0477 45.1126 43.8235C47.5407 43.6293 51.1702 44.614 54.6757 50.3981C56.8707 54.0202 58.5397 58.8316 59.2555 63.5982C60.1206 69.3525 59.4766 73.5886 57.2861 76.5457C55.5468 78.8946 52.8721 80.35 49.3353 80.879C48.5625 80.9925 47.7824 81.0489 47.0013 81.0478ZM52.8542 101.18C50.8803 101.18 48.8795 100.548 47.0775 99.3327C44.4771 97.5706 42.6772 94.8536 42.0688 91.7719C41.643 89.5814 41.8985 87.8406 42.8488 86.4465C44.3924 84.1827 47.1627 83.6732 50.0943 83.1323C50.4037 83.0755 50.7174 83.0187 51.0357 82.9574C51.7111 82.8289 52.4014 82.6586 53.0709 82.4927C55.5782 81.8741 58.1722 81.2331 60.3134 82.7542C61.7464 83.7703 62.5547 85.4976 62.7968 88.0318C63.0717 90.9561 62.4442 93.8743 61.0291 96.2501C59.5065 98.8067 57.2233 100.497 54.6039 101.011C54.0275 101.123 53.4415 101.18 52.8542 101.18ZM83.5113 66.7032C82.731 66.7006 81.9519 66.6406 81.1803 66.5239C77.645 66.0009 74.9703 64.544 73.231 62.1906C71.0405 59.2335 70.392 54.9989 71.2616 49.2431C71.9774 44.472 73.6419 39.6651 75.8265 36.0565C79.314 30.2933 82.948 29.2936 85.3896 29.4699C88.2166 29.6761 90.7225 31.0493 92.6381 33.4446C95.9089 37.5343 97.0685 44.0536 95.9045 51.7997C95.117 57.0295 93.7827 60.6082 91.7042 63.0528C89.6257 65.4973 86.8898 66.7032 83.5113 66.7032ZM77.6584 86.835C77.0726 86.8349 76.4881 86.7784 75.9132 86.6661C73.2893 86.1521 71.0061 84.4621 69.488 81.9055C68.0729 79.5297 67.4454 76.6114 67.7203 73.6872C67.9594 71.147 68.7663 69.4257 70.2037 68.4081C72.3449 66.8885 74.9389 67.528 77.4462 68.1481C78.1156 68.3125 78.806 68.4828 79.4814 68.6128L80.4212 68.7876C83.3544 69.3271 86.1247 69.8336 87.6683 72.1004C88.6186 73.4945 88.8741 75.2382 88.4483 77.4258C87.8404 80.5081 86.0404 83.2258 83.4396 84.9881C81.6271 86.2044 79.6263 86.835 77.6584 86.835Z" stroke="url(#paint4_linear_279_3912)" stroke-width="1.95634" shape-rendering="crispEdges"/>
<path d="M47.0013 81.0478C43.6228 81.0478 40.8749 79.827 38.8144 77.4034C36.7539 74.9797 35.4016 71.3831 34.6141 66.1503C33.4546 58.4386 34.6052 51.9387 37.8536 47.849C39.7662 45.4403 42.2765 44.0477 45.1126 43.8235C47.5407 43.6293 51.1702 44.614 54.6757 50.3981C56.8707 54.0202 58.5397 58.8316 59.2555 63.5982C60.1206 69.3525 59.4766 73.5886 57.2861 76.5457C55.5468 78.8946 52.8721 80.35 49.3353 80.879C48.5625 80.9925 47.7824 81.0489 47.0013 81.0478ZM52.8542 101.18C50.8803 101.18 48.8795 100.548 47.0775 99.3327C44.4771 97.5706 42.6772 94.8536 42.0688 91.7719C41.643 89.5814 41.8985 87.8406 42.8488 86.4465C44.3924 84.1827 47.1627 83.6732 50.0943 83.1323C50.4037 83.0755 50.7174 83.0187 51.0357 82.9574C51.7111 82.8289 52.4014 82.6586 53.0709 82.4927C55.5782 81.8741 58.1722 81.2331 60.3134 82.7542C61.7464 83.7703 62.5547 85.4976 62.7968 88.0318C63.0717 90.9561 62.4442 93.8743 61.0291 96.2501C59.5065 98.8067 57.2233 100.497 54.6039 101.011C54.0275 101.123 53.4415 101.18 52.8542 101.18ZM83.5113 66.7032C82.731 66.7006 81.9519 66.6406 81.1803 66.5239C77.645 66.0009 74.9703 64.544 73.231 62.1906C71.0405 59.2335 70.392 54.9989 71.2616 49.2431C71.9774 44.472 73.6419 39.6651 75.8265 36.0565C79.314 30.2933 82.948 29.2936 85.3896 29.4699C88.2166 29.6761 90.7225 31.0493 92.6381 33.4446C95.9089 37.5343 97.0685 44.0536 95.9045 51.7997C95.117 57.0295 93.7827 60.6082 91.7042 63.0528C89.6257 65.4973 86.8898 66.7032 83.5113 66.7032ZM77.6584 86.835C77.0726 86.8349 76.4881 86.7784 75.9132 86.6661C73.2893 86.1521 71.0061 84.4621 69.488 81.9055C68.0729 79.5297 67.4454 76.6114 67.7203 73.6872C67.9594 71.147 68.7663 69.4257 70.2037 68.4081C72.3449 66.8885 74.9389 67.528 77.4462 68.1481C78.1156 68.3125 78.806 68.4828 79.4814 68.6128L80.4212 68.7876C83.3544 69.3271 86.1247 69.8336 87.6683 72.1004C88.6186 73.4945 88.8741 75.2382 88.4483 77.4258C87.8404 80.5081 86.0404 83.2258 83.4396 84.9881C81.6271 86.2044 79.6263 86.835 77.6584 86.835Z" stroke="#B9DDFF" stroke-opacity="0.74" stroke-width="1.95634" shape-rendering="crispEdges"/>
</g>
<path d="M36.9561 133.534H93.5631C94.0806 128.099 96.8523 125.439 105.314 121.244H25.2054C32.8751 124.943 35.4154 127.69 36.9561 133.534Z" fill="url(#paint5_linear_279_3912)"/>
<ellipse cx="15.7079" cy="13.0824" rx="1.8504" ry="3.98654" transform="rotate(52.9582 15.7079 13.0824)" fill="#8AE2FE"/>
<ellipse cx="15.708" cy="13.0825" rx="1.03799" ry="2.23626" transform="rotate(52.9582 15.708 13.0825)" fill="#B8E1FF"/>
<ellipse rx="1.8504" ry="3.98654" transform="matrix(-0.602397 0.798197 0.798197 0.602397 115.275 13.0824)" fill="#8AE2FE"/>
<ellipse rx="1.03799" ry="2.23626" transform="matrix(-0.602397 0.798197 0.798197 0.602397 115.275 13.0825)" fill="#B8E1FF"/>
<defs>
<filter id="filter0_d_279_3912" x="26.6753" y="21.9521" width="77.1688" height="86.7267" filterUnits="userSpaceOnUse" color-interpolation-filters="sRGB">
<feFlood flood-opacity="0" result="BackgroundImageFix"/>
<feColorMatrix in="SourceAlpha" type="matrix" values="0 0 0 0 0 0 0 0 0 0 0 0 0 0 0 0 0 0 127 0" result="hardAlpha"/>
<feOffset/>
<feGaussianBlur stdDeviation="3.26056"/>
<feComposite in2="hardAlpha" operator="out"/>
<feColorMatrix type="matrix" values="0 0 0 0 0.579167 0 0 0 0 0.92425 0 0 0 0 1 0 0 0 0.82 0"/>
<feBlend mode="normal" in2="BackgroundImageFix" result="effect1_dropShadow_279_3912"/>
<feBlend mode="normal" in="SourceGraphic" in2="effect1_dropShadow_279_3912" result="shape"/>
</filter>
<linearGradient id="paint0_linear_279_3912" x1="65.2597" y1="0.430908" x2="65.2597" y2="136.933" gradientUnits="userSpaceOnUse">
<stop stop-color="#64A2FF"/>
<stop offset="1" stop-color="#001E6A"/>
</linearGradient>
<linearGradient id="paint1_linear_279_3912" x1="65.2597" y1="0.430908" x2="65.2597" y2="136.933" gradientUnits="userSpaceOnUse">
<stop stop-color="#8CD6FF"/>
<stop offset="0.505208" stop-color="#01A7EE"/>
<stop offset="0.859375" stop-color="#00498C"/>
<stop offset="1" stop-color="#00278A"/>
</linearGradient>
<linearGradient id="paint2_linear_279_3912" x1="65.2597" y1="8.52869" x2="65.2597" y2="122.102" gradientUnits="userSpaceOnUse">
<stop stop-color="#53C1FF"/>
<stop offset="0.171875" stop-color="#2697D6"/>
<stop offset="0.455871" stop-color="#004D93"/>
<stop offset="0.838542" stop-color="#003565"/>
<stop offset="1" stop-color="#00255C"/>
</linearGradient>
<linearGradient id="paint3_linear_279_3912" x1="65.2597" y1="8.52869" x2="65.2597" y2="63.6037" gradientUnits="userSpaceOnUse">
<stop stop-color="white" stop-opacity="0.22"/>
<stop offset="1" stop-color="#00B2FF" stop-opacity="0.2"/>
</linearGradient>
<linearGradient id="paint4_linear_279_3912" x1="65.2597" y1="29.4514" x2="68.92" y2="87.7816" gradientUnits="userSpaceOnUse">
<stop stop-color="#8AD4FE"/>
<stop offset="1" stop-color="#0094FF" stop-opacity="0"/>
</linearGradient>
<linearGradient id="paint5_linear_279_3912" x1="65.2596" y1="133.534" x2="65.2596" y2="122.868" gradientUnits="userSpaceOnUse">
<stop stop-color="#003D85" stop-opacity="0"/>
<stop offset="1" stop-color="#000C38"/>
</linearGradient>
</defs>
</svg>
