<svg width="630" height="167" viewBox="0 0 630 167" fill="none" xmlns="http://www.w3.org/2000/svg">
<g filter="url(#filter0_dddi_280_4378)">
<path d="M52.0469 130.914L39.7135 130.934C37.6821 130.937 36.6648 129.923 36.6616 127.891L36.5213 40.6872C36.518 38.6559 37.5321 37.6386 39.5635 37.6353L51.8968 37.6154C53.9282 37.6122 54.9455 38.6262 54.9488 40.6576L55.0153 82.0107L55.3055 82.0102C56.0756 79.6874 57.5702 76.6863 59.7891 73.0069L81.792 40.6144C83.0463 38.581 84.9309 37.5623 87.4459 37.5583L101.666 37.5354C102.73 37.5337 103.359 37.8712 103.553 38.5481C103.845 39.128 103.604 39.9022 102.832 40.8708L75.3244 79.076L106.163 127.199C106.842 128.359 106.94 129.278 106.457 129.956C106.071 130.537 105.201 130.828 103.847 130.83L93.2548 130.847C89.8692 130.853 87.5944 129.841 86.4303 127.811L64.1731 92.2979L55.0491 103.05L55.0891 127.862C55.0923 129.893 54.0783 130.91 52.0469 130.914ZM134.552 130.781L120.623 130.803C118.882 130.806 118.3 129.791 118.877 127.759L141.662 40.5181C142.336 38.4857 143.785 37.4677 146.01 37.4641L165.308 37.433C167.727 37.4292 169.179 38.4425 169.666 40.4731L192.732 127.64C193.316 129.671 192.737 130.687 190.996 130.69L177.066 130.713C176.002 130.714 175.276 130.522 174.889 130.136C174.501 129.653 174.21 128.831 174.014 127.67L169.926 111.716L141.632 111.762L137.594 127.729C137.403 128.89 137.066 129.713 136.583 130.197C136.196 130.585 135.52 130.779 134.552 130.781ZM155.47 55.0058L145.09 96.9561L166.565 96.9215L156.05 55.0049L155.47 55.0058ZM241.728 130.609L229.54 130.628C227.412 130.632 226.346 129.618 226.343 127.586L226.226 54.892C226.224 53.828 225.691 53.2968 224.627 53.2985L208.086 53.3251C206.054 53.3284 205.037 52.3143 205.034 50.2829L205.018 40.4163C205.015 38.3849 206.029 37.3676 208.06 37.3643L262.907 37.2761C264.939 37.2728 265.956 38.2869 265.959 40.3182L265.975 50.1849C265.978 52.2163 264.964 53.2336 262.933 53.2369L246.392 53.2635C245.231 53.2654 244.651 53.7983 244.653 54.8624L244.77 127.557C244.773 129.588 243.759 130.605 241.728 130.609ZM294.161 130.524L280.231 130.547C278.49 130.55 277.908 129.535 278.485 127.502L301.27 40.2615C301.944 38.229 303.394 37.211 305.618 37.2074L324.916 37.1764C327.335 37.1725 328.787 38.1858 329.274 40.2164L352.34 127.384C352.924 129.414 352.345 130.431 350.604 130.434L336.674 130.456C335.61 130.458 334.885 130.265 334.497 129.879C334.109 129.396 333.818 128.574 333.622 127.414L329.534 111.459L301.24 111.505L297.203 127.472C297.011 128.633 296.674 129.456 296.191 129.941C295.805 130.328 295.128 130.523 294.161 130.524ZM315.078 54.7491L304.698 96.6994L326.173 96.6648L315.658 54.7482L315.078 54.7491ZM423.246 130.317L375.509 130.393C373.477 130.397 372.46 129.383 372.457 127.351L372.316 40.1472C372.313 38.1158 373.327 37.0985 375.359 37.0952L387.692 37.0754C389.723 37.0721 390.741 38.0862 390.744 40.1176L390.861 112.667C390.862 113.731 391.444 114.262 392.604 114.26L423.22 114.211C425.155 114.208 426.124 115.27 426.127 117.398L426.143 127.265C426.146 129.296 425.181 130.314 423.246 130.317ZM470.264 114.28L480.566 114.264C483.661 114.259 485.837 113.626 487.092 112.367C488.444 111.01 489.118 108.785 489.113 105.689L489.042 61.4341C489.037 58.3386 488.356 56.1633 487 54.9079C485.74 53.5557 483.563 52.8821 480.467 52.887L470.165 52.9036C467.07 52.9086 464.894 53.5892 463.639 54.9455C462.384 56.205 461.758 58.3825 461.763 61.4779L461.834 105.733C461.839 108.828 462.472 111.052 463.731 112.404C464.991 113.66 467.168 114.285 470.264 114.28ZM483.639 130.22L467.388 130.246C459.746 130.258 453.842 128.236 449.676 124.18C445.51 120.124 443.421 114.275 443.408 106.633L443.334 60.637C443.322 52.9951 445.392 47.1395 449.545 43.0701C453.698 39.0006 459.596 36.9597 467.238 36.9475L483.489 36.9213C491.13 36.909 497.034 38.9309 501.2 42.987C505.366 47.043 507.456 52.892 507.468 60.5339L507.542 106.53C507.554 114.172 505.484 120.028 501.331 124.097C497.178 128.166 491.28 130.207 483.639 130.22ZM570.082 130.081L554.702 130.105C547.06 130.118 541.156 128.096 536.99 124.04C532.824 119.984 530.735 114.135 530.722 106.493L530.648 60.4966C530.636 52.8547 532.706 46.9991 536.859 42.9296C541.012 38.8602 546.91 36.8193 554.552 36.807L569.932 36.7823C577.477 36.7702 583.333 38.8405 587.499 42.9933C591.665 47.0494 593.754 52.8499 593.766 60.3951L593.773 64.748C593.777 66.8761 592.763 67.9418 590.731 67.9451L578.398 67.9649C576.367 67.9682 575.349 66.9058 575.346 64.7776L575.34 61.2953C575.335 58.1999 574.703 56.0244 573.443 54.7689C572.184 53.4167 570.006 52.743 566.911 52.748L557.479 52.7632C554.481 52.768 552.305 53.4486 550.953 54.8051C549.698 56.0646 549.072 58.2421 549.077 61.3375L549.149 105.593C549.153 108.688 549.786 110.912 551.046 112.264C552.402 113.519 554.579 114.145 557.578 114.14L567.009 114.125C570.105 114.12 572.28 113.487 573.536 112.228C574.791 110.872 575.416 108.646 575.411 105.55L575.397 96.4091C575.395 95.345 574.862 94.8139 573.798 94.8156L565.092 94.8296C563.061 94.8328 562.043 93.8188 562.04 91.7874L562.024 81.9207C562.021 79.8893 563.035 78.872 565.066 78.8688L590.459 78.8279C592.683 78.8243 593.798 79.935 593.801 82.1598L593.84 106.391C593.852 113.936 591.782 119.792 587.629 123.958C583.476 128.028 577.627 130.068 570.082 130.081Z" fill="url(#paint0_linear_280_4378)"/>
<path d="M55.0153 82.0106L52.143 82.0153L52.1476 84.8876L55.0199 84.883L55.0153 82.0106ZM55.3055 82.0102L55.3101 84.8825L57.3804 84.8792L58.0319 82.9141L55.3055 82.0102ZM59.7891 73.0069L57.413 71.3929L57.3695 71.4571L57.3294 71.5235L59.7891 73.0069ZM81.792 40.6144L84.168 42.2284L84.2035 42.1761L84.2367 42.1224L81.792 40.6144ZM103.553 38.5481L100.793 39.3416L100.867 39.5982L100.986 39.8368L103.553 38.5481ZM102.832 40.8708L100.586 39.0801L100.542 39.1352L100.501 39.1925L102.832 40.8708ZM75.3244 79.076L72.9934 77.3977L71.8527 78.982L72.906 80.6258L75.3244 79.076ZM106.163 127.199L108.642 125.748L108.612 125.698L108.581 125.649L106.163 127.199ZM106.457 129.956L104.117 128.29L104.09 128.328L104.065 128.366L106.457 129.956ZM86.4303 127.811L88.9219 126.382L88.894 126.334L88.8642 126.286L86.4303 127.811ZM64.1731 92.2979L66.6069 90.7726L64.5226 87.4467L61.983 90.4395L64.1731 92.2979ZM55.0491 103.05L52.8591 101.191L52.1751 101.997L52.1768 103.055L55.0491 103.05ZM52.0423 128.041L39.7089 128.061L39.7181 133.806L52.0515 133.786L52.0423 128.041ZM39.7089 128.061C39.4319 128.062 39.3063 128.026 39.2841 128.019C39.2758 128.016 39.2944 128.021 39.3299 128.043C39.3664 128.064 39.4106 128.097 39.4548 128.141C39.499 128.185 39.5318 128.229 39.5537 128.266C39.575 128.301 39.5804 128.32 39.5776 128.311C39.5702 128.289 39.5344 128.164 39.5339 127.887L33.7892 127.896C33.7915 129.354 34.1607 130.975 35.3992 132.21C36.6377 133.444 38.2597 133.808 39.7181 133.806L39.7089 128.061ZM39.5339 127.887L39.3937 40.6826L33.649 40.6919L33.7892 127.896L39.5339 127.887ZM39.3937 40.6826C39.3932 40.4056 39.4286 40.28 39.436 40.2578C39.4388 40.2495 39.4334 40.2681 39.4122 40.3036C39.3904 40.3401 39.3578 40.3843 39.3137 40.4285C39.2696 40.4727 39.2256 40.5055 39.1891 40.5274C39.1537 40.5487 39.1351 40.5541 39.1434 40.5514C39.1656 40.5439 39.291 40.5081 39.5681 40.5076L39.5589 34.7629C38.1004 34.7653 36.4796 35.1344 35.2451 36.3729C34.0106 37.6114 33.6466 39.2334 33.649 40.6919L39.3937 40.6826ZM39.5681 40.5076L51.9015 40.4878L51.8922 34.7431L39.5589 34.7629L39.5681 40.5076ZM51.9015 40.4878C52.1785 40.4874 52.3041 40.5228 52.3263 40.5302C52.3345 40.5329 52.3159 40.5276 52.2805 40.5064C52.244 40.4845 52.1998 40.452 52.1556 40.4079C52.1113 40.3638 52.0786 40.3197 52.0567 40.2833C52.0354 40.2479 52.03 40.2293 52.0327 40.2375C52.0402 40.2597 52.076 40.3852 52.0764 40.6622L57.8212 40.653C57.8188 39.1945 57.4496 37.5737 56.2112 36.3392C54.9727 35.1047 53.3507 34.7407 51.8922 34.7431L51.9015 40.4878ZM52.0764 40.6622L52.143 82.0153L57.8877 82.006L57.8212 40.653L52.0764 40.6622ZM55.0199 84.883L55.3101 84.8825L55.3009 79.1378L55.0107 79.1383L55.0199 84.883ZM58.0319 82.9141C58.7029 80.8904 60.0707 78.1019 62.2488 74.4902L57.3294 71.5235C55.0696 75.2706 53.4484 78.4843 52.5791 81.1062L58.0319 82.9141ZM62.1651 74.6208L84.168 42.2284L79.416 39.0005L57.413 71.3929L62.1651 74.6208ZM84.2367 42.1224C84.9362 40.9883 85.8668 40.4332 87.4506 40.4306L87.4413 34.6859C83.995 34.6915 81.1563 36.1738 79.3473 39.1065L84.2367 42.1224ZM87.4506 40.4306L101.67 40.4078L101.661 34.663L87.4413 34.6859L87.4506 40.4306ZM101.67 40.4078C101.942 40.4073 101.838 40.4578 101.578 40.3185C101.431 40.2398 101.255 40.1101 101.096 39.9149C100.937 39.7191 100.843 39.5146 100.793 39.3416L106.314 37.7545C105.999 36.6596 105.28 35.7853 104.293 35.2561C103.404 34.7792 102.453 34.6618 101.661 34.663L101.67 40.4078ZM100.986 39.8368C100.867 39.5979 100.81 39.3497 100.802 39.1266C100.794 38.9144 100.831 38.7688 100.848 38.7113C100.866 38.6561 100.871 38.6632 100.828 38.7375C100.786 38.8101 100.71 38.9239 100.586 39.0801L105.078 42.6615C105.907 41.6218 107.252 39.514 106.121 37.2594L100.986 39.8368ZM100.501 39.1925L72.9934 77.3977L77.6554 80.7543L105.163 42.5491L100.501 39.1925ZM72.906 80.6258L103.744 128.749L108.581 125.649L77.7428 77.5263L72.906 80.6258ZM103.684 128.65C103.787 128.827 103.844 128.952 103.873 129.03C103.902 129.107 103.895 129.115 103.89 129.063C103.883 129.007 103.88 128.887 103.918 128.73C103.957 128.567 104.028 128.415 104.117 128.29L108.797 131.621C110.287 129.529 109.505 127.222 108.642 125.748L103.684 128.65ZM104.065 128.366C104.187 128.182 104.327 128.056 104.438 127.978C104.544 127.905 104.612 127.883 104.603 127.887C104.593 127.89 104.53 127.909 104.396 127.927C104.263 127.944 104.081 127.958 103.842 127.958L103.852 133.703C105.316 133.7 107.591 133.44 108.85 131.545L104.065 128.366ZM103.842 127.958L93.2502 127.975L93.2594 133.72L103.852 133.703L103.842 127.958ZM93.2502 127.975C90.386 127.98 89.362 127.15 88.9219 126.382L83.9387 129.24C85.8267 132.532 89.3524 133.726 93.2594 133.72L93.2502 127.975ZM88.8642 126.286L66.6069 90.7726L61.7392 93.8233L83.9964 129.337L88.8642 126.286ZM61.983 90.4395L52.8591 101.191L57.2392 104.908L66.3632 94.1564L61.983 90.4395ZM52.1768 103.055L52.2167 127.866L57.9614 127.857L57.9215 103.045L52.1768 103.055ZM52.2167 127.866C52.2171 128.143 52.1817 128.269 52.1743 128.291C52.1716 128.299 52.1769 128.281 52.1981 128.245C52.22 128.209 52.2526 128.165 52.2966 128.12C52.3407 128.076 52.3848 128.044 52.4212 128.022C52.4566 128 52.4752 127.995 52.467 127.998C52.4447 128.005 52.3193 128.041 52.0423 128.041L52.0515 133.786C53.51 133.784 55.1308 133.415 56.3653 132.176C57.5998 130.938 57.9638 129.316 57.9614 127.857L52.2167 127.866ZM118.877 127.759L121.64 128.544L121.648 128.514L121.656 128.485L118.877 127.759ZM141.662 40.5181L138.936 39.6142L138.906 39.7024L138.883 39.7923L141.662 40.5181ZM169.666 40.4731L166.873 41.1429L166.881 41.1755L166.889 41.2079L169.666 40.4731ZM192.732 127.64L189.955 128.375L189.963 128.405L189.971 128.434L192.732 127.64ZM174.889 130.136L172.649 131.934L172.748 132.058L172.861 132.17L174.889 130.136ZM174.014 127.67L176.847 127.194L176.827 127.075L176.797 126.957L174.014 127.67ZM169.926 111.716L172.708 111.003L172.154 108.84L169.921 108.844L169.926 111.716ZM141.632 111.762L141.627 108.889L139.394 108.893L138.847 111.058L141.632 111.762ZM137.594 127.729L134.81 127.025L134.78 127.142L134.76 127.261L137.594 127.729ZM136.583 130.197L138.617 132.225L138.617 132.225L136.583 130.197ZM155.47 55.0058L155.465 52.1335L153.221 52.1371L152.681 54.3159L155.47 55.0058ZM145.09 96.9561L142.302 96.2662L141.419 99.8343L145.095 99.8284L145.09 96.9561ZM166.565 96.9215L166.569 99.7939L170.245 99.788L169.351 96.2227L166.565 96.9215ZM156.05 55.0049L158.836 54.306L158.29 52.1289L156.046 52.1325L156.05 55.0049ZM134.548 127.909L120.618 127.931L120.627 133.676L134.557 133.653L134.548 127.909ZM120.618 127.931C120.44 127.931 120.5 127.902 120.681 127.981C120.907 128.08 121.184 128.288 121.372 128.615C121.539 128.907 121.534 129.116 121.534 129.088C121.534 129.055 121.543 128.886 121.64 128.544L116.114 126.974C115.77 128.186 115.5 129.924 116.389 131.474C117.418 133.267 119.276 133.678 120.627 133.676L120.618 127.931ZM121.656 128.485L144.441 41.244L138.883 39.7923L116.098 127.033L121.656 128.485ZM144.389 41.4221C144.573 40.8657 144.783 40.6665 144.905 40.5808C145.037 40.4883 145.34 40.3375 146.015 40.3364L146.006 34.5917C144.456 34.5942 142.921 34.9542 141.604 35.8798C140.276 36.8121 139.425 38.1382 138.936 39.6142L144.389 41.4221ZM146.015 40.3364L165.313 40.3054L165.304 34.5607L146.006 34.5917L146.015 40.3364ZM165.313 40.3054C166.143 40.3041 166.473 40.4795 166.568 40.5459C166.617 40.5802 166.762 40.682 166.873 41.1429L172.459 39.8033C172.083 38.2336 171.258 36.8135 169.855 35.8344C168.497 34.8874 166.892 34.5581 165.304 34.5607L165.313 40.3054ZM166.889 41.2079L189.955 128.375L195.509 126.906L172.443 39.7383L166.889 41.2079ZM189.971 128.434C190.07 128.776 190.079 128.944 190.079 128.978C190.079 129.006 190.073 128.797 190.239 128.505C190.426 128.177 190.703 127.967 190.928 127.868C191.11 127.789 191.169 127.818 190.991 127.818L191 133.563C192.351 133.56 194.209 133.144 195.232 131.347C196.116 129.794 195.84 128.057 195.492 126.847L189.971 128.434ZM190.991 127.818L177.062 127.84L177.071 133.585L191 133.563L190.991 127.818ZM177.062 127.84C176.881 127.841 176.74 127.832 176.636 127.821C176.53 127.81 176.475 127.797 176.459 127.793C176.443 127.789 176.487 127.799 176.567 127.84C176.65 127.883 176.779 127.964 176.917 128.101L172.861 132.17C174.113 133.418 175.878 133.587 177.071 133.585L177.062 127.84ZM177.129 128.338C177.2 128.427 177.165 128.418 177.086 128.197C177.012 127.987 176.926 127.662 176.847 127.194L171.182 128.147C171.397 129.428 171.785 130.858 172.649 131.934L177.129 128.338ZM176.797 126.957L172.708 111.003L167.143 112.429L171.232 128.384L176.797 126.957ZM169.921 108.844L141.627 108.889L141.636 114.634L169.93 114.589L169.921 108.844ZM138.847 111.058L134.81 127.025L140.379 128.433L144.416 112.466L138.847 111.058ZM134.76 127.261C134.689 127.693 134.605 127.968 134.54 128.128C134.474 128.288 134.455 128.263 134.548 128.17L138.617 132.225C139.731 131.108 140.202 129.569 140.429 128.197L134.76 127.261ZM134.548 128.17C134.665 128.053 134.777 127.977 134.859 127.932C134.939 127.889 134.989 127.874 134.992 127.873C134.994 127.873 134.961 127.882 134.883 127.892C134.806 127.901 134.696 127.908 134.548 127.909L134.557 133.653C135.747 133.651 137.405 133.441 138.617 132.225L134.548 128.17ZM152.681 54.3159L142.302 96.2662L147.878 97.646L158.258 55.6957L152.681 54.3159ZM145.095 99.8284L166.569 99.7939L166.56 94.0492L145.086 94.0837L145.095 99.8284ZM169.351 96.2227L158.836 54.306L153.264 55.7037L163.779 97.6204L169.351 96.2227ZM156.046 52.1325L155.465 52.1335L155.474 57.8782L156.055 57.8772L156.046 52.1325ZM241.723 127.736L229.535 127.756L229.544 133.501L241.733 133.481L241.723 127.736ZM229.535 127.756C229.223 127.756 229.062 127.718 229.009 127.702C228.968 127.689 229.033 127.703 229.124 127.789C229.166 127.829 229.2 127.872 229.224 127.91C229.247 127.947 229.255 127.97 229.254 127.968C229.251 127.958 229.215 127.847 229.215 127.582L223.47 127.591C223.473 129.084 223.873 130.723 225.164 131.951C226.43 133.156 228.07 133.503 229.544 133.501L229.535 127.756ZM229.215 127.582L229.098 54.8874L223.353 54.8966L223.47 127.591L229.215 127.582ZM229.098 54.8874C229.096 53.9126 228.849 52.6543 227.852 51.6613C226.856 50.6682 225.597 50.4246 224.622 50.4262L224.632 56.1709C224.721 56.1707 224.26 56.1918 223.797 55.7299C223.333 55.268 223.353 54.8074 223.353 54.8966L229.098 54.8874ZM224.622 50.4262L208.081 50.4528L208.09 56.1975L224.632 56.1709L224.622 50.4262ZM208.081 50.4528C207.804 50.4532 207.679 50.4178 207.656 50.4104C207.648 50.4077 207.667 50.413 207.702 50.4342C207.739 50.456 207.783 50.4886 207.827 50.5327C207.871 50.5768 207.904 50.6209 207.926 50.6573C207.947 50.6927 207.953 50.7113 207.95 50.703C207.942 50.6808 207.907 50.5554 207.906 50.2783L202.161 50.2876C202.164 51.746 202.533 53.3668 203.771 54.6013C205.01 55.8359 206.632 56.1998 208.09 56.1975L208.081 50.4528ZM207.906 50.2783L207.89 40.4116L202.146 40.4209L202.161 50.2876L207.906 50.2783ZM207.89 40.4116C207.89 40.1346 207.925 40.009 207.933 39.9868C207.935 39.9785 207.93 39.9971 207.909 40.0326C207.887 40.0691 207.854 40.1133 207.81 40.1575C207.766 40.2018 207.722 40.2345 207.686 40.2564C207.65 40.2777 207.632 40.2831 207.64 40.2804C207.662 40.2729 207.788 40.2371 208.065 40.2366L208.055 34.4919C206.597 34.4943 204.976 34.8634 203.742 36.1019C202.507 37.3404 202.143 38.9624 202.146 40.4209L207.89 40.4116ZM208.065 40.2366L262.912 40.1484L262.903 34.4037L208.055 34.4919L208.065 40.2366ZM262.912 40.1484C263.189 40.148 263.315 40.1834 263.337 40.1908C263.345 40.1935 263.326 40.1882 263.291 40.167C263.254 40.1452 263.21 40.1126 263.166 40.0685C263.122 40.0244 263.089 39.9803 263.067 39.9439C263.046 39.9085 263.04 39.8899 263.043 39.8982C263.051 39.9204 263.086 40.0458 263.087 40.3229L268.832 40.3136C268.829 38.8552 268.46 37.2344 267.222 35.9998C265.983 34.7653 264.361 34.4014 262.903 34.4037L262.912 40.1484ZM263.087 40.3229L263.103 50.1896L268.847 50.1803L268.832 40.3136L263.087 40.3229ZM263.103 50.1896C263.103 50.4666 263.068 50.5921 263.06 50.6144C263.058 50.6226 263.063 50.604 263.084 50.5686C263.106 50.5321 263.139 50.4879 263.183 50.4437C263.227 50.3994 263.271 50.3667 263.307 50.3448C263.343 50.3235 263.361 50.3181 263.353 50.3208C263.331 50.3283 263.205 50.3641 262.928 50.3645L262.938 56.1093C264.396 56.1069 266.017 55.7377 267.251 54.4993C268.486 53.2608 268.85 51.6388 268.847 50.1803L263.103 50.1896ZM262.928 50.3645L246.387 50.3911L246.396 56.1359L262.938 56.1093L262.928 50.3645ZM246.387 50.3911C245.423 50.3927 244.164 50.6104 243.142 51.5504C242.073 52.5338 241.779 53.8248 241.781 54.867L247.525 54.8578C247.525 54.8359 247.521 55.3284 247.031 55.7789C246.588 56.1859 246.2 56.1362 246.396 56.1359L246.387 50.3911ZM241.781 54.867L241.898 127.561L247.642 127.552L247.525 54.8578L241.781 54.867ZM241.898 127.561C241.898 127.838 241.863 127.964 241.855 127.986C241.853 127.994 241.858 127.976 241.879 127.94C241.901 127.904 241.934 127.86 241.978 127.815C242.022 127.771 242.066 127.738 242.102 127.717C242.138 127.695 242.156 127.69 242.148 127.693C242.126 127.7 242 127.736 241.723 127.736L241.733 133.481C243.191 133.479 244.812 133.109 246.046 131.871C247.281 130.633 247.645 129.011 247.642 127.552L241.898 127.561ZM278.485 127.502L281.248 128.287L281.256 128.258L281.264 128.228L278.485 127.502ZM301.27 40.2615L298.544 39.3575L298.515 39.4457L298.491 39.5356L301.27 40.2615ZM329.274 40.2164L326.481 40.8862L326.489 40.9188L326.498 40.9512L329.274 40.2164ZM352.34 127.384L349.563 128.118L349.571 128.148L349.58 128.177L352.34 127.384ZM334.497 129.879L332.257 131.677L332.357 131.801L332.469 131.913L334.497 129.879ZM333.622 127.414L336.455 126.937L336.435 126.818L336.405 126.701L333.622 127.414ZM329.534 111.459L332.316 110.746L331.762 108.584L329.529 108.587L329.534 111.459ZM301.24 111.505L301.235 108.633L299.002 108.636L298.455 110.801L301.24 111.505ZM297.203 127.472L294.418 126.768L294.388 126.885L294.369 127.005L297.203 127.472ZM296.191 129.941L298.225 131.968L296.191 129.941ZM315.078 54.7491L315.073 51.8768L312.829 51.8804L312.29 54.0592L315.078 54.7491ZM304.698 96.6994L301.91 96.0095L301.027 99.5776L304.703 99.5717L304.698 96.6994ZM326.173 96.6648L326.178 99.5372L329.853 99.5313L328.959 95.966L326.173 96.6648ZM315.658 54.7482L318.444 54.0493L317.898 51.8722L315.654 51.8758L315.658 54.7482ZM294.156 127.652L280.226 127.674L280.236 133.419L294.165 133.397L294.156 127.652ZM280.226 127.674C280.048 127.675 280.108 127.645 280.29 127.725C280.515 127.823 280.793 128.032 280.98 128.359C281.148 128.651 281.142 128.859 281.142 128.831C281.142 128.798 281.151 128.63 281.248 128.287L275.722 126.718C275.378 127.929 275.108 129.667 275.997 131.217C277.026 133.011 278.884 133.421 280.236 133.419L280.226 127.674ZM281.264 128.228L304.049 40.9873L298.491 39.5356L275.706 126.777L281.264 128.228ZM303.997 41.1654C304.181 40.609 304.392 40.4098 304.514 40.3241C304.645 40.2317 304.948 40.0808 305.623 40.0797L305.614 34.335C304.064 34.3375 302.53 34.6975 301.212 35.6231C299.884 36.5554 299.033 37.8815 298.544 39.3575L303.997 41.1654ZM305.623 40.0797L324.921 40.0487L324.912 34.304L305.614 34.335L305.623 40.0797ZM324.921 40.0487C325.751 40.0474 326.081 40.2228 326.176 40.2892C326.225 40.3235 326.371 40.4253 326.481 40.8862L332.067 39.5466C331.691 37.9769 330.867 36.5568 329.463 35.5777C328.106 34.6307 326.5 34.3014 324.912 34.304L324.921 40.0487ZM326.498 40.9512L349.563 128.118L355.117 126.649L332.051 39.4816L326.498 40.9512ZM349.58 128.177C349.678 128.519 349.687 128.688 349.688 128.721C349.688 128.749 349.681 128.54 349.848 128.248C350.034 127.92 350.311 127.711 350.536 127.612C350.718 127.532 350.777 127.561 350.599 127.561L350.608 133.306C351.96 133.304 353.817 132.887 354.84 131.09C355.724 129.538 355.449 127.801 355.101 126.59L349.58 128.177ZM350.599 127.561L336.67 127.584L336.679 133.328L350.608 133.306L350.599 127.561ZM336.67 127.584C336.489 127.584 336.349 127.576 336.244 127.565C336.138 127.553 336.083 127.541 336.068 127.536C336.052 127.532 336.095 127.542 336.176 127.584C336.258 127.627 336.387 127.707 336.525 127.845L332.469 131.913C333.721 133.161 335.486 133.33 336.679 133.328L336.67 127.584ZM336.737 128.081C336.808 128.17 336.773 128.161 336.695 127.94C336.62 127.73 336.534 127.406 336.455 126.937L330.79 127.891C331.006 129.172 331.393 130.601 332.257 131.677L336.737 128.081ZM336.405 126.701L332.316 110.746L326.752 112.173L330.84 128.127L336.405 126.701ZM329.529 108.587L301.235 108.633L301.244 114.377L329.539 114.332L329.529 108.587ZM298.455 110.801L294.418 126.768L299.987 128.176L304.025 112.209L298.455 110.801ZM294.369 127.005C294.297 127.436 294.214 127.712 294.148 127.871C294.082 128.032 294.063 128.007 294.157 127.913L298.225 131.968C299.339 130.851 299.81 129.312 300.037 127.94L294.369 127.005ZM294.157 127.913C294.273 127.796 294.385 127.721 294.467 127.676C294.547 127.632 294.598 127.617 294.6 127.617C294.602 127.616 294.569 127.626 294.491 127.635C294.414 127.644 294.304 127.652 294.156 127.652L294.165 133.397C295.356 133.395 297.013 133.184 298.225 131.968L294.157 127.913ZM312.29 54.0592L301.91 96.0095L307.487 97.3893L317.866 55.439L312.29 54.0592ZM304.703 99.5717L326.178 99.5372L326.168 93.7925L304.694 93.827L304.703 99.5717ZM328.959 95.966L318.444 54.0493L312.872 55.4471L323.387 97.3637L328.959 95.966ZM315.654 51.8758L315.073 51.8768L315.083 57.6215L315.663 57.6205L315.654 51.8758ZM423.241 127.444L375.504 127.521L375.513 133.266L423.251 133.189L423.241 127.444ZM375.504 127.521C375.227 127.522 375.101 127.486 375.079 127.479C375.071 127.476 375.089 127.481 375.125 127.503C375.161 127.524 375.206 127.557 375.25 127.601C375.294 127.645 375.327 127.689 375.349 127.726C375.37 127.761 375.375 127.78 375.373 127.771C375.365 127.749 375.329 127.624 375.329 127.347L369.584 127.356C369.587 128.814 369.956 130.435 371.194 131.67C372.433 132.904 374.055 133.268 375.513 133.266L375.504 127.521ZM375.329 127.347L375.189 40.1426L369.444 40.1518L369.584 127.356L375.329 127.347ZM375.189 40.1426C375.188 39.8655 375.224 39.74 375.231 39.7177C375.234 39.7095 375.228 39.7281 375.207 39.7635C375.185 39.8 375.153 39.8442 375.109 39.8885C375.065 39.9327 375.021 39.9654 374.984 39.9874C374.949 40.0087 374.93 40.0141 374.938 40.0113C374.961 40.0039 375.086 39.968 375.363 39.9676L375.354 34.2229C373.895 34.2252 372.275 34.5944 371.04 35.8329C369.806 37.0714 369.442 38.6934 369.444 40.1518L375.189 40.1426ZM375.363 39.9676L387.697 39.9477L387.687 34.203L375.354 34.2229L375.363 39.9676ZM387.697 39.9477C387.974 39.9473 388.099 39.9827 388.121 39.9901C388.13 39.9928 388.111 39.9875 388.076 39.9663C388.039 39.9445 387.995 39.9119 387.951 39.8678C387.906 39.8237 387.874 39.7796 387.852 39.7432C387.83 39.7078 387.825 39.6892 387.828 39.6975C387.835 39.7197 387.871 39.8451 387.872 40.1222L393.616 40.1129C393.614 38.6545 393.245 37.0337 392.006 35.7991C390.768 34.5646 389.146 34.2007 387.687 34.203L387.697 39.9477ZM387.872 40.1222L387.988 112.671L393.733 112.662L393.616 40.1129L387.872 40.1222ZM387.988 112.671C387.99 113.714 388.288 115.004 389.36 115.984C390.385 116.92 391.645 117.134 392.609 117.132L392.6 111.388C392.403 111.388 392.791 111.337 393.235 111.743C393.727 112.192 393.733 112.684 393.733 112.662L387.988 112.671ZM392.609 117.132L423.225 117.083L423.215 111.338L392.6 111.388L392.609 117.132ZM423.225 117.083C423.453 117.083 423.528 117.115 423.506 117.107C423.492 117.102 423.457 117.087 423.411 117.057C423.364 117.026 423.317 116.986 423.276 116.941C423.188 116.845 423.179 116.784 423.196 116.839C423.216 116.906 423.254 117.079 423.255 117.403L429 117.394C428.997 115.951 428.673 114.333 427.52 113.07C426.32 111.754 424.7 111.336 423.215 111.338L423.225 117.083ZM423.255 117.403L423.271 127.27L429.015 127.26L429 117.394L423.255 117.403ZM423.271 127.27C423.271 127.411 423.263 127.518 423.252 127.597C423.242 127.675 423.23 127.718 423.225 127.734C423.22 127.748 423.223 127.734 423.242 127.701C423.261 127.667 423.292 127.622 423.338 127.574C423.384 127.526 423.433 127.487 423.479 127.458C423.524 127.429 423.555 127.417 423.562 127.415C423.571 127.411 423.482 127.444 423.241 127.444L423.251 133.189C424.697 133.187 426.3 132.797 427.504 131.529C428.683 130.287 429.018 128.685 429.015 127.26L423.271 127.27ZM487.092 112.367L485.058 110.339L487.092 112.367ZM487 54.9079L484.898 56.8658L484.971 56.9436L485.049 57.0159L487 54.9079ZM463.639 54.9455L465.673 56.9733L465.711 56.9356L465.747 56.8966L463.639 54.9455ZM463.731 112.404L461.63 114.362L461.666 114.401L461.704 114.439L463.731 112.404ZM449.676 124.18L451.68 122.122L449.676 124.18ZM449.545 43.0701L451.556 45.1216L449.545 43.0701ZM501.2 42.987L503.204 40.9289L501.2 42.987ZM501.331 124.097L503.341 126.149L501.331 124.097ZM470.269 117.153L480.571 117.136L480.561 111.391L470.259 111.408L470.269 117.153ZM480.571 117.136C483.905 117.131 487.052 116.476 489.127 114.395L485.058 110.339C484.622 110.776 483.418 111.387 480.561 111.391L480.571 117.136ZM489.127 114.395C491.267 112.247 491.991 109.092 491.985 105.684L486.241 105.694C486.245 108.477 485.621 109.774 485.058 110.339L489.127 114.395ZM491.985 105.684L491.914 61.4295L486.169 61.4387L486.241 105.694L491.985 105.684ZM491.914 61.4295C491.909 58.0498 491.187 54.8692 488.951 52.7999L485.049 57.0159C485.526 57.4573 486.165 58.6275 486.169 61.4387L491.914 61.4295ZM489.102 52.95C487.025 50.7211 483.842 50.0092 480.463 50.0147L480.472 55.7594C483.283 55.7549 484.455 56.3903 484.898 56.8658L489.102 52.95ZM480.463 50.0147L470.161 50.0313L470.17 55.776L480.472 55.7594L480.463 50.0147ZM470.161 50.0313C466.781 50.0367 463.6 50.7588 461.531 52.9944L465.747 56.8966C466.188 56.4197 467.359 55.7805 470.17 55.776L470.161 50.0313ZM461.605 52.9177C459.53 54.9994 458.886 58.1486 458.891 61.4826L464.636 61.4733C464.631 58.6165 465.237 57.4107 465.673 56.9733L461.605 52.9177ZM458.891 61.4826L458.962 105.738L464.707 105.728L464.636 61.4733L458.891 61.4826ZM458.962 105.738C458.967 109.101 459.634 112.22 461.63 114.362L465.833 110.447C465.309 109.884 464.711 108.556 464.707 105.728L458.962 105.738ZM461.704 114.439C463.785 116.514 466.935 117.158 470.269 117.153L470.259 111.408C467.402 111.412 466.197 110.806 465.759 110.37L461.704 114.439ZM483.634 127.347L467.383 127.373L467.392 133.118L483.643 133.092L483.634 127.347ZM467.383 127.373C460.247 127.385 455.156 125.506 451.68 122.122L447.672 126.238C452.528 130.966 459.244 133.131 467.392 133.118L467.383 127.373ZM451.68 122.122C448.226 118.76 446.292 113.75 446.281 106.629L440.536 106.638C440.549 114.8 442.793 121.488 447.672 126.238L451.68 122.122ZM446.281 106.629L446.207 60.6324L440.462 60.6416L440.536 106.638L446.281 106.629ZM446.207 60.6324C446.195 53.5107 448.113 48.4949 451.556 45.1216L447.535 41.0185C442.672 45.7841 440.449 52.4796 440.462 60.6416L446.207 60.6324ZM451.556 45.1216C455.021 41.7262 460.107 39.8313 467.242 39.8198L467.233 34.0751C459.085 34.0882 452.376 36.275 447.535 41.0185L451.556 45.1216ZM467.242 39.8198L483.493 39.7937L483.484 34.049L467.233 34.0751L467.242 39.8198ZM483.493 39.7937C490.629 39.7822 495.721 41.6607 499.197 45.045L503.204 40.9289C498.348 36.2011 491.632 34.0359 483.484 34.049L483.493 39.7937ZM499.197 45.045C502.65 48.4072 504.584 53.4168 504.596 60.5385L510.34 60.5292C510.327 52.3672 508.083 45.6789 503.204 40.9289L499.197 45.045ZM504.596 60.5385L504.669 106.535L510.414 106.525L510.34 60.5292L504.596 60.5385ZM504.669 106.535C504.681 113.656 502.763 118.672 499.321 122.045L503.341 126.149C508.205 121.383 510.427 114.687 510.414 106.525L504.669 106.535ZM499.321 122.045C495.855 125.441 490.77 127.336 483.634 127.347L483.643 133.092C491.791 133.079 498.5 130.892 503.341 126.149L499.321 122.045ZM536.99 124.04L538.994 121.982L536.99 124.04ZM536.859 42.9296L538.87 44.9812L536.859 42.9296ZM587.499 42.9933L585.471 45.0276L585.483 45.0395L585.495 45.0513L587.499 42.9933ZM573.443 54.7689L571.342 56.7268L571.378 56.7657L571.416 56.8032L573.443 54.7689ZM550.953 54.8051L548.919 52.7773L550.953 54.8051ZM551.046 112.264L548.944 114.222L549.016 114.3L549.094 114.372L551.046 112.264ZM573.536 112.228L575.57 114.256L575.608 114.218L575.644 114.179L573.536 112.228ZM587.629 123.958L589.64 126.01L589.652 125.998L589.664 125.986L587.629 123.958ZM570.078 127.208L554.697 127.233L554.706 132.978L570.087 132.953L570.078 127.208ZM554.697 127.233C547.561 127.244 542.47 125.366 538.994 121.982L534.986 126.098C539.842 130.826 546.558 132.991 554.706 132.978L554.697 127.233ZM538.994 121.982C535.54 118.619 533.606 113.61 533.595 106.488L527.85 106.497C527.863 114.659 530.107 121.348 534.986 126.098L538.994 121.982ZM533.595 106.488L533.521 60.492L527.776 60.5012L527.85 106.497L533.595 106.488ZM533.521 60.492C533.509 53.3702 535.427 48.3545 538.87 44.9812L534.849 40.878C529.986 45.6437 527.763 52.3392 527.776 60.5012L533.521 60.492ZM538.87 44.9812C542.335 41.5858 547.421 39.6909 554.556 39.6794L554.547 33.9347C546.399 33.9478 539.69 36.1346 534.849 40.878L538.87 44.9812ZM554.556 39.6794L569.937 39.6547L569.927 33.9099L554.547 33.9347L554.556 39.6794ZM569.937 39.6547C576.945 39.6434 581.986 41.5533 585.471 45.0276L589.527 40.959C584.68 36.1277 578.009 33.8969 569.927 33.9099L569.937 39.6547ZM585.495 45.0513C588.955 48.4201 590.883 53.387 590.894 60.3997L596.639 60.3904C596.626 52.3128 594.375 45.6786 589.503 40.9352L585.495 45.0513ZM590.894 60.3997L590.901 64.7526L596.646 64.7434L596.639 60.3904L590.894 60.3997ZM590.901 64.7526C590.901 65.0651 590.863 65.2252 590.846 65.2784C590.834 65.3192 590.848 65.2546 590.934 65.1634C590.974 65.1214 591.017 65.0879 591.055 65.0638C591.092 65.0403 591.115 65.0325 591.113 65.0332C591.103 65.0364 590.992 65.0723 590.727 65.0727L590.736 70.8174C592.229 70.815 593.868 70.4145 595.096 69.1233C596.301 67.8571 596.648 66.2177 596.646 64.7434L590.901 64.7526ZM590.727 65.0727L578.393 65.0925L578.403 70.8373L590.736 70.8174L590.727 65.0727ZM578.393 65.0925C578.128 65.093 578.016 65.0575 578.007 65.0543C578.005 65.0535 578.028 65.0613 578.065 65.0847C578.103 65.1087 578.146 65.142 578.186 65.1839C578.273 65.2748 578.287 65.3394 578.274 65.2986C578.257 65.2455 578.219 65.0855 578.218 64.773L572.473 64.7823C572.476 66.2566 572.828 67.8949 574.037 69.1572C575.269 70.4444 576.909 70.8397 578.403 70.8373L578.393 65.0925ZM578.218 64.773L578.212 61.2907L572.468 61.2999L572.473 64.7823L578.218 64.773ZM578.212 61.2907C578.207 57.9567 577.553 54.8095 575.471 52.7346L571.416 56.8032C571.853 57.2392 572.463 58.443 572.468 61.2999L578.212 61.2907ZM575.545 52.811C573.469 50.5821 570.286 49.8702 566.906 49.8757L566.915 55.6204C569.726 55.6158 570.899 56.2513 571.342 56.7268L575.545 52.811ZM566.906 49.8757L557.475 49.8908L557.484 55.6355L566.915 55.6204L566.906 49.8757ZM557.475 49.8908C554.133 49.8962 551.046 50.6436 548.919 52.7773L552.987 56.8329C553.565 56.2536 554.828 55.6398 557.484 55.6355L557.475 49.8908ZM548.919 52.7773C546.844 54.8589 546.2 58.0081 546.205 61.3421L551.95 61.3329C551.945 58.476 552.551 57.2703 552.987 56.8329L548.919 52.7773ZM546.205 61.3421L546.276 105.597L552.021 105.588L551.95 61.3329L546.205 61.3421ZM546.276 105.597C546.282 108.961 546.948 112.08 548.944 114.222L553.147 110.306C552.623 109.744 552.025 108.415 552.021 105.588L546.276 105.597ZM549.094 114.372C551.23 116.349 554.286 117.017 557.583 117.012L557.573 111.267C554.873 111.272 553.574 110.69 552.997 110.156L549.094 114.372ZM557.583 117.012L567.014 116.997L567.005 111.252L557.573 111.267L557.583 117.012ZM567.014 116.997C570.348 116.992 573.495 116.337 575.57 114.256L571.501 110.2C571.065 110.637 569.862 111.248 567.005 111.252L567.014 116.997ZM575.644 114.179C577.632 112.03 578.289 108.909 578.284 105.546L572.539 105.555C572.544 108.382 571.95 109.713 571.428 110.277L575.644 114.179ZM578.284 105.546L578.269 96.4045L572.524 96.4137L572.539 105.555L578.284 105.546ZM578.269 96.4045C578.267 95.4297 578.02 94.1714 577.023 93.1783C576.027 92.1853 574.768 91.9417 573.793 91.9432L573.803 97.6879C573.892 97.6878 573.431 97.7089 572.968 97.247C572.504 96.7851 572.524 96.3244 572.524 96.4137L578.269 96.4045ZM573.793 91.9432L565.087 91.9572L565.097 97.7019L573.803 97.6879L573.793 91.9432ZM565.087 91.9572C564.81 91.9577 564.685 91.9222 564.663 91.9149C564.654 91.9121 564.673 91.9175 564.708 91.9387C564.745 91.9605 564.789 91.9931 564.833 92.0372C564.878 92.0812 564.91 92.1253 564.932 92.1618C564.954 92.1972 564.959 92.2157 564.956 92.2075C564.949 92.1853 564.913 92.0599 564.912 91.7828L559.168 91.792C559.17 93.2505 559.539 94.8713 560.778 96.1058C562.016 97.3403 563.638 97.7043 565.097 97.7019L565.087 91.9572ZM564.912 91.7828L564.897 81.9161L559.152 81.9253L559.168 91.792L564.912 91.7828ZM564.897 81.9161C564.896 81.6391 564.932 81.5135 564.939 81.4913C564.942 81.483 564.936 81.5016 564.915 81.5371C564.893 81.5736 564.861 81.6178 564.817 81.662C564.773 81.7062 564.728 81.739 564.692 81.7609C564.657 81.7822 564.638 81.7876 564.646 81.7848C564.669 81.7774 564.794 81.7416 565.071 81.7411L565.062 75.9964C563.603 75.9988 561.982 76.3679 560.748 77.6064C559.513 78.8449 559.15 80.4669 559.152 81.9253L564.897 81.9161ZM565.071 81.7411L590.463 81.7003L590.454 75.9556L565.062 75.9964L565.071 81.7411ZM590.463 81.7003C590.789 81.6998 590.957 81.7412 591.015 81.7606C591.06 81.7754 591.008 81.7652 590.935 81.6925C590.862 81.6199 590.852 81.5682 590.867 81.6128C590.886 81.6713 590.928 81.839 590.929 82.1644L596.674 82.1552C596.671 80.6 596.278 78.9067 594.991 77.6239C593.704 76.3411 592.009 75.9531 590.454 75.9556L590.463 81.7003ZM590.929 82.1644L590.968 106.396L596.713 106.387L596.674 82.1552L590.929 82.1644ZM590.968 106.396C590.979 113.405 589.069 118.445 585.595 121.93L589.664 125.986C594.495 121.139 596.726 114.468 596.713 106.387L590.968 106.396ZM585.619 121.907C582.147 125.308 577.105 127.197 570.078 127.208L570.087 132.953C578.15 132.94 584.805 130.747 589.64 126.01L585.619 121.907Z" fill="url(#paint1_linear_280_4378)"/>
</g>
<defs>
<filter id="filter0_dddi_280_4378" x="0.611866" y="0.839649" width="629.171" height="166.003" filterUnits="userSpaceOnUse" color-interpolation-filters="sRGB">
<feFlood flood-opacity="0" result="BackgroundImageFix"/>
<feColorMatrix in="SourceAlpha" type="matrix" values="0 0 0 0 0 0 0 0 0 0 0 0 0 0 0 0 0 0 127 0" result="hardAlpha"/>
<feOffset/>
<feGaussianBlur stdDeviation="17.9522"/>
<feComposite in2="hardAlpha" operator="out"/>
<feColorMatrix type="matrix" values="0 0 0 0 0 0 0 0 0 0 0 0 0 0 0 0 0 0 1 0"/>
<feBlend mode="normal" in2="BackgroundImageFix" result="effect1_dropShadow_280_4378"/>
<feColorMatrix in="SourceAlpha" type="matrix" values="0 0 0 0 0 0 0 0 0 0 0 0 0 0 0 0 0 0 127 0" result="hardAlpha"/>
<feOffset/>
<feGaussianBlur stdDeviation="4.45874"/>
<feComposite in2="hardAlpha" operator="out"/>
<feColorMatrix type="matrix" values="0 0 0 0 0.14 0 0 0 0 0 0 0 0 0 1 0 0 0 1 0"/>
<feBlend mode="normal" in2="effect1_dropShadow_280_4378" result="effect2_dropShadow_280_4378"/>
<feColorMatrix in="SourceAlpha" type="matrix" values="0 0 0 0 0 0 0 0 0 0 0 0 0 0 0 0 0 0 127 0" result="hardAlpha"/>
<feOffset/>
<feGaussianBlur stdDeviation="3.59045"/>
<feComposite in2="hardAlpha" operator="out"/>
<feColorMatrix type="matrix" values="0 0 0 0 0 0 0 0 0 0 0 0 0 0 0 0 0 0 1 0"/>
<feBlend mode="normal" in2="effect2_dropShadow_280_4378" result="effect3_dropShadow_280_4378"/>
<feBlend mode="normal" in="SourceGraphic" in2="effect3_dropShadow_280_4378" result="shape"/>
<feColorMatrix in="SourceAlpha" type="matrix" values="0 0 0 0 0 0 0 0 0 0 0 0 0 0 0 0 0 0 127 0" result="hardAlpha"/>
<feOffset dy="2.87236"/>
<feGaussianBlur stdDeviation="3.59045"/>
<feComposite in2="hardAlpha" operator="arithmetic" k2="-1" k3="1"/>
<feColorMatrix type="matrix" values="0 0 0 0 1 0 0 0 0 0.822083 0 0 0 0 0.745833 0 0 0 0.43 0"/>
<feBlend mode="screen" in2="shape" result="effect4_innerShadow_280_4378"/>
</filter>
<linearGradient id="paint0_linear_280_4378" x1="315.174" y1="35.5031" x2="315.287" y2="135.395" gradientUnits="userSpaceOnUse">
<stop stop-color="#FF9F8C"/>
<stop offset="0.15625" stop-color="#FF6749"/>
<stop offset="0.427083" stop-color="#FF3E88"/>
<stop offset="0.8125" stop-color="#FF1393"/>
<stop offset="1" stop-color="#FF005C"/>
</linearGradient>
<linearGradient id="paint1_linear_280_4378" x1="314.166" y1="37.0602" x2="314.277" y2="135.085" gradientUnits="userSpaceOnUse">
<stop stop-color="#8E0044"/>
<stop offset="1" stop-color="#170011"/>
</linearGradient>
</defs>
</svg>
