<svg width="641" height="167" viewBox="0 0 641 167" fill="none" xmlns="http://www.w3.org/2000/svg">
<g filter="url(#filter0_dddi_280_4379)">
<path d="M51.4438 130.859L39.1104 130.879C37.079 130.882 36.0617 129.868 36.0584 127.837L35.9182 40.6327C35.9149 38.6014 36.929 37.584 38.9604 37.5808L74.3644 37.5238C81.9095 37.5117 87.7651 39.582 91.9313 43.7348C96.0973 47.7909 98.1864 53.5915 98.1985 61.1366L98.2209 75.066C98.2331 82.6111 96.1627 88.4668 92.0099 92.633C87.857 96.7024 82.008 98.7432 74.4628 98.7553L56.1804 98.7847C55.0197 98.7866 54.4401 99.3196 54.4418 100.384L54.4859 127.807C54.4892 129.839 53.4751 130.856 51.4438 130.859ZM56.0094 82.6791L71.3899 82.6543C74.4853 82.6493 76.6608 82.0171 77.9163 80.7575C79.1716 79.4013 79.7969 77.2238 79.792 74.2251L79.7724 62.0368C79.7675 58.9414 79.1352 56.7659 77.8757 55.5104C76.616 54.1582 74.4384 53.4846 71.343 53.4895L55.9625 53.5143C54.8985 53.516 54.3673 54.0489 54.369 55.1129L54.4108 81.0855C54.4125 82.1496 54.9454 82.6808 56.0094 82.6791ZM145.627 114.747L155.929 114.73C159.024 114.725 161.2 114.093 162.455 112.834C163.807 111.477 164.481 109.251 164.476 106.156L164.404 61.9007C164.399 58.8053 163.719 56.6299 162.363 55.3745C161.103 54.0223 158.925 53.3487 155.83 53.3537L145.528 53.3702C142.432 53.3752 140.257 54.0558 139.002 55.4121C137.746 56.6716 137.121 58.8491 137.126 61.9446L137.197 106.2C137.202 109.295 137.834 111.519 139.094 112.871C140.354 114.127 142.531 114.752 145.627 114.747ZM159.001 130.686L142.75 130.712C135.108 130.725 129.205 128.703 125.039 124.647C120.873 120.591 118.783 114.742 118.771 107.1L118.697 61.1036C118.685 53.4618 120.755 47.6061 124.908 43.5367C129.061 39.4672 134.958 37.4264 142.6 37.4141L158.851 37.3879C166.493 37.3757 172.397 39.3975 176.563 43.4536C180.729 47.5097 182.818 53.3586 182.831 61.0005L182.905 106.997C182.917 114.639 180.846 120.494 176.694 124.564C172.541 128.633 166.643 130.674 159.001 130.686ZM205.103 127.565L205.089 118.859C205.083 115.667 205.708 113.296 206.963 111.746L245.323 54.9509L245.322 54.3705L210.644 54.4263C208.612 54.4296 207.595 53.4155 207.592 51.3841L207.574 40.3567C207.571 38.3253 208.585 37.308 210.616 37.3047L262.126 37.2218C264.061 37.2187 265.03 38.2329 265.033 40.2642L265.053 52.7427C265.058 55.6447 264.336 58.1609 262.889 60.2913L226.844 112.875L226.845 113.455L263.7 113.396C265.634 113.393 266.603 114.31 266.606 116.148L266.624 127.176C266.627 129.401 265.662 130.515 263.727 130.518L208.155 130.607C206.123 130.61 205.106 129.596 205.103 127.565ZM309.503 40.1927L309.644 127.397C309.647 129.428 308.633 130.446 306.602 130.449L294.268 130.469C292.237 130.472 291.219 129.458 291.216 127.426L291.076 40.2224C291.073 38.191 292.087 37.1737 294.118 37.1704L306.451 37.1506C308.483 37.1473 309.5 38.1613 309.503 40.1927ZM361.801 114.399L372.103 114.383C375.198 114.378 377.373 113.745 378.629 112.486C379.981 111.129 380.655 108.903 380.65 105.808L380.578 61.553C380.573 58.4576 379.893 56.2822 378.537 55.0269C377.277 53.6746 375.099 53.001 372.004 53.006L361.702 53.0226C358.606 53.0275 356.431 53.7082 355.176 55.0644C353.92 56.324 353.295 58.5015 353.3 61.5969L353.371 105.852C353.376 108.947 354.008 111.171 355.268 112.523C356.528 113.779 358.705 114.404 361.801 114.399ZM375.175 130.339L358.924 130.365C351.282 130.377 345.378 128.355 341.212 124.299C337.046 120.243 334.957 114.394 334.945 106.752L334.871 60.7559C334.859 53.1141 336.929 47.2585 341.082 43.189C345.235 39.1196 351.132 37.0787 358.774 37.0664L375.025 37.0403C382.667 37.028 388.571 39.0499 392.737 43.1059C396.903 47.162 398.992 53.011 399.004 60.6528L399.078 106.649C399.091 114.291 397.02 120.146 392.867 124.216C388.715 128.285 382.817 130.326 375.175 130.339ZM485.555 36.8625L507.03 36.828C509.061 36.8247 510.078 37.8388 510.082 39.8701L510.222 127.074C510.225 129.106 509.211 130.123 507.18 130.126L495.282 130.145C493.25 130.149 492.233 129.135 492.23 127.103L492.119 58.3266L491.539 58.3275L476.817 106.959C476.239 108.895 475.032 109.864 473.194 109.867L461.006 109.887C459.168 109.89 457.957 108.924 457.374 106.991L442.205 58.2617L441.625 58.2627L441.735 127.184C441.737 128.345 441.545 129.168 441.159 129.652C440.773 130.04 439.951 130.234 438.693 130.236L426.795 130.256C424.764 130.259 423.746 129.245 423.743 127.213L423.603 40.0092C423.6 37.9778 424.614 36.9605 426.645 36.9573L448.265 36.9225C449.619 36.9203 450.539 37.596 451.025 38.9494L466.488 90.1444L467.358 90.143L482.801 38.8983C483.089 37.5436 484.007 36.865 485.555 36.8625ZM569.219 62.7006L569.2 50.8026C569.197 49.1581 569.921 47.8994 571.37 47.0265L584.561 38.7347C586.783 37.3768 588.669 36.6967 590.216 36.6942L601.824 36.6755C603.856 36.6722 604.873 37.6863 604.876 39.7177L605.016 126.922C605.018 128.083 604.778 128.905 604.295 129.39C603.909 129.777 603.183 129.972 602.119 129.974L589.641 129.994C587.61 129.997 586.592 128.983 586.589 126.951L586.475 56.2885L572.269 64.4369C570.239 65.3108 569.222 64.732 569.219 62.7006Z" fill="url(#paint0_linear_280_4379)"/>
<path d="M91.9313 43.7348L89.9035 45.7691L89.9155 45.7811L89.9276 45.7929L91.9313 43.7348ZM92.0099 92.633L94.0203 94.6846L94.0323 94.6727L94.0443 94.6608L92.0099 92.633ZM77.9163 80.7575L79.9506 82.7853L79.9881 82.7477L80.0243 82.7087L77.9163 80.7575ZM77.8757 55.5104L75.774 57.4683L75.8102 57.5072L75.8479 57.5447L77.8757 55.5104ZM51.4391 127.987L39.1058 128.007L39.115 133.751L51.4484 133.732L51.4391 127.987ZM39.1058 128.007C38.8287 128.007 38.7032 127.972 38.6809 127.964C38.6727 127.962 38.6913 127.967 38.7268 127.988C38.7633 128.01 38.8075 128.043 38.8517 128.087C38.8959 128.131 38.9286 128.175 38.9506 128.211C38.9719 128.247 38.9773 128.265 38.9745 128.257C38.9671 128.235 38.9312 128.109 38.9308 127.832L33.1861 127.841C33.1884 129.3 33.5576 130.921 34.7961 132.155C36.0346 133.39 37.6566 133.754 39.115 133.751L39.1058 128.007ZM38.9308 127.832L38.7905 40.6281L33.0458 40.6373L33.1861 127.841L38.9308 127.832ZM38.7905 40.6281C38.7901 40.3511 38.8255 40.2255 38.8329 40.2033C38.8356 40.195 38.8303 40.2136 38.8091 40.2491C38.7873 40.2856 38.7547 40.3298 38.7106 40.374C38.6665 40.4182 38.6224 40.451 38.586 40.4729C38.5506 40.4942 38.532 40.4996 38.5403 40.4968C38.5625 40.4894 38.6879 40.4536 38.965 40.4531L38.9557 34.7084C37.4973 34.7108 35.8765 35.0799 34.642 36.3184C33.4074 37.5569 33.0435 39.1789 33.0458 40.6373L38.7905 40.6281ZM38.965 40.4531L74.369 40.3962L74.3597 34.6515L38.9557 34.7084L38.965 40.4531ZM74.369 40.3962C81.3778 40.3849 86.418 42.2948 89.9035 45.7691L93.9591 41.7005C89.1123 36.8693 82.4412 34.6385 74.3597 34.6515L74.369 40.3962ZM89.9276 45.7929C93.3877 49.1616 95.3149 54.1286 95.3262 61.1412L101.071 61.132C101.058 53.0544 98.807 46.4201 93.935 41.6768L89.9276 45.7929ZM95.3262 61.1412L95.3486 75.0707L101.093 75.0614L101.071 61.132L95.3262 61.1412ZM95.3486 75.0707C95.3599 82.0794 93.45 87.1196 89.9756 90.6052L94.0443 94.6608C98.8755 89.814 101.106 83.1428 101.093 75.0614L95.3486 75.0707ZM89.9996 90.5814C86.528 93.9832 81.4853 95.8717 74.4582 95.883L74.4675 101.628C82.5306 101.615 89.186 99.4216 94.0203 94.6846L89.9996 90.5814ZM74.4582 95.883L56.1758 95.9124L56.1851 101.657L74.4675 101.628L74.4582 95.883ZM56.1758 95.9124C55.2116 95.9139 53.953 96.1316 52.9309 97.0716C51.8615 98.055 51.5678 99.3461 51.5695 100.388L57.3142 100.379C57.3141 100.357 57.3094 100.85 56.8195 101.3C56.3769 101.707 55.9885 101.657 56.1851 101.657L56.1758 95.9124ZM51.5695 100.388L51.6136 127.812L57.3583 127.803L57.3142 100.379L51.5695 100.388ZM51.6136 127.812C51.614 128.089 51.5786 128.214 51.5712 128.237C51.5685 128.245 51.5738 128.226 51.595 128.191C51.6168 128.154 51.6494 128.11 51.6935 128.066C51.7376 128.022 51.7817 127.989 51.8181 127.967C51.8535 127.946 51.8721 127.94 51.8639 127.943C51.8416 127.951 51.7162 127.986 51.4391 127.987L51.4484 133.732C52.9068 133.729 54.5277 133.36 55.7622 132.122C56.9967 130.883 57.3606 129.261 57.3583 127.803L51.6136 127.812ZM56.0141 85.5514L71.3945 85.5267L71.3853 79.782L56.0048 79.8067L56.0141 85.5514ZM71.3945 85.5267C74.7285 85.5213 77.8756 84.867 79.9506 82.7853L75.8819 78.7297C75.4459 79.1672 74.2421 79.7774 71.3853 79.782L71.3945 85.5267ZM80.0243 82.7087C82.0008 80.5732 82.6697 77.517 82.6644 74.2205L76.9197 74.2297C76.924 76.9305 76.3424 78.2293 75.8083 78.8064L80.0243 82.7087ZM82.6644 74.2205L82.6448 62.0322L76.9001 62.0414L76.9197 74.2297L82.6644 74.2205ZM82.6448 62.0322C82.6394 58.6982 81.9851 55.5511 79.9035 53.4761L75.8479 57.5447C76.2853 57.9808 76.8955 59.1846 76.9001 62.0414L82.6448 62.0322ZM79.9774 53.5525C77.9009 51.3236 74.718 50.6117 71.3383 50.6172L71.3476 56.3619C74.1587 56.3574 75.331 56.9928 75.774 57.4683L79.9774 53.5525ZM71.3383 50.6172L55.9579 50.6419L55.9672 56.3866L71.3476 56.3619L71.3383 50.6172ZM55.9579 50.6419C54.9831 50.6435 53.7249 50.8912 52.7318 51.8874C51.7387 52.8837 51.4951 54.1428 51.4967 55.1176L57.2414 55.1083C57.2412 55.019 57.2623 55.4796 56.8004 55.943C56.3385 56.4064 55.8779 56.3868 55.9672 56.3866L55.9579 50.6419ZM51.4967 55.1176L51.5384 81.0902L57.2831 81.0809L57.2414 55.1083L51.4967 55.1176ZM51.5384 81.0902C51.54 82.0649 51.7877 83.3232 52.7839 84.3163C53.7802 85.3094 55.0393 85.553 56.0141 85.5514L56.0048 79.8067C55.9156 79.8068 56.3761 79.7857 56.8395 80.2476C57.3029 80.7095 57.2833 81.1702 57.2831 81.0809L51.5384 81.0902ZM162.455 112.834L160.421 110.806L162.455 112.834ZM162.363 55.3745L160.261 57.3324L160.333 57.4103L160.411 57.4825L162.363 55.3745ZM139.002 55.4121L141.036 57.4399L141.074 57.4022L141.11 57.3632L139.002 55.4121ZM139.094 112.871L136.992 114.829L137.029 114.868L137.066 114.905L139.094 112.871ZM125.039 124.647L127.042 122.589L125.039 124.647ZM124.908 43.5367L126.918 45.5883L124.908 43.5367ZM176.563 43.4536L178.567 41.3956L176.563 43.4536ZM176.694 124.564L178.704 126.615L176.694 124.564ZM145.631 117.619L155.933 117.603L155.924 111.858L145.622 111.874L145.631 117.619ZM155.933 117.603C159.267 117.597 162.414 116.943 164.489 114.861L160.421 110.806C159.985 111.243 158.781 111.853 155.924 111.858L155.933 117.603ZM164.489 114.861C166.63 112.714 167.353 109.558 167.348 106.151L161.603 106.16C161.608 108.944 160.984 110.24 160.421 110.806L164.489 114.861ZM167.348 106.151L167.277 61.8961L161.532 61.9053L161.603 106.16L167.348 106.151ZM167.277 61.8961C167.271 58.5164 166.549 55.3358 164.314 53.2665L160.411 57.4825C160.888 57.924 161.528 59.0942 161.532 61.9053L167.277 61.8961ZM164.464 53.4167C162.388 51.1877 159.205 50.4759 155.825 50.4813L155.835 56.226C158.646 56.2215 159.818 56.8569 160.261 57.3324L164.464 53.4167ZM155.825 50.4813L145.523 50.4979L145.533 56.2426L155.835 56.226L155.825 50.4813ZM145.523 50.4979C142.144 50.5033 138.963 51.2254 136.894 53.461L141.11 57.3632C141.551 56.8863 142.721 56.2471 145.533 56.2426L145.523 50.4979ZM136.967 53.3843C134.892 55.466 134.248 58.6152 134.254 61.9492L139.998 61.94C139.994 59.0831 140.6 57.8773 141.036 57.4399L136.967 53.3843ZM134.254 61.9492L134.325 106.204L140.07 106.195L139.998 61.94L134.254 61.9492ZM134.325 106.204C134.33 109.568 134.997 112.687 136.992 114.829L141.196 110.913C140.672 110.351 140.074 109.022 140.07 106.195L134.325 106.204ZM137.066 114.905C139.148 116.98 142.297 117.625 145.631 117.619L145.622 111.874C142.765 111.879 141.559 111.273 141.122 110.837L137.066 114.905ZM158.997 127.814L142.746 127.84L142.755 133.585L159.006 133.559L158.997 127.814ZM142.746 127.84C135.61 127.851 130.518 125.973 127.042 122.589L123.035 126.705C127.891 131.433 134.607 133.598 142.755 133.585L142.746 127.84ZM127.042 122.589C123.589 119.226 121.655 114.217 121.643 107.095L115.899 107.104C115.912 115.266 118.156 121.955 123.035 126.705L127.042 122.589ZM121.643 107.095L121.569 61.099L115.825 61.1082L115.899 107.104L121.643 107.095ZM121.569 61.099C121.558 53.9773 123.476 48.9615 126.918 45.5883L122.898 41.4851C118.034 46.2507 115.812 52.9462 115.825 61.1082L121.569 61.099ZM126.918 45.5883C130.384 42.1928 135.469 40.2979 142.605 40.2864L142.596 34.5417C134.448 34.5548 127.739 36.7416 122.898 41.4851L126.918 45.5883ZM142.605 40.2864L158.856 40.2603L158.847 34.5156L142.596 34.5417L142.605 40.2864ZM158.856 40.2603C165.992 40.2488 171.083 42.1274 174.559 45.5116L178.567 41.3956C173.711 36.6677 166.995 34.5025 158.847 34.5156L158.856 40.2603ZM174.559 45.5116C178.013 48.8738 179.947 53.8834 179.958 61.0051L185.703 60.9959C185.69 52.8339 183.446 46.1455 178.567 41.3956L174.559 45.5116ZM179.958 61.0051L180.032 107.001L185.777 106.992L185.703 60.9959L179.958 61.0051ZM180.032 107.001C180.044 114.123 178.126 119.139 174.683 122.512L178.704 126.615C183.567 121.85 185.79 115.154 185.777 106.992L180.032 107.001ZM174.683 122.512C171.218 125.907 166.132 127.802 158.997 127.814L159.006 133.559C167.154 133.545 173.863 131.359 178.704 126.615L174.683 122.512ZM206.963 111.746L209.196 113.554L209.274 113.457L209.344 113.354L206.963 111.746ZM245.323 54.9509L247.704 56.5586L248.197 55.828L248.196 54.9463L245.323 54.9509ZM245.322 54.3705L248.195 54.3659L248.19 51.4935L245.318 51.4982L245.322 54.3705ZM262.889 60.2913L265.258 61.9154L265.265 61.9056L262.889 60.2913ZM226.844 112.875L224.475 111.251L223.97 111.987L223.971 112.88L226.844 112.875ZM226.845 113.455L223.972 113.46L223.977 116.332L226.849 116.328L226.845 113.455ZM207.975 127.56L207.961 118.854L202.216 118.864L202.23 127.57L207.975 127.56ZM207.961 118.854C207.956 115.952 208.541 114.363 209.196 113.554L204.731 109.939C202.876 112.229 202.211 115.382 202.216 118.864L207.961 118.854ZM209.344 113.354L247.704 56.5586L242.943 53.3432L204.583 110.139L209.344 113.354ZM248.196 54.9463L248.195 54.3659L242.45 54.3751L242.451 54.9555L248.196 54.9463ZM245.318 51.4982L210.639 51.5539L210.648 57.2986L245.327 57.2429L245.318 51.4982ZM210.639 51.5539C210.362 51.5544 210.237 51.519 210.214 51.5116C210.206 51.5088 210.225 51.5142 210.26 51.5354C210.297 51.5572 210.341 51.5898 210.385 51.6339C210.429 51.678 210.462 51.722 210.484 51.7585C210.505 51.7939 210.511 51.8125 210.508 51.8042C210.5 51.782 210.465 51.6566 210.464 51.3795L204.719 51.3888C204.722 52.8472 205.091 54.468 206.329 55.7025C207.568 56.937 209.19 57.301 210.648 57.2986L210.639 51.5539ZM210.464 51.3795L210.446 40.352L204.702 40.3613L204.719 51.3888L210.464 51.3795ZM210.446 40.352C210.446 40.075 210.481 39.9494 210.489 39.9272C210.492 39.9189 210.486 39.9375 210.465 39.973C210.443 40.0095 210.411 40.0537 210.367 40.0979C210.322 40.1422 210.278 40.1749 210.242 40.1968C210.207 40.2181 210.188 40.2235 210.196 40.2208C210.218 40.2133 210.344 40.1775 210.621 40.177L210.612 34.4323C209.153 34.4347 207.532 34.8038 206.298 36.0423C205.063 37.2808 204.699 38.9028 204.702 40.3613L210.446 40.352ZM210.621 40.177L262.131 40.0942L262.122 34.3495L210.612 34.4323L210.621 40.177ZM262.131 40.0942C262.371 40.0938 262.461 40.1262 262.452 40.1229C262.444 40.1203 262.413 40.1085 262.368 40.0802C262.322 40.0514 262.273 40.0125 262.227 39.9644C262.181 39.9165 262.15 39.8712 262.13 39.8372C262.112 39.8043 262.109 39.7902 262.113 39.805C262.118 39.8205 262.13 39.8638 262.141 39.942C262.152 40.0203 262.16 40.1278 262.161 40.2689L267.905 40.2596C267.903 38.8352 267.564 37.2341 266.381 35.9958C265.173 34.7314 263.568 34.3472 262.122 34.3495L262.131 40.0942ZM262.161 40.2689L262.181 52.7473L267.925 52.7381L267.905 40.2596L262.161 40.2689ZM262.181 52.7473C262.185 55.1478 261.596 57.0832 260.513 58.677L265.265 61.9056C267.077 59.2386 267.931 56.1415 267.925 52.7381L262.181 52.7473ZM260.52 58.6673L224.475 111.251L229.213 114.499L265.258 61.9153L260.52 58.6673ZM223.971 112.88L223.972 113.46L229.717 113.451L229.716 112.87L223.971 112.88ZM226.849 116.328L263.704 116.269L263.695 110.524L226.84 110.583L226.849 116.328ZM263.704 116.269C263.834 116.268 263.93 116.276 263.998 116.285C264.066 116.294 264.1 116.304 264.107 116.306C264.113 116.308 264.091 116.302 264.05 116.279C264.009 116.255 263.957 116.219 263.902 116.168C263.848 116.116 263.803 116.06 263.769 116.007C263.736 115.954 263.72 115.915 263.714 115.898C263.708 115.882 263.714 115.892 263.72 115.934C263.727 115.977 263.734 116.048 263.734 116.153L269.478 116.144C269.476 114.743 269.098 113.176 267.852 111.996C266.634 110.843 265.069 110.522 263.695 110.524L263.704 116.269ZM263.734 116.153L263.751 127.18L269.496 127.171L269.478 116.144L263.734 116.153ZM263.751 127.18C263.752 127.538 263.713 127.745 263.685 127.841C263.659 127.929 263.656 127.886 263.732 127.799C263.768 127.757 263.812 127.717 263.86 127.684C263.907 127.652 263.945 127.634 263.964 127.627C263.999 127.613 263.938 127.645 263.723 127.645L263.732 133.39C265.255 133.388 266.888 132.929 268.073 131.561C269.191 130.271 269.499 128.636 269.496 127.171L263.751 127.18ZM263.723 127.645L208.15 127.735L208.159 133.48L263.732 133.39L263.723 127.645ZM208.15 127.735C207.873 127.735 207.747 127.7 207.725 127.692C207.717 127.69 207.735 127.695 207.771 127.716C207.807 127.738 207.852 127.771 207.896 127.815C207.94 127.859 207.973 127.903 207.995 127.939C208.016 127.975 208.021 127.993 208.019 127.985C208.011 127.963 207.975 127.837 207.975 127.56L202.23 127.57C202.233 129.028 202.602 130.649 203.84 131.883C205.079 133.118 206.701 133.482 208.159 133.48L208.15 127.735ZM306.631 40.1973L306.771 127.401L312.516 127.392L312.376 40.1881L306.631 40.1973ZM306.771 127.401C306.772 127.679 306.736 127.804 306.729 127.826C306.726 127.835 306.732 127.816 306.753 127.78C306.775 127.744 306.807 127.7 306.851 127.656C306.895 127.611 306.939 127.579 306.976 127.557C307.011 127.535 307.03 127.53 307.022 127.533C306.999 127.54 306.874 127.576 306.597 127.576L306.606 133.321C308.065 133.319 309.685 132.95 310.92 131.711C312.154 130.473 312.518 128.851 312.516 127.392L306.771 127.401ZM306.597 127.576L294.264 127.596L294.273 133.341L306.606 133.321L306.597 127.576ZM294.264 127.596C293.987 127.597 293.861 127.561 293.839 127.554C293.83 127.551 293.849 127.557 293.885 127.578C293.921 127.6 293.965 127.632 294.009 127.676C294.054 127.72 294.086 127.764 294.108 127.801C294.13 127.836 294.135 127.855 294.132 127.847C294.125 127.824 294.089 127.699 294.089 127.422L288.344 127.431C288.346 128.89 288.715 130.51 289.954 131.745C291.192 132.979 292.814 133.343 294.273 133.341L294.264 127.596ZM294.089 127.422L293.948 40.2177L288.204 40.227L288.344 127.431L294.089 127.422ZM293.948 40.2177C293.948 39.9407 293.983 39.8151 293.991 39.7929C293.993 39.7846 293.988 39.8033 293.967 39.8387C293.945 39.8752 293.912 39.9194 293.868 39.9636C293.824 40.0079 293.78 40.0406 293.744 40.0625C293.708 40.0838 293.69 40.0892 293.698 40.0865C293.72 40.079 293.846 40.0432 294.123 40.0428L294.114 34.298C292.655 34.3004 291.034 34.6695 289.8 35.908C288.565 37.1465 288.201 38.7685 288.204 40.227L293.948 40.2177ZM294.123 40.0428L306.456 40.0229L306.447 34.2782L294.114 34.298L294.123 40.0428ZM306.456 40.0229C306.733 40.0225 306.859 40.0579 306.881 40.0653C306.889 40.068 306.871 40.0627 306.835 40.0415C306.799 40.0196 306.754 39.9871 306.71 39.943C306.666 39.8989 306.633 39.8548 306.611 39.8184C306.59 39.783 306.585 39.7644 306.587 39.7726C306.595 39.7949 306.631 39.9203 306.631 40.1973L312.376 40.1881C312.373 38.7297 312.004 37.1088 310.766 35.8743C309.527 34.6398 307.905 34.2759 306.447 34.2782L306.456 40.0229ZM378.629 112.486L376.595 110.458L378.629 112.486ZM378.537 55.0269L376.435 56.9847L376.507 57.0626L376.585 57.1348L378.537 55.0269ZM355.176 55.0644L357.21 57.0922L357.248 57.0546L357.284 57.0155L355.176 55.0644ZM355.268 112.523L353.166 114.481L353.203 114.52L353.24 114.558L355.268 112.523ZM341.212 124.299L343.216 122.241L341.212 124.299ZM341.082 43.189L343.092 45.2406L341.082 43.189ZM392.737 43.1059L394.741 41.0479L392.737 43.1059ZM392.867 124.216L394.878 126.268L392.867 124.216ZM361.805 117.272L372.107 117.255L372.098 111.51L361.796 111.527L361.805 117.272ZM372.107 117.255C375.441 117.25 378.588 116.595 380.663 114.514L376.595 110.458C376.159 110.895 374.955 111.506 372.098 111.51L372.107 117.255ZM380.663 114.514C382.804 112.366 383.527 109.211 383.522 105.803L377.777 105.813C377.782 108.596 377.158 109.893 376.595 110.458L380.663 114.514ZM383.522 105.803L383.451 61.5484L377.706 61.5576L377.777 105.813L383.522 105.803ZM383.451 61.5484C383.445 58.1687 382.723 54.9881 380.488 52.9189L376.585 57.1348C377.062 57.5763 377.702 58.7465 377.706 61.5576L383.451 61.5484ZM380.638 53.069C378.562 50.84 375.379 50.1282 371.999 50.1336L372.008 55.8783C374.82 55.8738 375.992 56.5092 376.435 56.9847L380.638 53.069ZM371.999 50.1336L361.697 50.1502L361.706 55.8949L372.008 55.8783L371.999 50.1336ZM361.697 50.1502C358.318 50.1556 355.137 50.8777 353.068 53.1133L357.284 57.0155C357.725 56.5386 358.895 55.8994 361.706 55.8949L361.697 50.1502ZM353.141 53.0366C351.066 55.1183 350.422 58.2675 350.428 61.6015L356.172 61.5923C356.168 58.7354 356.774 57.5296 357.21 57.0922L353.141 53.0366ZM350.428 61.6015L350.499 105.857L356.243 105.847L356.172 61.5923L350.428 61.6015ZM350.499 105.857C350.504 109.22 351.171 112.339 353.166 114.481L357.37 110.566C356.846 110.003 356.248 108.674 356.243 105.847L350.499 105.857ZM353.24 114.558C355.322 116.633 358.471 117.277 361.805 117.272L361.796 111.527C358.939 111.531 357.733 110.925 357.296 110.489L353.24 114.558ZM375.171 127.466L358.92 127.492L358.929 133.237L375.18 133.211L375.171 127.466ZM358.92 127.492C351.784 127.504 346.692 125.625 343.216 122.241L339.209 126.357C344.065 131.085 350.781 133.25 358.929 133.237L358.92 127.492ZM343.216 122.241C339.763 118.879 337.829 113.869 337.817 106.748L332.073 106.757C332.086 114.919 334.33 121.607 339.209 126.357L343.216 122.241ZM337.817 106.748L337.743 60.7513L331.999 60.7606L332.073 106.757L337.817 106.748ZM337.743 60.7513C337.732 53.6296 339.65 48.6139 343.092 45.2406L339.072 41.1374C334.208 45.903 331.986 52.5986 331.999 60.7606L337.743 60.7513ZM343.092 45.2406C346.557 41.8452 351.643 39.9502 358.779 39.9388L358.77 34.1941C350.622 34.2072 343.912 36.394 339.072 41.1374L343.092 45.2406ZM358.779 39.9388L375.03 39.9126L375.021 34.1679L358.77 34.1941L358.779 39.9388ZM375.03 39.9126C382.166 39.9012 387.257 41.7797 390.733 45.164L394.741 41.0479C389.885 36.32 383.169 34.1548 375.021 34.1679L375.03 39.9126ZM390.733 45.164C394.187 48.5262 396.121 53.5357 396.132 60.6574L401.877 60.6482C401.864 52.4862 399.619 45.7978 394.741 41.0479L390.733 45.164ZM396.132 60.6574L396.206 106.654L401.951 106.644L401.877 60.6482L396.132 60.6574ZM396.206 106.654C396.218 113.775 394.3 118.791 390.857 122.164L394.878 126.268C399.741 121.502 401.964 114.806 401.951 106.644L396.206 106.654ZM390.857 122.164C387.392 125.56 382.306 127.455 375.171 127.466L375.18 133.211C383.328 133.198 390.037 131.011 394.878 126.268L390.857 122.164ZM492.119 58.3266L494.991 58.3219L494.987 55.4496L492.114 55.4542L492.119 58.3266ZM491.539 58.3275L491.534 55.4551L489.406 55.4586L488.789 57.4953L491.539 58.3275ZM476.817 106.959L474.068 106.127L474.064 106.138L476.817 106.959ZM457.374 106.991L460.123 106.161L460.12 106.149L460.116 106.137L457.374 106.991ZM442.205 58.2617L444.947 57.408L444.318 55.386L442.2 55.3894L442.205 58.2617ZM441.625 58.2627L441.62 55.3903L438.748 55.3949L438.752 58.2673L441.625 58.2627ZM441.159 129.652L443.193 131.68L443.306 131.567L443.405 131.443L441.159 129.652ZM451.025 38.9494L453.775 38.1189L453.753 38.0484L453.728 37.979L451.025 38.9494ZM466.488 90.1444L463.738 90.9749L464.356 93.0202L466.492 93.0168L466.488 90.1444ZM467.358 90.143L467.363 93.0154L469.494 93.0119L470.108 90.9718L467.358 90.143ZM482.801 38.8983L485.552 39.7271L485.586 39.6126L485.611 39.4956L482.801 38.8983ZM485.56 39.7349L507.034 39.7003L507.025 33.9556L485.55 33.9902L485.56 39.7349ZM507.034 39.7003C507.311 39.6999 507.437 39.7353 507.459 39.7427C507.467 39.7454 507.449 39.7401 507.413 39.7189C507.377 39.6971 507.333 39.6645 507.288 39.6204C507.244 39.5763 507.211 39.5322 507.189 39.4958C507.168 39.4604 507.163 39.4418 507.165 39.45C507.173 39.4723 507.209 39.5977 507.209 39.8748L512.954 39.8655C512.952 38.4071 512.582 36.7862 511.344 35.5517C510.105 34.3172 508.483 33.9533 507.025 33.9556L507.034 39.7003ZM507.209 39.8748L507.349 127.079L513.094 127.07L512.954 39.8655L507.209 39.8748ZM507.349 127.079C507.35 127.356 507.314 127.481 507.307 127.504C507.304 127.512 507.31 127.493 507.331 127.458C507.353 127.421 507.385 127.377 507.429 127.333C507.473 127.289 507.518 127.256 507.554 127.234C507.589 127.213 507.608 127.207 507.6 127.21C507.578 127.218 507.452 127.253 507.175 127.254L507.184 132.999C508.643 132.996 510.264 132.627 511.498 131.389C512.733 130.15 513.097 128.528 513.094 127.07L507.349 127.079ZM507.175 127.254L495.277 127.273L495.286 133.018L507.184 132.999L507.175 127.254ZM495.277 127.273C495 127.273 494.874 127.238 494.852 127.231C494.844 127.228 494.862 127.233 494.898 127.254C494.934 127.276 494.979 127.309 495.023 127.353C495.067 127.397 495.1 127.441 495.122 127.478C495.143 127.513 495.148 127.532 495.146 127.523C495.138 127.501 495.102 127.376 495.102 127.099L489.357 127.108C489.36 128.566 489.729 130.187 490.967 131.422C492.206 132.656 493.828 133.02 495.286 133.018L495.277 127.273ZM495.102 127.099L494.991 58.3219L489.247 58.3312L489.357 127.108L495.102 127.099ZM492.114 55.4542L491.534 55.4551L491.543 61.1999L492.124 61.1989L492.114 55.4542ZM488.789 57.4953L474.068 106.127L479.566 107.791L494.288 59.1597L488.789 57.4953ZM474.064 106.138C473.892 106.716 473.709 106.875 473.68 106.898C473.676 106.901 473.583 106.994 473.189 106.995L473.199 112.739C474.643 112.737 476.073 112.344 477.276 111.378C478.455 110.432 479.164 109.138 479.569 107.78L474.064 106.138ZM473.189 106.995L461.001 107.014L461.01 112.759L473.199 112.739L473.189 106.995ZM461.001 107.014C460.608 107.015 460.514 106.923 460.51 106.919C460.481 106.896 460.298 106.738 460.123 106.161L454.624 107.82C455.033 109.177 455.746 110.468 456.928 111.411C458.135 112.373 459.566 112.761 461.01 112.759L461.001 107.014ZM460.116 106.137L444.947 57.408L439.462 59.1155L454.631 107.844L460.116 106.137ZM442.2 55.3894L441.62 55.3903L441.629 61.135L442.21 61.1341L442.2 55.3894ZM438.752 58.2673L438.863 127.189L444.608 127.18L444.497 58.2581L438.752 58.2673ZM438.863 127.189C438.864 127.624 438.827 127.886 438.796 128.019C438.763 128.157 438.762 128.051 438.913 127.861L443.405 131.443C444.425 130.163 444.61 128.497 444.608 127.18L438.863 127.189ZM439.125 127.624C439.302 127.446 439.463 127.356 439.54 127.319C439.617 127.282 439.643 127.281 439.59 127.294C439.54 127.306 439.442 127.324 439.284 127.339C439.128 127.354 438.931 127.364 438.689 127.364L438.698 133.109C439.452 133.108 440.212 133.05 440.915 132.884C441.586 132.725 442.471 132.405 443.193 131.68L439.125 127.624ZM438.689 127.364L426.791 127.383L426.8 133.128L438.698 133.109L438.689 127.364ZM426.791 127.383C426.513 127.384 426.388 127.348 426.366 127.341C426.357 127.338 426.376 127.343 426.411 127.365C426.448 127.386 426.492 127.419 426.536 127.463C426.581 127.507 426.613 127.551 426.635 127.588C426.657 127.623 426.662 127.642 426.659 127.633C426.652 127.611 426.616 127.486 426.616 127.209L420.871 127.218C420.873 128.676 421.242 130.297 422.481 131.532C423.719 132.766 425.341 133.13 426.8 133.128L426.791 127.383ZM426.616 127.209L426.475 40.0046L420.731 40.0138L420.871 127.218L426.616 127.209ZM426.475 40.0046C426.475 39.7275 426.51 39.602 426.518 39.5798C426.52 39.5715 426.515 39.5901 426.494 39.6256C426.472 39.6621 426.439 39.7063 426.395 39.7505C426.351 39.7947 426.307 39.8274 426.271 39.8494C426.235 39.8707 426.217 39.8761 426.225 39.8733C426.247 39.8659 426.373 39.8301 426.65 39.8296L426.64 34.0849C425.182 34.0872 423.561 34.4564 422.327 35.6949C421.092 36.9334 420.728 38.5554 420.731 40.0138L426.475 40.0046ZM426.65 39.8296L448.269 39.7948L448.26 34.0501L426.64 34.0849L426.65 39.8296ZM448.269 39.7948C448.369 39.7947 448.4 39.807 448.383 39.8021C448.375 39.7997 448.359 39.794 448.337 39.7832C448.315 39.7723 448.292 39.7586 448.27 39.7427C448.224 39.7086 448.209 39.6838 448.218 39.6973C448.23 39.7144 448.271 39.7795 448.321 39.9198L453.728 37.979C453.342 36.904 452.698 35.867 451.671 35.1124C450.629 34.3477 449.433 34.0482 448.26 34.0501L448.269 39.7948ZM448.275 39.7799L463.738 90.9749L469.237 89.3139L453.775 38.1189L448.275 39.7799ZM466.492 93.0168L467.363 93.0154L467.354 87.2707L466.483 87.2721L466.492 93.0168ZM470.108 90.9718L485.552 39.7271L480.051 38.0695L464.608 89.3142L470.108 90.9718ZM485.611 39.4956C485.629 39.4115 485.64 39.4178 485.606 39.4742C485.589 39.5025 485.564 39.5386 485.529 39.5776C485.494 39.6167 485.455 39.6525 485.413 39.683C485.327 39.7466 485.268 39.7623 485.277 39.7598C485.292 39.7556 485.378 39.7352 485.56 39.7349L485.55 33.9902C484.378 33.992 483.099 34.25 481.998 35.0637C480.861 35.9046 480.249 37.0908 479.992 38.301L485.611 39.4956ZM571.37 47.0265L572.852 49.4871L572.875 49.4729L572.899 49.4583L571.37 47.0265ZM584.561 38.7347L583.063 36.2835L583.048 36.2931L583.032 36.3029L584.561 38.7347ZM604.295 129.39L602.261 127.362L602.261 127.362L604.295 129.39ZM586.475 56.2885L589.348 56.2839L589.34 51.3343L585.046 53.7969L586.475 56.2885ZM572.269 64.4369L573.404 67.0752L573.555 67.0102L573.698 66.9285L572.269 64.4369ZM572.091 62.696L572.072 50.7979L566.327 50.8072L566.346 62.7052L572.091 62.696ZM572.072 50.7979C572.071 50.1978 572.236 49.8581 572.852 49.4871L569.888 44.5659C567.605 45.9408 566.323 48.1184 566.327 50.8072L572.072 50.7979ZM572.899 49.4583L586.089 41.1665L583.032 36.3029L569.841 44.5947L572.899 49.4583ZM586.058 41.1858C588.104 39.9362 589.447 39.5678 590.221 39.5665L590.212 33.8218C587.89 33.8256 585.463 34.8174 583.063 36.2835L586.058 41.1858ZM590.221 39.5665L601.829 39.5479L601.82 33.8032L590.212 33.8218L590.221 39.5665ZM601.829 39.5479C602.106 39.5474 602.231 39.5829 602.254 39.5902C602.262 39.593 602.243 39.5876 602.208 39.5664C602.171 39.5446 602.127 39.512 602.083 39.4679C602.039 39.4238 602.006 39.3798 601.984 39.3433C601.963 39.3079 601.957 39.2893 601.96 39.2976C601.968 39.3198 602.003 39.4452 602.004 39.7223L607.749 39.7131C607.746 38.2546 607.377 36.6338 606.139 35.3993C604.9 34.1648 603.278 33.8008 601.82 33.8032L601.829 39.5479ZM602.004 39.7223L602.144 126.926L607.889 126.917L607.749 39.7131L602.004 39.7223ZM602.144 126.926C602.145 127.323 602.102 127.53 602.08 127.603C602.062 127.668 602.087 127.536 602.261 127.362L606.329 131.417C607.621 130.121 607.891 128.342 607.889 126.917L602.144 126.926ZM602.261 127.362C602.398 127.224 602.526 127.143 602.609 127.1C602.689 127.058 602.733 127.048 602.717 127.052C602.701 127.056 602.646 127.069 602.541 127.081C602.436 127.092 602.296 127.101 602.115 127.101L602.124 132.846C603.317 132.844 605.081 132.669 606.329 131.417L602.261 127.362ZM602.115 127.101L589.636 127.121L589.646 132.866L602.124 132.846L602.115 127.101ZM589.636 127.121C589.359 127.122 589.234 127.086 589.211 127.079C589.203 127.076 589.222 127.081 589.257 127.103C589.294 127.125 589.338 127.157 589.382 127.201C589.426 127.245 589.459 127.289 589.481 127.326C589.502 127.361 589.508 127.38 589.505 127.372C589.498 127.349 589.462 127.224 589.461 126.947L583.717 126.956C583.719 128.415 584.088 130.035 585.327 131.27C586.565 132.504 588.187 132.868 589.646 132.866L589.636 127.121ZM589.461 126.947L589.348 56.2839L583.603 56.2931L583.717 126.956L589.461 126.947ZM585.046 53.7969L570.84 61.9453L573.698 66.9285L587.904 58.7801L585.046 53.7969ZM571.133 61.7986C570.788 61.9469 570.645 61.9624 570.659 61.961C570.688 61.9582 571.006 61.935 571.405 62.162C571.83 62.4041 572.024 62.7456 572.087 62.9064C572.133 63.0253 572.092 62.9942 572.091 62.696L566.346 62.7052C566.349 63.977 566.644 66.0622 568.563 67.1544C570.331 68.1611 572.248 67.5728 573.404 67.0752L571.133 61.7986Z" fill="url(#paint1_linear_280_4379)"/>
</g>
<defs>
<filter id="filter0_dddi_280_4379" x="0.00883865" y="0.766163" width="640.917" height="166.022" filterUnits="userSpaceOnUse" color-interpolation-filters="sRGB">
<feFlood flood-opacity="0" result="BackgroundImageFix"/>
<feColorMatrix in="SourceAlpha" type="matrix" values="0 0 0 0 0 0 0 0 0 0 0 0 0 0 0 0 0 0 127 0" result="hardAlpha"/>
<feOffset/>
<feGaussianBlur stdDeviation="17.9522"/>
<feComposite in2="hardAlpha" operator="out"/>
<feColorMatrix type="matrix" values="0 0 0 0 0 0 0 0 0 0 0 0 0 0 0 0 0 0 1 0"/>
<feBlend mode="normal" in2="BackgroundImageFix" result="effect1_dropShadow_280_4379"/>
<feColorMatrix in="SourceAlpha" type="matrix" values="0 0 0 0 0 0 0 0 0 0 0 0 0 0 0 0 0 0 127 0" result="hardAlpha"/>
<feOffset/>
<feGaussianBlur stdDeviation="4.45874"/>
<feComposite in2="hardAlpha" operator="out"/>
<feColorMatrix type="matrix" values="0 0 0 0 0.14 0 0 0 0 0 0 0 0 0 1 0 0 0 1 0"/>
<feBlend mode="normal" in2="effect1_dropShadow_280_4379" result="effect2_dropShadow_280_4379"/>
<feColorMatrix in="SourceAlpha" type="matrix" values="0 0 0 0 0 0 0 0 0 0 0 0 0 0 0 0 0 0 127 0" result="hardAlpha"/>
<feOffset/>
<feGaussianBlur stdDeviation="3.59045"/>
<feComposite in2="hardAlpha" operator="out"/>
<feColorMatrix type="matrix" values="0 0 0 0 0 0 0 0 0 0 0 0 0 0 0 0 0 0 1 0"/>
<feBlend mode="normal" in2="effect2_dropShadow_280_4379" result="effect3_dropShadow_280_4379"/>
<feBlend mode="normal" in="SourceGraphic" in2="effect3_dropShadow_280_4379" result="shape"/>
<feColorMatrix in="SourceAlpha" type="matrix" values="0 0 0 0 0 0 0 0 0 0 0 0 0 0 0 0 0 0 127 0" result="hardAlpha"/>
<feOffset dy="2.87236"/>
<feGaussianBlur stdDeviation="3.59045"/>
<feComposite in2="hardAlpha" operator="arithmetic" k2="-1" k3="1"/>
<feColorMatrix type="matrix" values="0 0 0 0 1 0 0 0 0 0.822083 0 0 0 0 0.745833 0 0 0 0.43 0"/>
<feBlend mode="screen" in2="shape" result="effect4_innerShadow_280_4379"/>
</filter>
<linearGradient id="paint0_linear_280_4379" x1="321.192" y1="35.438" x2="321.306" y2="135.329" gradientUnits="userSpaceOnUse">
<stop stop-color="#FF9F8C"/>
<stop offset="0.15625" stop-color="#FF6749"/>
<stop offset="0.427083" stop-color="#FF3E88"/>
<stop offset="0.8125" stop-color="#FF1393"/>
<stop offset="1" stop-color="#FF005C"/>
</linearGradient>
<linearGradient id="paint1_linear_280_4379" x1="320.161" y1="36.9951" x2="320.273" y2="135.019" gradientUnits="userSpaceOnUse">
<stop stop-color="#8E0044"/>
<stop offset="1" stop-color="#170011"/>
</linearGradient>
</defs>
</svg>
