<svg width="460" height="167" viewBox="0 0 460 167" fill="none" xmlns="http://www.w3.org/2000/svg">
<g filter="url(#filter0_dddi_280_4381)">
<path d="M36.6045 106.379L36.5998 103.477C36.5965 101.445 37.6106 100.428 39.642 100.425L51.9753 100.405C54.0067 100.402 55.024 101.416 55.0273 103.447L55.0292 104.608C55.0351 108.284 55.7646 110.798 57.2178 112.15C58.6709 113.501 61.3322 114.174 65.2014 114.168L72.0211 114.157C75.7936 114.151 78.4042 113.421 79.8529 111.968C81.3983 110.515 82.1678 107.805 82.1614 103.839L82.1586 102.098C82.1541 99.2924 80.9899 97.1661 78.666 95.7189C76.4386 94.1747 73.6319 93.2603 70.2458 92.9755C66.8597 92.6908 63.183 92.1647 59.2158 91.3972C55.3451 90.5328 51.7159 89.4746 48.3283 88.2225C44.9405 86.8737 42.0827 84.3149 39.7551 80.5461C37.524 76.6804 36.4037 71.7488 36.394 65.7514L36.3859 60.673C36.3737 53.1278 38.4924 47.2721 42.742 43.1058C46.9915 38.9395 52.8888 36.8502 60.4339 36.8381L74.9438 36.8148C82.5856 36.8025 88.538 38.8726 92.8009 43.0253C97.0638 47.1779 99.2013 53.0268 99.2135 60.5719L99.2179 63.3288C99.2212 65.3602 98.2071 66.3775 96.1757 66.3808L83.8424 66.4006C81.811 66.4039 80.7937 65.3898 80.7904 63.3584L80.789 62.4878C80.7829 58.7153 80.0533 56.153 78.6002 54.8011C77.147 53.4492 74.4858 52.7763 70.6165 52.7826L64.9576 52.7917C60.9916 52.798 58.2844 53.5763 56.8359 55.1263C55.4839 56.5795 54.8115 59.4825 54.8185 63.8355L54.8229 66.5924C54.8302 71.1388 58.8005 73.7442 66.7336 74.4085C74.9569 75.0724 82.2629 76.7051 88.6514 79.3066C92.0393 80.7522 94.8488 83.3594 97.0797 87.1284C99.4072 90.8005 100.576 95.5385 100.585 101.342L100.593 106.276C100.605 113.821 98.4863 119.677 94.2368 123.843C89.9872 128.009 84.0899 130.099 76.5448 130.111L60.7291 130.136C53.184 130.148 47.2799 128.078 43.017 123.925C38.7541 119.773 36.6166 113.924 36.6045 106.379ZM153.311 129.987L141.123 130.007C138.995 130.01 137.929 128.996 137.926 126.965L137.809 54.2706C137.807 53.2065 137.274 52.6754 136.21 52.6771L119.669 52.7037C117.637 52.7069 116.62 51.6929 116.617 49.6615L116.601 39.7948C116.598 37.7635 117.612 36.7461 119.643 36.7429L174.49 36.6547C176.522 36.6514 177.539 37.6654 177.542 39.6968L177.558 49.5635C177.561 51.5949 176.547 52.6122 174.516 52.6155L157.975 52.6421C156.814 52.6439 156.234 53.1769 156.236 54.241L156.353 126.935C156.356 128.967 155.342 129.984 153.311 129.987ZM205.744 129.903L191.814 129.925C190.073 129.928 189.491 128.913 190.068 126.881L212.853 39.64C213.527 37.6076 214.977 36.5895 217.201 36.586L236.499 36.5549C238.918 36.551 240.37 37.5644 240.857 39.595L263.923 126.762C264.507 128.793 263.928 129.809 262.187 129.812L248.257 129.835C247.193 129.836 246.468 129.644 246.08 129.258C245.692 128.775 245.401 127.953 245.205 126.792L241.117 110.838L212.823 110.884L208.786 126.851C208.594 128.012 208.257 128.835 207.774 129.319C207.388 129.707 206.711 129.901 205.744 129.903ZM226.661 54.1277L216.281 96.0779L237.756 96.0434L227.241 54.1268L226.661 54.1277ZM299.425 129.752L287.092 129.772C285.06 129.775 284.043 128.761 284.04 126.73L283.899 39.5258C283.896 37.4944 284.91 36.4771 286.942 36.4738L321.475 36.4183C329.02 36.4061 334.924 38.4764 339.187 42.629C343.45 46.7817 345.587 52.6305 345.6 60.1757L345.618 71.4933C345.635 82.4241 341.342 89.6859 332.739 93.2789L332.74 93.8592L348.318 126.191C349.192 128.511 348.372 129.674 345.856 129.678L334.104 129.696C332.362 129.699 331.104 129.508 330.33 129.122C329.556 128.736 328.925 127.915 328.44 126.658L313.88 95.3406L304.158 95.3562C302.997 95.3581 302.418 95.891 302.419 96.9551L302.467 126.7C302.47 128.732 301.456 129.749 299.425 129.752ZM303.989 80.5564L318.209 80.5335C321.304 80.5286 323.576 79.8961 325.025 78.6363C326.474 77.2797 327.196 75.1504 327.191 72.2485L327.173 60.9308C327.168 57.9321 326.439 55.7568 324.986 54.4048C323.533 53.0529 321.259 52.3795 318.163 52.3844L303.944 52.4073C302.88 52.409 302.349 52.9419 302.35 54.006L302.39 78.9629C302.392 80.0269 302.925 80.5581 303.989 80.5564ZM399.525 129.591L387.336 129.611C385.208 129.614 384.143 128.6 384.139 126.569L384.022 53.8746C384.021 52.8106 383.488 52.2794 382.424 52.2811L365.883 52.3077C363.851 52.311 362.834 51.2969 362.831 49.2655L362.815 39.3988C362.812 37.3675 363.826 36.3501 365.857 36.3469L420.704 36.2587C422.736 36.2554 423.753 37.2695 423.756 39.3008L423.772 49.1675C423.775 51.1989 422.761 52.2162 420.73 52.2195L404.189 52.2461C403.028 52.248 402.448 52.7809 402.45 53.845L402.567 126.539C402.57 128.571 401.556 129.588 399.525 129.591Z" fill="url(#paint0_linear_280_4381)"/>
<path d="M57.2178 112.15L55.2613 114.253L57.2178 112.15ZM79.8529 111.968L77.885 109.876L77.8513 109.907L77.8186 109.94L79.8529 111.968ZM78.666 95.7189L77.0295 98.0794L77.0875 98.1197L77.1475 98.1571L78.666 95.7189ZM70.2458 92.9755L70.4865 90.1133L70.2458 92.9755ZM59.2158 91.3972L58.5898 94.2005L58.6299 94.2094L58.6702 94.2173L59.2158 91.3972ZM48.3283 88.2225L47.2658 90.8911L47.299 90.9044L47.3325 90.9167L48.3283 88.2225ZM39.7551 80.5461L37.2673 81.9819L37.2887 82.019L37.3112 82.0554L39.7551 80.5461ZM42.742 43.1058L44.7528 45.1568L42.742 43.1058ZM92.8009 43.0253L90.7966 45.0828L92.8009 43.0253ZM78.6002 54.8011L80.5566 52.6981L80.5566 52.6981L78.6002 54.8011ZM56.8359 55.1263L54.7372 53.1652L54.7329 53.1698L56.8359 55.1263ZM66.7336 74.4085L66.4939 77.2709L66.5024 77.2716L66.7336 74.4085ZM88.6514 79.3066L89.7786 76.6647L89.7567 76.6554L89.7347 76.6464L88.6514 79.3066ZM97.0797 87.1284L94.6079 88.5915L94.6302 88.6292L94.6536 88.6661L97.0797 87.1284ZM94.2368 123.843L92.2259 121.792L94.2368 123.843ZM43.017 123.925L41.0127 125.983L43.017 123.925ZM39.4768 106.374L39.4722 103.472L33.7274 103.481L33.7321 106.383L39.4768 106.374ZM39.4722 103.472C39.4717 103.195 39.5071 103.07 39.5145 103.047C39.5172 103.039 39.5119 103.058 39.4907 103.093C39.4689 103.13 39.4363 103.174 39.3922 103.218C39.3481 103.262 39.304 103.295 39.2676 103.317C39.2322 103.338 39.2136 103.344 39.2219 103.341C39.2441 103.333 39.3695 103.298 39.6466 103.297L39.6373 97.5524C38.1789 97.5548 36.5581 97.9239 35.3236 99.1624C34.089 100.401 33.7251 102.023 33.7274 103.481L39.4722 103.472ZM39.6466 103.297L51.9799 103.277L51.9707 97.5326L39.6373 97.5524L39.6466 103.297ZM51.9799 103.277C52.257 103.277 52.3825 103.312 52.4048 103.32C52.413 103.322 52.3944 103.317 52.359 103.296C52.3225 103.274 52.2783 103.241 52.2341 103.197C52.1898 103.153 52.1571 103.109 52.1352 103.073C52.1138 103.037 52.1085 103.019 52.1112 103.027C52.1187 103.049 52.1545 103.175 52.1549 103.452L57.8996 103.442C57.8973 101.984 57.5281 100.363 56.2896 99.1287C55.0512 97.8942 53.4292 97.5302 51.9707 97.5326L51.9799 103.277ZM52.1549 103.452L52.1568 104.613L57.9015 104.603L57.8996 103.442L52.1549 103.452ZM52.1568 104.613C52.163 108.467 52.8902 112.047 55.2613 114.253L59.1743 110.047C58.6391 109.549 57.9071 108.1 57.9015 104.603L52.1568 104.613ZM55.2613 114.253C57.5657 116.396 61.2105 117.047 65.2061 117.04L65.1968 111.296C61.4538 111.302 59.7762 110.606 59.1743 110.047L55.2613 114.253ZM65.2061 117.04L72.0257 117.029L72.0165 111.285L65.1968 111.296L65.2061 117.04ZM72.0257 117.029C75.9825 117.023 79.5976 116.293 81.8872 113.996L77.8186 109.94C77.2108 110.55 75.6048 111.279 72.0165 111.285L72.0257 117.029ZM81.8208 114.06C84.2805 111.747 85.0404 107.969 85.0337 103.834L79.289 103.843C79.2951 107.641 78.516 109.282 77.885 109.876L81.8208 114.06ZM85.0337 103.834L85.0309 102.093L79.2862 102.102L79.289 103.843L85.0337 103.834ZM85.0309 102.093C85.0249 98.3271 83.3739 95.267 80.1844 93.2807L77.1475 98.1571C78.6058 99.0652 79.2833 100.258 79.2862 102.102L85.0309 102.093ZM80.3025 93.3583C77.5693 91.4635 74.2483 90.4296 70.4865 90.1133L70.0051 95.8378C73.0156 96.0909 75.3079 96.8859 77.0295 98.0794L80.3025 93.3583ZM70.4865 90.1133C67.2197 89.8385 63.646 89.3286 59.7613 88.5771L58.6702 94.2173C62.7201 95.0007 66.4998 95.543 70.0051 95.8378L70.4865 90.1133ZM59.8418 88.5939C56.0846 87.7548 52.58 86.7317 49.324 85.5283L47.3325 90.9167C50.8519 92.2175 54.6056 93.3108 58.5898 94.2005L59.8418 88.5939ZM49.3907 85.5539C46.6902 84.4787 44.2737 82.3962 42.1989 79.0367L37.3112 82.0554C39.8917 86.2336 43.1907 89.2687 47.2658 90.8911L49.3907 85.5539ZM42.2429 79.1103C40.3348 75.8043 39.2755 71.4082 39.2664 65.7468L33.5217 65.756C33.5319 72.0894 34.7132 77.5565 37.2673 81.9819L42.2429 79.1103ZM39.2664 65.7468L39.2582 60.6683L33.5135 60.6776L33.5217 65.756L39.2664 65.7468ZM39.2582 60.6683C39.247 53.678 41.1941 48.6459 44.7528 45.1568L40.7311 41.0547C35.7908 45.8983 33.5005 52.5777 33.5135 60.6776L39.2582 60.6683ZM44.7528 45.1568C48.333 41.6468 53.4333 39.7217 60.4385 39.7104L60.4293 33.9657C52.3444 33.9787 45.65 36.2321 40.7311 41.0547L44.7528 45.1568ZM60.4385 39.7104L74.9484 39.6871L74.9391 33.9424L60.4293 33.9657L60.4385 39.7104ZM74.9484 39.6871C82.0622 39.6757 87.2118 41.5907 90.7966 45.0828L94.8052 40.9678C89.8641 36.1546 83.109 33.9293 74.9391 33.9424L74.9484 39.6871ZM90.7966 45.0828C94.3666 48.5604 96.3299 53.5862 96.3411 60.5765L102.086 60.5673C102.073 52.4674 99.761 45.7954 94.8052 40.9678L90.7966 45.0828ZM96.3411 60.5765L96.3455 63.3334L102.09 63.3242L102.086 60.5673L96.3411 60.5765ZM96.3455 63.3334C96.346 63.6105 96.3106 63.736 96.3032 63.7582C96.3004 63.7665 96.3058 63.7479 96.327 63.7124C96.3488 63.6759 96.3814 63.6317 96.4255 63.5875C96.4696 63.5433 96.5136 63.5106 96.5501 63.4886C96.5855 63.4673 96.6041 63.4619 96.5958 63.4647C96.5736 63.4721 96.4482 63.508 96.1711 63.5084L96.1803 69.2531C97.6388 69.2508 99.2596 68.8816 100.494 67.6431C101.729 66.4046 102.093 64.7826 102.09 63.3242L96.3455 63.3334ZM96.1711 63.5084L83.8377 63.5282L83.847 69.2729L96.1803 69.2531L96.1711 63.5084ZM83.8377 63.5282C83.5607 63.5287 83.4351 63.4933 83.4129 63.4859C83.4047 63.4831 83.4233 63.4885 83.4587 63.5097C83.4952 63.5315 83.5394 63.5641 83.5836 63.6082C83.6279 63.6523 83.6606 63.6963 83.6825 63.7328C83.7038 63.7682 83.7092 63.7867 83.7065 63.7785C83.699 63.7563 83.6632 63.6309 83.6628 63.3538L77.918 63.363C77.9204 64.8215 78.2896 66.4423 79.528 67.6768C80.7665 68.9113 82.3885 69.2753 83.847 69.2729L83.8377 63.5282ZM83.6628 63.3538L83.6614 62.4832L77.9166 62.4925L77.918 63.363L83.6628 63.3538ZM83.6614 62.4832C83.655 58.5592 82.9384 54.9139 80.5566 52.6981L76.6437 56.9041C77.1683 57.3922 77.9108 58.8713 77.9166 62.4925L83.6614 62.4832ZM80.5566 52.6981C78.2522 50.5543 74.6074 49.9038 70.6119 49.9102L70.6211 55.6549C74.3641 55.6489 76.0418 56.3441 76.6437 56.9041L80.5566 52.6981ZM70.6119 49.9102L64.953 49.9193L64.9623 55.664L70.6211 55.6549L70.6119 49.9102ZM64.953 49.9193C60.8182 49.926 57.0427 50.698 54.7372 53.1652L58.9345 57.0875C59.526 56.4545 61.165 55.6701 64.9623 55.664L64.953 49.9193ZM54.7329 53.1698C53.5849 54.4037 52.9163 56.0314 52.5193 57.7453C52.1165 59.4842 51.9424 61.5348 51.9461 63.8401L57.6908 63.8309C57.6875 61.7833 57.8462 60.2058 58.1158 59.0417C58.3913 57.8525 58.7349 57.3021 58.9389 57.0828L54.7329 53.1698ZM51.9461 63.8401L51.9506 66.597L57.6953 66.5877L57.6908 63.8309L51.9461 63.8401ZM51.9506 66.597C51.9559 69.8868 53.4804 72.5532 56.2302 74.3577C58.8001 76.0442 62.3344 76.9225 66.4939 77.2709L66.9733 71.5462C63.1997 71.2302 60.7822 70.4737 59.382 69.5548C58.1615 68.7538 57.6973 67.8443 57.6953 66.5877L51.9506 66.597ZM66.5024 77.2716C74.4886 77.9163 81.4988 79.4954 87.5681 81.9669L89.7347 76.6464C83.0269 73.9149 75.4252 72.2285 66.9647 71.5455L66.5024 77.2716ZM87.5241 81.9486C90.2496 83.1115 92.6278 85.2462 94.6079 88.5915L99.5515 85.6653C97.0698 81.4726 93.8291 78.3929 89.7786 76.6647L87.5241 81.9486ZM94.6536 88.6661C96.6083 91.75 97.7038 95.9089 97.7126 101.347L103.457 101.338C103.447 95.1682 102.206 89.851 99.5058 85.5907L94.6536 88.6661ZM97.7126 101.347L97.7205 106.28L103.465 106.271L103.457 101.338L97.7126 101.347ZM97.7205 106.28C97.7317 113.271 95.7846 118.303 92.2259 121.792L96.2476 125.894C101.188 121.05 103.478 114.371 103.465 106.271L97.7205 106.28ZM92.2259 121.792C88.6457 125.302 83.5455 127.227 76.5402 127.238L76.5494 132.983C84.6344 132.97 91.3287 130.717 96.2476 125.894L92.2259 121.792ZM76.5402 127.238L60.7244 127.264L60.7337 133.008L76.5494 132.983L76.5402 127.238ZM60.7244 127.264C53.7192 127.275 48.6127 125.366 45.0213 121.868L41.0127 125.983C45.9471 130.79 52.6487 133.021 60.7337 133.008L60.7244 127.264ZM45.0213 121.868C41.4514 118.39 39.4881 113.364 39.4768 106.374L33.7321 106.383C33.7451 114.483 36.0569 121.155 41.0127 125.983L45.0213 121.868ZM153.306 127.115L141.118 127.134L141.127 132.879L153.316 132.86L153.306 127.115ZM141.118 127.134C140.806 127.135 140.645 127.097 140.592 127.08C140.551 127.067 140.616 127.081 140.707 127.168C140.749 127.208 140.783 127.25 140.807 127.288C140.83 127.326 140.838 127.348 140.837 127.346C140.834 127.337 140.798 127.225 140.798 126.96L135.053 126.97C135.056 128.463 135.456 130.101 136.747 131.33C138.014 132.535 139.653 132.882 141.127 132.879L141.118 127.134ZM140.798 126.96L140.681 54.266L134.936 54.2752L135.053 126.97L140.798 126.96ZM140.681 54.266C140.679 53.2912 140.432 52.0329 139.436 51.0398C138.439 50.0468 137.18 49.8032 136.205 49.8047L136.215 55.5494C136.304 55.5493 135.843 55.5704 135.38 55.1085C134.917 54.6466 134.936 54.1859 134.936 54.2752L140.681 54.266ZM136.205 49.8047L119.664 49.8313L119.673 55.576L136.215 55.5494L136.205 49.8047ZM119.664 49.8313C119.387 49.8318 119.262 49.7963 119.239 49.789C119.231 49.7862 119.25 49.7916 119.285 49.8128C119.322 49.8346 119.366 49.8672 119.41 49.9113C119.454 49.9553 119.487 49.9994 119.509 50.0359C119.53 50.0713 119.536 50.0898 119.533 50.0816C119.525 50.0594 119.49 49.934 119.489 49.6569L113.744 49.6661C113.747 51.1246 114.116 52.7454 115.354 53.9799C116.593 55.2144 118.215 55.5784 119.673 55.576L119.664 49.8313ZM119.489 49.6569L119.473 39.7902L113.729 39.7994L113.744 49.6661L119.489 49.6569ZM119.473 39.7902C119.473 39.5132 119.508 39.3876 119.516 39.3654C119.518 39.3571 119.513 39.3757 119.492 39.4112C119.47 39.4477 119.437 39.4919 119.393 39.5361C119.349 39.5803 119.305 39.6131 119.269 39.635C119.233 39.6563 119.215 39.6617 119.223 39.6589C119.245 39.6515 119.371 39.6157 119.648 39.6152L119.639 33.8705C118.18 33.8729 116.559 34.242 115.325 35.4805C114.09 36.719 113.726 38.341 113.729 39.7994L119.473 39.7902ZM119.648 39.6152L174.495 39.527L174.486 33.7823L119.639 33.8705L119.648 39.6152ZM174.495 39.527C174.772 39.5266 174.898 39.562 174.92 39.5694C174.928 39.5721 174.909 39.5668 174.874 39.5456C174.837 39.5237 174.793 39.4912 174.749 39.4471C174.705 39.403 174.672 39.3589 174.65 39.3225C174.629 39.2871 174.623 39.2685 174.626 39.2767C174.634 39.299 174.669 39.4244 174.67 39.7014L180.415 39.6922C180.412 38.2337 180.043 36.6129 178.805 35.3784C177.566 34.1439 175.944 33.78 174.486 33.7823L174.495 39.527ZM174.67 39.7014L174.686 49.5681L180.431 49.5589L180.415 39.6922L174.67 39.7014ZM174.686 49.5681C174.686 49.8452 174.651 49.9707 174.643 49.993C174.641 50.0012 174.646 49.9826 174.667 49.9471C174.689 49.9106 174.722 49.8665 174.766 49.8222C174.81 49.778 174.854 49.7453 174.89 49.7233C174.926 49.702 174.944 49.6966 174.936 49.6994C174.914 49.7068 174.788 49.7427 174.511 49.7431L174.521 55.4878C175.979 55.4855 177.6 55.1163 178.834 53.8778C180.069 52.6393 180.433 51.0173 180.431 49.5589L174.686 49.5681ZM174.511 49.7431L157.97 49.7697L157.979 55.5144L174.521 55.4878L174.511 49.7431ZM157.97 49.7697C157.006 49.7713 155.747 49.989 154.725 50.9289C153.656 51.9124 153.362 53.2034 153.364 54.2456L159.109 54.2363C159.108 54.2145 159.104 54.707 158.614 55.1574C158.171 55.5645 157.783 55.5147 157.979 55.5144L157.97 49.7697ZM153.364 54.2456L153.481 126.94L159.225 126.931L159.109 54.2363L153.364 54.2456ZM153.481 126.94C153.481 127.217 153.446 127.342 153.438 127.365C153.436 127.373 153.441 127.354 153.462 127.319C153.484 127.282 153.517 127.238 153.561 127.194C153.605 127.15 153.649 127.117 153.685 127.095C153.721 127.074 153.739 127.068 153.731 127.071C153.709 127.079 153.583 127.114 153.306 127.115L153.316 132.86C154.774 132.857 156.395 132.488 157.629 131.25C158.864 130.011 159.228 128.389 159.225 126.931L153.481 126.94ZM190.068 126.881L192.831 127.666L192.839 127.636L192.847 127.607L190.068 126.881ZM212.853 39.64L210.127 38.7361L210.098 38.8243L210.074 38.9142L212.853 39.64ZM240.857 39.595L238.064 40.2648L238.072 40.2974L238.081 40.3298L240.857 39.595ZM263.923 126.762L261.146 127.497L261.154 127.526L261.163 127.556L263.923 126.762ZM246.08 129.258L243.84 131.056L243.94 131.18L244.052 131.292L246.08 129.258ZM245.205 126.792L248.038 126.316L248.018 126.196L247.988 126.079L245.205 126.792ZM241.117 110.838L243.899 110.125L243.345 107.962L241.112 107.966L241.117 110.838ZM212.823 110.884L212.818 108.011L210.585 108.015L210.038 110.179L212.823 110.884ZM208.786 126.851L206.001 126.147L205.971 126.264L205.952 126.383L208.786 126.851ZM207.774 129.319L209.808 131.347L207.774 129.319ZM226.661 54.1277L226.656 51.2553L224.412 51.259L223.873 53.4378L226.661 54.1277ZM216.281 96.0779L213.493 95.388L212.61 98.9562L216.286 98.9503L216.281 96.0779ZM237.756 96.0434L237.761 98.9157L241.436 98.9098L240.542 95.3445L237.756 96.0434ZM227.241 54.1268L230.027 53.4279L229.481 51.2508L227.237 51.2544L227.241 54.1268ZM205.739 127.031L191.81 127.053L191.819 132.798L205.748 132.775L205.739 127.031ZM191.81 127.053C191.631 127.053 191.691 127.024 191.873 127.103C192.098 127.202 192.376 127.41 192.563 127.737C192.731 128.029 192.725 128.238 192.725 128.21C192.725 128.176 192.734 128.008 192.831 127.666L187.305 126.096C186.961 127.308 186.691 129.046 187.58 130.595C188.609 132.389 190.468 132.8 191.819 132.798L191.81 127.053ZM192.847 127.607L215.632 40.3659L210.074 38.9142L187.289 126.155L192.847 127.607ZM215.58 40.544C215.764 39.9875 215.975 39.7883 216.097 39.7026C216.228 39.6102 216.531 39.4594 217.206 39.4583L217.197 33.7136C215.647 33.7161 214.113 34.0761 212.795 35.0017C211.467 35.934 210.616 37.2601 210.127 38.7361L215.58 40.544ZM217.206 39.4583L236.504 39.4273L236.495 33.6826L217.197 33.7136L217.206 39.4583ZM236.504 39.4273C237.334 39.4259 237.664 39.6014 237.759 39.6678C237.808 39.702 237.954 39.8039 238.064 40.2648L243.65 38.9252C243.274 37.3555 242.45 35.9354 241.046 34.9562C239.689 34.0093 238.083 33.68 236.495 33.6826L236.504 39.4273ZM238.081 40.3298L261.146 127.497L266.7 126.027L243.634 38.8602L238.081 40.3298ZM261.163 127.556C261.261 127.898 261.27 128.066 261.271 128.1C261.271 128.128 261.264 127.919 261.431 127.626C261.617 127.299 261.894 127.089 262.119 126.99C262.301 126.91 262.36 126.939 262.182 126.94L262.191 132.684C263.543 132.682 265.4 132.266 266.423 130.469C267.307 128.916 267.032 127.179 266.684 125.969L261.163 127.556ZM262.182 126.94L248.253 126.962L248.262 132.707L262.191 132.684L262.182 126.94ZM248.253 126.962C248.072 126.962 247.932 126.954 247.827 126.943C247.721 126.932 247.666 126.919 247.651 126.915C247.635 126.911 247.678 126.92 247.759 126.962C247.841 127.005 247.97 127.086 248.108 127.223L244.052 131.292C245.304 132.54 247.069 132.709 248.262 132.707L248.253 126.962ZM248.32 127.46C248.391 127.549 248.356 127.54 248.278 127.319C248.203 127.109 248.117 126.784 248.038 126.316L242.373 127.269C242.589 128.55 242.976 129.98 243.84 131.056L248.32 127.46ZM247.988 126.079L243.899 110.125L238.335 111.551L242.423 127.505L247.988 126.079ZM241.112 107.966L212.818 108.011L212.827 113.756L241.122 113.71L241.112 107.966ZM210.038 110.179L206.001 126.147L211.57 127.555L215.608 111.588L210.038 110.179ZM205.952 126.383C205.881 126.815 205.797 127.09 205.731 127.249C205.665 127.41 205.646 127.385 205.74 127.291L209.808 131.347C210.922 130.23 211.393 128.69 211.62 127.319L205.952 126.383ZM205.74 127.291C205.856 127.174 205.968 127.099 206.05 127.054C206.13 127.01 206.181 126.996 206.183 126.995C206.185 126.995 206.152 127.004 206.074 127.013C205.997 127.023 205.887 127.03 205.739 127.031L205.748 132.775C206.939 132.773 208.596 132.563 209.808 131.347L205.74 127.291ZM223.873 53.4378L213.493 95.388L219.07 96.7678L229.449 54.8176L223.873 53.4378ZM216.286 98.9503L237.761 98.9157L237.751 93.171L216.277 93.2056L216.286 98.9503ZM240.542 95.3445L230.027 53.4279L224.455 54.8256L234.97 96.7423L240.542 95.3445ZM227.237 51.2544L226.656 51.2553L226.666 57L227.246 56.9991L227.237 51.2544ZM339.187 42.629L337.183 44.6865L339.187 42.629ZM332.739 93.2789L331.632 90.6283L329.864 91.3669L329.867 93.2835L332.739 93.2789ZM332.74 93.8592L329.868 93.8639L329.869 94.5173L330.152 95.106L332.74 93.8592ZM348.318 126.191L351.005 125.178L350.96 125.059L350.905 124.944L348.318 126.191ZM330.33 129.122L329.05 131.693L330.33 129.122ZM328.44 126.658L331.119 125.623L331.085 125.534L331.044 125.448L328.44 126.658ZM313.88 95.3406L316.484 94.1296L315.71 92.4653L313.875 92.4682L313.88 95.3406ZM325.025 78.6363L326.91 80.8039L326.95 80.7691L326.988 80.733L325.025 78.6363ZM324.986 54.4048L326.943 52.3019L326.943 52.3018L324.986 54.4048ZM299.42 126.88L287.087 126.9L287.096 132.644L299.43 132.625L299.42 126.88ZM287.087 126.9C286.81 126.9 286.684 126.865 286.662 126.857C286.654 126.855 286.673 126.86 286.708 126.881C286.744 126.903 286.789 126.936 286.833 126.98C286.877 127.024 286.91 127.068 286.932 127.104C286.953 127.14 286.958 127.158 286.956 127.15C286.948 127.128 286.912 127.002 286.912 126.725L281.167 126.735C281.17 128.193 281.539 129.814 282.777 131.048C284.016 132.283 285.638 132.647 287.096 132.644L287.087 126.9ZM286.912 126.725L286.772 39.5211L281.027 39.5304L281.167 126.735L286.912 126.725ZM286.772 39.5211C286.771 39.2441 286.807 39.1185 286.814 39.0963C286.817 39.0881 286.812 39.1067 286.79 39.1421C286.768 39.1786 286.736 39.2228 286.692 39.267C286.648 39.3113 286.604 39.344 286.567 39.3659C286.532 39.3872 286.513 39.3926 286.521 39.3899C286.544 39.3824 286.669 39.3466 286.946 39.3462L286.937 33.6014C285.478 33.6038 283.858 33.973 282.623 35.2114C281.389 36.4499 281.025 38.0719 281.027 39.5304L286.772 39.5211ZM286.946 39.3462L321.48 39.2906L321.47 33.5459L286.937 33.6014L286.946 39.3462ZM321.48 39.2906C328.485 39.2793 333.591 41.188 337.183 44.6865L341.191 40.5715C336.257 35.7648 329.555 33.5329 321.47 33.5459L321.48 39.2906ZM337.183 44.6865C340.753 48.1641 342.716 53.1899 342.727 60.1803L348.472 60.171C348.459 52.0712 346.147 45.3992 341.191 40.5715L337.183 44.6865ZM342.727 60.1803L342.745 71.4979L348.49 71.4887L348.472 60.171L342.727 60.1803ZM342.745 71.4979C342.754 76.5968 341.756 80.6021 339.939 83.6761C338.141 86.7176 335.426 89.0441 331.632 90.6283L333.846 95.9294C338.656 93.9207 342.389 90.8198 344.884 86.5995C347.36 82.4116 348.5 77.3206 348.49 71.4887L342.745 71.4979ZM329.867 93.2835L329.868 93.8639L335.612 93.8546L335.611 93.2742L329.867 93.2835ZM330.152 95.106L345.73 127.438L350.905 124.944L335.328 92.6125L330.152 95.106ZM345.63 127.204C345.7 127.39 345.74 127.531 345.762 127.629C345.784 127.729 345.784 127.769 345.784 127.759C345.783 127.747 345.784 127.673 345.815 127.556C345.849 127.434 345.91 127.289 346.011 127.146C346.112 127.004 346.225 126.901 346.322 126.833C346.414 126.768 346.476 126.746 346.477 126.746C346.477 126.746 346.43 126.762 346.321 126.777C346.212 126.793 346.058 126.805 345.852 126.805L345.861 132.55C347.353 132.548 349.453 132.233 350.705 130.459C351.972 128.665 351.532 126.575 351.005 125.178L345.63 127.204ZM345.852 126.805L334.099 126.824L334.108 132.569L345.861 132.55L345.852 126.805ZM334.099 126.824C332.44 126.827 331.754 126.622 331.61 126.551L329.05 131.693C330.455 132.393 332.284 132.572 334.108 132.569L334.099 126.824ZM331.61 126.551C331.684 126.587 331.656 126.6 331.555 126.468C331.449 126.329 331.291 126.068 331.119 125.623L325.761 127.694C326.366 129.261 327.358 130.851 329.05 131.693L331.61 126.551ZM331.044 125.448L316.484 94.1296L311.275 96.5515L325.835 127.869L331.044 125.448ZM313.875 92.4682L304.153 92.4838L304.163 98.2286L313.884 98.2129L313.875 92.4682ZM304.153 92.4838C303.189 92.4854 301.93 92.7031 300.908 93.6431C299.839 94.6265 299.545 95.9175 299.547 96.9597L305.292 96.9505C305.292 96.9286 305.287 97.4211 304.797 97.8716C304.354 98.2786 303.966 98.2289 304.163 98.2286L304.153 92.4838ZM299.547 96.9597L299.595 126.705L305.34 126.696L305.292 96.9505L299.547 96.9597ZM299.595 126.705C299.595 126.982 299.56 127.107 299.552 127.13C299.55 127.138 299.555 127.119 299.576 127.084C299.598 127.047 299.631 127.003 299.675 126.959C299.719 126.915 299.763 126.882 299.799 126.86C299.835 126.839 299.853 126.833 299.845 126.836C299.823 126.844 299.697 126.879 299.42 126.88L299.43 132.625C300.888 132.622 302.509 132.253 303.743 131.015C304.978 129.776 305.342 128.154 305.34 126.696L299.595 126.705ZM303.994 83.4288L318.213 83.4059L318.204 77.6612L303.984 77.684L303.994 83.4288ZM318.213 83.4059C321.602 83.4004 324.702 82.7234 326.91 80.8039L323.141 76.4687C322.45 77.0689 321.006 77.6567 318.204 77.6612L318.213 83.4059ZM326.988 80.733C329.243 78.6219 330.069 75.5707 330.064 72.2438L324.319 72.2531C324.323 74.7301 323.705 75.9374 323.062 76.5396L326.988 80.733ZM330.064 72.2438L330.046 60.9262L324.301 60.9354L324.319 72.2531L330.064 72.2438ZM330.046 60.9262C330.04 57.5364 329.221 54.4211 326.943 52.3019L323.03 56.5078C323.658 57.0924 324.297 58.3278 324.301 60.9354L330.046 60.9262ZM326.943 52.3018C324.726 50.2399 321.59 49.5066 318.159 49.5121L318.168 55.2568C320.928 55.2524 322.34 55.866 323.03 56.5079L326.943 52.3018ZM318.159 49.5121L303.939 49.535L303.948 55.2797L318.168 55.2568L318.159 49.5121ZM303.939 49.535C302.964 49.5365 301.706 49.7842 300.713 50.7805C299.72 51.7767 299.476 53.0358 299.478 54.0106L305.223 54.0013C305.222 53.9121 305.244 54.3727 304.782 54.836C304.32 55.2994 303.859 55.2798 303.948 55.2797L303.939 49.535ZM299.478 54.0106L299.518 78.9675L305.263 78.9583L305.223 54.0013L299.478 54.0106ZM299.518 78.9675C299.52 79.9423 299.767 81.2006 300.764 82.1936C301.76 83.1867 303.019 83.4303 303.994 83.4288L303.984 77.684C303.895 77.6842 304.356 77.6631 304.819 78.125C305.282 78.5869 305.263 79.0475 305.263 78.9583L299.518 78.9675ZM399.52 126.719L387.332 126.738L387.341 132.483L399.529 132.464L399.52 126.719ZM387.332 126.738C387.019 126.739 386.859 126.701 386.806 126.684C386.765 126.671 386.83 126.685 386.921 126.772C386.963 126.812 386.997 126.854 387.021 126.892C387.044 126.93 387.052 126.952 387.051 126.95C387.048 126.941 387.012 126.829 387.012 126.564L381.267 126.574C381.269 128.067 381.67 129.705 382.961 130.934C384.227 132.139 385.867 132.486 387.341 132.483L387.332 126.738ZM387.012 126.564L386.895 53.87L381.15 53.8792L381.267 126.574L387.012 126.564ZM386.895 53.87C386.893 52.8952 386.646 51.6369 385.649 50.6439C384.653 49.6508 383.394 49.4072 382.419 49.4087L382.428 55.1534C382.518 55.1533 382.057 55.1744 381.594 54.7125C381.13 54.2506 381.15 53.79 381.15 53.8792L386.895 53.87ZM382.419 49.4087L365.878 49.4353L365.887 55.18L382.428 55.1534L382.419 49.4087ZM365.878 49.4353C365.601 49.4358 365.475 49.4004 365.453 49.393C365.445 49.3902 365.464 49.3956 365.499 49.4168C365.535 49.4386 365.58 49.4712 365.624 49.5153C365.668 49.5594 365.701 49.6034 365.723 49.6399C365.744 49.6753 365.749 49.6939 365.747 49.6856C365.739 49.6634 365.703 49.538 365.703 49.2609L359.958 49.2702C359.961 50.7286 360.33 52.3494 361.568 53.5839C362.807 54.8184 364.429 55.1824 365.887 55.18L365.878 49.4353ZM365.703 49.2609L365.687 39.3942L359.942 39.4035L359.958 49.2702L365.703 49.2609ZM365.687 39.3942C365.687 39.1172 365.722 38.9916 365.73 38.9694C365.732 38.9611 365.727 38.9797 365.706 39.0152C365.684 39.0517 365.651 39.0959 365.607 39.1401C365.563 39.1843 365.519 39.2171 365.483 39.239C365.447 39.2603 365.429 39.2657 365.437 39.263C365.459 39.2555 365.585 39.2197 365.862 39.2192L365.852 33.4745C364.394 33.4769 362.773 33.846 361.539 35.0845C360.304 36.323 359.94 37.945 359.942 39.4035L365.687 39.3942ZM365.862 39.2192L420.709 39.131L420.7 33.3863L365.852 33.4745L365.862 39.2192ZM420.709 39.131C420.986 39.1306 421.111 39.166 421.134 39.1734C421.142 39.1761 421.123 39.1708 421.088 39.1496C421.051 39.1278 421.007 39.0952 420.963 39.0511C420.919 39.007 420.886 38.9629 420.864 38.9265C420.843 38.8911 420.837 38.8725 420.84 38.8807C420.847 38.903 420.883 39.0284 420.884 39.3054L426.628 39.2962C426.626 37.8378 426.257 36.2169 425.018 34.9824C423.78 33.7479 422.158 33.384 420.7 33.3863L420.709 39.131ZM420.884 39.3054L420.9 49.1721L426.644 49.1629L426.628 39.2962L420.884 39.3054ZM420.9 49.1721C420.9 49.4492 420.865 49.5747 420.857 49.597C420.855 49.6052 420.86 49.5866 420.881 49.5512C420.903 49.5147 420.935 49.4705 420.98 49.4262C421.024 49.382 421.068 49.3493 421.104 49.3274C421.14 49.306 421.158 49.3006 421.15 49.3034C421.128 49.3108 421.002 49.3467 420.725 49.3471L420.734 55.0918C422.193 55.0895 423.814 54.7203 425.048 53.4818C426.283 52.2434 426.647 50.6213 426.644 49.1629L420.9 49.1721ZM420.725 49.3471L404.184 49.3737L404.193 55.1184L420.734 55.0918L420.725 49.3471ZM404.184 49.3737C403.22 49.3753 401.961 49.593 400.939 50.533C399.87 51.5164 399.576 52.8074 399.578 53.8496L405.322 53.8404C405.322 53.8185 405.318 54.311 404.828 54.7615C404.385 55.1685 403.997 55.1188 404.193 55.1184L404.184 49.3737ZM399.578 53.8496L399.695 126.544L405.439 126.535L405.322 53.8404L399.578 53.8496ZM399.695 126.544C399.695 126.821 399.66 126.946 399.652 126.969C399.649 126.977 399.655 126.958 399.676 126.923C399.698 126.886 399.73 126.842 399.774 126.798C399.819 126.754 399.863 126.721 399.899 126.699C399.934 126.678 399.953 126.672 399.945 126.675C399.923 126.683 399.797 126.718 399.52 126.719L399.529 132.464C400.988 132.461 402.609 132.092 403.843 130.854C405.078 129.615 405.442 127.993 405.439 126.535L399.695 126.544Z" fill="url(#paint1_linear_280_4381)"/>
</g>
<defs>
<filter id="filter0_dddi_280_4381" x="0.443043" y="0.349171" width="459.363" height="165.73" filterUnits="userSpaceOnUse" color-interpolation-filters="sRGB">
<feFlood flood-opacity="0" result="BackgroundImageFix"/>
<feColorMatrix in="SourceAlpha" type="matrix" values="0 0 0 0 0 0 0 0 0 0 0 0 0 0 0 0 0 0 127 0" result="hardAlpha"/>
<feOffset/>
<feGaussianBlur stdDeviation="17.9522"/>
<feComposite in2="hardAlpha" operator="out"/>
<feColorMatrix type="matrix" values="0 0 0 0 0 0 0 0 0 0 0 0 0 0 0 0 0 0 1 0"/>
<feBlend mode="normal" in2="BackgroundImageFix" result="effect1_dropShadow_280_4381"/>
<feColorMatrix in="SourceAlpha" type="matrix" values="0 0 0 0 0 0 0 0 0 0 0 0 0 0 0 0 0 0 127 0" result="hardAlpha"/>
<feOffset/>
<feGaussianBlur stdDeviation="4.45874"/>
<feComposite in2="hardAlpha" operator="out"/>
<feColorMatrix type="matrix" values="0 0 0 0 0.14 0 0 0 0 0 0 0 0 0 1 0 0 0 1 0"/>
<feBlend mode="normal" in2="effect1_dropShadow_280_4381" result="effect2_dropShadow_280_4381"/>
<feColorMatrix in="SourceAlpha" type="matrix" values="0 0 0 0 0 0 0 0 0 0 0 0 0 0 0 0 0 0 127 0" result="hardAlpha"/>
<feOffset/>
<feGaussianBlur stdDeviation="3.59045"/>
<feComposite in2="hardAlpha" operator="out"/>
<feColorMatrix type="matrix" values="0 0 0 0 0 0 0 0 0 0 0 0 0 0 0 0 0 0 1 0"/>
<feBlend mode="normal" in2="effect2_dropShadow_280_4381" result="effect3_dropShadow_280_4381"/>
<feBlend mode="normal" in="SourceGraphic" in2="effect3_dropShadow_280_4381" result="shape"/>
<feColorMatrix in="SourceAlpha" type="matrix" values="0 0 0 0 0 0 0 0 0 0 0 0 0 0 0 0 0 0 127 0" result="hardAlpha"/>
<feOffset dy="2.87236"/>
<feGaussianBlur stdDeviation="3.59045"/>
<feComposite in2="hardAlpha" operator="arithmetic" k2="-1" k3="1"/>
<feColorMatrix type="matrix" values="0 0 0 0 1 0 0 0 0 0.822083 0 0 0 0 0.745833 0 0 0 0.43 0"/>
<feBlend mode="screen" in2="shape" result="effect4_innerShadow_280_4381"/>
</filter>
<linearGradient id="paint0_linear_280_4381" x1="227.931" y1="34.8798" x2="228.022" y2="134.771" gradientUnits="userSpaceOnUse">
<stop stop-color="#FF9F8C"/>
<stop offset="0.15625" stop-color="#FF6749"/>
<stop offset="0.427083" stop-color="#FF3E88"/>
<stop offset="0.8125" stop-color="#FF1393"/>
<stop offset="1" stop-color="#FF005C"/>
</linearGradient>
<linearGradient id="paint1_linear_280_4381" x1="227.235" y1="36.4364" x2="227.325" y2="134.461" gradientUnits="userSpaceOnUse">
<stop stop-color="#8E0044"/>
<stop offset="1" stop-color="#170011"/>
</linearGradient>
</defs>
</svg>
