<svg width="474" height="167" viewBox="0 0 474 167" fill="none" xmlns="http://www.w3.org/2000/svg">
<g filter="url(#filter0_dddi_280_4380)">
<path d="M73.2965 130.487L61.1082 130.506C58.9801 130.51 57.9144 129.496 57.9111 127.464L57.7942 54.7699C57.7925 53.7059 57.2596 53.1747 56.1956 53.1764L39.6543 53.203C37.623 53.2063 36.6056 52.1922 36.6024 50.1609L36.5865 40.2942C36.5832 38.2628 37.5973 37.2455 39.6287 37.2422L94.4759 37.154C96.5072 37.1507 97.5246 38.1648 97.5278 40.1962L97.5437 50.0629C97.547 52.0942 96.5329 53.1115 94.5015 53.1148L77.9603 53.1414C76.7995 53.1433 76.22 53.6762 76.2217 54.7403L76.3386 127.435C76.3419 129.466 75.3278 130.483 73.2965 130.487ZM131.388 130.393L119.055 130.413C117.023 130.416 116.006 129.402 116.003 127.371L115.862 40.1667C115.859 38.1353 116.873 37.118 118.905 37.1147L153.438 37.0592C160.983 37.047 166.887 39.1173 171.15 43.2699C175.413 47.4226 177.55 53.2714 177.563 60.8166L177.581 72.1342C177.598 83.065 173.305 90.3268 164.702 93.9198L164.703 94.5002L180.281 126.832C181.155 129.152 180.334 130.314 177.819 130.318L166.066 130.337C164.325 130.34 163.067 130.149 162.293 129.763C161.518 129.377 160.888 128.556 160.403 127.299L145.842 95.9815L136.121 95.9971C134.96 95.999 134.381 96.5319 134.382 97.596L134.43 127.341C134.433 129.373 133.419 130.39 131.388 130.393ZM135.952 81.1973L150.172 81.1744C153.267 81.1695 155.539 80.5371 156.988 79.2772C158.437 77.9206 159.159 75.7913 159.154 72.8894L159.136 61.5717C159.131 58.573 158.402 56.3977 156.949 55.0458C155.496 53.6938 153.222 53.0204 150.126 53.0254L135.907 53.0482C134.843 53.0499 134.311 53.5828 134.313 54.6469L134.353 79.6038C134.355 80.6679 134.888 81.199 135.952 81.1973ZM236.856 130.224L224.523 130.243C222.492 130.247 221.474 129.233 221.471 127.201L221.421 96.1501L194.778 40.1849C194.39 39.3149 194.388 38.5894 194.774 38.0084C195.257 37.3305 195.934 36.9908 196.804 36.9894L212.185 36.9647C213.732 36.9622 214.895 37.976 215.672 40.0062L230.238 75.2417L231.254 75.2401L245.417 39.9583C246.091 37.9258 247.25 36.9083 248.895 36.9057L264.275 36.8809C265.242 36.8794 265.92 37.1685 266.308 37.7482C266.792 38.3278 266.794 39.1017 266.311 40.0698L239.849 96.1205L239.899 127.172C239.902 129.203 238.888 130.22 236.856 130.224ZM304.825 114.734L321.076 114.708C324.268 114.702 326.54 114.07 327.893 112.81C329.341 111.454 330.063 109.276 330.059 106.277L330.045 97.8617C330.04 94.863 329.311 92.7361 327.858 91.4809C326.405 90.2257 324.034 89.6008 320.745 89.606L304.785 89.6317C303.721 89.6334 303.189 90.1663 303.191 91.2304L303.226 113.14C303.228 114.204 303.761 114.735 304.825 114.734ZM304.761 74.6866L319.561 74.6628C322.656 74.6578 324.928 74.0254 326.377 72.7655C327.826 71.4089 328.548 69.2313 328.543 66.2326L328.534 60.5738C328.529 57.5751 327.8 55.4481 326.347 54.1929C324.991 52.8409 322.765 52.1673 319.669 52.1723L304.724 52.1963C303.66 52.198 303.129 52.7309 303.131 53.795L303.162 73.0931C303.164 74.1571 303.696 74.6883 304.761 74.6866ZM284.821 127.099L284.681 39.8952C284.678 37.8638 285.692 36.8465 287.723 36.8432L322.547 36.7872C330.189 36.7749 336.092 38.7968 340.259 42.8529C344.425 46.9089 346.514 52.7095 346.526 60.2546L346.535 66.2037C346.549 74.4259 342.736 79.7523 335.098 82.1829C338.968 82.7571 342.066 84.3482 344.392 86.9562C346.718 89.4675 347.884 93.0931 347.892 97.833L347.906 106.539C347.918 114.084 345.848 119.891 341.695 123.961C337.542 128.03 331.693 130.071 324.148 130.083L287.873 130.141C285.842 130.145 284.824 129.131 284.821 127.099ZM406.808 129.95L394.475 129.97C392.444 129.973 391.426 128.959 391.423 126.928L391.373 95.8768L364.73 39.9115C364.342 39.0416 364.341 38.3161 364.727 37.735C365.209 37.0571 365.886 36.7175 366.756 36.7161L382.137 36.6914C383.685 36.6889 384.847 37.7027 385.624 39.7328L400.191 74.9684L401.206 74.9668L415.369 39.685C416.043 37.6525 417.202 36.635 418.847 36.6323L434.227 36.6076C435.194 36.606 435.872 36.8951 436.26 37.4749C436.744 38.0545 436.746 38.8284 436.264 39.7965L409.801 95.8472L409.851 126.898C409.854 128.93 408.84 129.947 406.808 129.95Z" fill="url(#paint0_linear_280_4380)"/>
<path d="M73.2918 127.614L61.1036 127.634L61.1128 133.379L73.3011 133.359L73.2918 127.614ZM61.1036 127.634C60.7911 127.634 60.631 127.596 60.5778 127.579C60.537 127.567 60.6016 127.581 60.6928 127.667C60.7348 127.707 60.7683 127.75 60.7924 127.788C60.8159 127.825 60.8237 127.848 60.823 127.846C60.8198 127.836 60.7839 127.725 60.7835 127.46L55.0388 127.469C55.0412 128.962 55.4417 130.601 56.7329 131.829C57.9991 133.034 59.6385 133.381 61.1128 133.379L61.1036 127.634ZM60.7835 127.46L60.6666 54.7653L54.9219 54.7746L55.0388 127.469L60.7835 127.46ZM60.6666 54.7653C60.665 53.7905 60.4173 52.5323 59.4211 51.5392C58.4248 50.5461 57.1657 50.3025 56.1909 50.3041L56.2002 56.0488C56.2894 56.0486 55.8289 56.0697 55.3655 55.6078C54.9021 55.1459 54.9217 54.6853 54.9219 54.7746L60.6666 54.7653ZM56.1909 50.3041L39.6497 50.3307L39.659 56.0754L56.2002 56.0488L56.1909 50.3041ZM39.6497 50.3307C39.3727 50.3311 39.2471 50.2957 39.2249 50.2883C39.2166 50.2856 39.2352 50.2909 39.2707 50.3121C39.3072 50.3339 39.3514 50.3665 39.3956 50.4106C39.4398 50.4547 39.4726 50.4988 39.4945 50.5352C39.5158 50.5706 39.5212 50.5892 39.5185 50.5809C39.511 50.5587 39.4752 50.4333 39.4747 50.1562L33.73 50.1655C33.7324 51.6239 34.1015 53.2448 35.34 54.4793C36.5785 55.7138 38.2005 56.0777 39.659 56.0754L39.6497 50.3307ZM39.4747 50.1562L39.4589 40.2896L33.7142 40.2988L33.73 50.1655L39.4747 50.1562ZM39.4589 40.2896C39.4584 40.0125 39.4938 39.887 39.5012 39.8647C39.504 39.8565 39.4986 39.8751 39.4774 39.9105C39.4556 39.947 39.423 39.9912 39.3789 40.0354C39.3348 40.0797 39.2908 40.1124 39.2543 40.1343C39.2189 40.1557 39.2003 40.1611 39.2086 40.1583C39.2308 40.1508 39.3562 40.115 39.6333 40.1146L39.6241 34.3699C38.1656 34.3722 36.5448 34.7414 35.3103 35.9799C34.0758 37.2183 33.7118 38.8403 33.7142 40.2988L39.4589 40.2896ZM39.6333 40.1146L94.4805 40.0264L94.4712 34.2816L39.6241 34.3699L39.6333 40.1146ZM94.4805 40.0264C94.7575 40.0259 94.8831 40.0613 94.9053 40.0687C94.9136 40.0715 94.895 40.0661 94.8595 40.0449C94.823 40.0231 94.7788 39.9905 94.7346 39.9464C94.6904 39.9023 94.6576 39.8582 94.6357 39.8218C94.6144 39.7864 94.609 39.7678 94.6118 39.7761C94.6192 39.7983 94.655 39.9237 94.6555 40.2008L100.4 40.1915C100.398 38.7331 100.029 37.1123 98.7902 35.8778C97.5517 34.6433 95.9297 34.2793 94.4712 34.2816L94.4805 40.0264ZM94.6555 40.2008L94.6713 50.0675L100.416 50.0582L100.4 40.1915L94.6555 40.2008ZM94.6713 50.0675C94.6718 50.3445 94.6364 50.4701 94.629 50.4923C94.6263 50.5006 94.6316 50.482 94.6528 50.4465C94.6746 50.41 94.7072 50.3658 94.7513 50.3216C94.7954 50.2774 94.8395 50.2446 94.8759 50.2227C94.9113 50.2014 94.9299 50.196 94.9216 50.1987C94.8994 50.2062 94.774 50.242 94.4969 50.2425L94.5062 55.9872C95.9646 55.9848 97.5854 55.6157 98.8199 54.3772C100.054 53.1387 100.418 51.5167 100.416 50.0582L94.6713 50.0675ZM94.4969 50.2425L77.9557 50.2691L77.9649 56.0138L94.5062 55.9872L94.4969 50.2425ZM77.9557 50.2691C76.9915 50.2706 75.7329 50.4883 74.7107 51.4283C73.6414 52.4117 73.3477 53.7027 73.3494 54.7449L79.0941 54.7357C79.094 54.7138 79.0892 55.2063 78.5994 55.6568C78.1568 56.0638 77.7684 56.0141 77.9649 56.0138L77.9557 50.2691ZM73.3494 54.7449L73.4663 127.439L79.211 127.43L79.0941 54.7357L73.3494 54.7449ZM73.4663 127.439C73.4667 127.716 73.4313 127.842 73.4239 127.864C73.4212 127.872 73.4265 127.854 73.4477 127.818C73.4695 127.782 73.5021 127.738 73.5462 127.693C73.5903 127.649 73.6344 127.616 73.6708 127.594C73.7062 127.573 73.7248 127.568 73.7165 127.57C73.6943 127.578 73.5689 127.614 73.2918 127.614L73.3011 133.359C74.7595 133.357 76.3803 132.987 77.6149 131.749C78.8494 130.51 79.2133 128.888 79.211 127.43L73.4663 127.439ZM171.15 43.2699L169.146 45.3274L171.15 43.2699ZM164.702 93.9198L163.595 91.2693L161.827 92.0078L161.83 93.9244L164.702 93.9198ZM164.703 94.5002L161.831 94.5048L161.832 95.1582L162.115 95.7469L164.703 94.5002ZM180.281 126.832L182.968 125.819L182.923 125.7L182.868 125.585L180.281 126.832ZM162.293 129.763L161.013 132.334L161.013 132.334L162.293 129.763ZM160.403 127.299L163.082 126.264L163.048 126.175L163.007 126.088L160.403 127.299ZM145.842 95.9815L148.447 94.7705L147.673 93.1062L145.838 93.1091L145.842 95.9815ZM156.988 79.2772L158.873 81.4448L158.913 81.4101L158.951 81.3739L156.988 79.2772ZM156.949 55.0458L158.906 52.9428L158.906 52.9428L156.949 55.0458ZM131.383 127.521L119.05 127.541L119.059 133.285L131.393 133.265L131.383 127.521ZM119.05 127.541C118.773 127.541 118.647 127.506 118.625 127.498C118.617 127.496 118.635 127.501 118.671 127.522C118.707 127.544 118.752 127.576 118.796 127.621C118.84 127.665 118.873 127.709 118.895 127.745C118.916 127.781 118.921 127.799 118.919 127.791C118.911 127.769 118.875 127.643 118.875 127.366L113.13 127.375C113.133 128.834 113.502 130.455 114.74 131.689C115.979 132.924 117.601 133.288 119.059 133.285L119.05 127.541ZM118.875 127.366L118.735 40.1621L112.99 40.1713L113.13 127.375L118.875 127.366ZM118.735 40.1621C118.734 39.885 118.77 39.7595 118.777 39.7372C118.78 39.729 118.774 39.7476 118.753 39.783C118.731 39.8195 118.699 39.8637 118.655 39.908C118.611 39.9522 118.567 39.9849 118.53 40.0068C118.495 40.0282 118.476 40.0336 118.484 40.0308C118.507 40.0233 118.632 39.9875 118.909 39.9871L118.9 34.2424C117.441 34.2447 115.821 34.6139 114.586 35.8524C113.352 37.0908 112.988 38.7128 112.99 40.1713L118.735 40.1621ZM118.909 39.9871L153.443 39.9315L153.433 34.1868L118.9 34.2424L118.909 39.9871ZM153.443 39.9315C160.448 39.9203 165.554 41.8289 169.146 45.3274L173.154 41.2124C168.22 36.4057 161.518 34.1738 153.433 34.1868L153.443 39.9315ZM169.146 45.3274C172.716 48.805 174.679 53.8308 174.69 60.8212L180.435 60.8119C180.422 52.7121 178.11 46.0401 173.154 41.2124L169.146 45.3274ZM174.69 60.8212L174.708 72.1389L180.453 72.1296L180.435 60.8119L174.69 60.8212ZM174.708 72.1389C174.717 77.2377 173.719 81.243 171.902 84.317C170.104 87.3585 167.389 89.685 163.595 91.2693L165.809 96.5703C170.619 94.5616 174.352 91.4607 176.847 87.2404C179.323 83.0525 180.462 77.9615 180.453 72.1296L174.708 72.1389ZM161.83 93.9244L161.831 94.5048L167.575 94.4955L167.574 93.9151L161.83 93.9244ZM162.115 95.7469L177.693 128.079L182.868 125.585L167.291 93.2534L162.115 95.7469ZM177.593 127.845C177.663 128.031 177.703 128.171 177.725 128.27C177.747 128.37 177.747 128.41 177.746 128.4C177.746 128.388 177.746 128.313 177.778 128.197C177.812 128.075 177.873 127.93 177.974 127.787C178.075 127.645 178.188 127.542 178.284 127.474C178.377 127.409 178.439 127.387 178.44 127.387C178.44 127.387 178.393 127.403 178.284 127.418C178.175 127.433 178.021 127.446 177.815 127.446L177.824 133.191C179.316 133.188 181.416 132.874 182.668 131.1C183.935 129.305 183.495 127.216 182.968 125.819L177.593 127.845ZM177.815 127.446L166.062 127.465L166.071 133.21L177.824 133.191L177.815 127.446ZM166.062 127.465C164.403 127.468 163.717 127.263 163.573 127.192L161.013 132.334C162.418 133.034 164.247 133.213 166.071 133.21L166.062 127.465ZM163.573 127.192C163.647 127.228 163.619 127.241 163.518 127.109C163.412 126.97 163.254 126.709 163.082 126.264L157.723 128.335C158.329 129.902 159.321 131.492 161.013 132.334L163.573 127.192ZM163.007 126.088L148.447 94.7705L143.238 97.1924L157.798 128.51L163.007 126.088ZM145.838 93.1091L136.116 93.1248L136.126 98.8695L145.847 98.8538L145.838 93.1091ZM136.116 93.1248C135.152 93.1263 133.893 93.344 132.871 94.284C131.802 95.2674 131.508 96.5584 131.51 97.6006L137.255 97.5914C137.255 97.5695 137.25 98.062 136.76 98.5125C136.317 98.9195 135.929 98.8698 136.126 98.8695L136.116 93.1248ZM131.51 97.6006L131.558 127.346L137.302 127.337L137.255 97.5914L131.51 97.6006ZM131.558 127.346C131.558 127.623 131.523 127.748 131.515 127.771C131.513 127.779 131.518 127.76 131.539 127.725C131.561 127.688 131.594 127.644 131.638 127.6C131.682 127.556 131.726 127.523 131.762 127.501C131.798 127.48 131.816 127.474 131.808 127.477C131.786 127.485 131.66 127.52 131.383 127.521L131.393 133.265C132.851 133.263 134.472 132.894 135.706 131.655C136.941 130.417 137.305 128.795 137.302 127.337L131.558 127.346ZM135.957 84.0697L150.176 84.0468L150.167 78.3021L135.947 78.325L135.957 84.0697ZM150.176 84.0468C153.565 84.0414 156.665 83.3643 158.873 81.4448L155.104 77.1096C154.413 77.7098 152.969 78.2976 150.167 78.3021L150.176 84.0468ZM158.951 81.3739C161.206 79.2629 162.032 76.2116 162.027 72.8848L156.282 72.894C156.286 75.371 155.668 76.5784 155.025 77.1805L158.951 81.3739ZM162.027 72.8848L162.009 61.5671L156.264 61.5763L156.282 72.894L162.027 72.8848ZM162.009 61.5671C162.003 58.1773 161.184 55.0621 158.906 52.9428L154.993 57.1488C155.621 57.7333 156.26 58.9687 156.264 61.5763L162.009 61.5671ZM158.906 52.9428C156.689 50.8808 153.553 50.1475 150.122 50.153L150.131 55.8977C152.891 55.8933 154.303 56.5069 154.993 57.1488L158.906 52.9428ZM150.122 50.153L135.902 50.1759L135.911 55.9206L150.131 55.8977L150.122 50.153ZM135.902 50.1759C134.927 50.1774 133.669 50.4251 132.676 51.4214C131.683 52.4177 131.439 53.6767 131.441 54.6515L137.186 54.6423C137.185 54.553 137.207 55.0136 136.745 55.477C136.283 55.9404 135.822 55.9207 135.911 55.9206L135.902 50.1759ZM131.441 54.6515L131.481 79.6084L137.226 79.5992L137.186 54.6423L131.441 54.6515ZM131.481 79.6084C131.483 80.5832 131.73 81.8415 132.726 82.8346C133.723 83.8276 134.982 84.0712 135.957 84.0697L135.947 78.325C135.858 78.3251 136.319 78.304 136.782 78.7659C137.245 79.2278 137.226 79.6884 137.226 79.5992L131.481 79.6084ZM221.421 96.1501L224.293 96.1455L224.292 95.4991L224.015 94.9155L221.421 96.1501ZM194.778 40.1849L192.155 41.3556L192.169 41.3878L192.185 41.4195L194.778 40.1849ZM194.774 38.0084L192.434 36.3426L192.408 36.3803L192.382 36.4189L194.774 38.0084ZM215.672 40.0062L212.989 41.033L213.003 41.0685L213.017 41.1035L215.672 40.0062ZM230.238 75.2417L227.584 76.3391L228.319 78.1172L230.243 78.1141L230.238 75.2417ZM231.254 75.2401L231.259 78.1124L233.198 78.1093L233.92 76.3101L231.254 75.2401ZM245.417 39.9583L248.083 41.0283L248.116 40.9462L248.144 40.8623L245.417 39.9583ZM266.308 37.7482L263.92 39.3454L264.006 39.4729L264.104 39.5906L266.308 37.7482ZM266.311 40.0698L263.74 38.7894L263.727 38.8163L263.714 38.8435L266.311 40.0698ZM239.849 96.1205L237.251 94.8942L236.975 95.4787L236.976 96.1251L239.849 96.1205ZM236.852 127.351L224.518 127.371L224.528 133.116L236.861 133.096L236.852 127.351ZM224.518 127.371C224.241 127.371 224.116 127.336 224.094 127.329C224.085 127.326 224.104 127.331 224.139 127.352C224.176 127.374 224.22 127.407 224.264 127.451C224.308 127.495 224.341 127.539 224.363 127.576C224.384 127.611 224.39 127.63 224.387 127.621C224.38 127.599 224.344 127.474 224.343 127.197L218.599 127.206C218.601 128.664 218.97 130.285 220.209 131.52C221.447 132.754 223.069 133.118 224.528 133.116L224.518 127.371ZM224.343 127.197L224.293 96.1455L218.549 96.1547L218.599 127.206L224.343 127.197ZM224.015 94.9155L197.371 38.9502L192.185 41.4195L218.828 97.3848L224.015 94.9155ZM197.401 39.0141C197.322 38.8364 197.358 38.8397 197.358 38.9836C197.358 39.0605 197.348 39.1643 197.313 39.2828C197.278 39.4022 197.226 39.5093 197.167 39.5978L192.382 36.4189C191.262 38.1047 191.528 39.9515 192.155 41.3556L197.401 39.0141ZM197.115 39.6741C197.116 39.6715 197.102 39.6916 197.068 39.722C197.032 39.7532 196.986 39.7854 196.933 39.8123C196.816 39.8706 196.752 39.8619 196.809 39.8618L196.8 34.1171C195.052 34.1199 193.484 34.8687 192.434 36.3426L197.115 39.6741ZM196.809 39.8618L212.189 39.837L212.18 34.0923L196.8 34.1171L196.809 39.8618ZM212.189 39.837C212.225 39.837 212.247 39.8398 212.256 39.8416C212.262 39.8424 212.265 39.8432 212.266 39.8437C212.268 39.8441 212.269 39.8444 212.269 39.8445C212.269 39.8446 212.27 39.8448 212.271 39.8454C212.272 39.846 212.275 39.8473 212.279 39.8498C212.287 39.8544 212.304 39.8655 212.329 39.8879C212.442 39.9859 212.704 40.2875 212.989 41.033L218.354 38.9793C217.863 37.6947 217.155 36.4743 216.105 35.5585C214.998 34.5925 213.647 34.09 212.18 34.0923L212.189 39.837ZM213.017 41.1035L227.584 76.3391L232.893 74.1444L218.326 38.9088L213.017 41.1035ZM230.243 78.1141L231.259 78.1124L231.25 72.3677L230.234 72.3694L230.243 78.1141ZM233.92 76.3101L248.083 41.0283L242.751 38.8883L228.589 74.1701L233.92 76.3101ZM248.144 40.8623C248.379 40.1511 248.612 39.8953 248.687 39.8294C248.718 39.8022 248.731 39.7986 248.734 39.7971C248.741 39.7947 248.787 39.7782 248.899 39.778L248.89 34.0333C247.422 34.0357 246.036 34.5125 244.897 35.5122C243.813 36.4639 243.129 37.733 242.691 39.0544L248.144 40.8623ZM248.899 39.778L264.28 39.7533L264.27 34.0086L248.89 34.0333L248.899 39.778ZM264.28 39.7533C264.49 39.7529 264.494 39.7863 264.381 39.7385C264.321 39.7126 264.237 39.6673 264.147 39.5939C264.056 39.5198 263.979 39.4337 263.92 39.3454L268.695 36.1511C267.581 34.4864 265.792 34.0061 264.27 34.0086L264.28 39.7533ZM264.104 39.5906C264.02 39.4898 263.936 39.3543 263.877 39.1898C263.818 39.0263 263.8 38.8785 263.8 38.768C263.799 38.5678 263.857 38.5553 263.74 38.7894L268.883 41.3502C269.618 39.8746 270.036 37.7299 268.511 35.9058L264.104 39.5906ZM263.714 38.8435L237.251 94.8942L242.446 97.3468L268.909 41.2961L263.714 38.8435ZM236.976 96.1251L237.026 127.176L242.771 127.167L242.721 96.1159L236.976 96.1251ZM237.026 127.176C237.027 127.453 236.991 127.579 236.984 127.601C236.981 127.609 236.986 127.591 237.008 127.555C237.029 127.519 237.062 127.475 237.106 127.43C237.15 127.386 237.194 127.353 237.231 127.331C237.266 127.31 237.285 127.305 237.276 127.307C237.254 127.315 237.129 127.351 236.852 127.351L236.861 133.096C238.319 133.094 239.94 132.724 241.175 131.486C242.409 130.247 242.773 128.625 242.771 127.167L237.026 127.176ZM327.893 112.81L329.85 114.912L329.856 114.907L327.893 112.81ZM327.858 91.4809L325.981 93.6545L325.981 93.6545L327.858 91.4809ZM326.377 72.7655L328.262 74.9331L328.302 74.8984L328.34 74.8622L326.377 72.7655ZM326.347 54.1929L324.319 56.2273L324.392 56.2996L324.47 56.3666L326.347 54.1929ZM340.259 42.8529L338.255 44.9109L340.259 42.8529ZM335.098 82.1829L334.227 79.4458L334.677 85.0242L335.098 82.1829ZM344.392 86.9562L342.248 88.868L342.266 88.8881L342.285 88.9079L344.392 86.9562ZM341.695 123.961L339.685 121.909L341.695 123.961ZM304.83 117.606L321.081 117.58L321.071 111.835L304.82 111.861L304.83 117.606ZM321.081 117.58C324.512 117.574 327.696 116.919 329.85 114.912L325.935 110.709C325.385 111.221 324.024 111.83 321.071 111.835L321.081 117.58ZM329.856 114.907C332.127 112.78 332.936 109.663 332.931 106.273L327.186 106.282C327.19 108.89 326.556 110.127 325.929 110.714L329.856 114.907ZM332.931 106.273L332.917 97.8571L327.173 97.8663L327.186 106.282L332.931 106.273ZM332.917 97.8571C332.912 94.4907 332.102 91.3512 329.736 89.3073L325.981 93.6545C326.52 94.1209 327.168 95.2353 327.173 97.8663L332.917 97.8571ZM329.736 89.3073C327.498 87.3738 324.27 86.728 320.741 86.7337L320.75 92.4784C323.799 92.4735 325.313 93.0776 325.981 93.6545L329.736 89.3073ZM320.741 86.7337L304.78 86.7594L304.789 92.5041L320.75 92.4784L320.741 86.7337ZM304.78 86.7594C303.805 86.7609 302.547 87.0086 301.554 88.0049C300.561 89.0011 300.317 90.2602 300.319 91.235L306.063 91.2257C306.063 91.1365 306.084 91.5971 305.622 92.0605C305.161 92.5238 304.7 92.5042 304.789 92.5041L304.78 86.7594ZM300.319 91.235L300.354 113.145L306.099 113.136L306.063 91.2257L300.319 91.235ZM300.354 113.145C300.355 114.12 300.603 115.378 301.599 116.371C302.596 117.364 303.855 117.608 304.83 117.606L304.82 111.861C304.731 111.862 305.192 111.84 305.655 112.302C306.118 112.764 306.099 113.225 306.099 113.136L300.354 113.145ZM304.765 77.5589L319.565 77.5351L319.556 71.7904L304.756 71.8142L304.765 77.5589ZM319.565 77.5351C322.954 77.5297 326.054 76.8527 328.262 74.9331L324.492 70.5979C323.802 71.1981 322.358 71.7859 319.556 71.7904L319.565 77.5351ZM328.34 74.8622C330.612 72.7356 331.421 69.6178 331.415 66.228L325.671 66.2372C325.675 68.8448 325.04 70.0823 324.414 70.6688L328.34 74.8622ZM331.415 66.228L331.406 60.5691L325.662 60.5784L325.671 66.2372L331.415 66.228ZM331.406 60.5691C331.401 57.2028 330.591 54.0633 328.225 52.0193L324.47 56.3666C325.009 56.833 325.657 57.9473 325.662 60.5784L331.406 60.5691ZM328.375 52.1586C326.228 50.0179 323.072 49.2945 319.665 49.2999L319.674 55.0446C322.458 55.0402 323.754 55.6638 324.319 56.2273L328.375 52.1586ZM319.665 49.2999L304.72 49.324L304.729 55.0687L319.674 55.0446L319.665 49.2999ZM304.72 49.324C303.745 49.3255 302.487 49.5732 301.494 50.5695C300.501 51.5657 300.257 52.8248 300.258 53.7996L306.003 53.7904C306.003 53.7011 306.024 54.1617 305.562 54.6251C305.1 55.0885 304.64 55.0688 304.729 55.0687L304.72 49.324ZM300.258 53.7996L300.29 73.0977L306.034 73.0884L306.003 53.7904L300.258 53.7996ZM300.29 73.0977C300.291 74.0725 300.539 75.3307 301.535 76.3238C302.531 77.3169 303.79 77.5605 304.765 77.5589L304.756 71.8142C304.667 71.8144 305.127 71.7933 305.591 72.2551C306.054 72.717 306.034 73.1777 306.034 73.0884L300.29 73.0977ZM287.694 127.095L287.553 39.8905L281.809 39.8998L281.949 127.104L287.694 127.095ZM287.553 39.8905C287.553 39.6135 287.588 39.488 287.596 39.4657C287.598 39.4575 287.593 39.4761 287.572 39.5115C287.55 39.548 287.517 39.5922 287.473 39.6364C287.429 39.6807 287.385 39.7134 287.349 39.7353C287.313 39.7566 287.295 39.762 287.303 39.7593C287.325 39.7518 287.451 39.716 287.728 39.7156L287.718 33.9708C286.26 33.9732 284.639 34.3424 283.405 35.5808C282.17 36.8193 281.806 38.4413 281.809 39.8998L287.553 39.8905ZM287.728 39.7156L322.551 39.6596L322.542 33.9148L287.718 33.9708L287.728 39.7156ZM322.551 39.6596C329.687 39.6481 334.779 41.5266 338.255 44.9109L342.262 40.7948C337.406 36.067 330.69 33.9017 322.542 33.9148L322.551 39.6596ZM338.255 44.9109C341.715 48.2797 343.642 53.2466 343.653 60.2592L349.398 60.25C349.385 52.1724 347.134 45.5382 342.262 40.7948L338.255 44.9109ZM343.653 60.2592L343.663 66.2083L349.408 66.199L349.398 60.25L343.653 60.2592ZM343.663 66.2083C343.669 69.873 342.826 72.6314 341.35 74.6934C339.879 76.7487 337.591 78.3754 334.227 79.4458L335.969 84.92C340.244 83.5598 343.68 81.308 346.022 78.0369C348.358 74.7725 349.415 70.7566 349.408 66.199L343.663 66.2083ZM334.677 85.0242C337.966 85.5122 340.424 86.8222 342.248 88.868L346.536 85.0445C343.709 81.8741 339.97 80.0019 335.52 79.3417L334.677 85.0242ZM342.285 88.9079C343.958 90.7147 345.013 93.54 345.02 97.8376L350.764 97.8284C350.756 92.6462 349.478 88.2203 346.5 85.0046L342.285 88.9079ZM345.02 97.8376L345.034 106.544L350.778 106.534L350.764 97.8284L345.02 97.8376ZM345.034 106.544C345.045 113.556 343.134 118.529 339.685 121.909L343.705 126.012C348.562 121.253 350.791 114.612 350.778 106.534L345.034 106.544ZM339.685 121.909C336.213 125.311 331.17 127.199 324.143 127.211L324.152 132.955C332.216 132.943 338.871 130.749 343.705 126.012L339.685 121.909ZM324.143 127.211L287.869 127.269L287.878 133.014L324.152 132.955L324.143 127.211ZM287.869 127.269C287.591 127.27 287.466 127.234 287.444 127.227C287.435 127.224 287.454 127.229 287.49 127.251C287.526 127.272 287.57 127.305 287.614 127.349C287.659 127.393 287.691 127.437 287.713 127.474C287.735 127.509 287.74 127.528 287.737 127.519C287.73 127.497 287.694 127.372 287.694 127.095L281.949 127.104C281.951 128.562 282.32 130.183 283.559 131.418C284.797 132.652 286.419 133.016 287.878 133.014L287.869 127.269ZM391.373 95.8768L394.246 95.8722L394.245 95.2258L393.967 94.6421L391.373 95.8768ZM364.73 39.9115L362.107 41.0823L362.122 41.1144L362.137 41.1462L364.73 39.9115ZM364.727 37.735L362.387 36.0693L362.36 36.107L362.334 36.1456L364.727 37.735ZM385.624 39.7328L382.942 40.7597L382.955 40.7951L382.97 40.8302L385.624 39.7328ZM400.191 74.9684L397.536 76.0658L398.271 77.8438L400.195 77.8407L400.191 74.9684ZM401.206 74.9668L401.211 77.8391L403.15 77.836L403.872 76.0368L401.206 74.9668ZM415.369 39.685L418.035 40.755L418.068 40.6729L418.096 40.5889L415.369 39.685ZM436.26 37.4749L433.873 39.072L433.958 39.1996L434.056 39.3173L436.26 37.4749ZM436.264 39.7965L433.692 38.516L433.679 38.543L433.666 38.5702L436.264 39.7965ZM409.801 95.8472L407.203 94.6208L406.927 95.2054L406.928 95.8518L409.801 95.8472ZM406.804 127.078L394.47 127.098L394.48 132.842L406.813 132.823L406.804 127.078ZM394.47 127.098C394.193 127.098 394.068 127.063 394.046 127.055C394.037 127.053 394.056 127.058 394.091 127.079C394.128 127.101 394.172 127.134 394.216 127.178C394.261 127.222 394.293 127.266 394.315 127.302C394.337 127.338 394.342 127.356 394.339 127.348C394.332 127.326 394.296 127.2 394.296 126.923L388.551 126.932C388.553 128.391 388.922 130.012 390.161 131.246C391.399 132.481 393.021 132.845 394.48 132.842L394.47 127.098ZM394.296 126.923L394.246 95.8722L388.501 95.8814L388.551 126.932L394.296 126.923ZM393.967 94.6421L367.324 38.6769L362.137 41.1462L388.78 97.1115L393.967 94.6421ZM367.353 38.7407C367.274 38.5631 367.31 38.5663 367.31 38.7103C367.31 38.7872 367.3 38.891 367.265 39.0095C367.23 39.1289 367.178 39.236 367.119 39.3245L362.334 36.1456C361.214 37.8313 361.48 39.6781 362.107 41.0823L367.353 38.7407ZM367.067 39.4008C367.069 39.3981 367.054 39.4183 367.02 39.4487C366.984 39.4798 366.938 39.512 366.885 39.5389C366.769 39.5972 366.705 39.5885 366.761 39.5885L366.752 33.8437C365.004 33.8465 363.436 34.5953 362.387 36.0693L367.067 39.4008ZM366.761 39.5885L382.141 39.5637L382.132 33.819L366.752 33.8437L366.761 39.5885ZM382.141 39.5637C382.177 39.5637 382.199 39.5665 382.209 39.5682C382.214 39.5691 382.217 39.5699 382.218 39.5703C382.22 39.5708 382.221 39.571 382.221 39.5711C382.221 39.5713 382.222 39.5715 382.223 39.5721C382.225 39.5727 382.227 39.574 382.231 39.5765C382.239 39.5811 382.256 39.5922 382.281 39.6146C382.394 39.7125 382.656 40.0142 382.942 40.7597L388.307 38.706C387.815 37.4214 387.107 36.201 386.057 35.2851C384.95 34.3192 383.599 33.8166 382.132 33.819L382.141 39.5637ZM382.97 40.8302L397.536 76.0658L402.845 73.871L388.279 38.6354L382.97 40.8302ZM400.195 77.8407L401.211 77.8391L401.202 72.0944L400.186 72.096L400.195 77.8407ZM403.872 76.0368L418.035 40.755L412.704 38.6149L398.541 73.8967L403.872 76.0368ZM418.096 40.5889C418.331 39.8778 418.564 39.6219 418.639 39.5561C418.67 39.5289 418.683 39.5252 418.687 39.5238C418.693 39.5214 418.74 39.5049 418.851 39.5047L418.842 33.76C417.374 33.7623 415.988 34.2391 414.849 35.2388C413.765 36.1906 413.081 37.4597 412.643 38.781L418.096 40.5889ZM418.851 39.5047L434.232 39.4799L434.223 33.7352L418.842 33.76L418.851 39.5047ZM434.232 39.4799C434.442 39.4796 434.446 39.513 434.334 39.4652C434.273 39.4393 434.189 39.3939 434.099 39.3206C434.008 39.2464 433.932 39.1604 433.873 39.072L438.647 35.8778C437.534 34.2131 435.745 33.7328 434.223 33.7352L434.232 39.4799ZM434.056 39.3173C433.972 39.2165 433.888 39.081 433.829 38.9165C433.771 38.7529 433.752 38.6052 433.752 38.4946C433.752 38.2945 433.809 38.282 433.692 38.516L438.835 41.0769C439.57 39.6013 439.989 37.4566 438.464 35.6325L434.056 39.3173ZM433.666 38.5702L407.203 94.6208L412.398 97.0735L438.861 41.0228L433.666 38.5702ZM406.928 95.8518L406.978 126.903L412.723 126.894L412.673 95.8425L406.928 95.8518ZM406.978 126.903C406.979 127.18 406.943 127.305 406.936 127.328C406.933 127.336 406.939 127.317 406.96 127.282C406.982 127.245 407.014 127.201 407.058 127.157C407.102 127.113 407.146 127.08 407.183 127.058C407.218 127.037 407.237 127.031 407.229 127.034C407.206 127.042 407.081 127.077 406.804 127.078L406.813 132.823C408.272 132.82 409.892 132.451 411.127 131.213C412.361 129.974 412.725 128.352 412.723 126.894L406.978 126.903Z" fill="url(#paint1_linear_280_4380)"/>
</g>
<defs>
<filter id="filter0_dddi_280_4380" x="0.677174" y="0.698536" width="472.361" height="165.751" filterUnits="userSpaceOnUse" color-interpolation-filters="sRGB">
<feFlood flood-opacity="0" result="BackgroundImageFix"/>
<feColorMatrix in="SourceAlpha" type="matrix" values="0 0 0 0 0 0 0 0 0 0 0 0 0 0 0 0 0 0 127 0" result="hardAlpha"/>
<feOffset/>
<feGaussianBlur stdDeviation="17.9522"/>
<feComposite in2="hardAlpha" operator="out"/>
<feColorMatrix type="matrix" values="0 0 0 0 0 0 0 0 0 0 0 0 0 0 0 0 0 0 1 0"/>
<feBlend mode="normal" in2="BackgroundImageFix" result="effect1_dropShadow_280_4380"/>
<feColorMatrix in="SourceAlpha" type="matrix" values="0 0 0 0 0 0 0 0 0 0 0 0 0 0 0 0 0 0 127 0" result="hardAlpha"/>
<feOffset/>
<feGaussianBlur stdDeviation="4.45874"/>
<feComposite in2="hardAlpha" operator="out"/>
<feColorMatrix type="matrix" values="0 0 0 0 0.14 0 0 0 0 0 0 0 0 0 1 0 0 0 1 0"/>
<feBlend mode="normal" in2="effect1_dropShadow_280_4380" result="effect2_dropShadow_280_4380"/>
<feColorMatrix in="SourceAlpha" type="matrix" values="0 0 0 0 0 0 0 0 0 0 0 0 0 0 0 0 0 0 127 0" result="hardAlpha"/>
<feOffset/>
<feGaussianBlur stdDeviation="3.59045"/>
<feComposite in2="hardAlpha" operator="out"/>
<feColorMatrix type="matrix" values="0 0 0 0 0 0 0 0 0 0 0 0 0 0 0 0 0 0 1 0"/>
<feBlend mode="normal" in2="effect2_dropShadow_280_4380" result="effect3_dropShadow_280_4380"/>
<feBlend mode="normal" in="SourceGraphic" in2="effect3_dropShadow_280_4380" result="shape"/>
<feColorMatrix in="SourceAlpha" type="matrix" values="0 0 0 0 0 0 0 0 0 0 0 0 0 0 0 0 0 0 127 0" result="hardAlpha"/>
<feOffset dy="2.87236"/>
<feGaussianBlur stdDeviation="3.59045"/>
<feComposite in2="hardAlpha" operator="arithmetic" k2="-1" k3="1"/>
<feColorMatrix type="matrix" values="0 0 0 0 1 0 0 0 0 0.822083 0 0 0 0 0.745833 0 0 0 0.43 0"/>
<feBlend mode="screen" in2="shape" result="effect4_innerShadow_280_4380"/>
</filter>
<linearGradient id="paint0_linear_280_4380" x1="236.94" y1="35.236" x2="237.033" y2="135.127" gradientUnits="userSpaceOnUse">
<stop stop-color="#FF9F8C"/>
<stop offset="0.15625" stop-color="#FF6749"/>
<stop offset="0.427083" stop-color="#FF3E88"/>
<stop offset="0.8125" stop-color="#FF1393"/>
<stop offset="1" stop-color="#FF005C"/>
</linearGradient>
<linearGradient id="paint1_linear_280_4380" x1="236.233" y1="36.7926" x2="236.324" y2="134.817" gradientUnits="userSpaceOnUse">
<stop stop-color="#8E0044"/>
<stop offset="1" stop-color="#170011"/>
</linearGradient>
</defs>
</svg>
