<svg width="571" height="167" viewBox="0 0 571 167" fill="none" xmlns="http://www.w3.org/2000/svg">
<g filter="url(#filter0_dddi_280_4382)">
<path d="M36.0748 127.944L36.0608 119.238C36.0557 116.046 36.6807 113.675 37.9357 112.125L76.2955 55.3298L76.2946 54.7494L41.6161 54.8052C39.5847 54.8085 38.5674 53.7944 38.5641 51.763L38.5464 40.7355C38.5431 38.7042 39.5572 37.6869 41.5885 37.6836L93.0985 37.6007C95.0331 37.5976 96.0021 38.6118 96.0053 40.6431L96.0254 53.1216C96.0301 56.0236 95.3086 58.5398 93.8611 60.6702L57.816 113.254L57.817 113.834L94.672 113.775C96.6066 113.772 97.5754 114.689 97.5784 116.527L97.5961 127.555C97.5997 129.78 96.6341 130.894 94.6995 130.897L39.1268 130.986C37.0954 130.989 36.0781 129.975 36.0748 127.944ZM131.189 130.838L117.26 130.86C115.519 130.863 114.937 129.848 115.514 127.816L138.299 40.5751C138.973 38.5427 140.422 37.5246 142.647 37.5211L161.945 37.49C164.364 37.4861 165.816 38.4995 166.303 40.5301L189.369 127.697C189.953 129.728 189.374 130.744 187.633 130.747L173.703 130.77C172.639 130.771 171.913 130.579 171.526 130.193C171.138 129.71 170.847 128.888 170.651 127.727L166.563 111.773L138.269 111.819L134.232 127.786C134.04 128.947 133.703 129.77 133.22 130.254C132.834 130.642 132.157 130.836 131.189 130.838ZM152.107 55.0628L141.727 97.013L163.202 96.9785L152.687 55.0619L152.107 55.0628ZM207.131 106.92L207.126 104.018C207.123 101.986 208.137 100.969 210.168 100.966L222.501 100.946C224.533 100.943 225.55 101.957 225.553 103.988L225.555 105.149C225.561 108.825 226.291 111.339 227.744 112.69C229.197 114.042 231.858 114.715 235.728 114.709L242.547 114.698C246.32 114.692 248.93 113.962 250.379 112.509C251.924 111.055 252.694 108.346 252.688 104.38L252.685 102.639C252.68 99.8333 251.516 97.707 249.192 96.2598C246.965 94.7157 244.158 93.8012 240.772 93.5165C237.386 93.2317 233.709 92.7056 229.742 91.9381C225.871 91.0737 222.242 90.0155 218.854 88.7634C215.467 87.4146 212.609 84.8558 210.281 81.087C208.05 77.2213 206.93 72.2897 206.92 66.2923L206.912 61.2139C206.9 53.6688 209.019 47.813 213.268 43.6467C217.518 39.4804 223.415 37.3912 230.96 37.379L245.47 37.3557C253.112 37.3434 259.064 39.4136 263.327 43.5662C267.59 47.7188 269.727 53.5677 269.74 61.1128L269.744 63.8697C269.747 65.9011 268.733 66.9184 266.702 66.9217L254.369 66.9415C252.337 66.9448 251.32 65.9307 251.317 63.8994L251.315 63.0288C251.309 59.2562 250.579 56.694 249.126 55.342C247.673 53.9901 245.012 53.3173 241.143 53.3235L235.484 53.3326C231.518 53.339 228.811 54.1172 227.362 55.6672C226.01 57.1204 225.338 60.0235 225.345 64.3764L225.349 67.1333C225.356 71.6797 229.327 74.2851 237.26 74.9495C245.483 75.6134 252.789 77.2461 259.178 79.8476C262.565 81.2931 265.375 83.9004 267.606 87.6694C269.933 91.3414 271.102 96.0795 271.111 101.883L271.119 106.817C271.131 114.362 269.012 120.218 264.763 124.384C260.513 128.55 254.616 130.639 247.071 130.652L231.255 130.677C223.71 130.689 217.806 128.619 213.543 124.466C209.28 120.314 207.143 114.465 207.131 106.92ZM304.684 130.559L290.755 130.581C289.013 130.584 288.431 129.569 289.009 127.537L311.794 40.2961C312.468 38.2636 313.917 37.2456 316.142 37.242L335.44 37.211C337.858 37.2071 339.311 38.2204 339.798 40.251L362.864 127.418C363.447 129.449 362.868 130.465 361.127 130.468L347.198 130.491C346.134 130.492 345.408 130.3 345.02 129.914C344.633 129.431 344.341 128.609 344.146 127.448L340.057 111.494L311.763 111.54L307.726 127.507C307.535 128.668 307.197 129.491 306.714 129.975C306.328 130.363 305.651 130.557 304.684 130.559ZM325.601 54.7838L315.222 96.734L336.696 96.6995L326.182 54.7828L325.601 54.7838ZM402.983 114.44L418.799 114.415C421.894 114.41 424.07 113.777 425.325 112.518C426.677 111.161 427.351 108.935 427.346 105.84L427.275 61.585C427.27 58.4895 426.589 56.3142 425.233 55.0588C423.973 53.7066 421.795 53.033 418.7 53.0379L402.884 53.0634C401.82 53.0651 401.289 53.598 401.291 54.662L401.384 112.846C401.386 113.911 401.919 114.442 402.983 114.44ZM382.98 127.386L382.84 40.1818C382.837 38.1504 383.851 37.1331 385.882 37.1299L421.721 37.0722C429.266 37.0601 435.122 39.1304 439.288 43.2832C443.551 47.3391 445.688 53.1396 445.701 60.6847L445.775 106.681C445.787 114.226 443.668 120.082 439.419 124.248C435.266 128.318 429.417 130.358 421.871 130.37L386.032 130.428C384.001 130.431 382.983 129.417 382.98 127.386ZM504.684 130.237L492.351 130.257C490.319 130.26 489.302 129.246 489.299 127.215L489.249 96.1639L462.606 40.1986C462.217 39.3287 462.216 38.6032 462.602 38.0222C463.085 37.3443 463.761 37.0046 464.632 37.0032L480.012 36.9785C481.56 36.976 482.722 37.9898 483.5 40.0199L498.066 75.2555L499.082 75.2539L513.245 39.9721C513.919 37.9396 515.078 36.9221 516.722 36.9194L532.103 36.8947C533.07 36.8931 533.748 37.1822 534.135 37.762C534.62 38.3416 534.621 39.1155 534.139 40.0836L507.676 96.1343L507.726 127.185C507.729 129.217 506.715 130.234 504.684 130.237Z" fill="url(#paint0_linear_280_4382)"/>
<path d="M37.9357 112.125L40.1679 113.933L40.2463 113.836L40.316 113.733L37.9357 112.125ZM76.2955 55.3298L78.6758 56.9375L79.1693 56.2069L79.1679 55.3252L76.2955 55.3298ZM76.2946 54.7494L79.1669 54.7448L79.1623 51.8724L76.29 51.8771L76.2946 54.7494ZM93.8611 60.6702L96.2303 62.2942L96.2369 62.2845L93.8611 60.6702ZM57.816 113.254L55.4469 111.63L54.9422 112.366L54.9437 113.259L57.816 113.254ZM57.817 113.834L54.9446 113.839L54.9492 116.711L57.8216 116.707L57.817 113.834ZM38.9472 127.939L38.9332 119.233L33.1885 119.243L33.2025 127.948L38.9472 127.939ZM38.9332 119.233C38.9285 116.33 39.513 114.742 40.1679 113.933L35.7035 110.317C33.8483 112.608 33.1829 115.761 33.1885 119.243L38.9332 119.233ZM40.316 113.733L78.6758 56.9375L73.9152 53.7221L35.5554 110.517L40.316 113.733ZM79.1679 55.3252L79.1669 54.7448L73.4222 54.754L73.4232 55.3344L79.1679 55.3252ZM76.29 51.8771L41.6114 51.9328L41.6207 57.6775L76.2992 57.6218L76.29 51.8771ZM41.6114 51.9328C41.3344 51.9333 41.2089 51.8978 41.1866 51.8905C41.1784 51.8877 41.197 51.8931 41.2324 51.9143C41.2689 51.9361 41.3131 51.9687 41.3573 52.0128C41.4016 52.0569 41.4343 52.1009 41.4562 52.1374C41.4775 52.1728 41.4829 52.1913 41.4802 52.1831C41.4727 52.1609 41.4369 52.0355 41.4365 51.7584L35.6917 51.7676C35.6941 53.2261 36.0633 54.8469 37.3017 56.0814C38.5402 57.3159 40.1622 57.6799 41.6207 57.6775L41.6114 51.9328ZM41.4365 51.7584L41.4187 40.7309L35.674 40.7402L35.6917 51.7676L41.4365 51.7584ZM41.4187 40.7309C41.4183 40.4539 41.4537 40.3283 41.4611 40.3061C41.4638 40.2978 41.4585 40.3164 41.4373 40.3519C41.4155 40.3884 41.3829 40.4326 41.3388 40.4768C41.2947 40.521 41.2506 40.5538 41.2142 40.5757C41.1788 40.597 41.1602 40.6024 41.1684 40.5997C41.1907 40.5922 41.3161 40.5564 41.5932 40.5559L41.5839 34.8112C40.1255 34.8136 38.5046 35.1827 37.2701 36.4212C36.0356 37.6597 35.6717 39.2817 35.674 40.7402L41.4187 40.7309ZM41.5932 40.5559L93.1031 40.4731L93.0938 34.7284L41.5839 34.8112L41.5932 40.5559ZM93.1031 40.4731C93.3435 40.4727 93.4333 40.5051 93.4239 40.5018C93.4165 40.4992 93.3854 40.4874 93.3404 40.4591C93.2945 40.4303 93.2453 40.3914 93.1994 40.3433C93.1536 40.2954 93.1221 40.2501 93.1026 40.2161C93.0838 40.1832 93.0808 40.1691 93.0855 40.1839C93.0905 40.1994 93.1026 40.2427 93.1133 40.3209C93.1241 40.3992 93.1327 40.5067 93.133 40.6478L98.8777 40.6385C98.8754 39.2141 98.5361 37.613 97.353 36.3747C96.1448 35.1103 94.5406 34.7261 93.0938 34.7284L93.1031 40.4731ZM93.133 40.6478L93.153 53.1262L98.8977 53.117L98.8777 40.6385L93.133 40.6478ZM93.153 53.1262C93.1569 55.5267 92.5682 57.462 91.4852 59.0559L96.2369 62.2845C98.049 59.6175 98.9032 56.5204 98.8977 53.117L93.153 53.1262ZM91.4919 59.0462L55.4469 111.63L60.1852 114.878L96.2302 62.2942L91.4919 59.0462ZM54.9437 113.259L54.9446 113.839L60.6893 113.83L60.6884 113.249L54.9437 113.259ZM57.8216 116.707L94.6766 116.647L94.6673 110.903L57.8123 110.962L57.8216 116.707ZM94.6766 116.647C94.8058 116.647 94.9023 116.655 94.9705 116.664C95.0385 116.673 95.0723 116.683 95.0791 116.685C95.0851 116.687 95.063 116.681 95.0226 116.658C94.9811 116.634 94.9288 116.598 94.8746 116.546C94.8201 116.495 94.7754 116.439 94.7415 116.386C94.7082 116.333 94.6921 116.294 94.6862 116.277C94.6807 116.261 94.6858 116.27 94.6922 116.313C94.6988 116.356 94.7058 116.427 94.706 116.532L100.451 116.523C100.448 115.122 100.07 113.555 98.8245 112.375C97.6066 111.222 96.0417 110.9 94.6673 110.903L94.6766 116.647ZM94.706 116.532L94.7237 127.559L100.468 127.55L100.451 116.523L94.706 116.532ZM94.7237 127.559C94.7243 127.917 94.6848 128.123 94.657 128.22C94.6317 128.307 94.628 128.265 94.7041 128.178C94.7405 128.136 94.7844 128.096 94.832 128.063C94.8791 128.03 94.917 128.013 94.9363 128.006C94.9712 127.992 94.91 128.024 94.6949 128.024L94.7041 133.769C96.2268 133.767 97.86 133.308 99.0452 131.94C100.164 130.65 100.471 129.014 100.468 127.55L94.7237 127.559ZM94.6949 128.024L39.1222 128.114L39.1314 133.858L94.7041 133.769L94.6949 128.024ZM39.1222 128.114C38.8451 128.114 38.7196 128.079 38.6973 128.071C38.6891 128.069 38.7077 128.074 38.7432 128.095C38.7797 128.117 38.8239 128.15 38.8681 128.194C38.9123 128.238 38.945 128.282 38.967 128.318C38.9883 128.354 38.9937 128.372 38.9909 128.364C38.9835 128.342 38.9476 128.216 38.9472 127.939L33.2025 127.948C33.2048 129.407 33.574 131.028 34.8125 132.262C36.051 133.497 37.673 133.861 39.1314 133.858L39.1222 128.114ZM115.514 127.816L118.277 128.601L118.285 128.571L118.293 128.542L115.514 127.816ZM138.299 40.5751L135.573 39.6712L135.544 39.7594L135.52 39.8493L138.299 40.5751ZM166.303 40.5301L163.51 41.1999L163.518 41.2325L163.526 41.2649L166.303 40.5301ZM189.369 127.697L186.592 128.432L186.6 128.462L186.608 128.491L189.369 127.697ZM171.526 130.193L169.286 131.991L169.385 132.115L169.498 132.227L171.526 130.193ZM170.651 127.727L173.484 127.251L173.464 127.131L173.434 127.014L170.651 127.727ZM166.563 111.773L169.345 111.06L168.791 108.897L166.558 108.901L166.563 111.773ZM138.269 111.819L138.264 108.946L136.031 108.95L135.484 111.115L138.269 111.819ZM134.232 127.786L131.447 127.082L131.417 127.199L131.398 127.318L134.232 127.786ZM133.22 130.254L135.254 132.282L135.254 132.282L133.22 130.254ZM152.107 55.0628L152.102 52.1904L149.858 52.194L149.319 54.3729L152.107 55.0628ZM141.727 97.013L138.939 96.3231L138.056 99.8913L141.732 99.8854L141.727 97.013ZM163.202 96.9785L163.206 99.8508L166.882 99.8449L165.988 96.2796L163.202 96.9785ZM152.687 55.0619L155.473 54.363L154.927 52.1859L152.683 52.1895L152.687 55.0619ZM131.185 127.966L117.255 127.988L117.265 133.733L131.194 133.71L131.185 127.966ZM117.255 127.988C117.077 127.988 117.137 127.959 117.319 128.038C117.544 128.137 117.822 128.345 118.009 128.672C118.177 128.964 118.171 129.173 118.171 129.145C118.171 129.112 118.18 128.943 118.277 128.601L112.751 127.031C112.407 128.243 112.137 129.981 113.026 131.531C114.055 133.324 115.913 133.735 117.265 133.733L117.255 127.988ZM118.293 128.542L141.078 41.301L135.52 39.8493L112.735 127.09L118.293 128.542ZM141.026 41.4791C141.21 40.9226 141.421 40.7234 141.543 40.6377C141.674 40.5453 141.977 40.3945 142.652 40.3934L142.643 34.6487C141.093 34.6512 139.558 35.0112 138.241 35.9368C136.913 36.8691 136.062 38.1951 135.573 39.6712L141.026 41.4791ZM142.652 40.3934L161.95 40.3624L161.941 34.6177L142.643 34.6487L142.652 40.3934ZM161.95 40.3624C162.78 40.361 163.11 40.5365 163.205 40.6029C163.254 40.6371 163.4 40.7389 163.51 41.1999L169.096 39.8603C168.72 38.2906 167.896 36.8705 166.492 35.8913C165.135 34.9444 163.529 34.6151 161.941 34.6177L161.95 40.3624ZM163.526 41.2649L186.592 128.432L192.146 126.963L169.08 39.7953L163.526 41.2649ZM186.608 128.491C186.707 128.833 186.716 129.001 186.716 129.035C186.717 129.063 186.71 128.854 186.877 128.562C187.063 128.234 187.34 128.024 187.565 127.925C187.747 127.846 187.806 127.875 187.628 127.875L187.637 133.62C188.989 133.617 190.846 133.201 191.869 131.404C192.753 129.851 192.478 128.114 192.13 126.904L186.608 128.491ZM187.628 127.875L173.699 127.897L173.708 133.642L187.637 133.62L187.628 127.875ZM173.699 127.897C173.518 127.898 173.378 127.889 173.273 127.878C173.167 127.867 173.112 127.854 173.097 127.85C173.081 127.846 173.124 127.855 173.205 127.897C173.287 127.94 173.416 128.021 173.554 128.158L169.498 132.227C170.75 133.475 172.515 133.644 173.708 133.642L173.699 127.897ZM173.766 128.395C173.837 128.484 173.802 128.475 173.724 128.254C173.649 128.044 173.563 127.719 173.484 127.251L167.819 128.204C168.034 129.485 168.422 130.915 169.286 131.991L173.766 128.395ZM173.434 127.014L169.345 111.06L163.78 112.486L167.869 128.44L173.434 127.014ZM166.558 108.901L138.264 108.946L138.273 114.691L166.568 114.646L166.558 108.901ZM135.484 111.115L131.447 127.082L137.016 128.49L141.053 112.523L135.484 111.115ZM131.398 127.318C131.326 127.75 131.242 128.025 131.177 128.185C131.111 128.345 131.092 128.32 131.186 128.227L135.254 132.282C136.368 131.165 136.839 129.626 137.066 128.254L131.398 127.318ZM131.186 128.227C131.302 128.109 131.414 128.034 131.496 127.989C131.576 127.946 131.627 127.931 131.629 127.93C131.631 127.93 131.598 127.939 131.52 127.948C131.443 127.958 131.333 127.965 131.185 127.966L131.194 133.71C132.385 133.708 134.042 133.498 135.254 132.282L131.186 128.227ZM149.319 54.3729L138.939 96.3231L144.516 97.7029L154.895 55.7527L149.319 54.3729ZM141.732 99.8854L163.206 99.8508L163.197 94.1061L141.723 94.1407L141.732 99.8854ZM165.988 96.2796L155.473 54.363L149.901 55.7607L160.416 97.6773L165.988 96.2796ZM152.683 52.1895L152.102 52.1904L152.112 57.9351L152.692 57.9342L152.683 52.1895ZM227.744 112.69L225.787 114.793L227.744 112.69ZM250.379 112.509L248.411 110.417L248.377 110.448L248.345 110.481L250.379 112.509ZM249.192 96.2598L247.556 98.6204L247.614 98.6606L247.674 98.698L249.192 96.2598ZM240.772 93.5165L241.013 90.6542L240.772 93.5165ZM229.742 91.9381L229.116 94.7414L229.156 94.7504L229.196 94.7582L229.742 91.9381ZM218.854 88.7634L217.792 91.4321L217.825 91.4453L217.859 91.4577L218.854 88.7634ZM210.281 81.087L207.793 82.5228L207.815 82.5599L207.837 82.5963L210.281 81.087ZM213.268 43.6467L215.279 45.6978L213.268 43.6467ZM263.327 43.5662L261.323 45.6237L263.327 43.5662ZM249.126 55.342L251.083 53.239L251.083 53.239L249.126 55.342ZM227.362 55.6672L225.263 53.7061L225.259 53.7108L227.362 55.6672ZM237.26 74.9495L237.02 77.8118L237.029 77.8125L237.26 74.9495ZM259.178 79.8476L260.305 77.2056L260.283 77.1963L260.261 77.1873L259.178 79.8476ZM267.606 87.6693L265.134 89.1324L265.156 89.1701L265.18 89.2071L267.606 87.6693ZM264.763 124.384L262.752 122.333L264.763 124.384ZM213.543 124.466L211.539 126.524L213.543 124.466ZM210.003 106.915L209.998 104.013L204.254 104.022L204.258 106.924L210.003 106.915ZM209.998 104.013C209.998 103.736 210.033 103.61 210.041 103.588C210.043 103.58 210.038 103.599 210.017 103.634C209.995 103.671 209.962 103.715 209.918 103.759C209.874 103.803 209.83 103.836 209.794 103.858C209.758 103.879 209.74 103.885 209.748 103.882C209.77 103.874 209.896 103.839 210.173 103.838L210.163 98.0934C208.705 98.0957 207.084 98.4649 205.85 99.7034C204.615 100.942 204.251 102.564 204.254 104.022L209.998 104.013ZM210.173 103.838L222.506 103.818L222.497 98.0735L210.163 98.0934L210.173 103.838ZM222.506 103.818C222.783 103.818 222.909 103.853 222.931 103.861C222.939 103.863 222.921 103.858 222.885 103.837C222.849 103.815 222.804 103.782 222.76 103.738C222.716 103.694 222.683 103.65 222.661 103.614C222.64 103.578 222.635 103.56 222.637 103.568C222.645 103.59 222.681 103.716 222.681 103.993L228.426 103.983C228.423 102.525 228.054 100.904 226.816 99.6696C225.577 98.4351 223.955 98.0712 222.497 98.0735L222.506 103.818ZM222.681 103.993L222.683 105.153L228.428 105.144L228.426 103.983L222.681 103.993ZM222.683 105.153C222.689 109.008 223.416 112.588 225.787 114.793L229.7 110.587C229.165 110.09 228.433 108.641 228.428 105.144L222.683 105.153ZM225.787 114.793C228.092 116.937 231.737 117.588 235.732 117.581L235.723 111.837C231.98 111.843 230.302 111.147 229.7 110.587L225.787 114.793ZM235.732 117.581L242.552 117.57L242.543 111.826L235.723 111.837L235.732 117.581ZM242.552 117.57C246.509 117.564 250.124 116.834 252.413 114.537L248.345 110.481C247.737 111.091 246.131 111.82 242.543 111.826L242.552 117.57ZM252.347 114.601C254.807 112.288 255.567 108.51 255.56 104.375L249.815 104.384C249.821 108.182 249.042 109.823 248.411 110.417L252.347 114.601ZM255.56 104.375L255.557 102.634L249.812 102.643L249.815 104.384L255.56 104.375ZM255.557 102.634C255.551 98.868 253.9 95.8079 250.711 93.8216L247.674 98.698C249.132 99.6062 249.809 100.799 249.812 102.643L255.557 102.634ZM250.829 93.8992C248.095 92.0044 244.774 90.9705 241.013 90.6542L240.531 96.3787C243.542 96.6319 245.834 97.4269 247.556 98.6204L250.829 93.8992ZM241.013 90.6542C237.746 90.3795 234.172 89.8695 230.287 89.118L229.196 94.7582C233.246 95.5416 237.026 96.0839 240.531 96.3787L241.013 90.6542ZM230.368 89.1348C226.611 88.2958 223.106 87.2726 219.85 86.0692L217.859 91.4577C221.378 92.7584 225.132 93.8517 229.116 94.7414L230.368 89.1348ZM219.917 86.0948C217.216 85.0196 214.8 82.9371 212.725 79.5777L207.837 82.5963C210.418 86.7745 213.717 89.8097 217.792 91.4321L219.917 86.0948ZM212.769 79.6512C210.861 76.3452 209.802 71.9491 209.793 66.2877L204.048 66.2969C204.058 72.6304 205.239 78.0974 207.793 82.5228L212.769 79.6512ZM209.793 66.2877L209.784 61.2093L204.04 61.2185L204.048 66.2969L209.793 66.2877ZM209.784 61.2093C209.773 54.2189 211.72 49.1868 215.279 45.6978L211.257 41.5957C206.317 46.4393 204.027 53.1187 204.04 61.2185L209.784 61.2093ZM215.279 45.6978C218.859 42.1877 223.959 40.2626 230.965 40.2514L230.955 34.5067C222.87 34.5197 216.176 36.7731 211.257 41.5957L215.279 45.6978ZM230.965 40.2514L245.475 40.228L245.465 34.4833L230.955 34.5067L230.965 40.2514ZM245.475 40.228C252.588 40.2166 257.738 42.1317 261.323 45.6237L265.331 41.5087C260.39 36.6955 253.635 34.4702 245.465 34.4833L245.475 40.228ZM261.323 45.6237C264.893 49.1013 266.856 54.1271 266.867 61.1175L272.612 61.1082C272.599 53.0084 270.287 46.3364 265.331 41.5087L261.323 45.6237ZM266.867 61.1175L266.872 63.8743L272.616 63.8651L272.612 61.1082L266.867 61.1175ZM266.872 63.8743C266.872 64.1514 266.837 64.2769 266.829 64.2992C266.827 64.3074 266.832 64.2888 266.853 64.2534C266.875 64.2169 266.908 64.1727 266.952 64.1284C266.996 64.0842 267.04 64.0515 267.076 64.0296C267.112 64.0082 267.13 64.0028 267.122 64.0056C267.1 64.013 266.974 64.0489 266.697 64.0493L266.706 69.794C268.165 69.7917 269.786 69.4225 271.02 68.184C272.255 66.9455 272.619 65.3235 272.616 63.8651L266.872 63.8743ZM266.697 64.0493L254.364 64.0692L254.373 69.8139L266.706 69.794L266.697 64.0493ZM254.364 64.0692C254.087 64.0696 253.961 64.0342 253.939 64.0268C253.931 64.0241 253.949 64.0294 253.985 64.0506C254.021 64.0724 254.066 64.105 254.11 64.1491C254.154 64.1932 254.187 64.2373 254.209 64.2737C254.23 64.3091 254.235 64.3277 254.233 64.3194C254.225 64.2972 254.189 64.1718 254.189 63.8947L248.444 63.904C248.447 65.3624 248.816 66.9832 250.054 68.2178C251.293 69.4523 252.915 69.8162 254.373 69.8139L254.364 64.0692ZM254.189 63.8947L254.187 63.0241L248.443 63.0334L248.444 63.904L254.189 63.8947ZM254.187 63.0241C254.181 59.1001 253.465 55.4548 251.083 53.239L247.17 57.445C247.694 57.9331 248.437 59.4123 248.443 63.0334L254.187 63.0241ZM251.083 53.239C248.778 51.0952 245.134 50.4447 241.138 50.4511L241.147 56.1959C244.89 56.1898 246.568 56.8851 247.17 57.445L251.083 53.239ZM241.138 50.4511L235.479 50.4602L235.488 56.205L241.147 56.1959L241.138 50.4511ZM235.479 50.4602C231.344 50.4669 227.569 51.2389 225.263 53.7061L229.461 57.6284C230.052 56.9955 231.691 56.2111 235.488 56.205L235.479 50.4602ZM225.259 53.7108C224.111 54.9447 223.442 56.5723 223.045 58.2862C222.643 60.0252 222.469 62.0757 222.472 64.381L228.217 64.3718C228.214 62.3242 228.372 60.7467 228.642 59.5826C228.917 58.3935 229.261 57.843 229.465 57.6237L225.259 53.7108ZM222.472 64.381L222.477 67.1379L228.221 67.1287L228.217 64.3718L222.472 64.381ZM222.477 67.1379C222.482 70.4277 224.007 73.0941 226.756 74.8986C229.326 76.5851 232.861 77.4635 237.02 77.8118L237.499 72.0871C233.726 71.7711 231.308 71.0146 229.908 70.0957C228.688 69.2948 228.223 68.3853 228.221 67.1287L222.477 67.1379ZM237.029 77.8125C245.015 78.4573 252.025 80.0363 258.094 82.5078L260.261 77.1873C253.553 74.4558 245.951 72.7695 237.491 72.0864L237.029 77.8125ZM258.05 82.4895C260.776 83.6524 263.154 85.7872 265.134 89.1324L270.078 86.2063C267.596 82.0136 264.355 78.9338 260.305 77.2056L258.05 82.4895ZM265.18 89.2071C267.134 92.2909 268.23 96.4498 268.239 101.888L273.983 101.879C273.973 95.7091 272.732 90.392 270.032 86.1316L265.18 89.2071ZM268.239 101.888L268.247 106.821L273.991 106.812L273.983 101.879L268.239 101.888ZM268.247 106.821C268.258 113.812 266.311 118.844 262.752 122.333L266.774 126.435C271.714 121.591 274.004 114.912 273.991 106.812L268.247 106.821ZM262.752 122.333C259.172 125.843 254.072 127.768 247.066 127.779L247.076 133.524C255.16 133.511 261.855 131.258 266.774 126.435L262.752 122.333ZM247.066 127.779L231.251 127.805L231.26 133.549L247.076 133.524L247.066 127.779ZM231.251 127.805C224.245 127.816 219.139 125.907 215.547 122.409L211.539 126.524C216.473 131.331 223.175 133.562 231.26 133.549L231.251 127.805ZM215.547 122.409C211.977 118.931 210.014 113.905 210.003 106.915L204.258 106.924C204.271 115.024 206.583 121.696 211.539 126.524L215.547 122.409ZM289.009 127.537L291.772 128.322L291.78 128.292L291.788 128.263L289.009 127.537ZM311.794 40.2961L309.067 39.3921L309.038 39.4803L309.015 39.5702L311.794 40.2961ZM339.798 40.251L337.005 40.9208L337.012 40.9534L337.021 40.9858L339.798 40.251ZM362.864 127.418L360.087 128.153L360.095 128.183L360.103 128.212L362.864 127.418ZM345.02 129.914L342.78 131.712L342.88 131.836L342.993 131.948L345.02 129.914ZM344.146 127.448L346.978 126.972L346.958 126.852L346.928 126.735L344.146 127.448ZM340.057 111.494L342.84 110.781L342.286 108.618L340.053 108.622L340.057 111.494ZM311.763 111.54L311.759 108.667L309.526 108.671L308.979 110.836L311.763 111.54ZM307.726 127.507L304.941 126.803L304.912 126.92L304.892 127.039L307.726 127.507ZM306.714 129.975L308.749 132.003L306.714 129.975ZM325.601 54.7838L325.597 51.9114L323.352 51.915L322.813 54.0939L325.601 54.7838ZM315.222 96.734L312.434 96.0441L311.551 99.6123L315.226 99.6063L315.222 96.734ZM336.696 96.6995L336.701 99.5718L340.377 99.5659L339.482 96.0006L336.696 96.6995ZM326.182 54.7828L328.968 54.084L328.422 51.9069L326.177 51.9105L326.182 54.7828ZM304.679 127.687L290.75 127.709L290.759 133.454L304.689 133.431L304.679 127.687ZM290.75 127.709C290.572 127.709 290.631 127.68 290.813 127.759C291.039 127.858 291.316 128.066 291.504 128.393C291.671 128.685 291.665 128.894 291.665 128.866C291.665 128.833 291.674 128.664 291.772 128.322L286.245 126.752C285.901 127.964 285.632 129.702 286.521 131.251C287.549 133.045 289.408 133.456 290.759 133.454L290.75 127.709ZM291.788 128.263L314.573 41.0219L309.015 39.5702L286.229 126.811L291.788 128.263ZM314.52 41.2C314.705 40.6436 314.915 40.4444 315.037 40.3587C315.169 40.2663 315.472 40.1155 316.146 40.1144L316.137 34.3697C314.587 34.3722 313.053 34.7321 311.735 35.6577C310.408 36.5901 309.557 37.9161 309.067 39.3921L314.52 41.2ZM316.146 40.1144L335.445 40.0833L335.435 34.3386L316.137 34.3697L316.146 40.1144ZM335.445 40.0833C336.275 40.082 336.605 40.2575 336.7 40.3239C336.749 40.3581 336.894 40.4599 337.005 40.9208L342.591 39.5813C342.215 38.0116 341.39 36.5914 339.987 35.6123C338.629 34.6653 337.023 34.3361 335.435 34.3386L335.445 40.0833ZM337.021 40.9858L360.087 128.153L365.64 126.684L342.575 39.5163L337.021 40.9858ZM360.103 128.212C360.201 128.554 360.211 128.722 360.211 128.756C360.211 128.784 360.205 128.575 360.371 128.283C360.558 127.955 360.834 127.745 361.06 127.646C361.241 127.567 361.301 127.596 361.123 127.596L361.132 133.341C362.483 133.338 364.34 132.922 365.363 131.125C366.247 129.572 365.972 127.835 365.624 126.625L360.103 128.212ZM361.123 127.596L347.193 127.618L347.202 133.363L361.132 133.341L361.123 127.596ZM347.193 127.618C347.012 127.619 346.872 127.61 346.767 127.599C346.662 127.588 346.606 127.575 346.591 127.571C346.575 127.567 346.619 127.576 346.699 127.618C346.782 127.661 346.91 127.742 347.048 127.879L342.993 131.948C344.245 133.196 346.01 133.365 347.202 133.363L347.193 127.618ZM347.26 128.116C347.332 128.205 347.297 128.196 347.218 127.975C347.144 127.765 347.057 127.44 346.978 126.972L341.313 127.925C341.529 129.206 341.917 130.636 342.78 131.712L347.26 128.116ZM346.928 126.735L342.84 110.781L337.275 112.207L341.363 128.161L346.928 126.735ZM340.053 108.622L311.759 108.667L311.768 114.412L340.062 114.366L340.053 108.622ZM308.979 110.836L304.941 126.803L310.511 128.211L314.548 112.244L308.979 110.836ZM304.892 127.039C304.821 127.471 304.737 127.746 304.672 127.906C304.606 128.066 304.587 128.041 304.68 127.947L308.749 132.003C309.863 130.886 310.334 129.347 310.56 127.975L304.892 127.039ZM304.68 127.947C304.797 127.83 304.909 127.755 304.991 127.71C305.071 127.667 305.121 127.652 305.124 127.651C305.126 127.651 305.093 127.66 305.015 127.669C304.937 127.679 304.827 127.686 304.679 127.687L304.689 133.431C305.879 133.429 307.537 133.219 308.749 132.003L304.68 127.947ZM322.813 54.0939L312.434 96.0441L318.01 97.4239L328.39 55.4737L322.813 54.0939ZM315.226 99.6063L336.701 99.5718L336.692 93.8271L315.217 93.8616L315.226 99.6063ZM339.482 96.0006L328.968 54.084L323.396 55.4817L333.91 97.3983L339.482 96.0006ZM326.177 51.9105L325.597 51.9114L325.606 57.6561L326.187 57.6552L326.177 51.9105ZM425.325 112.518L427.359 114.546L427.359 114.546L425.325 112.518ZM425.233 55.0588L423.131 57.0167L423.203 57.0945L423.282 57.1668L425.233 55.0588ZM439.288 43.2832L437.26 45.3175L437.284 45.3411L437.308 45.3641L439.288 43.2832ZM439.419 124.248L441.429 126.3L441.429 126.299L439.419 124.248ZM402.988 117.312L418.803 117.287L418.794 111.542L402.978 111.568L402.988 117.312ZM418.803 117.287C422.137 117.282 425.284 116.627 427.359 114.546L423.291 110.49C422.855 110.927 421.651 111.538 418.794 111.542L418.803 117.287ZM427.359 114.546C429.5 112.398 430.224 109.243 430.218 105.835L424.473 105.845C424.478 108.628 423.854 109.925 423.291 110.49L427.359 114.546ZM430.218 105.835L430.147 61.5804L424.402 61.5896L424.473 105.845L430.218 105.835ZM430.147 61.5804C430.141 58.2006 429.419 55.0201 427.184 52.9508L423.282 57.1668C423.758 57.6082 424.398 58.7784 424.402 61.5896L430.147 61.5804ZM427.334 53.1009C425.258 50.872 422.075 50.1601 418.695 50.1656L418.705 55.9103C421.516 55.9058 422.688 56.5412 423.131 57.0167L427.334 53.1009ZM418.695 50.1656L402.88 50.191L402.889 55.9357L418.705 55.9103L418.695 50.1656ZM402.88 50.191C401.905 50.1926 400.647 50.4403 399.653 51.4365C398.66 52.4328 398.417 53.6919 398.418 54.6666L404.163 54.6574C404.163 54.5681 404.184 55.0287 403.722 55.4921C403.26 55.9555 402.8 55.9359 402.889 55.9357L402.88 50.191ZM398.418 54.6666L398.512 112.851L404.257 112.842L404.163 54.6574L398.418 54.6666ZM398.512 112.851C398.514 113.826 398.761 115.084 399.757 116.077C400.754 117.07 402.013 117.314 402.988 117.312L402.978 111.568C402.889 111.568 403.35 111.547 403.813 112.009C404.276 112.47 404.257 112.931 404.257 112.842L398.512 112.851ZM385.852 127.381L385.712 40.1772L379.968 40.1864L380.108 127.391L385.852 127.381ZM385.712 40.1772C385.712 39.9001 385.747 39.7746 385.755 39.7524C385.757 39.7441 385.752 39.7627 385.731 39.7982C385.709 39.8347 385.676 39.8789 385.632 39.9231C385.588 39.9673 385.544 40.0001 385.508 40.022C385.472 40.0433 385.454 40.0487 385.462 40.0459C385.484 40.0385 385.61 40.0027 385.887 40.0022L385.877 34.2575C384.419 34.2598 382.798 34.629 381.564 35.8675C380.329 37.106 379.965 38.728 379.968 40.1864L385.712 40.1772ZM385.887 40.0022L421.726 39.9446L421.717 34.1999L385.877 34.2575L385.887 40.0022ZM421.726 39.9446C428.735 39.9333 433.775 41.8432 437.26 45.3175L441.316 41.2489C436.469 36.4176 429.798 34.1869 421.717 34.1999L421.726 39.9446ZM437.308 45.3641C440.853 48.7366 442.817 53.6954 442.828 60.6894L448.573 60.6801C448.56 52.5838 446.249 45.9417 441.268 41.2023L437.308 45.3641ZM442.828 60.6894L442.902 106.686L448.647 106.676L448.573 60.6801L442.828 60.6894ZM442.902 106.686C442.913 113.676 440.966 118.708 437.408 122.197L441.429 126.299C446.37 121.456 448.66 114.776 448.647 106.676L442.902 106.686ZM437.408 122.197C433.937 125.598 428.894 127.487 421.867 127.498L421.876 133.243C429.939 133.23 436.595 131.037 441.429 126.3L437.408 122.197ZM421.867 127.498L386.027 127.556L386.037 133.3L421.876 133.243L421.867 127.498ZM386.027 127.556C385.75 127.556 385.625 127.521 385.603 127.513C385.594 127.511 385.613 127.516 385.648 127.537C385.685 127.559 385.729 127.592 385.773 127.636C385.818 127.68 385.85 127.724 385.872 127.76C385.894 127.796 385.899 127.814 385.896 127.806C385.889 127.784 385.853 127.658 385.852 127.381L380.108 127.391C380.11 128.849 380.479 130.47 381.718 131.704C382.956 132.939 384.578 133.303 386.037 133.3L386.027 127.556ZM489.249 96.1639L492.121 96.1593L492.12 95.5129L491.842 94.9292L489.249 96.1639ZM462.606 40.1986L459.983 41.3694L459.997 41.4015L460.012 41.4333L462.606 40.1986ZM462.602 38.0222L460.262 36.3564L460.235 36.3941L460.21 36.4327L462.602 38.0222ZM483.5 40.0199L480.817 41.0468L480.831 41.0822L480.845 41.1173L483.5 40.0199ZM498.066 75.2555L495.412 76.3529L496.147 78.131L498.071 78.1279L498.066 75.2555ZM499.082 75.2539L499.086 78.1262L501.025 78.1231L501.747 76.3239L499.082 75.2539ZM513.245 39.9721L515.91 41.0421L515.943 40.96L515.971 40.876L513.245 39.9721ZM534.135 37.762L531.748 39.3591L531.833 39.4867L531.932 39.6044L534.135 37.762ZM534.139 40.0836L531.568 38.8031L531.555 38.8301L531.542 38.8573L534.139 40.0836ZM507.676 96.1343L505.079 94.908L504.803 95.4925L504.804 96.1389L507.676 96.1343ZM504.679 127.365L492.346 127.385L492.355 133.129L504.689 133.11L504.679 127.365ZM492.346 127.385C492.069 127.385 491.943 127.35 491.921 127.342C491.913 127.34 491.932 127.345 491.967 127.366C492.003 127.388 492.048 127.421 492.092 127.465C492.136 127.509 492.169 127.553 492.191 127.589C492.212 127.625 492.218 127.643 492.215 127.635C492.207 127.613 492.171 127.487 492.171 127.21L486.426 127.22C486.429 128.678 486.798 130.299 488.036 131.533C489.275 132.768 490.897 133.132 492.355 133.129L492.346 127.385ZM492.171 127.21L492.121 96.1593L486.376 96.1685L486.426 127.22L492.171 127.21ZM491.842 94.9292L465.199 38.964L460.012 41.4333L486.655 97.3986L491.842 94.9292ZM465.229 39.0278C465.149 38.8502 465.186 38.8534 465.186 38.9974C465.186 39.0743 465.175 39.1781 465.141 39.2966C465.105 39.416 465.053 39.5231 464.995 39.6116L460.21 36.4327C459.09 38.1185 459.356 39.9652 459.983 41.3694L465.229 39.0278ZM464.942 39.6879C464.944 39.6852 464.93 39.7054 464.895 39.7358C464.86 39.7669 464.814 39.7991 464.76 39.826C464.644 39.8843 464.58 39.8757 464.637 39.8756L464.627 34.1308C462.88 34.1337 461.311 34.8824 460.262 36.3564L464.942 39.6879ZM464.637 39.8756L480.017 39.8508L480.008 34.1061L464.627 34.1308L464.637 39.8756ZM480.017 39.8508C480.053 39.8508 480.074 39.8536 480.084 39.8553C480.089 39.8562 480.092 39.857 480.094 39.8574C480.096 39.8579 480.096 39.8581 480.097 39.8583C480.097 39.8584 480.098 39.8586 480.099 39.8592C480.1 39.8598 480.103 39.8611 480.107 39.8636C480.114 39.8682 480.131 39.8793 480.157 39.9017C480.269 39.9996 480.532 40.3013 480.817 41.0468L486.182 38.9931C485.69 37.7085 484.983 36.4881 483.933 35.5723C482.825 34.6063 481.475 34.1038 480.008 34.1061L480.017 39.8508ZM480.845 41.1173L495.412 76.3529L500.721 74.1581L486.154 38.9226L480.845 41.1173ZM498.071 78.1279L499.086 78.1262L499.077 72.3815L498.062 72.3832L498.071 78.1279ZM501.747 76.3239L515.91 41.0421L510.579 38.9021L496.416 74.1838L501.747 76.3239ZM515.971 40.876C516.207 40.1649 516.439 39.909 516.514 39.8432C516.545 39.816 516.558 39.8123 516.562 39.8109C516.569 39.8085 516.615 39.792 516.727 39.7918L516.718 34.0471C515.25 34.0494 513.863 34.5262 512.725 35.526C511.64 36.4777 510.956 37.7468 510.518 39.0682L515.971 40.876ZM516.727 39.7918L532.107 39.767L532.098 34.0223L516.718 34.0471L516.727 39.7918ZM532.107 39.767C532.318 39.7667 532.321 39.8001 532.209 39.7523C532.148 39.7264 532.065 39.681 531.975 39.6077C531.884 39.5335 531.807 39.4475 531.748 39.3591L536.523 36.1649C535.409 34.5002 533.62 34.0199 532.098 34.0223L532.107 39.767ZM531.932 39.6044C531.847 39.5036 531.764 39.3681 531.705 39.2036C531.646 39.04 531.628 38.8923 531.627 38.7817C531.627 38.5816 531.685 38.5691 531.568 38.8031L536.71 41.364C537.445 39.8884 537.864 37.7437 536.339 35.9196L531.932 39.6044ZM531.542 38.8573L505.079 94.908L510.274 97.3606L536.737 41.3099L531.542 38.8573ZM504.804 96.1389L504.854 127.19L510.599 127.181L510.549 96.1296L504.804 96.1389ZM504.854 127.19C504.854 127.467 504.819 127.593 504.811 127.615C504.809 127.623 504.814 127.604 504.835 127.569C504.857 127.532 504.89 127.488 504.934 127.444C504.978 127.4 505.022 127.367 505.058 127.345C505.094 127.324 505.112 127.318 505.104 127.321C505.082 127.329 504.956 127.364 504.679 127.365L504.689 133.11C506.147 133.107 507.768 132.738 509.002 131.5C510.237 130.261 510.601 128.639 510.599 127.181L504.854 127.19Z" fill="url(#paint1_linear_280_4382)"/>
</g>
<defs>
<filter id="filter0_dddi_280_4382" x="0.0251961" y="0.985889" width="570.889" height="165.91" filterUnits="userSpaceOnUse" color-interpolation-filters="sRGB">
<feFlood flood-opacity="0" result="BackgroundImageFix"/>
<feColorMatrix in="SourceAlpha" type="matrix" values="0 0 0 0 0 0 0 0 0 0 0 0 0 0 0 0 0 0 127 0" result="hardAlpha"/>
<feOffset/>
<feGaussianBlur stdDeviation="17.9522"/>
<feComposite in2="hardAlpha" operator="out"/>
<feColorMatrix type="matrix" values="0 0 0 0 0 0 0 0 0 0 0 0 0 0 0 0 0 0 1 0"/>
<feBlend mode="normal" in2="BackgroundImageFix" result="effect1_dropShadow_280_4382"/>
<feColorMatrix in="SourceAlpha" type="matrix" values="0 0 0 0 0 0 0 0 0 0 0 0 0 0 0 0 0 0 127 0" result="hardAlpha"/>
<feOffset/>
<feGaussianBlur stdDeviation="4.45874"/>
<feComposite in2="hardAlpha" operator="out"/>
<feColorMatrix type="matrix" values="0 0 0 0 0.14 0 0 0 0 0 0 0 0 0 1 0 0 0 1 0"/>
<feBlend mode="normal" in2="effect1_dropShadow_280_4382" result="effect2_dropShadow_280_4382"/>
<feColorMatrix in="SourceAlpha" type="matrix" values="0 0 0 0 0 0 0 0 0 0 0 0 0 0 0 0 0 0 127 0" result="hardAlpha"/>
<feOffset/>
<feGaussianBlur stdDeviation="3.59045"/>
<feComposite in2="hardAlpha" operator="out"/>
<feColorMatrix type="matrix" values="0 0 0 0 0 0 0 0 0 0 0 0 0 0 0 0 0 0 1 0"/>
<feBlend mode="normal" in2="effect2_dropShadow_280_4382" result="effect3_dropShadow_280_4382"/>
<feBlend mode="normal" in="SourceGraphic" in2="effect3_dropShadow_280_4382" result="shape"/>
<feColorMatrix in="SourceAlpha" type="matrix" values="0 0 0 0 0 0 0 0 0 0 0 0 0 0 0 0 0 0 127 0" result="hardAlpha"/>
<feOffset dy="2.87236"/>
<feGaussianBlur stdDeviation="3.59045"/>
<feComposite in2="hardAlpha" operator="arithmetic" k2="-1" k3="1"/>
<feColorMatrix type="matrix" values="0 0 0 0 1 0 0 0 0 0.822083 0 0 0 0 0.745833 0 0 0 0.43 0"/>
<feBlend mode="screen" in2="shape" result="effect4_innerShadow_280_4382"/>
</filter>
<linearGradient id="paint0_linear_280_4382" x1="283.081" y1="35.6063" x2="283.188" y2="135.498" gradientUnits="userSpaceOnUse">
<stop stop-color="#FF9F8C"/>
<stop offset="0.15625" stop-color="#FF6749"/>
<stop offset="0.427083" stop-color="#FF3E88"/>
<stop offset="0.8125" stop-color="#FF1393"/>
<stop offset="1" stop-color="#FF005C"/>
</linearGradient>
<linearGradient id="paint1_linear_280_4382" x1="282.192" y1="37.1632" x2="282.297" y2="135.187" gradientUnits="userSpaceOnUse">
<stop stop-color="#8E0044"/>
<stop offset="1" stop-color="#170011"/>
</linearGradient>
</defs>
</svg>
