<svg width="1235" height="318" viewBox="0 0 1235 318" fill="none" xmlns="http://www.w3.org/2000/svg">
<rect x="34.1521" y="34.4487" width="1152.83" height="259.446" fill="url(#paint0_radial_404_2052)" fill-opacity="0.49"/>
<g filter="url(#filter0_d_404_2052)">
<rect x="32.0032" y="32.0369" width="1155.65" height="254.273" stroke="url(#paint1_linear_404_2052)" stroke-width="7.96921" shape-rendering="crispEdges"/>
</g>
<rect x="32.0032" y="32.0369" width="1155.65" height="254.273" stroke="url(#paint2_linear_404_2052)" stroke-width="7.96921"/>
<g filter="url(#filter1_f_404_2052)">
<ellipse cx="1035.63" cy="286.549" rx="174.887" ry="7.08362" fill="#F62B54"/>
</g>
<g filter="url(#filter2_f_404_2052)">
<ellipse cx="838.107" cy="31.2505" rx="348.873" ry="3.19827" fill="#F68C2B"/>
</g>
<g clip-path="url(#clip0_404_2052)" filter="url(#filter3_d_404_2052)">
<g filter="url(#filter4_dddi_404_2052)">
<path d="M357.306 63.292L339.301 81.2758V106.219H295.446V63.292H357.306V63.292Z" fill="url(#paint3_linear_404_2052)"/>
<path d="M357.306 63.292V61.292H295.446H293.446V63.292V106.219V108.219H295.446H339.301H341.301V106.219V82.1049L358.72 64.7071L357.306 63.292Z" stroke="url(#paint4_linear_404_2052)" stroke-width="4"/>
</g>
<path d="M249.956 121.75H101.778L119.783 139.734V222.826H163.638V196.315H249.956C259.124 196.315 266.658 188.759 266.658 179.612V138.453C266.658 129.306 259.102 121.75 249.956 121.75V121.75ZM462.292 170.775L510.19 121.75H458.758L433.682 150.67H430.633L405.403 121.75H353.97L400.741 170.775V173.824L353.97 222.848H405.403L430.633 193.929H433.682L458.758 222.848H510.19L462.292 173.824V170.775V170.775ZM277.462 222.848L295.468 204.865V121.75H339.322V222.826H277.462V222.848ZM754.009 197.463V121.75H692.149L710.155 139.734V222.826H835.179V197.441H754.009V197.463ZM680.705 144.727V121.75H523.203L541.209 139.734V222.826H680.705V200.026H585.064V183.28H674.761V161.275H585.064V144.705H680.705V144.727ZM221.522 173.515H163.638V147.135H221.522V173.515V173.515Z" stroke="url(#paint5_linear_404_2052)" stroke-width="4.41861" stroke-miterlimit="10"/>
<g filter="url(#filter5_dddi_404_2052)">
<path d="M1010.8 122.965L962.922 171.989V175.038L1010.8 224.063H959.387L934.311 195.121H931.24L906.01 224.063H854.577L901.348 175.038V171.989L854.577 122.965H906.01L931.24 151.907H934.311L959.387 122.965H1010.8Z" fill="url(#paint6_linear_404_2052)"/>
<path d="M1080.72 122.965V198.678H1161.89V224.063H1036.85V140.949L1018.84 122.965H1080.72Z" fill="url(#paint7_linear_404_2052)"/>
<path d="M1012.23 124.362L1014.79 121.743L1017.43 124.38L1034.85 141.778V224.063V226.063H1036.85H1161.89H1163.89V224.063V198.678V196.678H1161.89H1082.72V122.965V120.965H1080.72H1018.84H1015.55H1014.01H1010.8H959.387H958.473L957.875 121.655L933.398 149.907H932.15L907.517 121.651L906.92 120.965H906.01H854.577H849.905L853.13 124.345L899.348 172.79V174.237L853.13 222.682L849.905 226.063H854.577H906.01H906.92L907.517 225.377L932.15 197.121H933.398L957.875 225.372L958.473 226.063H959.387H1010.8H1015.55L1012.23 222.665L964.922 174.224V172.804L1012.23 124.362Z" stroke="url(#paint8_linear_404_2052)" stroke-width="4"/>
</g>
<path d="M863.558 130.785L856.488 124.557L905.639 123.378L925.838 146.607L907.827 130.785H863.558Z" fill="#FFD9D1"/>
<path d="M1001.16 130.785L1008.23 124.557L959.084 123.378L938.885 146.607L956.896 130.785H1001.16Z" fill="#FFD9D1"/>
<path d="M1079.25 124.035L1019.44 123.199L1036.81 139.908L1033.97 131.052L1037.98 130.05L1079.25 124.035Z" fill="#FFD9D1"/>
</g>
<path d="M25.9824 290.222L28.1204 212.651L32.3652 284.653L275.902 290.222H25.9824Z" fill="#FFA391"/>
<path d="M1191.64 28.0523V108.991L1186.33 33.2253L962.812 28.0523H1191.64Z" fill="#FFA391"/>
<defs>
<filter id="filter0_d_404_2052" x="0.923231" y="0.956923" width="1217.81" height="316.433" filterUnits="userSpaceOnUse" color-interpolation-filters="sRGB">
<feFlood flood-opacity="0" result="BackgroundImageFix"/>
<feColorMatrix in="SourceAlpha" type="matrix" values="0 0 0 0 0 0 0 0 0 0 0 0 0 0 0 0 0 0 127 0" result="hardAlpha"/>
<feOffset/>
<feGaussianBlur stdDeviation="13.5477"/>
<feComposite in2="hardAlpha" operator="out"/>
<feColorMatrix type="matrix" values="0 0 0 0 0.963889 0 0 0 0 0.169444 0 0 0 0 0.331188 0 0 0 1 0"/>
<feBlend mode="normal" in2="BackgroundImageFix" result="effect1_dropShadow_404_2052"/>
<feBlend mode="normal" in="SourceGraphic" in2="effect1_dropShadow_404_2052" result="shape"/>
</filter>
<filter id="filter1_f_404_2052" x="836.743" y="255.466" width="397.774" height="62.167" filterUnits="userSpaceOnUse" color-interpolation-filters="sRGB">
<feFlood flood-opacity="0" result="BackgroundImageFix"/>
<feBlend mode="normal" in="SourceGraphic" in2="BackgroundImageFix" result="shape"/>
<feGaussianBlur stdDeviation="12" result="effect1_foregroundBlur_404_2052"/>
</filter>
<filter id="filter2_f_404_2052" x="465.234" y="4.05225" width="745.746" height="54.3965" filterUnits="userSpaceOnUse" color-interpolation-filters="sRGB">
<feFlood flood-opacity="0" result="BackgroundImageFix"/>
<feBlend mode="normal" in="SourceGraphic" in2="BackgroundImageFix" result="shape"/>
<feGaussianBlur stdDeviation="12" result="effect1_foregroundBlur_404_2052"/>
</filter>
<filter id="filter3_d_404_2052" x="96.4312" y="51.292" width="1123.46" height="209.766" filterUnits="userSpaceOnUse" color-interpolation-filters="sRGB">
<feFlood flood-opacity="0" result="BackgroundImageFix"/>
<feColorMatrix in="SourceAlpha" type="matrix" values="0 0 0 0 0 0 0 0 0 0 0 0 0 0 0 0 0 0 127 0" result="hardAlpha"/>
<feOffset dx="34" dy="12"/>
<feGaussianBlur stdDeviation="12"/>
<feComposite in2="hardAlpha" operator="out"/>
<feColorMatrix type="matrix" values="0 0 0 0 0 0 0 0 0 0 0 0 0 0 0 0 0 0 0.77 0"/>
<feBlend mode="normal" in2="BackgroundImageFix" result="effect1_dropShadow_404_2052"/>
<feBlend mode="normal" in="SourceGraphic" in2="effect1_dropShadow_404_2052" result="shape"/>
</filter>
<filter id="filter4_dddi_404_2052" x="241.446" y="9.29199" width="168.687" height="150.927" filterUnits="userSpaceOnUse" color-interpolation-filters="sRGB">
<feFlood flood-opacity="0" result="BackgroundImageFix"/>
<feColorMatrix in="SourceAlpha" type="matrix" values="0 0 0 0 0 0 0 0 0 0 0 0 0 0 0 0 0 0 127 0" result="hardAlpha"/>
<feOffset/>
<feGaussianBlur stdDeviation="25"/>
<feComposite in2="hardAlpha" operator="out"/>
<feColorMatrix type="matrix" values="0 0 0 0 0 0 0 0 0 0 0 0 0 0 0 0 0 0 1 0"/>
<feBlend mode="normal" in2="BackgroundImageFix" result="effect1_dropShadow_404_2052"/>
<feColorMatrix in="SourceAlpha" type="matrix" values="0 0 0 0 0 0 0 0 0 0 0 0 0 0 0 0 0 0 127 0" result="hardAlpha"/>
<feOffset/>
<feGaussianBlur stdDeviation="6.20916"/>
<feComposite in2="hardAlpha" operator="out"/>
<feColorMatrix type="matrix" values="0 0 0 0 0.14 0 0 0 0 0 0 0 0 0 1 0 0 0 1 0"/>
<feBlend mode="normal" in2="effect1_dropShadow_404_2052" result="effect2_dropShadow_404_2052"/>
<feColorMatrix in="SourceAlpha" type="matrix" values="0 0 0 0 0 0 0 0 0 0 0 0 0 0 0 0 0 0 127 0" result="hardAlpha"/>
<feOffset/>
<feGaussianBlur stdDeviation="5"/>
<feComposite in2="hardAlpha" operator="out"/>
<feColorMatrix type="matrix" values="0 0 0 0 0 0 0 0 0 0 0 0 0 0 0 0 0 0 1 0"/>
<feBlend mode="normal" in2="effect2_dropShadow_404_2052" result="effect3_dropShadow_404_2052"/>
<feBlend mode="normal" in="SourceGraphic" in2="effect3_dropShadow_404_2052" result="shape"/>
<feColorMatrix in="SourceAlpha" type="matrix" values="0 0 0 0 0 0 0 0 0 0 0 0 0 0 0 0 0 0 127 0" result="hardAlpha"/>
<feOffset dy="4"/>
<feGaussianBlur stdDeviation="5"/>
<feComposite in2="hardAlpha" operator="arithmetic" k2="-1" k3="1"/>
<feColorMatrix type="matrix" values="0 0 0 0 1 0 0 0 0 0.822083 0 0 0 0 0.745833 0 0 0 0.43 0"/>
<feBlend mode="screen" in2="shape" result="effect4_innerShadow_404_2052"/>
</filter>
<filter id="filter5_dddi_404_2052" x="795.233" y="68.9648" width="420.659" height="209.098" filterUnits="userSpaceOnUse" color-interpolation-filters="sRGB">
<feFlood flood-opacity="0" result="BackgroundImageFix"/>
<feColorMatrix in="SourceAlpha" type="matrix" values="0 0 0 0 0 0 0 0 0 0 0 0 0 0 0 0 0 0 127 0" result="hardAlpha"/>
<feOffset/>
<feGaussianBlur stdDeviation="25"/>
<feComposite in2="hardAlpha" operator="out"/>
<feColorMatrix type="matrix" values="0 0 0 0 0 0 0 0 0 0 0 0 0 0 0 0 0 0 1 0"/>
<feBlend mode="normal" in2="BackgroundImageFix" result="effect1_dropShadow_404_2052"/>
<feColorMatrix in="SourceAlpha" type="matrix" values="0 0 0 0 0 0 0 0 0 0 0 0 0 0 0 0 0 0 127 0" result="hardAlpha"/>
<feOffset/>
<feGaussianBlur stdDeviation="6.20916"/>
<feComposite in2="hardAlpha" operator="out"/>
<feColorMatrix type="matrix" values="0 0 0 0 0.14 0 0 0 0 0 0 0 0 0 1 0 0 0 1 0"/>
<feBlend mode="normal" in2="effect1_dropShadow_404_2052" result="effect2_dropShadow_404_2052"/>
<feColorMatrix in="SourceAlpha" type="matrix" values="0 0 0 0 0 0 0 0 0 0 0 0 0 0 0 0 0 0 127 0" result="hardAlpha"/>
<feOffset/>
<feGaussianBlur stdDeviation="5"/>
<feComposite in2="hardAlpha" operator="out"/>
<feColorMatrix type="matrix" values="0 0 0 0 0 0 0 0 0 0 0 0 0 0 0 0 0 0 1 0"/>
<feBlend mode="normal" in2="effect2_dropShadow_404_2052" result="effect3_dropShadow_404_2052"/>
<feBlend mode="normal" in="SourceGraphic" in2="effect3_dropShadow_404_2052" result="shape"/>
<feColorMatrix in="SourceAlpha" type="matrix" values="0 0 0 0 0 0 0 0 0 0 0 0 0 0 0 0 0 0 127 0" result="hardAlpha"/>
<feOffset dy="4"/>
<feGaussianBlur stdDeviation="5"/>
<feComposite in2="hardAlpha" operator="arithmetic" k2="-1" k3="1"/>
<feColorMatrix type="matrix" values="0 0 0 0 1 0 0 0 0 0.822083 0 0 0 0 0.745833 0 0 0 0.43 0"/>
<feBlend mode="screen" in2="shape" result="effect4_innerShadow_404_2052"/>
</filter>
<radialGradient id="paint0_radial_404_2052" cx="0" cy="0" r="1" gradientUnits="userSpaceOnUse" gradientTransform="translate(610.566 164.172) rotate(90) scale(129.723 576.414)">
<stop stop-color="#4A0000" stop-opacity="0"/>
<stop offset="1"/>
</radialGradient>
<linearGradient id="paint1_linear_404_2052" x1="609.827" y1="28.0522" x2="609.827" y2="290.295" gradientUnits="userSpaceOnUse">
<stop stop-color="#F64F71"/>
<stop offset="1" stop-color="#F62B54"/>
</linearGradient>
<linearGradient id="paint2_linear_404_2052" x1="448.345" y1="197.976" x2="192.083" y2="-78.5783" gradientUnits="userSpaceOnUse">
<stop stop-color="#F64F71" stop-opacity="0"/>
<stop offset="1" stop-color="#3B2BF6"/>
</linearGradient>
<linearGradient id="paint3_linear_404_2052" x1="326.461" y1="72.5764" x2="326.437" y2="95.7549" gradientUnits="userSpaceOnUse">
<stop stop-color="#FF9F8C"/>
<stop offset="0.15625" stop-color="#FF6749"/>
<stop offset="0.427083" stop-color="#FF3E88"/>
<stop offset="0.8125" stop-color="#FF1393"/>
<stop offset="1" stop-color="#FF005C"/>
</linearGradient>
<linearGradient id="paint4_linear_404_2052" x1="326.352" y1="72.9374" x2="326.328" y2="95.6826" gradientUnits="userSpaceOnUse">
<stop stop-color="#8E0044"/>
<stop offset="1" stop-color="#170011"/>
</linearGradient>
<linearGradient id="paint5_linear_404_2052" x1="96.4311" y1="172.299" x2="837.389" y2="172.299" gradientUnits="userSpaceOnUse">
<stop stop-color="#FF7A7A"/>
<stop offset="0.48" stop-color="#FF6695"/>
<stop offset="1" stop-color="#FF4DB9"/>
</linearGradient>
<linearGradient id="paint6_linear_404_2052" x1="1008.65" y1="144.831" x2="1008.63" y2="199.419" gradientUnits="userSpaceOnUse">
<stop stop-color="#FF9F8C"/>
<stop offset="0.15625" stop-color="#FF6749"/>
<stop offset="0.427083" stop-color="#FF3E88"/>
<stop offset="0.8125" stop-color="#FF1393"/>
<stop offset="1" stop-color="#FF005C"/>
</linearGradient>
<linearGradient id="paint7_linear_404_2052" x1="1008.65" y1="144.831" x2="1008.63" y2="199.419" gradientUnits="userSpaceOnUse">
<stop stop-color="#FF9F8C"/>
<stop offset="0.15625" stop-color="#FF6749"/>
<stop offset="0.427083" stop-color="#FF3E88"/>
<stop offset="0.8125" stop-color="#FF1393"/>
<stop offset="1" stop-color="#FF005C"/>
</linearGradient>
<linearGradient id="paint8_linear_404_2052" x1="1008.11" y1="145.681" x2="1008.09" y2="199.249" gradientUnits="userSpaceOnUse">
<stop stop-color="#8E0044"/>
<stop offset="1" stop-color="#170011"/>
</linearGradient>
<clipPath id="clip0_404_2052">
<rect width="1065.46" height="161.766" fill="white" transform="translate(96.4312 63.292)"/>
</clipPath>
</defs>
</svg>
